G04 start of page 3 for group 1 idx 1 *
G04 Title: (unknown), bottom *
G04 Creator: pcb 4.0.2 *
G04 CreationDate: Fri Mar 17 03:13:06 2023 UTC *
G04 For: railfan *
G04 Format: Gerber/RS-274X *
G04 PCB-Dimensions (mil): 4900.00 1150.00 *
G04 PCB-Coordinate-Origin: lower left *
%MOIN*%
%FSLAX25Y25*%
%LNBOTTOM*%
%ADD21C,0.0130*%
%ADD20C,0.0270*%
%ADD19C,0.0001*%
%ADD18C,0.0394*%
%ADD17C,0.0250*%
G54D17*X160000Y56000D02*Y52900D01*
X161000Y57000D02*X160000Y56000D01*
X165500Y57000D02*X161000D01*
X155000Y56500D02*Y52900D01*
X154000Y57500D02*X155000Y56500D01*
X150000Y57500D02*X154000D01*
X150000Y64500D02*X151500Y66000D01*
X150000Y62100D02*Y64500D01*
X165000Y50500D02*Y52900D01*
X163500Y49000D02*X165000Y50500D01*
X150000D02*Y52900D01*
X151500Y49000D02*X150000Y50500D01*
X195000Y56000D02*Y52900D01*
X196000Y57000D02*X195000Y56000D01*
X200500Y57000D02*X196000D01*
X200000Y50500D02*Y52900D01*
X198500Y49000D02*X200000Y50500D01*
X190000Y56500D02*Y52900D01*
X189000Y57500D02*X190000Y56500D01*
X185000Y57500D02*X189000D01*
X185000Y64500D02*X186500Y66000D01*
X185000Y62100D02*Y64500D01*
Y50500D02*Y52900D01*
X186500Y49000D02*X185000Y50500D01*
X230000Y56000D02*Y52900D01*
X231000Y57000D02*X230000Y56000D01*
X235500Y57000D02*X231000D01*
X225000Y56500D02*Y52900D01*
X224000Y57500D02*X225000Y56500D01*
X220000Y57500D02*X224000D01*
X220000Y64500D02*X221500Y66000D01*
X220000Y62100D02*Y64500D01*
X235000Y50500D02*Y52900D01*
X233500Y49000D02*X235000Y50500D01*
X220000D02*Y52900D01*
X221500Y49000D02*X220000Y50500D01*
X90000Y56000D02*Y52900D01*
X91000Y57000D02*X90000Y56000D01*
X95500Y57000D02*X91000D01*
X85000Y56500D02*Y52900D01*
X84000Y57500D02*X85000Y56500D01*
X80000Y57500D02*X84000D01*
X80000Y64500D02*X81500Y66000D01*
X80000Y62100D02*Y64500D01*
Y50500D02*Y52900D01*
X81500Y49000D02*X80000Y50500D01*
X95000D02*Y52900D01*
X93500Y49000D02*X95000Y50500D01*
X50000Y56500D02*Y52900D01*
X49000Y57500D02*X50000Y56500D01*
X45000Y57500D02*X49000D01*
X45000Y64500D02*X46500Y66000D01*
X45000Y62100D02*Y64500D01*
X55000Y56000D02*Y52900D01*
X56000Y57000D02*X55000Y56000D01*
X60500Y57000D02*X56000D01*
X60000Y50500D02*Y52900D01*
X58500Y49000D02*X60000Y50500D01*
X45000D02*Y52900D01*
X46500Y49000D02*X45000Y50500D01*
X55000Y91000D02*Y87900D01*
X56000Y92000D02*X55000Y91000D01*
X60500Y92000D02*X56000D01*
X50000Y91500D02*Y87900D01*
X49000Y92500D02*X50000Y91500D01*
X45000Y92500D02*X49000D01*
X45000Y99500D02*X46500Y101000D01*
X45000Y97100D02*Y99500D01*
Y85500D02*Y87900D01*
X46500Y84000D02*X45000Y85500D01*
X60000D02*Y87900D01*
X58500Y84000D02*X60000Y85500D01*
X90000Y91000D02*Y87900D01*
X91000Y92000D02*X90000Y91000D01*
X95500Y92000D02*X91000D01*
X85000Y91500D02*Y87900D01*
X84000Y92500D02*X85000Y91500D01*
X80000Y92500D02*X84000D01*
X80000Y99500D02*X81500Y101000D01*
X80000Y97100D02*Y99500D01*
X95000Y85500D02*Y87900D01*
X93500Y84000D02*X95000Y85500D01*
X80000D02*Y87900D01*
X81500Y84000D02*X80000Y85500D01*
X55000Y21000D02*Y17900D01*
X56000Y22000D02*X55000Y21000D01*
X60500Y22000D02*X56000D01*
X50000Y21500D02*Y17900D01*
X49000Y22500D02*X50000Y21500D01*
X45000Y22500D02*X49000D01*
X45000Y29500D02*X46500Y31000D01*
X45000Y27100D02*Y29500D01*
X60000Y15500D02*Y17900D01*
X58500Y14000D02*X60000Y15500D01*
X45000D02*Y17900D01*
X46500Y14000D02*X45000Y15500D01*
X90000Y21000D02*Y17900D01*
X91000Y22000D02*X90000Y21000D01*
X95500Y22000D02*X91000D01*
X85000Y21500D02*Y17900D01*
X84000Y22500D02*X85000Y21500D01*
X80000Y22500D02*X84000D01*
X80000Y29500D02*X81500Y31000D01*
X80000Y27100D02*Y29500D01*
Y15500D02*Y17900D01*
X81500Y14000D02*X80000Y15500D01*
X95000D02*Y17900D01*
X93500Y14000D02*X95000Y15500D01*
X125000Y56000D02*Y52900D01*
X126000Y57000D02*X125000Y56000D01*
X130500Y57000D02*X126000D01*
X130000Y50500D02*Y52900D01*
X128500Y49000D02*X130000Y50500D01*
X120000Y56500D02*Y52900D01*
X119000Y57500D02*X120000Y56500D01*
X115000Y57500D02*X119000D01*
X115000Y64500D02*X116500Y66000D01*
X115000Y62100D02*Y64500D01*
Y50500D02*Y52900D01*
X116500Y49000D02*X115000Y50500D01*
X125000Y91000D02*Y87900D01*
X126000Y92000D02*X125000Y91000D01*
X130000Y85500D02*Y87900D01*
X128500Y84000D02*X130000Y85500D01*
X130500Y92000D02*X126000D01*
X120000Y91500D02*Y87900D01*
X119000Y92500D02*X120000Y91500D01*
X115000Y92500D02*X119000D01*
X115000Y85500D02*Y87900D01*
X116500Y84000D02*X115000Y85500D01*
Y99500D02*X116500Y101000D01*
X115000Y97100D02*Y99500D01*
X160000Y91000D02*Y87900D01*
X161000Y92000D02*X160000Y91000D01*
X165500Y92000D02*X161000D01*
X155000Y91500D02*Y87900D01*
X154000Y92500D02*X155000Y91500D01*
X150000Y92500D02*X154000D01*
X150000Y99500D02*X151500Y101000D01*
X150000Y97100D02*Y99500D01*
X165000Y85500D02*Y87900D01*
X163500Y84000D02*X165000Y85500D01*
X150000D02*Y87900D01*
X151500Y84000D02*X150000Y85500D01*
X125000Y21000D02*Y17900D01*
X126000Y22000D02*X125000Y21000D01*
X130000Y15500D02*Y17900D01*
X128500Y14000D02*X130000Y15500D01*
X130500Y22000D02*X126000D01*
X120000Y21500D02*Y17900D01*
X119000Y22500D02*X120000Y21500D01*
X115000Y22500D02*X119000D01*
X115000Y15500D02*Y17900D01*
X116500Y14000D02*X115000Y15500D01*
Y29500D02*X116500Y31000D01*
X115000Y27100D02*Y29500D01*
X160000Y21000D02*Y17900D01*
X161000Y22000D02*X160000Y21000D01*
X165500Y22000D02*X161000D01*
X155000Y21500D02*Y17900D01*
X154000Y22500D02*X155000Y21500D01*
X150000Y22500D02*X154000D01*
X150000Y29500D02*X151500Y31000D01*
X150000Y27100D02*Y29500D01*
X165000Y15500D02*Y17900D01*
X163500Y14000D02*X165000Y15500D01*
X150000D02*Y17900D01*
X151500Y14000D02*X150000Y15500D01*
X195000Y21000D02*Y17900D01*
X196000Y22000D02*X195000Y21000D01*
X200500Y22000D02*X196000D01*
X200000Y15500D02*Y17900D01*
X198500Y14000D02*X200000Y15500D01*
X190000Y21500D02*Y17900D01*
X189000Y22500D02*X190000Y21500D01*
X185000Y22500D02*X189000D01*
X185000Y29500D02*X186500Y31000D01*
X185000Y27100D02*Y29500D01*
Y15500D02*Y17900D01*
X186500Y14000D02*X185000Y15500D01*
X230000Y21000D02*Y17900D01*
X231000Y22000D02*X230000Y21000D01*
X235500Y22000D02*X231000D01*
X225000Y21500D02*Y17900D01*
X224000Y22500D02*X225000Y21500D01*
X220000Y22500D02*X224000D01*
X220000Y29500D02*X221500Y31000D01*
X220000Y27100D02*Y29500D01*
X235000Y15500D02*Y17900D01*
X233500Y14000D02*X235000Y15500D01*
X220000D02*Y17900D01*
X221500Y14000D02*X220000Y15500D01*
X265000Y21000D02*Y17900D01*
X266000Y22000D02*X265000Y21000D01*
X270500Y22000D02*X266000D01*
X270000Y15500D02*Y17900D01*
X268500Y14000D02*X270000Y15500D01*
X260000Y21500D02*Y17900D01*
X259000Y22500D02*X260000Y21500D01*
X255000Y22500D02*X259000D01*
X255000Y29500D02*X256500Y31000D01*
X255000Y27100D02*Y29500D01*
Y15500D02*Y17900D01*
X256500Y14000D02*X255000Y15500D01*
X300000Y21000D02*Y17900D01*
X301000Y22000D02*X300000Y21000D01*
X305500Y22000D02*X301000D01*
X295000Y21500D02*Y17900D01*
X294000Y22500D02*X295000Y21500D01*
X290000Y22500D02*X294000D01*
X290000Y29500D02*X291500Y31000D01*
X290000Y27100D02*Y29500D01*
X305000Y15500D02*Y17900D01*
X303500Y14000D02*X305000Y15500D01*
X290000D02*Y17900D01*
X291500Y14000D02*X290000Y15500D01*
X335000Y21000D02*Y17900D01*
X336000Y22000D02*X335000Y21000D01*
X340500Y22000D02*X336000D01*
X340000Y15500D02*Y17900D01*
X338500Y14000D02*X340000Y15500D01*
X330000Y21500D02*Y17900D01*
X329000Y22500D02*X330000Y21500D01*
X325000Y22500D02*X329000D01*
X325000Y29500D02*X326500Y31000D01*
X325000Y27100D02*Y29500D01*
Y15500D02*Y17900D01*
X326500Y14000D02*X325000Y15500D01*
X370000Y21000D02*Y17900D01*
X371000Y22000D02*X370000Y21000D01*
X375500Y22000D02*X371000D01*
X365000Y21500D02*Y17900D01*
X364000Y22500D02*X365000Y21500D01*
X360000Y22500D02*X364000D01*
X360000Y29500D02*X361500Y31000D01*
X360000Y27100D02*Y29500D01*
X375000Y15500D02*Y17900D01*
X373500Y14000D02*X375000Y15500D01*
X360000D02*Y17900D01*
X361500Y14000D02*X360000Y15500D01*
X405000Y21000D02*Y17900D01*
X406000Y22000D02*X405000Y21000D01*
X410500Y22000D02*X406000D01*
X410000Y15500D02*Y17900D01*
X408500Y14000D02*X410000Y15500D01*
X400000Y21500D02*Y17900D01*
X399000Y22500D02*X400000Y21500D01*
X395000Y22500D02*X399000D01*
X395000Y29500D02*X396500Y31000D01*
X395000Y27100D02*Y29500D01*
Y15500D02*Y17900D01*
X396500Y14000D02*X395000Y15500D01*
X440000Y21000D02*Y17900D01*
X441000Y22000D02*X440000Y21000D01*
X445500Y22000D02*X441000D01*
X435000Y21500D02*Y17900D01*
X434000Y22500D02*X435000Y21500D01*
X430000Y22500D02*X434000D01*
X430000Y29500D02*X431500Y31000D01*
X430000Y27100D02*Y29500D01*
X445000Y15500D02*Y17900D01*
X443500Y14000D02*X445000Y15500D01*
X430000D02*Y17900D01*
X431500Y14000D02*X430000Y15500D01*
X265000Y56000D02*Y52900D01*
X266000Y57000D02*X265000Y56000D01*
X270500Y57000D02*X266000D01*
X270000Y50500D02*Y52900D01*
X268500Y49000D02*X270000Y50500D01*
X260000Y56500D02*Y52900D01*
X259000Y57500D02*X260000Y56500D01*
X255000Y57500D02*X259000D01*
X255000Y64500D02*X256500Y66000D01*
X255000Y62100D02*Y64500D01*
Y50500D02*Y52900D01*
X256500Y49000D02*X255000Y50500D01*
X300000Y56000D02*Y52900D01*
X301000Y57000D02*X300000Y56000D01*
X305500Y57000D02*X301000D01*
X295000Y56500D02*Y52900D01*
X294000Y57500D02*X295000Y56500D01*
X290000Y57500D02*X294000D01*
X290000Y64500D02*X291500Y66000D01*
X290000Y62100D02*Y64500D01*
X305000Y50500D02*Y52900D01*
X303500Y49000D02*X305000Y50500D01*
X290000D02*Y52900D01*
X291500Y49000D02*X290000Y50500D01*
X335000Y56000D02*Y52900D01*
X336000Y57000D02*X335000Y56000D01*
X340500Y57000D02*X336000D01*
X340000Y50500D02*Y52900D01*
X338500Y49000D02*X340000Y50500D01*
X330000Y56500D02*Y52900D01*
X329000Y57500D02*X330000Y56500D01*
X325000Y57500D02*X329000D01*
X325000Y64500D02*X326500Y66000D01*
X325000Y62100D02*Y64500D01*
Y50500D02*Y52900D01*
X326500Y49000D02*X325000Y50500D01*
X370000Y56000D02*Y52900D01*
X371000Y57000D02*X370000Y56000D01*
X375500Y57000D02*X371000D01*
X365000Y56500D02*Y52900D01*
X364000Y57500D02*X365000Y56500D01*
X360000Y57500D02*X364000D01*
X360000Y64500D02*X361500Y66000D01*
X360000Y62100D02*Y64500D01*
X375000Y50500D02*Y52900D01*
X373500Y49000D02*X375000Y50500D01*
X360000D02*Y52900D01*
X361500Y49000D02*X360000Y50500D01*
X405000Y56000D02*Y52900D01*
X406000Y57000D02*X405000Y56000D01*
X410500Y57000D02*X406000D01*
X410000Y50500D02*Y52900D01*
X408500Y49000D02*X410000Y50500D01*
X400000Y56500D02*Y52900D01*
X399000Y57500D02*X400000Y56500D01*
X395000Y57500D02*X399000D01*
X395000Y64500D02*X396500Y66000D01*
X395000Y62100D02*Y64500D01*
Y50500D02*Y52900D01*
X396500Y49000D02*X395000Y50500D01*
X440000Y56000D02*Y52900D01*
X441000Y57000D02*X440000Y56000D01*
X445500Y57000D02*X441000D01*
X435000Y56500D02*Y52900D01*
X434000Y57500D02*X435000Y56500D01*
X430000Y57500D02*X434000D01*
X430000Y64500D02*X431500Y66000D01*
X430000Y62100D02*Y64500D01*
X445000Y50500D02*Y52900D01*
X443500Y49000D02*X445000Y50500D01*
X430000D02*Y52900D01*
X431500Y49000D02*X430000Y50500D01*
X195000Y91000D02*Y87900D01*
X196000Y92000D02*X195000Y91000D01*
X200500Y92000D02*X196000D01*
X200000Y85500D02*Y87900D01*
X198500Y84000D02*X200000Y85500D01*
X190000Y91500D02*Y87900D01*
X189000Y92500D02*X190000Y91500D01*
X185000Y92500D02*X189000D01*
X185000Y99500D02*X186500Y101000D01*
X185000Y97100D02*Y99500D01*
Y85500D02*Y87900D01*
X186500Y84000D02*X185000Y85500D01*
X230000Y91000D02*Y87900D01*
X231000Y92000D02*X230000Y91000D01*
X235500Y92000D02*X231000D01*
X225000Y91500D02*Y87900D01*
X224000Y92500D02*X225000Y91500D01*
X220000Y92500D02*X224000D01*
X220000Y99500D02*X221500Y101000D01*
X220000Y97100D02*Y99500D01*
X235000Y85500D02*Y87900D01*
X233500Y84000D02*X235000Y85500D01*
X220000D02*Y87900D01*
X221500Y84000D02*X220000Y85500D01*
X265000Y91000D02*Y87900D01*
X266000Y92000D02*X265000Y91000D01*
X270500Y92000D02*X266000D01*
X270000Y85500D02*Y87900D01*
X268500Y84000D02*X270000Y85500D01*
X260000Y91500D02*Y87900D01*
X259000Y92500D02*X260000Y91500D01*
X255000Y92500D02*X259000D01*
X255000Y99500D02*X256500Y101000D01*
X255000Y97100D02*Y99500D01*
Y85500D02*Y87900D01*
X256500Y84000D02*X255000Y85500D01*
X300000Y91000D02*Y87900D01*
X301000Y92000D02*X300000Y91000D01*
X305500Y92000D02*X301000D01*
X295000Y91500D02*Y87900D01*
X294000Y92500D02*X295000Y91500D01*
X290000Y92500D02*X294000D01*
X290000Y99500D02*X291500Y101000D01*
X290000Y97100D02*Y99500D01*
X305000Y85500D02*Y87900D01*
X303500Y84000D02*X305000Y85500D01*
X290000D02*Y87900D01*
X291500Y84000D02*X290000Y85500D01*
X335000Y91000D02*Y87900D01*
X336000Y92000D02*X335000Y91000D01*
X340500Y92000D02*X336000D01*
X340000Y85500D02*Y87900D01*
X338500Y84000D02*X340000Y85500D01*
X330000Y91500D02*Y87900D01*
X329000Y92500D02*X330000Y91500D01*
X325000Y92500D02*X329000D01*
X325000Y99500D02*X326500Y101000D01*
X325000Y97100D02*Y99500D01*
Y85500D02*Y87900D01*
X326500Y84000D02*X325000Y85500D01*
X370000Y91000D02*Y87900D01*
X371000Y92000D02*X370000Y91000D01*
X375500Y92000D02*X371000D01*
X365000Y91500D02*Y87900D01*
X364000Y92500D02*X365000Y91500D01*
X360000Y92500D02*X364000D01*
X360000Y99500D02*X361500Y101000D01*
X360000Y97100D02*Y99500D01*
X375000Y85500D02*Y87900D01*
X373500Y84000D02*X375000Y85500D01*
X360000D02*Y87900D01*
X361500Y84000D02*X360000Y85500D01*
X405000Y91000D02*Y87900D01*
X406000Y92000D02*X405000Y91000D01*
X410500Y92000D02*X406000D01*
X410000Y85500D02*Y87900D01*
X408500Y84000D02*X410000Y85500D01*
X400000Y91500D02*Y87900D01*
X399000Y92500D02*X400000Y91500D01*
X395000Y92500D02*X399000D01*
X395000Y99500D02*X396500Y101000D01*
X395000Y97100D02*Y99500D01*
Y85500D02*Y87900D01*
X396500Y84000D02*X395000Y85500D01*
X440000Y91000D02*Y87900D01*
X441000Y92000D02*X440000Y91000D01*
X445500Y92000D02*X441000D01*
X435000Y91500D02*Y87900D01*
X434000Y92500D02*X435000Y91500D01*
X430000Y92500D02*X434000D01*
X430000Y99500D02*X431500Y101000D01*
X430000Y97100D02*Y99500D01*
X445000Y85500D02*Y87900D01*
X443500Y84000D02*X445000Y85500D01*
X430000D02*Y87900D01*
X431500Y84000D02*X430000Y85500D01*
G54D18*X16000Y99000D03*
X466000Y22500D03*
Y92500D03*
G54D19*G36*
X121418Y64117D02*X118582D01*
Y60083D01*
X121418D01*
Y64117D01*
G37*
G36*
X126418Y54917D02*X123582D01*
Y50882D01*
X126418D01*
Y54917D01*
G37*
G36*
X121418D02*X118582D01*
Y50882D01*
X121418D01*
Y54917D01*
G37*
G36*
X116418D02*X113582D01*
Y50882D01*
X116418D01*
Y54917D01*
G37*
G36*
Y64117D02*X113582D01*
Y60083D01*
X116418D01*
Y64117D01*
G37*
G36*
X126418D02*X123582D01*
Y60083D01*
X126418D01*
Y64117D01*
G37*
G36*
X131418D02*X128582D01*
Y60083D01*
X131418D01*
Y64117D01*
G37*
G36*
Y54917D02*X128582D01*
Y50882D01*
X131418D01*
Y54917D01*
G37*
G36*
X116418Y19918D02*X113582D01*
Y15882D01*
X116418D01*
Y19918D01*
G37*
G36*
X121418D02*X118582D01*
Y15882D01*
X121418D01*
Y19918D01*
G37*
G36*
X126418D02*X123582D01*
Y15882D01*
X126418D01*
Y19918D01*
G37*
G36*
X116418Y29118D02*X113582D01*
Y25082D01*
X116418D01*
Y29118D01*
G37*
G36*
X121418D02*X118582D01*
Y25082D01*
X121418D01*
Y29118D01*
G37*
G36*
X126418D02*X123582D01*
Y25082D01*
X126418D01*
Y29118D01*
G37*
G36*
X131418D02*X128582D01*
Y25082D01*
X131418D01*
Y29118D01*
G37*
G36*
X56417Y54917D02*X53583D01*
Y50882D01*
X56417D01*
Y54917D01*
G37*
G36*
Y64117D02*X53583D01*
Y60083D01*
X56417D01*
Y64117D01*
G37*
G36*
X46418Y54917D02*X43582D01*
Y50882D01*
X46418D01*
Y54917D01*
G37*
G36*
Y64117D02*X43582D01*
Y60083D01*
X46418D01*
Y64117D01*
G37*
G36*
X51417D02*X48582D01*
Y60083D01*
X51417D01*
Y64117D01*
G37*
G36*
X61417Y54917D02*X58583D01*
Y50882D01*
X61417D01*
Y54917D01*
G37*
G36*
Y64117D02*X58583D01*
Y60083D01*
X61417D01*
Y64117D01*
G37*
G36*
X51417Y54917D02*X48582D01*
Y50882D01*
X51417D01*
Y54917D01*
G37*
G36*
X46418Y89918D02*X43582D01*
Y85882D01*
X46418D01*
Y89918D01*
G37*
G36*
X51417D02*X48582D01*
Y85882D01*
X51417D01*
Y89918D01*
G37*
G36*
X56417D02*X53583D01*
Y85882D01*
X56417D01*
Y89918D01*
G37*
G36*
X46418Y99118D02*X43582D01*
Y95082D01*
X46418D01*
Y99118D01*
G37*
G36*
X51417D02*X48582D01*
Y95082D01*
X51417D01*
Y99118D01*
G37*
G36*
X56417D02*X53583D01*
Y95082D01*
X56417D01*
Y99118D01*
G37*
G36*
X61417D02*X58583D01*
Y95082D01*
X61417D01*
Y99118D01*
G37*
G36*
X46418Y19918D02*X43582D01*
Y15882D01*
X46418D01*
Y19918D01*
G37*
G36*
X51417D02*X48582D01*
Y15882D01*
X51417D01*
Y19918D01*
G37*
G36*
X56417D02*X53583D01*
Y15882D01*
X56417D01*
Y19918D01*
G37*
G36*
X61417D02*X58583D01*
Y15882D01*
X61417D01*
Y19918D01*
G37*
G36*
X46418Y29118D02*X43582D01*
Y25082D01*
X46418D01*
Y29118D01*
G37*
G36*
X51417D02*X48582D01*
Y25082D01*
X51417D01*
Y29118D01*
G37*
G36*
X56417D02*X53583D01*
Y25082D01*
X56417D01*
Y29118D01*
G37*
G36*
X61417D02*X58583D01*
Y25082D01*
X61417D01*
Y29118D01*
G37*
G36*
X86418Y64117D02*X83582D01*
Y60083D01*
X86418D01*
Y64117D01*
G37*
G36*
X91418Y54917D02*X88582D01*
Y50882D01*
X91418D01*
Y54917D01*
G37*
G36*
X86418D02*X83582D01*
Y50882D01*
X86418D01*
Y54917D01*
G37*
G36*
X81418D02*X78582D01*
Y50882D01*
X81418D01*
Y54917D01*
G37*
G36*
Y64117D02*X78582D01*
Y60083D01*
X81418D01*
Y64117D01*
G37*
G36*
X91418D02*X88582D01*
Y60083D01*
X91418D01*
Y64117D01*
G37*
G36*
X96418D02*X93582D01*
Y60083D01*
X96418D01*
Y64117D01*
G37*
G36*
Y54917D02*X93582D01*
Y50882D01*
X96418D01*
Y54917D01*
G37*
G36*
X61417Y89918D02*X58583D01*
Y85882D01*
X61417D01*
Y89918D01*
G37*
G36*
X86418Y99118D02*X83582D01*
Y95082D01*
X86418D01*
Y99118D01*
G37*
G36*
X91418D02*X88582D01*
Y95082D01*
X91418D01*
Y99118D01*
G37*
G36*
X96418D02*X93582D01*
Y95082D01*
X96418D01*
Y99118D01*
G37*
G36*
X81418D02*X78582D01*
Y95082D01*
X81418D01*
Y99118D01*
G37*
G36*
X91418Y89918D02*X88582D01*
Y85882D01*
X91418D01*
Y89918D01*
G37*
G36*
X86418D02*X83582D01*
Y85882D01*
X86418D01*
Y89918D01*
G37*
G36*
X81418D02*X78582D01*
Y85882D01*
X81418D01*
Y89918D01*
G37*
G36*
X96418D02*X93582D01*
Y85882D01*
X96418D01*
Y89918D01*
G37*
G36*
X81418Y19918D02*X78582D01*
Y15882D01*
X81418D01*
Y19918D01*
G37*
G36*
X86418D02*X83582D01*
Y15882D01*
X86418D01*
Y19918D01*
G37*
G36*
X91418D02*X88582D01*
Y15882D01*
X91418D01*
Y19918D01*
G37*
G36*
X96418D02*X93582D01*
Y15882D01*
X96418D01*
Y19918D01*
G37*
G36*
X81418Y29118D02*X78582D01*
Y25082D01*
X81418D01*
Y29118D01*
G37*
G36*
X86418D02*X83582D01*
Y25082D01*
X86418D01*
Y29118D01*
G37*
G36*
X91418D02*X88582D01*
Y25082D01*
X91418D01*
Y29118D01*
G37*
G36*
X96418D02*X93582D01*
Y25082D01*
X96418D01*
Y29118D01*
G37*
G36*
X131418Y89918D02*X128582D01*
Y85882D01*
X131418D01*
Y89918D01*
G37*
G36*
Y99118D02*X128582D01*
Y95082D01*
X131418D01*
Y99118D01*
G37*
G36*
X126418Y89918D02*X123582D01*
Y85882D01*
X126418D01*
Y89918D01*
G37*
G36*
X121418D02*X118582D01*
Y85882D01*
X121418D01*
Y89918D01*
G37*
G36*
X116418D02*X113582D01*
Y85882D01*
X116418D01*
Y89918D01*
G37*
G36*
Y99118D02*X113582D01*
Y95082D01*
X116418D01*
Y99118D01*
G37*
G36*
X121418D02*X118582D01*
Y95082D01*
X121418D01*
Y99118D01*
G37*
G36*
X126418D02*X123582D01*
Y95082D01*
X126418D01*
Y99118D01*
G37*
G36*
X151418Y89918D02*X148582D01*
Y85882D01*
X151418D01*
Y89918D01*
G37*
G36*
X161418Y99118D02*X158582D01*
Y95082D01*
X161418D01*
Y99118D01*
G37*
G36*
X151418D02*X148582D01*
Y95082D01*
X151418D01*
Y99118D01*
G37*
G36*
X156418D02*X153582D01*
Y95082D01*
X156418D01*
Y99118D01*
G37*
G36*
X166418Y89918D02*X163582D01*
Y85882D01*
X166418D01*
Y89918D01*
G37*
G36*
Y99118D02*X163582D01*
Y95082D01*
X166418D01*
Y99118D01*
G37*
G36*
X156418Y89918D02*X153582D01*
Y85882D01*
X156418D01*
Y89918D01*
G37*
G36*
X161418D02*X158582D01*
Y85882D01*
X161418D01*
Y89918D01*
G37*
G36*
X156418Y64117D02*X153582D01*
Y60083D01*
X156418D01*
Y64117D01*
G37*
G36*
X161418Y54917D02*X158582D01*
Y50882D01*
X161418D01*
Y54917D01*
G37*
G36*
X156418D02*X153582D01*
Y50882D01*
X156418D01*
Y54917D01*
G37*
G36*
X151418D02*X148582D01*
Y50882D01*
X151418D01*
Y54917D01*
G37*
G36*
Y64117D02*X148582D01*
Y60083D01*
X151418D01*
Y64117D01*
G37*
G36*
X161418D02*X158582D01*
Y60083D01*
X161418D01*
Y64117D01*
G37*
G36*
X166418D02*X163582D01*
Y60083D01*
X166418D01*
Y64117D01*
G37*
G36*
Y54917D02*X163582D01*
Y50882D01*
X166418D01*
Y54917D01*
G37*
G36*
X131418Y19918D02*X128582D01*
Y15882D01*
X131418D01*
Y19918D01*
G37*
G36*
X156418Y29118D02*X153582D01*
Y25082D01*
X156418D01*
Y29118D01*
G37*
G36*
X161418D02*X158582D01*
Y25082D01*
X161418D01*
Y29118D01*
G37*
G36*
X166418D02*X163582D01*
Y25082D01*
X166418D01*
Y29118D01*
G37*
G36*
X151418D02*X148582D01*
Y25082D01*
X151418D01*
Y29118D01*
G37*
G36*
X161418Y19918D02*X158582D01*
Y15882D01*
X161418D01*
Y19918D01*
G37*
G36*
X156418D02*X153582D01*
Y15882D01*
X156418D01*
Y19918D01*
G37*
G36*
X151418D02*X148582D01*
Y15882D01*
X151418D01*
Y19918D01*
G37*
G36*
X166418D02*X163582D01*
Y15882D01*
X166418D01*
Y19918D01*
G37*
G36*
X191418Y64117D02*X188582D01*
Y60083D01*
X191418D01*
Y64117D01*
G37*
G36*
X196418Y54917D02*X193582D01*
Y50882D01*
X196418D01*
Y54917D01*
G37*
G36*
X191418D02*X188582D01*
Y50882D01*
X191418D01*
Y54917D01*
G37*
G36*
X186418D02*X183582D01*
Y50882D01*
X186418D01*
Y54917D01*
G37*
G36*
Y64117D02*X183582D01*
Y60083D01*
X186418D01*
Y64117D01*
G37*
G36*
X196418D02*X193582D01*
Y60083D01*
X196418D01*
Y64117D01*
G37*
G36*
X201418D02*X198582D01*
Y60083D01*
X201418D01*
Y64117D01*
G37*
G36*
Y54917D02*X198582D01*
Y50882D01*
X201418D01*
Y54917D01*
G37*
G36*
X226418Y64117D02*X223582D01*
Y60083D01*
X226418D01*
Y64117D01*
G37*
G36*
X231418Y54917D02*X228582D01*
Y50882D01*
X231418D01*
Y54917D01*
G37*
G36*
X226418D02*X223582D01*
Y50882D01*
X226418D01*
Y54917D01*
G37*
G36*
X221418D02*X218582D01*
Y50882D01*
X221418D01*
Y54917D01*
G37*
G36*
Y64117D02*X218582D01*
Y60083D01*
X221418D01*
Y64117D01*
G37*
G36*
X231418D02*X228582D01*
Y60083D01*
X231418D01*
Y64117D01*
G37*
G36*
X236418D02*X233582D01*
Y60083D01*
X236418D01*
Y64117D01*
G37*
G36*
Y54917D02*X233582D01*
Y50882D01*
X236418D01*
Y54917D01*
G37*
G36*
X261418Y64117D02*X258582D01*
Y60083D01*
X261418D01*
Y64117D01*
G37*
G36*
X266418Y54917D02*X263582D01*
Y50882D01*
X266418D01*
Y54917D01*
G37*
G36*
X261418D02*X258582D01*
Y50882D01*
X261418D01*
Y54917D01*
G37*
G36*
X256418D02*X253582D01*
Y50882D01*
X256418D01*
Y54917D01*
G37*
G36*
Y64117D02*X253582D01*
Y60083D01*
X256418D01*
Y64117D01*
G37*
G36*
X266418D02*X263582D01*
Y60083D01*
X266418D01*
Y64117D01*
G37*
G36*
X271418D02*X268582D01*
Y60083D01*
X271418D01*
Y64117D01*
G37*
G36*
Y54917D02*X268582D01*
Y50882D01*
X271418D01*
Y54917D01*
G37*
G36*
X296418Y64117D02*X293582D01*
Y60083D01*
X296418D01*
Y64117D01*
G37*
G36*
X301418Y54917D02*X298582D01*
Y50882D01*
X301418D01*
Y54917D01*
G37*
G36*
X296418D02*X293582D01*
Y50882D01*
X296418D01*
Y54917D01*
G37*
G36*
X291418D02*X288582D01*
Y50882D01*
X291418D01*
Y54917D01*
G37*
G36*
Y64117D02*X288582D01*
Y60083D01*
X291418D01*
Y64117D01*
G37*
G36*
X301418D02*X298582D01*
Y60083D01*
X301418D01*
Y64117D01*
G37*
G36*
X306418D02*X303582D01*
Y60083D01*
X306418D01*
Y64117D01*
G37*
G36*
Y54917D02*X303582D01*
Y50882D01*
X306418D01*
Y54917D01*
G37*
G36*
X331418Y64117D02*X328582D01*
Y60083D01*
X331418D01*
Y64117D01*
G37*
G36*
X336418Y54917D02*X333582D01*
Y50882D01*
X336418D01*
Y54917D01*
G37*
G36*
X331418D02*X328582D01*
Y50882D01*
X331418D01*
Y54917D01*
G37*
G36*
X326418D02*X323582D01*
Y50882D01*
X326418D01*
Y54917D01*
G37*
G36*
Y64117D02*X323582D01*
Y60083D01*
X326418D01*
Y64117D01*
G37*
G36*
X336418D02*X333582D01*
Y60083D01*
X336418D01*
Y64117D01*
G37*
G36*
X341418D02*X338582D01*
Y60083D01*
X341418D01*
Y64117D01*
G37*
G36*
Y54917D02*X338582D01*
Y50882D01*
X341418D01*
Y54917D01*
G37*
G36*
X366418Y64117D02*X363582D01*
Y60083D01*
X366418D01*
Y64117D01*
G37*
G36*
X371418Y54917D02*X368582D01*
Y50882D01*
X371418D01*
Y54917D01*
G37*
G36*
X366418D02*X363582D01*
Y50882D01*
X366418D01*
Y54917D01*
G37*
G36*
X361418D02*X358582D01*
Y50882D01*
X361418D01*
Y54917D01*
G37*
G36*
Y64117D02*X358582D01*
Y60083D01*
X361418D01*
Y64117D01*
G37*
G36*
X371418D02*X368582D01*
Y60083D01*
X371418D01*
Y64117D01*
G37*
G36*
X376418D02*X373582D01*
Y60083D01*
X376418D01*
Y64117D01*
G37*
G36*
Y54917D02*X373582D01*
Y50882D01*
X376418D01*
Y54917D01*
G37*
G36*
X401418Y64117D02*X398582D01*
Y60083D01*
X401418D01*
Y64117D01*
G37*
G36*
X406418Y54917D02*X403582D01*
Y50882D01*
X406418D01*
Y54917D01*
G37*
G36*
X401418D02*X398582D01*
Y50882D01*
X401418D01*
Y54917D01*
G37*
G36*
X396418D02*X393582D01*
Y50882D01*
X396418D01*
Y54917D01*
G37*
G36*
Y64117D02*X393582D01*
Y60083D01*
X396418D01*
Y64117D01*
G37*
G36*
X406418D02*X403582D01*
Y60083D01*
X406418D01*
Y64117D01*
G37*
G36*
X411418D02*X408582D01*
Y60083D01*
X411418D01*
Y64117D01*
G37*
G36*
Y54917D02*X408582D01*
Y50882D01*
X411418D01*
Y54917D01*
G37*
G36*
X436418Y64117D02*X433582D01*
Y60083D01*
X436418D01*
Y64117D01*
G37*
G36*
X446418Y54917D02*X443582D01*
Y50882D01*
X446418D01*
Y54917D01*
G37*
G36*
X441418D02*X438582D01*
Y50882D01*
X441418D01*
Y54917D01*
G37*
G36*
X436418D02*X433582D01*
Y50882D01*
X436418D01*
Y54917D01*
G37*
G36*
X431418D02*X428582D01*
Y50882D01*
X431418D01*
Y54917D01*
G37*
G36*
Y64117D02*X428582D01*
Y60083D01*
X431418D01*
Y64117D01*
G37*
G36*
X441418D02*X438582D01*
Y60083D01*
X441418D01*
Y64117D01*
G37*
G36*
X446418D02*X443582D01*
Y60083D01*
X446418D01*
Y64117D01*
G37*
G36*
X191418Y99118D02*X188582D01*
Y95082D01*
X191418D01*
Y99118D01*
G37*
G36*
X196418Y89918D02*X193582D01*
Y85882D01*
X196418D01*
Y89918D01*
G37*
G36*
X191418D02*X188582D01*
Y85882D01*
X191418D01*
Y89918D01*
G37*
G36*
X186418D02*X183582D01*
Y85882D01*
X186418D01*
Y89918D01*
G37*
G36*
Y99118D02*X183582D01*
Y95082D01*
X186418D01*
Y99118D01*
G37*
G36*
X196418D02*X193582D01*
Y95082D01*
X196418D01*
Y99118D01*
G37*
G36*
X201418D02*X198582D01*
Y95082D01*
X201418D01*
Y99118D01*
G37*
G36*
Y89918D02*X198582D01*
Y85882D01*
X201418D01*
Y89918D01*
G37*
G36*
X226418Y99118D02*X223582D01*
Y95082D01*
X226418D01*
Y99118D01*
G37*
G36*
X231418Y89918D02*X228582D01*
Y85882D01*
X231418D01*
Y89918D01*
G37*
G36*
X226418D02*X223582D01*
Y85882D01*
X226418D01*
Y89918D01*
G37*
G36*
X221418D02*X218582D01*
Y85882D01*
X221418D01*
Y89918D01*
G37*
G36*
Y99118D02*X218582D01*
Y95082D01*
X221418D01*
Y99118D01*
G37*
G36*
X231418D02*X228582D01*
Y95082D01*
X231418D01*
Y99118D01*
G37*
G36*
X236418D02*X233582D01*
Y95082D01*
X236418D01*
Y99118D01*
G37*
G36*
Y89918D02*X233582D01*
Y85882D01*
X236418D01*
Y89918D01*
G37*
G36*
X261418Y99118D02*X258582D01*
Y95082D01*
X261418D01*
Y99118D01*
G37*
G36*
X266418Y89918D02*X263582D01*
Y85882D01*
X266418D01*
Y89918D01*
G37*
G36*
X261418D02*X258582D01*
Y85882D01*
X261418D01*
Y89918D01*
G37*
G36*
X256418D02*X253582D01*
Y85882D01*
X256418D01*
Y89918D01*
G37*
G36*
Y99118D02*X253582D01*
Y95082D01*
X256418D01*
Y99118D01*
G37*
G36*
X266418D02*X263582D01*
Y95082D01*
X266418D01*
Y99118D01*
G37*
G36*
X271418D02*X268582D01*
Y95082D01*
X271418D01*
Y99118D01*
G37*
G36*
Y89918D02*X268582D01*
Y85882D01*
X271418D01*
Y89918D01*
G37*
G36*
X296418Y99118D02*X293582D01*
Y95082D01*
X296418D01*
Y99118D01*
G37*
G36*
X301418Y89918D02*X298582D01*
Y85882D01*
X301418D01*
Y89918D01*
G37*
G36*
X296418D02*X293582D01*
Y85882D01*
X296418D01*
Y89918D01*
G37*
G36*
X291418D02*X288582D01*
Y85882D01*
X291418D01*
Y89918D01*
G37*
G36*
Y99118D02*X288582D01*
Y95082D01*
X291418D01*
Y99118D01*
G37*
G36*
X301418D02*X298582D01*
Y95082D01*
X301418D01*
Y99118D01*
G37*
G36*
X306418D02*X303582D01*
Y95082D01*
X306418D01*
Y99118D01*
G37*
G36*
Y89918D02*X303582D01*
Y85882D01*
X306418D01*
Y89918D01*
G37*
G36*
X331418Y99118D02*X328582D01*
Y95082D01*
X331418D01*
Y99118D01*
G37*
G36*
X336418Y89918D02*X333582D01*
Y85882D01*
X336418D01*
Y89918D01*
G37*
G36*
X331418D02*X328582D01*
Y85882D01*
X331418D01*
Y89918D01*
G37*
G36*
X326418D02*X323582D01*
Y85882D01*
X326418D01*
Y89918D01*
G37*
G36*
Y99118D02*X323582D01*
Y95082D01*
X326418D01*
Y99118D01*
G37*
G36*
X336418D02*X333582D01*
Y95082D01*
X336418D01*
Y99118D01*
G37*
G36*
X341418D02*X338582D01*
Y95082D01*
X341418D01*
Y99118D01*
G37*
G36*
Y89918D02*X338582D01*
Y85882D01*
X341418D01*
Y89918D01*
G37*
G36*
X366418Y99118D02*X363582D01*
Y95082D01*
X366418D01*
Y99118D01*
G37*
G36*
X371418Y89918D02*X368582D01*
Y85882D01*
X371418D01*
Y89918D01*
G37*
G36*
X366418D02*X363582D01*
Y85882D01*
X366418D01*
Y89918D01*
G37*
G36*
X361418D02*X358582D01*
Y85882D01*
X361418D01*
Y89918D01*
G37*
G36*
Y99118D02*X358582D01*
Y95082D01*
X361418D01*
Y99118D01*
G37*
G36*
X371418D02*X368582D01*
Y95082D01*
X371418D01*
Y99118D01*
G37*
G36*
X376418D02*X373582D01*
Y95082D01*
X376418D01*
Y99118D01*
G37*
G36*
Y89918D02*X373582D01*
Y85882D01*
X376418D01*
Y89918D01*
G37*
G36*
X401418Y99118D02*X398582D01*
Y95082D01*
X401418D01*
Y99118D01*
G37*
G36*
X406418Y89918D02*X403582D01*
Y85882D01*
X406418D01*
Y89918D01*
G37*
G36*
X401418D02*X398582D01*
Y85882D01*
X401418D01*
Y89918D01*
G37*
G36*
X396418D02*X393582D01*
Y85882D01*
X396418D01*
Y89918D01*
G37*
G36*
Y99118D02*X393582D01*
Y95082D01*
X396418D01*
Y99118D01*
G37*
G36*
X406418D02*X403582D01*
Y95082D01*
X406418D01*
Y99118D01*
G37*
G36*
X411418D02*X408582D01*
Y95082D01*
X411418D01*
Y99118D01*
G37*
G36*
Y89918D02*X408582D01*
Y85882D01*
X411418D01*
Y89918D01*
G37*
G36*
X436418Y99118D02*X433582D01*
Y95082D01*
X436418D01*
Y99118D01*
G37*
G36*
X446418Y89918D02*X443582D01*
Y85882D01*
X446418D01*
Y89918D01*
G37*
G36*
X441418D02*X438582D01*
Y85882D01*
X441418D01*
Y89918D01*
G37*
G36*
X436418D02*X433582D01*
Y85882D01*
X436418D01*
Y89918D01*
G37*
G36*
X431418D02*X428582D01*
Y85882D01*
X431418D01*
Y89918D01*
G37*
G36*
Y99118D02*X428582D01*
Y95082D01*
X431418D01*
Y99118D01*
G37*
G36*
X441418D02*X438582D01*
Y95082D01*
X441418D01*
Y99118D01*
G37*
G36*
X446418D02*X443582D01*
Y95082D01*
X446418D01*
Y99118D01*
G37*
G36*
X201418Y19918D02*X198582D01*
Y15882D01*
X201418D01*
Y19918D01*
G37*
G36*
Y29118D02*X198582D01*
Y25082D01*
X201418D01*
Y29118D01*
G37*
G36*
X196418Y19918D02*X193582D01*
Y15882D01*
X196418D01*
Y19918D01*
G37*
G36*
X191418D02*X188582D01*
Y15882D01*
X191418D01*
Y19918D01*
G37*
G36*
X186418D02*X183582D01*
Y15882D01*
X186418D01*
Y19918D01*
G37*
G36*
Y29118D02*X183582D01*
Y25082D01*
X186418D01*
Y29118D01*
G37*
G36*
X191418D02*X188582D01*
Y25082D01*
X191418D01*
Y29118D01*
G37*
G36*
X196418D02*X193582D01*
Y25082D01*
X196418D01*
Y29118D01*
G37*
G36*
X221418Y19918D02*X218582D01*
Y15882D01*
X221418D01*
Y19918D01*
G37*
G36*
X231418Y29118D02*X228582D01*
Y25082D01*
X231418D01*
Y29118D01*
G37*
G36*
X221418D02*X218582D01*
Y25082D01*
X221418D01*
Y29118D01*
G37*
G36*
X226418D02*X223582D01*
Y25082D01*
X226418D01*
Y29118D01*
G37*
G36*
X236418Y19918D02*X233582D01*
Y15882D01*
X236418D01*
Y19918D01*
G37*
G36*
Y29118D02*X233582D01*
Y25082D01*
X236418D01*
Y29118D01*
G37*
G36*
X226418Y19918D02*X223582D01*
Y15882D01*
X226418D01*
Y19918D01*
G37*
G36*
X231418D02*X228582D01*
Y15882D01*
X231418D01*
Y19918D01*
G37*
G36*
X261418Y29118D02*X258582D01*
Y25082D01*
X261418D01*
Y29118D01*
G37*
G36*
X266418Y19918D02*X263582D01*
Y15882D01*
X266418D01*
Y19918D01*
G37*
G36*
X261418D02*X258582D01*
Y15882D01*
X261418D01*
Y19918D01*
G37*
G36*
X256418D02*X253582D01*
Y15882D01*
X256418D01*
Y19918D01*
G37*
G36*
Y29118D02*X253582D01*
Y25082D01*
X256418D01*
Y29118D01*
G37*
G36*
X266418D02*X263582D01*
Y25082D01*
X266418D01*
Y29118D01*
G37*
G36*
X271418D02*X268582D01*
Y25082D01*
X271418D01*
Y29118D01*
G37*
G36*
Y19918D02*X268582D01*
Y15882D01*
X271418D01*
Y19918D01*
G37*
G36*
X296418Y29118D02*X293582D01*
Y25082D01*
X296418D01*
Y29118D01*
G37*
G36*
X301418Y19918D02*X298582D01*
Y15882D01*
X301418D01*
Y19918D01*
G37*
G36*
X296418D02*X293582D01*
Y15882D01*
X296418D01*
Y19918D01*
G37*
G36*
X291418D02*X288582D01*
Y15882D01*
X291418D01*
Y19918D01*
G37*
G36*
Y29118D02*X288582D01*
Y25082D01*
X291418D01*
Y29118D01*
G37*
G36*
X301418D02*X298582D01*
Y25082D01*
X301418D01*
Y29118D01*
G37*
G36*
X306418D02*X303582D01*
Y25082D01*
X306418D01*
Y29118D01*
G37*
G36*
Y19918D02*X303582D01*
Y15882D01*
X306418D01*
Y19918D01*
G37*
G36*
X331418Y29118D02*X328582D01*
Y25082D01*
X331418D01*
Y29118D01*
G37*
G36*
X336418Y19918D02*X333582D01*
Y15882D01*
X336418D01*
Y19918D01*
G37*
G36*
X331418D02*X328582D01*
Y15882D01*
X331418D01*
Y19918D01*
G37*
G36*
X326418D02*X323582D01*
Y15882D01*
X326418D01*
Y19918D01*
G37*
G36*
Y29118D02*X323582D01*
Y25082D01*
X326418D01*
Y29118D01*
G37*
G36*
X336418D02*X333582D01*
Y25082D01*
X336418D01*
Y29118D01*
G37*
G36*
X341418D02*X338582D01*
Y25082D01*
X341418D01*
Y29118D01*
G37*
G36*
Y19918D02*X338582D01*
Y15882D01*
X341418D01*
Y19918D01*
G37*
G36*
X366418Y29118D02*X363582D01*
Y25082D01*
X366418D01*
Y29118D01*
G37*
G36*
X371418Y19918D02*X368582D01*
Y15882D01*
X371418D01*
Y19918D01*
G37*
G36*
X366418D02*X363582D01*
Y15882D01*
X366418D01*
Y19918D01*
G37*
G36*
X361418D02*X358582D01*
Y15882D01*
X361418D01*
Y19918D01*
G37*
G36*
Y29118D02*X358582D01*
Y25082D01*
X361418D01*
Y29118D01*
G37*
G36*
X371418D02*X368582D01*
Y25082D01*
X371418D01*
Y29118D01*
G37*
G36*
X376418D02*X373582D01*
Y25082D01*
X376418D01*
Y29118D01*
G37*
G36*
Y19918D02*X373582D01*
Y15882D01*
X376418D01*
Y19918D01*
G37*
G36*
X401418Y29118D02*X398582D01*
Y25082D01*
X401418D01*
Y29118D01*
G37*
G36*
X406418Y19918D02*X403582D01*
Y15882D01*
X406418D01*
Y19918D01*
G37*
G36*
X401418D02*X398582D01*
Y15882D01*
X401418D01*
Y19918D01*
G37*
G36*
X396418D02*X393582D01*
Y15882D01*
X396418D01*
Y19918D01*
G37*
G36*
Y29118D02*X393582D01*
Y25082D01*
X396418D01*
Y29118D01*
G37*
G36*
X406418D02*X403582D01*
Y25082D01*
X406418D01*
Y29118D01*
G37*
G36*
X411418D02*X408582D01*
Y25082D01*
X411418D01*
Y29118D01*
G37*
G36*
Y19918D02*X408582D01*
Y15882D01*
X411418D01*
Y19918D01*
G37*
G36*
X436418Y29118D02*X433582D01*
Y25082D01*
X436418D01*
Y29118D01*
G37*
G36*
X446418Y19918D02*X443582D01*
Y15882D01*
X446418D01*
Y19918D01*
G37*
G36*
X441418D02*X438582D01*
Y15882D01*
X441418D01*
Y19918D01*
G37*
G36*
X436418D02*X433582D01*
Y15882D01*
X436418D01*
Y19918D01*
G37*
G36*
X431418D02*X428582D01*
Y15882D01*
X431418D01*
Y19918D01*
G37*
G36*
Y29118D02*X428582D01*
Y25082D01*
X431418D01*
Y29118D01*
G37*
G36*
X441418D02*X438582D01*
Y25082D01*
X441418D01*
Y29118D01*
G37*
G36*
X446418D02*X443582D01*
Y25082D01*
X446418D01*
Y29118D01*
G37*
G54D20*X186500Y66000D03*
X221500D03*
X256500D03*
X185000Y57500D03*
X186500Y49000D03*
X200500Y57000D03*
X198500Y49000D03*
X220000Y57500D03*
X221500Y49000D03*
X235500Y57000D03*
X233500Y49000D03*
X255000Y57500D03*
X256500Y49000D03*
X270500Y57000D03*
X290000Y57500D03*
X305500Y57000D03*
X268500Y49000D03*
X303500D03*
X291500D03*
X338500D03*
X326500D03*
X325000Y57500D03*
X340500Y57000D03*
X360000Y57500D03*
X375500Y57000D03*
X373500Y49000D03*
X361500D03*
X396500Y66000D03*
X395000Y57500D03*
X410500Y57000D03*
X408500Y49000D03*
X396500D03*
X291500Y66000D03*
X326500D03*
X361500D03*
X431500D03*
X430000Y57500D03*
X445500Y57000D03*
X443500Y49000D03*
X431500D03*
X116500Y66000D03*
X151500D03*
X115000Y57500D03*
X130500Y57000D03*
X128500Y49000D03*
X116500D03*
X150000Y57500D03*
X165500Y57000D03*
X163500Y49000D03*
X151500D03*
X60500Y57000D03*
X58500Y49000D03*
X81500Y66000D03*
X80000Y57500D03*
X81500Y49000D03*
X46500Y66000D03*
X45000Y57500D03*
X46500Y49000D03*
X93500D03*
X95500Y22000D03*
X93500Y14000D03*
X45000Y92500D03*
X60500Y92000D03*
X58500Y84000D03*
X46500D03*
Y31000D03*
X81500D03*
X45000Y22500D03*
X60500Y22000D03*
X58500Y14000D03*
X46500D03*
X80000Y22500D03*
X81500Y14000D03*
X95500Y57000D03*
Y92000D03*
X93500Y84000D03*
X46500Y101000D03*
X81500D03*
X116500D03*
X151500D03*
X186500D03*
X221500D03*
X80000Y92500D03*
X81500Y84000D03*
X115000Y92500D03*
X116500Y84000D03*
X221500D03*
X130500Y92000D03*
X150000Y92500D03*
X165500Y92000D03*
X128500Y84000D03*
X163500D03*
X151500D03*
X198500D03*
X186500D03*
X185000Y92500D03*
X200500Y92000D03*
X220000Y92500D03*
X235500Y92000D03*
X116500Y31000D03*
X151500D03*
X186500D03*
X115000Y22500D03*
X116500Y14000D03*
X130500Y22000D03*
X128500Y14000D03*
X150000Y22500D03*
X151500Y14000D03*
X165500Y22000D03*
X163500Y14000D03*
X185000Y22500D03*
X186500Y14000D03*
X233500Y84000D03*
X256500Y101000D03*
X291500D03*
X255000Y92500D03*
X270500Y92000D03*
X268500Y84000D03*
X256500D03*
X290000Y92500D03*
X305500Y92000D03*
X303500Y84000D03*
X291500D03*
X326500Y101000D03*
X361500D03*
X325000Y92500D03*
X340500Y92000D03*
X338500Y84000D03*
X326500D03*
X360000Y92500D03*
X375500Y92000D03*
X373500Y84000D03*
X361500D03*
X396500Y101000D03*
X431500D03*
X395000Y92500D03*
X410500Y92000D03*
X408500Y84000D03*
X396500D03*
X430000Y92500D03*
X445500Y92000D03*
X443500Y84000D03*
X431500D03*
X200500Y22000D03*
X220000Y22500D03*
X235500Y22000D03*
X198500Y14000D03*
X233500D03*
X221500D03*
X268500D03*
X256500D03*
X255000Y22500D03*
X270500Y22000D03*
X290000Y22500D03*
X305500Y22000D03*
X303500Y14000D03*
X291500D03*
X326500Y31000D03*
X325000Y22500D03*
X340500Y22000D03*
X338500Y14000D03*
X326500D03*
X221500Y31000D03*
X256500D03*
X291500D03*
X361500D03*
X396500D03*
X431500D03*
X360000Y22500D03*
X375500Y22000D03*
X395000Y22500D03*
X410500Y22000D03*
X430000Y22500D03*
X445500Y22000D03*
X373500Y14000D03*
X361500D03*
X408500D03*
X396500D03*
X443500D03*
X431500D03*
G54D21*M02*
