G04 start of page 10 for group -4015 idx -4015 *
G04 Title: (unknown), toppaste *
G04 Creator: pcb 4.0.2 *
G04 CreationDate: Fri Mar 17 03:13:06 2023 UTC *
G04 For: railfan *
G04 Format: Gerber/RS-274X *
G04 PCB-Dimensions (mil): 4900.00 1150.00 *
G04 PCB-Coordinate-Origin: lower left *
%MOIN*%
%FSLAX25Y25*%
%LNTOPPASTE*%
%ADD33C,0.0001*%
G54D33*G36*
X48760Y55178D02*X46792D01*
Y51358D01*
X48760D01*
Y55178D01*
G37*
G36*
X51910Y54784D02*X49940D01*
Y51358D01*
X51910D01*
Y54784D01*
G37*
G36*
X55060D02*X53090D01*
Y51358D01*
X55060D01*
Y54784D01*
G37*
G36*
X58208D02*X56240D01*
Y51358D01*
X58208D01*
Y54784D01*
G37*
G36*
Y63642D02*X56240D01*
Y60216D01*
X58208D01*
Y63642D01*
G37*
G36*
X55060D02*X53090D01*
Y60216D01*
X55060D01*
Y63642D01*
G37*
G36*
X51910D02*X49940D01*
Y60216D01*
X51910D01*
Y63642D01*
G37*
G36*
X48760D02*X46792D01*
Y60216D01*
X48760D01*
Y63642D01*
G37*
G36*
X83760Y55178D02*X81792D01*
Y51358D01*
X83760D01*
Y55178D01*
G37*
G36*
X86910Y54784D02*X84940D01*
Y51358D01*
X86910D01*
Y54784D01*
G37*
G36*
X90060D02*X88090D01*
Y51358D01*
X90060D01*
Y54784D01*
G37*
G36*
X93208D02*X91240D01*
Y51358D01*
X93208D01*
Y54784D01*
G37*
G36*
Y63642D02*X91240D01*
Y60216D01*
X93208D01*
Y63642D01*
G37*
G36*
X90060D02*X88090D01*
Y60216D01*
X90060D01*
Y63642D01*
G37*
G36*
X86910D02*X84940D01*
Y60216D01*
X86910D01*
Y63642D01*
G37*
G36*
X83760D02*X81792D01*
Y60216D01*
X83760D01*
Y63642D01*
G37*
G36*
X118760Y55178D02*X116792D01*
Y51358D01*
X118760D01*
Y55178D01*
G37*
G36*
X121910Y54784D02*X119940D01*
Y51358D01*
X121910D01*
Y54784D01*
G37*
G36*
X125060D02*X123090D01*
Y51358D01*
X125060D01*
Y54784D01*
G37*
G36*
X128208D02*X126240D01*
Y51358D01*
X128208D01*
Y54784D01*
G37*
G36*
Y63642D02*X126240D01*
Y60216D01*
X128208D01*
Y63642D01*
G37*
G36*
X125060D02*X123090D01*
Y60216D01*
X125060D01*
Y63642D01*
G37*
G36*
X121910D02*X119940D01*
Y60216D01*
X121910D01*
Y63642D01*
G37*
G36*
X118760D02*X116792D01*
Y60216D01*
X118760D01*
Y63642D01*
G37*
G36*
X153760Y55178D02*X151792D01*
Y51358D01*
X153760D01*
Y55178D01*
G37*
G36*
X156910Y54784D02*X154940D01*
Y51358D01*
X156910D01*
Y54784D01*
G37*
G36*
X160060D02*X158090D01*
Y51358D01*
X160060D01*
Y54784D01*
G37*
G36*
X163208D02*X161240D01*
Y51358D01*
X163208D01*
Y54784D01*
G37*
G36*
Y63642D02*X161240D01*
Y60216D01*
X163208D01*
Y63642D01*
G37*
G36*
X160060D02*X158090D01*
Y60216D01*
X160060D01*
Y63642D01*
G37*
G36*
X156910D02*X154940D01*
Y60216D01*
X156910D01*
Y63642D01*
G37*
G36*
X153760D02*X151792D01*
Y60216D01*
X153760D01*
Y63642D01*
G37*
G36*
X188760Y55178D02*X186792D01*
Y51358D01*
X188760D01*
Y55178D01*
G37*
G36*
X191910Y54784D02*X189940D01*
Y51358D01*
X191910D01*
Y54784D01*
G37*
G36*
X195060D02*X193090D01*
Y51358D01*
X195060D01*
Y54784D01*
G37*
G36*
X198208D02*X196240D01*
Y51358D01*
X198208D01*
Y54784D01*
G37*
G36*
Y63642D02*X196240D01*
Y60216D01*
X198208D01*
Y63642D01*
G37*
G36*
X195060D02*X193090D01*
Y60216D01*
X195060D01*
Y63642D01*
G37*
G36*
X191910D02*X189940D01*
Y60216D01*
X191910D01*
Y63642D01*
G37*
G36*
X188760D02*X186792D01*
Y60216D01*
X188760D01*
Y63642D01*
G37*
G36*
X223760Y55178D02*X221792D01*
Y51358D01*
X223760D01*
Y55178D01*
G37*
G36*
X226909Y54784D02*X224941D01*
Y51358D01*
X226909D01*
Y54784D01*
G37*
G36*
X230059D02*X228091D01*
Y51358D01*
X230059D01*
Y54784D01*
G37*
G36*
X233208D02*X231240D01*
Y51358D01*
X233208D01*
Y54784D01*
G37*
G36*
Y63642D02*X231240D01*
Y60216D01*
X233208D01*
Y63642D01*
G37*
G36*
X230059D02*X228091D01*
Y60216D01*
X230059D01*
Y63642D01*
G37*
G36*
X226909D02*X224941D01*
Y60216D01*
X226909D01*
Y63642D01*
G37*
G36*
X223760D02*X221792D01*
Y60216D01*
X223760D01*
Y63642D01*
G37*
G36*
X258760Y55178D02*X256792D01*
Y51358D01*
X258760D01*
Y55178D01*
G37*
G36*
X261909Y54784D02*X259941D01*
Y51358D01*
X261909D01*
Y54784D01*
G37*
G36*
X265060D02*X263090D01*
Y51358D01*
X265060D01*
Y54784D01*
G37*
G36*
X268208D02*X266240D01*
Y51358D01*
X268208D01*
Y54784D01*
G37*
G36*
Y63642D02*X266240D01*
Y60216D01*
X268208D01*
Y63642D01*
G37*
G36*
X265060D02*X263090D01*
Y60216D01*
X265060D01*
Y63642D01*
G37*
G36*
X261909D02*X259941D01*
Y60216D01*
X261909D01*
Y63642D01*
G37*
G36*
X258760D02*X256792D01*
Y60216D01*
X258760D01*
Y63642D01*
G37*
G36*
X293760Y55178D02*X291792D01*
Y51358D01*
X293760D01*
Y55178D01*
G37*
G36*
X296910Y54784D02*X294940D01*
Y51358D01*
X296910D01*
Y54784D01*
G37*
G36*
X300060D02*X298090D01*
Y51358D01*
X300060D01*
Y54784D01*
G37*
G36*
X303208D02*X301240D01*
Y51358D01*
X303208D01*
Y54784D01*
G37*
G36*
Y63642D02*X301240D01*
Y60216D01*
X303208D01*
Y63642D01*
G37*
G36*
X300060D02*X298090D01*
Y60216D01*
X300060D01*
Y63642D01*
G37*
G36*
X296910D02*X294940D01*
Y60216D01*
X296910D01*
Y63642D01*
G37*
G36*
X293760D02*X291792D01*
Y60216D01*
X293760D01*
Y63642D01*
G37*
G36*
X328760Y55178D02*X326792D01*
Y51358D01*
X328760D01*
Y55178D01*
G37*
G36*
X331910Y54784D02*X329940D01*
Y51358D01*
X331910D01*
Y54784D01*
G37*
G36*
X335060D02*X333090D01*
Y51358D01*
X335060D01*
Y54784D01*
G37*
G36*
X338208D02*X336240D01*
Y51358D01*
X338208D01*
Y54784D01*
G37*
G36*
Y63642D02*X336240D01*
Y60216D01*
X338208D01*
Y63642D01*
G37*
G36*
X335060D02*X333090D01*
Y60216D01*
X335060D01*
Y63642D01*
G37*
G36*
X331910D02*X329940D01*
Y60216D01*
X331910D01*
Y63642D01*
G37*
G36*
X328760D02*X326792D01*
Y60216D01*
X328760D01*
Y63642D01*
G37*
G36*
X363760Y55178D02*X361792D01*
Y51358D01*
X363760D01*
Y55178D01*
G37*
G36*
X366910Y54784D02*X364940D01*
Y51358D01*
X366910D01*
Y54784D01*
G37*
G36*
X370060D02*X368090D01*
Y51358D01*
X370060D01*
Y54784D01*
G37*
G36*
X373208D02*X371240D01*
Y51358D01*
X373208D01*
Y54784D01*
G37*
G36*
Y63642D02*X371240D01*
Y60216D01*
X373208D01*
Y63642D01*
G37*
G36*
X370060D02*X368090D01*
Y60216D01*
X370060D01*
Y63642D01*
G37*
G36*
X366910D02*X364940D01*
Y60216D01*
X366910D01*
Y63642D01*
G37*
G36*
X363760D02*X361792D01*
Y60216D01*
X363760D01*
Y63642D01*
G37*
G36*
X398760Y55178D02*X396792D01*
Y51358D01*
X398760D01*
Y55178D01*
G37*
G36*
X401910Y54784D02*X399940D01*
Y51358D01*
X401910D01*
Y54784D01*
G37*
G36*
X405060D02*X403090D01*
Y51358D01*
X405060D01*
Y54784D01*
G37*
G36*
X408208D02*X406240D01*
Y51358D01*
X408208D01*
Y54784D01*
G37*
G36*
Y63642D02*X406240D01*
Y60216D01*
X408208D01*
Y63642D01*
G37*
G36*
X405060D02*X403090D01*
Y60216D01*
X405060D01*
Y63642D01*
G37*
G36*
X401910D02*X399940D01*
Y60216D01*
X401910D01*
Y63642D01*
G37*
G36*
X398760D02*X396792D01*
Y60216D01*
X398760D01*
Y63642D01*
G37*
G36*
X433760Y55178D02*X431792D01*
Y51358D01*
X433760D01*
Y55178D01*
G37*
G36*
X436910Y54784D02*X434940D01*
Y51358D01*
X436910D01*
Y54784D01*
G37*
G36*
X440060D02*X438090D01*
Y51358D01*
X440060D01*
Y54784D01*
G37*
G36*
X443208D02*X441240D01*
Y51358D01*
X443208D01*
Y54784D01*
G37*
G36*
Y63642D02*X441240D01*
Y60216D01*
X443208D01*
Y63642D01*
G37*
G36*
X440060D02*X438090D01*
Y60216D01*
X440060D01*
Y63642D01*
G37*
G36*
X436910D02*X434940D01*
Y60216D01*
X436910D01*
Y63642D01*
G37*
G36*
X433760D02*X431792D01*
Y60216D01*
X433760D01*
Y63642D01*
G37*
G36*
X48760Y90178D02*X46792D01*
Y86358D01*
X48760D01*
Y90178D01*
G37*
G36*
X51910Y89784D02*X49940D01*
Y86358D01*
X51910D01*
Y89784D01*
G37*
G36*
X55060D02*X53090D01*
Y86358D01*
X55060D01*
Y89784D01*
G37*
G36*
X58208D02*X56240D01*
Y86358D01*
X58208D01*
Y89784D01*
G37*
G36*
Y98642D02*X56240D01*
Y95216D01*
X58208D01*
Y98642D01*
G37*
G36*
X55060D02*X53090D01*
Y95216D01*
X55060D01*
Y98642D01*
G37*
G36*
X51910D02*X49940D01*
Y95216D01*
X51910D01*
Y98642D01*
G37*
G36*
X48760D02*X46792D01*
Y95216D01*
X48760D01*
Y98642D01*
G37*
G36*
X83760Y90178D02*X81792D01*
Y86358D01*
X83760D01*
Y90178D01*
G37*
G36*
X86910Y89784D02*X84940D01*
Y86358D01*
X86910D01*
Y89784D01*
G37*
G36*
X90060D02*X88090D01*
Y86358D01*
X90060D01*
Y89784D01*
G37*
G36*
X93208D02*X91240D01*
Y86358D01*
X93208D01*
Y89784D01*
G37*
G36*
Y98642D02*X91240D01*
Y95216D01*
X93208D01*
Y98642D01*
G37*
G36*
X90060D02*X88090D01*
Y95216D01*
X90060D01*
Y98642D01*
G37*
G36*
X86910D02*X84940D01*
Y95216D01*
X86910D01*
Y98642D01*
G37*
G36*
X83760D02*X81792D01*
Y95216D01*
X83760D01*
Y98642D01*
G37*
G36*
X118760Y90178D02*X116792D01*
Y86358D01*
X118760D01*
Y90178D01*
G37*
G36*
X121910Y89784D02*X119940D01*
Y86358D01*
X121910D01*
Y89784D01*
G37*
G36*
X125060D02*X123090D01*
Y86358D01*
X125060D01*
Y89784D01*
G37*
G36*
X128208D02*X126240D01*
Y86358D01*
X128208D01*
Y89784D01*
G37*
G36*
Y98642D02*X126240D01*
Y95216D01*
X128208D01*
Y98642D01*
G37*
G36*
X125060D02*X123090D01*
Y95216D01*
X125060D01*
Y98642D01*
G37*
G36*
X121910D02*X119940D01*
Y95216D01*
X121910D01*
Y98642D01*
G37*
G36*
X118760D02*X116792D01*
Y95216D01*
X118760D01*
Y98642D01*
G37*
G36*
X153760Y90178D02*X151792D01*
Y86358D01*
X153760D01*
Y90178D01*
G37*
G36*
X156910Y89784D02*X154940D01*
Y86358D01*
X156910D01*
Y89784D01*
G37*
G36*
X160060D02*X158090D01*
Y86358D01*
X160060D01*
Y89784D01*
G37*
G36*
X163208D02*X161240D01*
Y86358D01*
X163208D01*
Y89784D01*
G37*
G36*
Y98642D02*X161240D01*
Y95216D01*
X163208D01*
Y98642D01*
G37*
G36*
X160060D02*X158090D01*
Y95216D01*
X160060D01*
Y98642D01*
G37*
G36*
X156910D02*X154940D01*
Y95216D01*
X156910D01*
Y98642D01*
G37*
G36*
X153760D02*X151792D01*
Y95216D01*
X153760D01*
Y98642D01*
G37*
G36*
X188760Y90178D02*X186792D01*
Y86358D01*
X188760D01*
Y90178D01*
G37*
G36*
X191910Y89784D02*X189940D01*
Y86358D01*
X191910D01*
Y89784D01*
G37*
G36*
X195060D02*X193090D01*
Y86358D01*
X195060D01*
Y89784D01*
G37*
G36*
X198208D02*X196240D01*
Y86358D01*
X198208D01*
Y89784D01*
G37*
G36*
Y98642D02*X196240D01*
Y95216D01*
X198208D01*
Y98642D01*
G37*
G36*
X195060D02*X193090D01*
Y95216D01*
X195060D01*
Y98642D01*
G37*
G36*
X191910D02*X189940D01*
Y95216D01*
X191910D01*
Y98642D01*
G37*
G36*
X188760D02*X186792D01*
Y95216D01*
X188760D01*
Y98642D01*
G37*
G36*
X223760Y90178D02*X221792D01*
Y86358D01*
X223760D01*
Y90178D01*
G37*
G36*
X226909Y89784D02*X224941D01*
Y86358D01*
X226909D01*
Y89784D01*
G37*
G36*
X230059D02*X228091D01*
Y86358D01*
X230059D01*
Y89784D01*
G37*
G36*
X233208D02*X231240D01*
Y86358D01*
X233208D01*
Y89784D01*
G37*
G36*
Y98642D02*X231240D01*
Y95216D01*
X233208D01*
Y98642D01*
G37*
G36*
X230059D02*X228091D01*
Y95216D01*
X230059D01*
Y98642D01*
G37*
G36*
X226909D02*X224941D01*
Y95216D01*
X226909D01*
Y98642D01*
G37*
G36*
X223760D02*X221792D01*
Y95216D01*
X223760D01*
Y98642D01*
G37*
G36*
X258760Y90178D02*X256792D01*
Y86358D01*
X258760D01*
Y90178D01*
G37*
G36*
X261909Y89784D02*X259941D01*
Y86358D01*
X261909D01*
Y89784D01*
G37*
G36*
X265060D02*X263090D01*
Y86358D01*
X265060D01*
Y89784D01*
G37*
G36*
X268208D02*X266240D01*
Y86358D01*
X268208D01*
Y89784D01*
G37*
G36*
Y98642D02*X266240D01*
Y95216D01*
X268208D01*
Y98642D01*
G37*
G36*
X265060D02*X263090D01*
Y95216D01*
X265060D01*
Y98642D01*
G37*
G36*
X261909D02*X259941D01*
Y95216D01*
X261909D01*
Y98642D01*
G37*
G36*
X258760D02*X256792D01*
Y95216D01*
X258760D01*
Y98642D01*
G37*
G36*
X293760Y90178D02*X291792D01*
Y86358D01*
X293760D01*
Y90178D01*
G37*
G36*
X296910Y89784D02*X294940D01*
Y86358D01*
X296910D01*
Y89784D01*
G37*
G36*
X300060D02*X298090D01*
Y86358D01*
X300060D01*
Y89784D01*
G37*
G36*
X303208D02*X301240D01*
Y86358D01*
X303208D01*
Y89784D01*
G37*
G36*
Y98642D02*X301240D01*
Y95216D01*
X303208D01*
Y98642D01*
G37*
G36*
X300060D02*X298090D01*
Y95216D01*
X300060D01*
Y98642D01*
G37*
G36*
X296910D02*X294940D01*
Y95216D01*
X296910D01*
Y98642D01*
G37*
G36*
X293760D02*X291792D01*
Y95216D01*
X293760D01*
Y98642D01*
G37*
G36*
X328760Y90178D02*X326792D01*
Y86358D01*
X328760D01*
Y90178D01*
G37*
G36*
X331910Y89784D02*X329940D01*
Y86358D01*
X331910D01*
Y89784D01*
G37*
G36*
X335060D02*X333090D01*
Y86358D01*
X335060D01*
Y89784D01*
G37*
G36*
X338208D02*X336240D01*
Y86358D01*
X338208D01*
Y89784D01*
G37*
G36*
Y98642D02*X336240D01*
Y95216D01*
X338208D01*
Y98642D01*
G37*
G36*
X335060D02*X333090D01*
Y95216D01*
X335060D01*
Y98642D01*
G37*
G36*
X331910D02*X329940D01*
Y95216D01*
X331910D01*
Y98642D01*
G37*
G36*
X328760D02*X326792D01*
Y95216D01*
X328760D01*
Y98642D01*
G37*
G36*
X363760Y90178D02*X361792D01*
Y86358D01*
X363760D01*
Y90178D01*
G37*
G36*
X366910Y89784D02*X364940D01*
Y86358D01*
X366910D01*
Y89784D01*
G37*
G36*
X370060D02*X368090D01*
Y86358D01*
X370060D01*
Y89784D01*
G37*
G36*
X373208D02*X371240D01*
Y86358D01*
X373208D01*
Y89784D01*
G37*
G36*
Y98642D02*X371240D01*
Y95216D01*
X373208D01*
Y98642D01*
G37*
G36*
X370060D02*X368090D01*
Y95216D01*
X370060D01*
Y98642D01*
G37*
G36*
X366910D02*X364940D01*
Y95216D01*
X366910D01*
Y98642D01*
G37*
G36*
X363760D02*X361792D01*
Y95216D01*
X363760D01*
Y98642D01*
G37*
G36*
X398760Y90178D02*X396792D01*
Y86358D01*
X398760D01*
Y90178D01*
G37*
G36*
X401910Y89784D02*X399940D01*
Y86358D01*
X401910D01*
Y89784D01*
G37*
G36*
X405060D02*X403090D01*
Y86358D01*
X405060D01*
Y89784D01*
G37*
G36*
X408208D02*X406240D01*
Y86358D01*
X408208D01*
Y89784D01*
G37*
G36*
Y98642D02*X406240D01*
Y95216D01*
X408208D01*
Y98642D01*
G37*
G36*
X405060D02*X403090D01*
Y95216D01*
X405060D01*
Y98642D01*
G37*
G36*
X401910D02*X399940D01*
Y95216D01*
X401910D01*
Y98642D01*
G37*
G36*
X398760D02*X396792D01*
Y95216D01*
X398760D01*
Y98642D01*
G37*
G36*
X433760Y90178D02*X431792D01*
Y86358D01*
X433760D01*
Y90178D01*
G37*
G36*
X436910Y89784D02*X434940D01*
Y86358D01*
X436910D01*
Y89784D01*
G37*
G36*
X440060D02*X438090D01*
Y86358D01*
X440060D01*
Y89784D01*
G37*
G36*
X443208D02*X441240D01*
Y86358D01*
X443208D01*
Y89784D01*
G37*
G36*
Y98642D02*X441240D01*
Y95216D01*
X443208D01*
Y98642D01*
G37*
G36*
X440060D02*X438090D01*
Y95216D01*
X440060D01*
Y98642D01*
G37*
G36*
X436910D02*X434940D01*
Y95216D01*
X436910D01*
Y98642D01*
G37*
G36*
X433760D02*X431792D01*
Y95216D01*
X433760D01*
Y98642D01*
G37*
G36*
X48760Y20178D02*X46792D01*
Y16358D01*
X48760D01*
Y20178D01*
G37*
G36*
X51910Y19784D02*X49940D01*
Y16358D01*
X51910D01*
Y19784D01*
G37*
G36*
X55060D02*X53090D01*
Y16358D01*
X55060D01*
Y19784D01*
G37*
G36*
X58208D02*X56240D01*
Y16358D01*
X58208D01*
Y19784D01*
G37*
G36*
Y28642D02*X56240D01*
Y25216D01*
X58208D01*
Y28642D01*
G37*
G36*
X55060D02*X53090D01*
Y25216D01*
X55060D01*
Y28642D01*
G37*
G36*
X51910D02*X49940D01*
Y25216D01*
X51910D01*
Y28642D01*
G37*
G36*
X48760D02*X46792D01*
Y25216D01*
X48760D01*
Y28642D01*
G37*
G36*
X83760Y20178D02*X81792D01*
Y16358D01*
X83760D01*
Y20178D01*
G37*
G36*
X86910Y19784D02*X84940D01*
Y16358D01*
X86910D01*
Y19784D01*
G37*
G36*
X90060D02*X88090D01*
Y16358D01*
X90060D01*
Y19784D01*
G37*
G36*
X93208D02*X91240D01*
Y16358D01*
X93208D01*
Y19784D01*
G37*
G36*
Y28642D02*X91240D01*
Y25216D01*
X93208D01*
Y28642D01*
G37*
G36*
X90060D02*X88090D01*
Y25216D01*
X90060D01*
Y28642D01*
G37*
G36*
X86910D02*X84940D01*
Y25216D01*
X86910D01*
Y28642D01*
G37*
G36*
X83760D02*X81792D01*
Y25216D01*
X83760D01*
Y28642D01*
G37*
G36*
X118760Y20178D02*X116792D01*
Y16358D01*
X118760D01*
Y20178D01*
G37*
G36*
X121910Y19784D02*X119940D01*
Y16358D01*
X121910D01*
Y19784D01*
G37*
G36*
X125060D02*X123090D01*
Y16358D01*
X125060D01*
Y19784D01*
G37*
G36*
X128208D02*X126240D01*
Y16358D01*
X128208D01*
Y19784D01*
G37*
G36*
Y28642D02*X126240D01*
Y25216D01*
X128208D01*
Y28642D01*
G37*
G36*
X125060D02*X123090D01*
Y25216D01*
X125060D01*
Y28642D01*
G37*
G36*
X121910D02*X119940D01*
Y25216D01*
X121910D01*
Y28642D01*
G37*
G36*
X118760D02*X116792D01*
Y25216D01*
X118760D01*
Y28642D01*
G37*
G36*
X153760Y20178D02*X151792D01*
Y16358D01*
X153760D01*
Y20178D01*
G37*
G36*
X156910Y19784D02*X154940D01*
Y16358D01*
X156910D01*
Y19784D01*
G37*
G36*
X160060D02*X158090D01*
Y16358D01*
X160060D01*
Y19784D01*
G37*
G36*
X163208D02*X161240D01*
Y16358D01*
X163208D01*
Y19784D01*
G37*
G36*
Y28642D02*X161240D01*
Y25216D01*
X163208D01*
Y28642D01*
G37*
G36*
X160060D02*X158090D01*
Y25216D01*
X160060D01*
Y28642D01*
G37*
G36*
X156910D02*X154940D01*
Y25216D01*
X156910D01*
Y28642D01*
G37*
G36*
X153760D02*X151792D01*
Y25216D01*
X153760D01*
Y28642D01*
G37*
G36*
X188760Y20178D02*X186792D01*
Y16358D01*
X188760D01*
Y20178D01*
G37*
G36*
X191910Y19784D02*X189940D01*
Y16358D01*
X191910D01*
Y19784D01*
G37*
G36*
X195060D02*X193090D01*
Y16358D01*
X195060D01*
Y19784D01*
G37*
G36*
X198208D02*X196240D01*
Y16358D01*
X198208D01*
Y19784D01*
G37*
G36*
Y28642D02*X196240D01*
Y25216D01*
X198208D01*
Y28642D01*
G37*
G36*
X195060D02*X193090D01*
Y25216D01*
X195060D01*
Y28642D01*
G37*
G36*
X191910D02*X189940D01*
Y25216D01*
X191910D01*
Y28642D01*
G37*
G36*
X188760D02*X186792D01*
Y25216D01*
X188760D01*
Y28642D01*
G37*
G36*
X223760Y20178D02*X221792D01*
Y16358D01*
X223760D01*
Y20178D01*
G37*
G36*
X226909Y19784D02*X224941D01*
Y16358D01*
X226909D01*
Y19784D01*
G37*
G36*
X230059D02*X228091D01*
Y16358D01*
X230059D01*
Y19784D01*
G37*
G36*
X233208D02*X231240D01*
Y16358D01*
X233208D01*
Y19784D01*
G37*
G36*
Y28642D02*X231240D01*
Y25216D01*
X233208D01*
Y28642D01*
G37*
G36*
X230059D02*X228091D01*
Y25216D01*
X230059D01*
Y28642D01*
G37*
G36*
X226909D02*X224941D01*
Y25216D01*
X226909D01*
Y28642D01*
G37*
G36*
X223760D02*X221792D01*
Y25216D01*
X223760D01*
Y28642D01*
G37*
G36*
X258760Y20178D02*X256792D01*
Y16358D01*
X258760D01*
Y20178D01*
G37*
G36*
X261909Y19784D02*X259941D01*
Y16358D01*
X261909D01*
Y19784D01*
G37*
G36*
X265060D02*X263090D01*
Y16358D01*
X265060D01*
Y19784D01*
G37*
G36*
X268208D02*X266240D01*
Y16358D01*
X268208D01*
Y19784D01*
G37*
G36*
Y28642D02*X266240D01*
Y25216D01*
X268208D01*
Y28642D01*
G37*
G36*
X265060D02*X263090D01*
Y25216D01*
X265060D01*
Y28642D01*
G37*
G36*
X261909D02*X259941D01*
Y25216D01*
X261909D01*
Y28642D01*
G37*
G36*
X258760D02*X256792D01*
Y25216D01*
X258760D01*
Y28642D01*
G37*
G36*
X293760Y20178D02*X291792D01*
Y16358D01*
X293760D01*
Y20178D01*
G37*
G36*
X296910Y19784D02*X294940D01*
Y16358D01*
X296910D01*
Y19784D01*
G37*
G36*
X300060D02*X298090D01*
Y16358D01*
X300060D01*
Y19784D01*
G37*
G36*
X303208D02*X301240D01*
Y16358D01*
X303208D01*
Y19784D01*
G37*
G36*
Y28642D02*X301240D01*
Y25216D01*
X303208D01*
Y28642D01*
G37*
G36*
X300060D02*X298090D01*
Y25216D01*
X300060D01*
Y28642D01*
G37*
G36*
X296910D02*X294940D01*
Y25216D01*
X296910D01*
Y28642D01*
G37*
G36*
X293760D02*X291792D01*
Y25216D01*
X293760D01*
Y28642D01*
G37*
G36*
X328760Y20178D02*X326792D01*
Y16358D01*
X328760D01*
Y20178D01*
G37*
G36*
X331910Y19784D02*X329940D01*
Y16358D01*
X331910D01*
Y19784D01*
G37*
G36*
X335060D02*X333090D01*
Y16358D01*
X335060D01*
Y19784D01*
G37*
G36*
X338208D02*X336240D01*
Y16358D01*
X338208D01*
Y19784D01*
G37*
G36*
Y28642D02*X336240D01*
Y25216D01*
X338208D01*
Y28642D01*
G37*
G36*
X335060D02*X333090D01*
Y25216D01*
X335060D01*
Y28642D01*
G37*
G36*
X331910D02*X329940D01*
Y25216D01*
X331910D01*
Y28642D01*
G37*
G36*
X328760D02*X326792D01*
Y25216D01*
X328760D01*
Y28642D01*
G37*
G36*
X363760Y20178D02*X361792D01*
Y16358D01*
X363760D01*
Y20178D01*
G37*
G36*
X366910Y19784D02*X364940D01*
Y16358D01*
X366910D01*
Y19784D01*
G37*
G36*
X370060D02*X368090D01*
Y16358D01*
X370060D01*
Y19784D01*
G37*
G36*
X373208D02*X371240D01*
Y16358D01*
X373208D01*
Y19784D01*
G37*
G36*
Y28642D02*X371240D01*
Y25216D01*
X373208D01*
Y28642D01*
G37*
G36*
X370060D02*X368090D01*
Y25216D01*
X370060D01*
Y28642D01*
G37*
G36*
X366910D02*X364940D01*
Y25216D01*
X366910D01*
Y28642D01*
G37*
G36*
X363760D02*X361792D01*
Y25216D01*
X363760D01*
Y28642D01*
G37*
G36*
X398760Y20178D02*X396792D01*
Y16358D01*
X398760D01*
Y20178D01*
G37*
G36*
X401910Y19784D02*X399940D01*
Y16358D01*
X401910D01*
Y19784D01*
G37*
G36*
X405060D02*X403090D01*
Y16358D01*
X405060D01*
Y19784D01*
G37*
G36*
X408208D02*X406240D01*
Y16358D01*
X408208D01*
Y19784D01*
G37*
G36*
Y28642D02*X406240D01*
Y25216D01*
X408208D01*
Y28642D01*
G37*
G36*
X405060D02*X403090D01*
Y25216D01*
X405060D01*
Y28642D01*
G37*
G36*
X401910D02*X399940D01*
Y25216D01*
X401910D01*
Y28642D01*
G37*
G36*
X398760D02*X396792D01*
Y25216D01*
X398760D01*
Y28642D01*
G37*
G36*
X433760Y20178D02*X431792D01*
Y16358D01*
X433760D01*
Y20178D01*
G37*
G36*
X436910Y19784D02*X434940D01*
Y16358D01*
X436910D01*
Y19784D01*
G37*
G36*
X440060D02*X438090D01*
Y16358D01*
X440060D01*
Y19784D01*
G37*
G36*
X443208D02*X441240D01*
Y16358D01*
X443208D01*
Y19784D01*
G37*
G36*
Y28642D02*X441240D01*
Y25216D01*
X443208D01*
Y28642D01*
G37*
G36*
X440060D02*X438090D01*
Y25216D01*
X440060D01*
Y28642D01*
G37*
G36*
X436910D02*X434940D01*
Y25216D01*
X436910D01*
Y28642D01*
G37*
G36*
X433760D02*X431792D01*
Y25216D01*
X433760D01*
Y28642D01*
G37*
M02*
