G04 start of page 9 for group -4078 idx -4078 *
G04 Title: (unknown), bottomsilk *
G04 Creator: pcb 4.0.2 *
G04 CreationDate: Fri Mar 17 03:13:06 2023 UTC *
G04 For: railfan *
G04 Format: Gerber/RS-274X *
G04 PCB-Dimensions (mil): 4900.00 1150.00 *
G04 PCB-Coordinate-Origin: lower left *
%MOIN*%
%FSLAX25Y25*%
%LNBOTTOMSILK*%
%ADD32C,0.0080*%
%ADD31C,0.0100*%
%ADD30C,0.0001*%
G54D30*G36*
X43000Y54000D02*Y52000D01*
X41500D01*
Y54000D01*
X43000D01*
G37*
G36*
X78000D02*Y52000D01*
X76500D01*
Y54000D01*
X78000D01*
G37*
G36*
X43000Y89000D02*Y87000D01*
X41500D01*
Y89000D01*
X43000D01*
G37*
G36*
X78000D02*Y87000D01*
X76500D01*
Y89000D01*
X78000D01*
G37*
G36*
X43000Y19000D02*Y17000D01*
X41500D01*
Y19000D01*
X43000D01*
G37*
G36*
X78000D02*Y17000D01*
X76500D01*
Y19000D01*
X78000D01*
G37*
G36*
X113000Y54000D02*Y52000D01*
X111500D01*
Y54000D01*
X113000D01*
G37*
G36*
Y89000D02*Y87000D01*
X111500D01*
Y89000D01*
X113000D01*
G37*
G36*
X148000D02*Y87000D01*
X146500D01*
Y89000D01*
X148000D01*
G37*
G36*
X113000Y19000D02*Y17000D01*
X111500D01*
Y19000D01*
X113000D01*
G37*
G36*
X148000D02*Y17000D01*
X146500D01*
Y19000D01*
X148000D01*
G37*
G36*
Y54000D02*Y52000D01*
X146500D01*
Y54000D01*
X148000D01*
G37*
G36*
X183000D02*Y52000D01*
X181500D01*
Y54000D01*
X183000D01*
G37*
G36*
X218000D02*Y52000D01*
X216500D01*
Y54000D01*
X218000D01*
G37*
G36*
X253000D02*Y52000D01*
X251500D01*
Y54000D01*
X253000D01*
G37*
G36*
X288000D02*Y52000D01*
X286500D01*
Y54000D01*
X288000D01*
G37*
G36*
X323000D02*Y52000D01*
X321500D01*
Y54000D01*
X323000D01*
G37*
G36*
X358000D02*Y52000D01*
X356500D01*
Y54000D01*
X358000D01*
G37*
G36*
X393000D02*Y52000D01*
X391500D01*
Y54000D01*
X393000D01*
G37*
G36*
X428000D02*Y52000D01*
X426500D01*
Y54000D01*
X428000D01*
G37*
G36*
X183000Y89000D02*Y87000D01*
X181500D01*
Y89000D01*
X183000D01*
G37*
G36*
Y19000D02*Y17000D01*
X181500D01*
Y19000D01*
X183000D01*
G37*
G36*
X218000Y89000D02*Y87000D01*
X216500D01*
Y89000D01*
X218000D01*
G37*
G36*
Y19000D02*Y17000D01*
X216500D01*
Y19000D01*
X218000D01*
G37*
G36*
X253000Y89000D02*Y87000D01*
X251500D01*
Y89000D01*
X253000D01*
G37*
G36*
Y19000D02*Y17000D01*
X251500D01*
Y19000D01*
X253000D01*
G37*
G36*
X288000D02*Y17000D01*
X286500D01*
Y19000D01*
X288000D01*
G37*
G36*
Y89000D02*Y87000D01*
X286500D01*
Y89000D01*
X288000D01*
G37*
G36*
X323000D02*Y87000D01*
X321500D01*
Y89000D01*
X323000D01*
G37*
G36*
X358000D02*Y87000D01*
X356500D01*
Y89000D01*
X358000D01*
G37*
G36*
X393000D02*Y87000D01*
X391500D01*
Y89000D01*
X393000D01*
G37*
G36*
X428000D02*Y87000D01*
X426500D01*
Y89000D01*
X428000D01*
G37*
G36*
X323000Y19000D02*Y17000D01*
X321500D01*
Y19000D01*
X323000D01*
G37*
G36*
X358000D02*Y17000D01*
X356500D01*
Y19000D01*
X358000D01*
G37*
G36*
X393000D02*Y17000D01*
X391500D01*
Y19000D01*
X393000D01*
G37*
G36*
X428000D02*Y17000D01*
X426500D01*
Y19000D01*
X428000D01*
G37*
G54D31*X152000Y69500D02*X163000D01*
X169500Y63000D02*X163000Y69500D01*
X169500Y63000D02*Y52000D01*
X180500Y63000D02*Y52000D01*
X187000Y69500D02*X180500Y63000D01*
X163000Y45500D02*X169500Y52000D01*
X187000Y45500D02*X198000D01*
X180500Y52000D02*X187000Y45500D01*
Y69500D02*X198000D01*
X204500Y63000D02*X198000Y69500D01*
X204500Y63000D02*Y52000D01*
X198000Y45500D02*X204500Y52000D01*
X222000Y45500D02*X233000D01*
X215500Y52000D02*X222000Y45500D01*
X215500Y63000D02*Y52000D01*
X222000Y69500D02*X215500Y63000D01*
X222000Y69500D02*X233000D01*
X239500Y63000D02*X233000Y69500D01*
X239500Y63000D02*Y52000D01*
X233000Y45500D02*X239500Y52000D01*
X257000Y45500D02*X268000D01*
X250500Y52000D02*X257000Y45500D01*
X250500Y63000D02*Y52000D01*
X257000Y69500D02*X250500Y63000D01*
X257000Y69500D02*X268000D01*
X274500Y63000D02*X268000Y69500D01*
X274500Y63000D02*Y52000D01*
X93000Y45500D02*X99500Y52000D01*
X117000Y45500D02*X128000D01*
X110500Y52000D02*X117000Y45500D01*
X82000D02*X93000D01*
X99500Y63000D02*X93000Y69500D01*
X99500Y63000D02*Y52000D01*
X110500Y63000D02*Y52000D01*
X117000Y69500D02*X110500Y63000D01*
X40500D02*Y52000D01*
X47000Y69500D02*X40500Y63000D01*
X47000Y69500D02*X58000D01*
X64500Y63000D02*X58000Y69500D01*
X64500Y63000D02*Y52000D01*
X58000Y80500D02*X64500Y87000D01*
X47000Y80500D02*X58000D01*
X40500Y87000D02*X47000Y80500D01*
X40500Y98000D02*Y87000D01*
X47000Y104500D02*X40500Y98000D01*
X47000Y104500D02*X58000D01*
X64500Y98000D02*X58000Y104500D01*
X64500Y98000D02*Y87000D01*
X75500Y52000D02*X82000Y45500D01*
X75500Y63000D02*Y52000D01*
X82000Y69500D02*X75500Y63000D01*
X82000Y69500D02*X93000D01*
Y80500D02*X99500Y87000D01*
X82000Y80500D02*X93000D01*
X75500Y87000D02*X82000Y80500D01*
X75500Y98000D02*Y87000D01*
X82000Y104500D02*X75500Y98000D01*
X82000Y104500D02*X93000D01*
X99500Y98000D02*X93000Y104500D01*
X99500Y98000D02*Y87000D01*
X93000Y10500D02*X99500Y17000D01*
Y28000D02*X93000Y34500D01*
X99500Y28000D02*Y17000D01*
X82000Y10500D02*X93000D01*
X75500Y17000D02*X82000Y10500D01*
X75500Y28000D02*Y17000D01*
X82000Y34500D02*X75500Y28000D01*
X82000Y34500D02*X93000D01*
X58000Y45500D02*X64500Y52000D01*
X47000Y45500D02*X58000D01*
X40500Y52000D02*X47000Y45500D01*
X58000Y10500D02*X64500Y17000D01*
X47000Y10500D02*X58000D01*
X40500Y17000D02*X47000Y10500D01*
X40500Y28000D02*Y17000D01*
X47000Y34500D02*X40500Y28000D01*
X47000Y34500D02*X58000D01*
X64500Y28000D02*X58000Y34500D01*
X64500Y28000D02*Y17000D01*
X268000Y45500D02*X274500Y52000D01*
X292000Y45500D02*X303000D01*
X285500Y52000D02*X292000Y45500D01*
X285500Y63000D02*Y52000D01*
X292000Y69500D02*X285500Y63000D01*
X292000Y69500D02*X303000D01*
X309500Y63000D02*X303000Y69500D01*
X309500Y63000D02*Y52000D01*
X303000Y45500D02*X309500Y52000D01*
X327000Y45500D02*X338000D01*
X320500Y52000D02*X327000Y45500D01*
X320500Y63000D02*Y52000D01*
X327000Y69500D02*X320500Y63000D01*
X327000Y69500D02*X338000D01*
X344500Y63000D02*X338000Y69500D01*
X344500Y63000D02*Y52000D01*
X338000Y45500D02*X344500Y52000D01*
X362000Y45500D02*X373000D01*
X355500Y52000D02*X362000Y45500D01*
X355500Y63000D02*Y52000D01*
X362000Y69500D02*X355500Y63000D01*
X362000Y69500D02*X373000D01*
X379500Y63000D02*X373000Y69500D01*
X379500Y63000D02*Y52000D01*
X373000Y45500D02*X379500Y52000D01*
X397000Y45500D02*X408000D01*
X390500Y52000D02*X397000Y45500D01*
X390500Y63000D02*Y52000D01*
X397000Y69500D02*X390500Y63000D01*
X397000Y69500D02*X408000D01*
X414500Y63000D02*X408000Y69500D01*
X414500Y63000D02*Y52000D01*
X408000Y45500D02*X414500Y52000D01*
X443000Y45500D02*X449500Y52000D01*
X432000Y45500D02*X443000D01*
X425500Y52000D02*X432000Y45500D01*
X425500Y63000D02*Y52000D01*
X432000Y69500D02*X425500Y63000D01*
X432000Y69500D02*X443000D01*
X449500Y63000D02*X443000Y69500D01*
X449500Y63000D02*Y52000D01*
X198000Y80500D02*X204500Y87000D01*
Y98000D02*X198000Y104500D01*
X204500Y98000D02*Y87000D01*
X187000Y80500D02*X198000D01*
X180500Y87000D02*X187000Y80500D01*
X180500Y98000D02*Y87000D01*
X187000Y104500D02*X180500Y98000D01*
X187000Y104500D02*X198000D01*
X233000Y80500D02*X239500Y87000D01*
X222000Y80500D02*X233000D01*
X215500Y87000D02*X222000Y80500D01*
X215500Y98000D02*Y87000D01*
X239500Y98000D02*Y87000D01*
X222000Y104500D02*X215500Y98000D01*
X222000Y104500D02*X233000D01*
X257000D02*X268000D01*
X239500Y98000D02*X233000Y104500D01*
X274500Y98000D02*X268000Y104500D01*
X250500Y87000D02*X257000Y80500D01*
X250500Y98000D02*Y87000D01*
X257000Y104500D02*X250500Y98000D01*
X268000Y80500D02*X274500Y87000D01*
X257000Y80500D02*X268000D01*
X274500Y98000D02*Y87000D01*
X303000Y80500D02*X309500Y87000D01*
X292000Y80500D02*X303000D01*
X285500Y87000D02*X292000Y80500D01*
X285500Y98000D02*Y87000D01*
X309500Y98000D02*Y87000D01*
X320500Y98000D02*Y87000D01*
X292000Y104500D02*X285500Y98000D01*
X292000Y104500D02*X303000D01*
X309500Y98000D02*X303000Y104500D01*
X327000D02*X320500Y98000D01*
X327000Y104500D02*X338000D01*
X344500Y98000D02*X338000Y104500D01*
Y80500D02*X344500Y87000D01*
X327000Y80500D02*X338000D01*
X320500Y87000D02*X327000Y80500D01*
X344500Y98000D02*Y87000D01*
X355500Y98000D02*Y87000D01*
X373000Y80500D02*X379500Y87000D01*
X362000Y80500D02*X373000D01*
X355500Y87000D02*X362000Y80500D01*
X408000D02*X414500Y87000D01*
X397000Y80500D02*X408000D01*
X390500Y87000D02*X397000Y80500D01*
X362000Y104500D02*X355500Y98000D01*
X362000Y104500D02*X373000D01*
X379500Y98000D02*X373000Y104500D01*
X379500Y98000D02*Y87000D01*
X390500Y98000D02*Y87000D01*
X397000Y104500D02*X390500Y98000D01*
X397000Y104500D02*X408000D01*
X443000Y80500D02*X449500Y87000D01*
Y98000D02*Y87000D01*
X432000Y80500D02*X443000D01*
X425500Y87000D02*X432000Y80500D01*
X414500Y98000D02*X408000Y104500D01*
X414500Y98000D02*Y87000D01*
X425500Y98000D02*Y87000D01*
X432000Y104500D02*X425500Y98000D01*
X432000Y104500D02*X443000D01*
X449500Y98000D02*X443000Y104500D01*
X117000Y69500D02*X128000D01*
X134500Y63000D02*X128000Y69500D01*
X134500Y63000D02*Y52000D01*
X128000Y80500D02*X134500Y87000D01*
Y98000D02*X128000Y104500D01*
X134500Y98000D02*Y87000D01*
X117000Y80500D02*X128000D01*
X110500Y87000D02*X117000Y80500D01*
X110500Y98000D02*Y87000D01*
X117000Y104500D02*X110500Y98000D01*
X117000Y104500D02*X128000D01*
Y10500D02*X134500Y17000D01*
Y28000D02*X128000Y34500D01*
X134500Y28000D02*Y17000D01*
X117000Y10500D02*X128000D01*
X110500Y17000D02*X117000Y10500D01*
X110500Y28000D02*Y17000D01*
X117000Y34500D02*X110500Y28000D01*
X117000Y34500D02*X128000D01*
Y45500D02*X134500Y52000D01*
X152000Y45500D02*X163000D01*
X145500Y52000D02*X152000Y45500D01*
X145500Y63000D02*Y52000D01*
Y98000D02*Y87000D01*
X152000Y104500D02*X145500Y98000D01*
X152000Y69500D02*X145500Y63000D01*
X152000Y80500D02*X163000D01*
X145500Y87000D02*X152000Y80500D01*
X163000D02*X169500Y87000D01*
X152000Y104500D02*X163000D01*
X169500Y98000D02*X163000Y104500D01*
X169500Y98000D02*Y87000D01*
X163000Y10500D02*X169500Y17000D01*
Y28000D02*X163000Y34500D01*
X169500Y28000D02*Y17000D01*
X152000Y10500D02*X163000D01*
X145500Y17000D02*X152000Y10500D01*
X145500Y28000D02*Y17000D01*
X152000Y34500D02*X145500Y28000D01*
X152000Y34500D02*X163000D01*
X198000Y10500D02*X204500Y17000D01*
X187000Y10500D02*X198000D01*
X180500Y17000D02*X187000Y10500D01*
X180500Y28000D02*Y17000D01*
X204500Y28000D02*Y17000D01*
X187000Y34500D02*X180500Y28000D01*
X187000Y34500D02*X198000D01*
X222000D02*X233000D01*
X204500Y28000D02*X198000Y34500D01*
X239500Y28000D02*X233000Y34500D01*
X215500Y17000D02*X222000Y10500D01*
X215500Y28000D02*Y17000D01*
X222000Y34500D02*X215500Y28000D01*
X233000Y10500D02*X239500Y17000D01*
X222000Y10500D02*X233000D01*
X239500Y28000D02*Y17000D01*
X268000Y10500D02*X274500Y17000D01*
X257000Y10500D02*X268000D01*
X250500Y17000D02*X257000Y10500D01*
X250500Y28000D02*Y17000D01*
X274500Y28000D02*Y17000D01*
X285500Y28000D02*Y17000D01*
X257000Y34500D02*X250500Y28000D01*
X257000Y34500D02*X268000D01*
X274500Y28000D02*X268000Y34500D01*
X292000D02*X285500Y28000D01*
X292000Y34500D02*X303000D01*
X309500Y28000D02*X303000Y34500D01*
Y10500D02*X309500Y17000D01*
X292000Y10500D02*X303000D01*
X285500Y17000D02*X292000Y10500D01*
X309500Y28000D02*Y17000D01*
X320500Y28000D02*Y17000D01*
X338000Y10500D02*X344500Y17000D01*
X327000Y10500D02*X338000D01*
X320500Y17000D02*X327000Y10500D01*
X373000D02*X379500Y17000D01*
X362000Y10500D02*X373000D01*
X355500Y17000D02*X362000Y10500D01*
X327000Y34500D02*X320500Y28000D01*
X327000Y34500D02*X338000D01*
X344500Y28000D02*X338000Y34500D01*
X344500Y28000D02*Y17000D01*
X355500Y28000D02*Y17000D01*
X362000Y34500D02*X355500Y28000D01*
X362000Y34500D02*X373000D01*
X408000Y10500D02*X414500Y17000D01*
Y28000D02*Y17000D01*
X425500Y28000D02*Y17000D01*
X397000Y10500D02*X408000D01*
X390500Y17000D02*X397000Y10500D01*
X443000D02*X449500Y17000D01*
X432000Y10500D02*X443000D01*
X425500Y17000D02*X432000Y10500D01*
X379500Y28000D02*X373000Y34500D01*
X379500Y28000D02*Y17000D01*
X390500Y28000D02*Y17000D01*
X397000Y34500D02*X390500Y28000D01*
X397000Y34500D02*X408000D01*
X414500Y28000D02*X408000Y34500D01*
X432000D02*X425500Y28000D01*
X432000Y34500D02*X443000D01*
X449500Y28000D02*X443000Y34500D01*
X449500Y28000D02*Y17000D01*
G54D32*X260992Y66091D02*X260492Y66591D01*
X260992Y66091D02*X263992D01*
X264492Y66591D01*
Y67591D01*
X263992Y68091D01*
X260992D02*X263992D01*
X260492Y67591D02*X260992Y68091D01*
X260492Y66591D02*Y67591D01*
X261492Y66091D02*X263492Y68091D01*
X295492Y57091D02*Y57591D01*
X295992Y66091D02*X295492Y66591D01*
X295992Y66091D02*X298992D01*
X299492Y66591D01*
Y67591D01*
X298992Y68091D01*
X295992D02*X298992D01*
X295492Y67591D02*X295992Y68091D01*
X295492Y66591D02*Y67591D01*
X296492Y66091D02*X298492Y68091D01*
X298692Y47591D02*X299492Y48391D01*
X295492D02*X299492D01*
X295492Y47591D02*Y49091D01*
X330492Y57091D02*Y57591D01*
X330992Y66091D02*X330492Y66591D01*
X330992Y66091D02*X333992D01*
X334492Y66591D01*
Y67591D01*
X333992Y68091D01*
X330992D02*X333992D01*
X330492Y67591D02*X330992Y68091D01*
X330492Y66591D02*Y67591D01*
X331492Y66091D02*X333492Y68091D01*
X333692Y47591D02*X334492Y48391D01*
X330492D02*X334492D01*
X330492Y47591D02*Y49091D01*
X365492Y57091D02*Y57591D01*
X365992Y66091D02*X365492Y66591D01*
X365992Y66091D02*X368992D01*
X369492Y66591D01*
Y67591D01*
X368992Y68091D01*
X365992D02*X368992D01*
X365492Y67591D02*X365992Y68091D01*
X365492Y66591D02*Y67591D01*
X366492Y66091D02*X368492Y68091D01*
X368692Y47591D02*X369492Y48391D01*
X365492D02*X369492D01*
X365492Y47591D02*Y49091D01*
X400492Y57091D02*Y57591D01*
X400992Y66091D02*X400492Y66591D01*
X400992Y66091D02*X403992D01*
X404492Y66591D01*
Y67591D01*
X403992Y68091D01*
X400992D02*X403992D01*
X400492Y67591D02*X400992Y68091D01*
X400492Y66591D02*Y67591D01*
X401492Y66091D02*X403492Y68091D01*
X403692Y47591D02*X404492Y48391D01*
X400492D02*X404492D01*
X400492Y47591D02*Y49091D01*
X435492Y57091D02*Y57591D01*
X435992Y66091D02*X435492Y66591D01*
X435992Y66091D02*X438992D01*
X439492Y66591D01*
Y67591D01*
X438992Y68091D01*
X435992D02*X438992D01*
X435492Y67591D02*X435992Y68091D01*
X435492Y66591D02*Y67591D01*
X436492Y66091D02*X438492Y68091D01*
X438692Y47591D02*X439492Y48391D01*
X435492D02*X439492D01*
X435492Y47591D02*Y49091D01*
X260492Y92091D02*Y92591D01*
X260992Y101091D02*X260492Y101591D01*
X260992Y101091D02*X263992D01*
X264492Y101591D01*
Y102591D01*
X263992Y103091D01*
X260992D02*X263992D01*
X260492Y102591D02*X260992Y103091D01*
X260492Y101591D02*Y102591D01*
X261492Y101091D02*X263492Y103091D01*
X263692Y82591D02*X264492Y83391D01*
X260492D02*X264492D01*
X260492Y82591D02*Y84091D01*
X295492Y92091D02*Y92591D01*
X295992Y101091D02*X295492Y101591D01*
X295992Y101091D02*X298992D01*
X299492Y101591D01*
Y102591D01*
X298992Y103091D01*
X295992D02*X298992D01*
X295492Y102591D02*X295992Y103091D01*
X295492Y101591D02*Y102591D01*
X296492Y101091D02*X298492Y103091D01*
X298692Y82591D02*X299492Y83391D01*
X295492D02*X299492D01*
X295492Y82591D02*Y84091D01*
X330492Y92091D02*Y92591D01*
X330992Y101091D02*X330492Y101591D01*
X330992Y101091D02*X333992D01*
X334492Y101591D01*
Y102591D01*
X333992Y103091D01*
X330992D02*X333992D01*
X330492Y102591D02*X330992Y103091D01*
X330492Y101591D02*Y102591D01*
X331492Y101091D02*X333492Y103091D01*
X333692Y82591D02*X334492Y83391D01*
X330492D02*X334492D01*
X330492Y82591D02*Y84091D01*
X365492Y92091D02*Y92591D01*
X365992Y101091D02*X365492Y101591D01*
X365992Y101091D02*X368992D01*
X369492Y101591D01*
Y102591D01*
X368992Y103091D01*
X365992D02*X368992D01*
X365492Y102591D02*X365992Y103091D01*
X365492Y101591D02*Y102591D01*
X366492Y101091D02*X368492Y103091D01*
X368692Y82591D02*X369492Y83391D01*
X365492D02*X369492D01*
X365492Y82591D02*Y84091D01*
X400492Y92091D02*Y92591D01*
X403692Y82591D02*X404492Y83391D01*
X400492D02*X404492D01*
X400492Y82591D02*Y84091D01*
X400992Y101091D02*X400492Y101591D01*
X400992Y101091D02*X403992D01*
X404492Y101591D01*
Y102591D01*
X403992Y103091D01*
X400992D02*X403992D01*
X400492Y102591D02*X400992Y103091D01*
X400492Y101591D02*Y102591D01*
X401492Y101091D02*X403492Y103091D01*
X435492Y92091D02*Y92591D01*
X435992Y101091D02*X435492Y101591D01*
X435992Y101091D02*X438992D01*
X439492Y101591D01*
Y102591D01*
X438992Y103091D01*
X435992D02*X438992D01*
X435492Y102591D02*X435992Y103091D01*
X435492Y101591D02*Y102591D01*
X436492Y101091D02*X438492Y103091D01*
X438692Y82591D02*X439492Y83391D01*
X435492D02*X439492D01*
X435492Y82591D02*Y84091D01*
X263692Y47591D02*X264492Y48391D01*
X260492D02*X264492D01*
X260492Y47591D02*Y49091D01*
Y22091D02*Y22591D01*
X263692Y12591D02*X264492Y13391D01*
X260492D02*X264492D01*
X260492Y12591D02*Y14091D01*
X295492Y22091D02*Y22591D01*
X298692Y12591D02*X299492Y13391D01*
X295492D02*X299492D01*
X295492Y12591D02*Y14091D01*
X260992Y31091D02*X260492Y31591D01*
X260992Y31091D02*X263992D01*
X264492Y31591D01*
Y32591D01*
X263992Y33091D01*
X260992D02*X263992D01*
X260492Y32591D02*X260992Y33091D01*
X260492Y31591D02*Y32591D01*
X261492Y31091D02*X263492Y33091D01*
X295992Y31091D02*X295492Y31591D01*
X295992Y31091D02*X298992D01*
X299492Y31591D01*
Y32591D01*
X298992Y33091D01*
X295992D02*X298992D01*
X295492Y32591D02*X295992Y33091D01*
X295492Y31591D02*Y32591D01*
X296492Y31091D02*X298492Y33091D01*
X330992Y31091D02*X330492Y31591D01*
X330992Y31091D02*X333992D01*
X334492Y31591D01*
Y32591D01*
X333992Y33091D01*
X330992D02*X333992D01*
X330492Y32591D02*X330992Y33091D01*
X330492Y31591D02*Y32591D01*
X331492Y31091D02*X333492Y33091D01*
X330492Y22091D02*Y22591D01*
X333692Y12591D02*X334492Y13391D01*
X330492D02*X334492D01*
X330492Y12591D02*Y14091D01*
X365492Y22091D02*Y22591D01*
X365992Y31091D02*X365492Y31591D01*
X365992Y31091D02*X368992D01*
X369492Y31591D01*
Y32591D01*
X368992Y33091D01*
X365992D02*X368992D01*
X365492Y32591D02*X365992Y33091D01*
X365492Y31591D02*Y32591D01*
X366492Y31091D02*X368492Y33091D01*
X400992Y31091D02*X400492Y31591D01*
X400992Y31091D02*X403992D01*
X404492Y31591D01*
Y32591D01*
X403992Y33091D01*
X400992D02*X403992D01*
X400492Y32591D02*X400992Y33091D01*
X400492Y31591D02*Y32591D01*
X401492Y31091D02*X403492Y33091D01*
X435992Y31091D02*X435492Y31591D01*
X435992Y31091D02*X438992D01*
X439492Y31591D01*
Y32591D01*
X438992Y33091D01*
X435992D02*X438992D01*
X435492Y32591D02*X435992Y33091D01*
X435492Y31591D02*Y32591D01*
X436492Y31091D02*X438492Y33091D01*
X368692Y12591D02*X369492Y13391D01*
X365492D02*X369492D01*
X365492Y12591D02*Y14091D01*
X400492Y22091D02*Y22591D01*
X403692Y12591D02*X404492Y13391D01*
X400492D02*X404492D01*
X400492Y12591D02*Y14091D01*
X435492Y22091D02*Y22591D01*
X438692Y12591D02*X439492Y13391D01*
X435492D02*X439492D01*
X435492Y12591D02*Y14091D01*
X155492Y57091D02*Y57591D01*
X158692Y47591D02*X159492Y48391D01*
X155492D02*X159492D01*
X155492Y47591D02*Y49091D01*
X190492Y57091D02*Y57591D01*
X193692Y47591D02*X194492Y48391D01*
X190492D02*X194492D01*
X190492Y47591D02*Y49091D01*
X155992Y66091D02*X155492Y66591D01*
X155992Y66091D02*X158992D01*
X159492Y66591D01*
Y67591D01*
X158992Y68091D01*
X155992D02*X158992D01*
X155492Y67591D02*X155992Y68091D01*
X155492Y66591D02*Y67591D01*
X156492Y66091D02*X158492Y68091D01*
X190992Y66091D02*X190492Y66591D01*
X190992Y66091D02*X193992D01*
X194492Y66591D01*
Y67591D01*
X193992Y68091D01*
X190992D02*X193992D01*
X190492Y67591D02*X190992Y68091D01*
X190492Y66591D02*Y67591D01*
X191492Y66091D02*X193492Y68091D01*
X225992Y66091D02*X225492Y66591D01*
X225992Y66091D02*X228992D01*
X229492Y66591D01*
Y67591D01*
X228992Y68091D01*
X225992D02*X228992D01*
X225492Y67591D02*X225992Y68091D01*
X225492Y66591D02*Y67591D01*
X226492Y66091D02*X228492Y68091D01*
X225492Y57091D02*Y57591D01*
X228692Y47591D02*X229492Y48391D01*
X225492D02*X229492D01*
X225492Y47591D02*Y49091D01*
X260492Y57091D02*Y57591D01*
X85492Y57091D02*Y57591D01*
X85992Y66091D02*X85492Y66591D01*
X85992Y66091D02*X88992D01*
X89492Y66591D01*
Y67591D01*
X88992Y68091D01*
X85992D02*X88992D01*
X85492Y67591D02*X85992Y68091D01*
X85492Y66591D02*Y67591D01*
X86492Y66091D02*X88492Y68091D01*
X88692Y47591D02*X89492Y48391D01*
X85492D02*X89492D01*
X85492Y47591D02*Y49091D01*
X120492Y57091D02*Y57591D01*
X50492Y57091D02*Y57591D01*
X50992Y66091D02*X50492Y66591D01*
X50992Y66091D02*X53992D01*
X54492Y66591D01*
Y67591D01*
X53992Y68091D01*
X50992D02*X53992D01*
X50492Y67591D02*X50992Y68091D01*
X50492Y66591D02*Y67591D01*
X51492Y66091D02*X53492Y68091D01*
X53692Y47591D02*X54492Y48391D01*
X50492D02*X54492D01*
X50492Y47591D02*Y49091D01*
X123692Y47591D02*X124492Y48391D01*
X120492D02*X124492D01*
X120492Y47591D02*Y49091D01*
Y22091D02*Y22591D01*
X120992Y31091D02*X120492Y31591D01*
X120992Y31091D02*X123992D01*
X124492Y31591D01*
Y32591D01*
X123992Y33091D01*
X120992D02*X123992D01*
X120492Y32591D02*X120992Y33091D01*
X120492Y31591D02*Y32591D01*
X121492Y31091D02*X123492Y33091D01*
X123692Y12591D02*X124492Y13391D01*
X120492D02*X124492D01*
X120492Y12591D02*Y14091D01*
X50492Y92091D02*Y92591D01*
X53692Y82591D02*X54492Y83391D01*
X50492D02*X54492D01*
X50492Y82591D02*Y84091D01*
X85492Y92091D02*Y92591D01*
X88692Y82591D02*X89492Y83391D01*
X85492D02*X89492D01*
X85492Y82591D02*Y84091D01*
X50492Y22091D02*Y22591D01*
X53692Y12591D02*X54492Y13391D01*
X50492D02*X54492D01*
X50492Y12591D02*Y14091D01*
X85492Y22091D02*Y22591D01*
X88692Y12591D02*X89492Y13391D01*
X85492D02*X89492D01*
X85492Y12591D02*Y14091D01*
X155492Y22091D02*Y22591D01*
X158692Y12591D02*X159492Y13391D01*
X155492D02*X159492D01*
X155492Y12591D02*Y14091D01*
X50992Y31091D02*X50492Y31591D01*
X50992Y31091D02*X53992D01*
X54492Y31591D01*
Y32591D01*
X53992Y33091D01*
X50992D02*X53992D01*
X50492Y32591D02*X50992Y33091D01*
X50492Y31591D02*Y32591D01*
X51492Y31091D02*X53492Y33091D01*
X85992Y31091D02*X85492Y31591D01*
X85992Y31091D02*X88992D01*
X89492Y31591D01*
Y32591D01*
X88992Y33091D01*
X85992D02*X88992D01*
X85492Y32591D02*X85992Y33091D01*
X85492Y31591D02*Y32591D01*
X86492Y31091D02*X88492Y33091D01*
X155992Y31091D02*X155492Y31591D01*
X155992Y31091D02*X158992D01*
X159492Y31591D01*
Y32591D01*
X158992Y33091D01*
X155992D02*X158992D01*
X155492Y32591D02*X155992Y33091D01*
X155492Y31591D02*Y32591D01*
X156492Y31091D02*X158492Y33091D01*
X120992Y66091D02*X120492Y66591D01*
X120992Y66091D02*X123992D01*
X124492Y66591D01*
Y67591D01*
X123992Y68091D01*
X120992D02*X123992D01*
X120492Y67591D02*X120992Y68091D01*
X120492Y66591D02*Y67591D01*
X121492Y66091D02*X123492Y68091D01*
X120492Y92091D02*Y92591D01*
X120992Y101091D02*X120492Y101591D01*
X120992Y101091D02*X123992D01*
X124492Y101591D01*
Y102591D01*
X123992Y103091D01*
X120992D02*X123992D01*
X120492Y102591D02*X120992Y103091D01*
X120492Y101591D02*Y102591D01*
X121492Y101091D02*X123492Y103091D01*
X123692Y82591D02*X124492Y83391D01*
X120492D02*X124492D01*
X120492Y82591D02*Y84091D01*
X50992Y101091D02*X50492Y101591D01*
X50992Y101091D02*X53992D01*
X54492Y101591D01*
Y102591D01*
X53992Y103091D01*
X50992D02*X53992D01*
X50492Y102591D02*X50992Y103091D01*
X50492Y101591D02*Y102591D01*
X51492Y101091D02*X53492Y103091D01*
X85992Y101091D02*X85492Y101591D01*
X85992Y101091D02*X88992D01*
X89492Y101591D01*
Y102591D01*
X88992Y103091D01*
X85992D02*X88992D01*
X85492Y102591D02*X85992Y103091D01*
X85492Y101591D02*Y102591D01*
X86492Y101091D02*X88492Y103091D01*
X155992Y101091D02*X155492Y101591D01*
X155992Y101091D02*X158992D01*
X159492Y101591D01*
Y102591D01*
X158992Y103091D01*
X155992D02*X158992D01*
X155492Y102591D02*X155992Y103091D01*
X155492Y101591D02*Y102591D01*
X156492Y101091D02*X158492Y103091D01*
X155492Y92091D02*Y92591D01*
X158692Y82591D02*X159492Y83391D01*
X155492D02*X159492D01*
X155492Y82591D02*Y84091D01*
X190492Y92091D02*Y92591D01*
X193692Y82591D02*X194492Y83391D01*
X190492D02*X194492D01*
X190492Y82591D02*Y84091D01*
X190992Y101091D02*X190492Y101591D01*
X190992Y101091D02*X193992D01*
X194492Y101591D01*
Y102591D01*
X193992Y103091D01*
X190992D02*X193992D01*
X190492Y102591D02*X190992Y103091D01*
X190492Y101591D02*Y102591D01*
X191492Y101091D02*X193492Y103091D01*
X225492Y92091D02*Y92591D01*
X225992Y101091D02*X225492Y101591D01*
X225992Y101091D02*X228992D01*
X229492Y101591D01*
Y102591D01*
X228992Y103091D01*
X225992D02*X228992D01*
X225492Y102591D02*X225992Y103091D01*
X225492Y101591D02*Y102591D01*
X226492Y101091D02*X228492Y103091D01*
X228692Y82591D02*X229492Y83391D01*
X225492D02*X229492D01*
X225492Y82591D02*Y84091D01*
X190492Y22091D02*Y22591D01*
X190992Y31091D02*X190492Y31591D01*
X190992Y31091D02*X193992D01*
X194492Y31591D01*
Y32591D01*
X193992Y33091D01*
X190992D02*X193992D01*
X190492Y32591D02*X190992Y33091D01*
X190492Y31591D02*Y32591D01*
X191492Y31091D02*X193492Y33091D01*
X193692Y12591D02*X194492Y13391D01*
X190492D02*X194492D01*
X190492Y12591D02*Y14091D01*
X225492Y22091D02*Y22591D01*
X225992Y31091D02*X225492Y31591D01*
X225992Y31091D02*X228992D01*
X229492Y31591D01*
Y32591D01*
X228992Y33091D01*
X225992D02*X228992D01*
X225492Y32591D02*X225992Y33091D01*
X225492Y31591D02*Y32591D01*
X226492Y31091D02*X228492Y33091D01*
X228692Y12591D02*X229492Y13391D01*
X225492D02*X229492D01*
X225492Y12591D02*Y14091D01*
M02*
