G04 start of page 12 for group -3984 idx -3984 *
G04 Title: (unknown), fab *
G04 Creator: pcb 4.0.2 *
G04 CreationDate: Fri Mar 17 03:13:06 2023 UTC *
G04 For: railfan *
G04 Format: Gerber/RS-274X *
G04 PCB-Dimensions (mil): 4900.00 1150.00 *
G04 PCB-Coordinate-Origin: lower left *
%MOIN*%
%FSLAX25Y25*%
%LNFAB*%
%ADD37C,0.0100*%
%ADD36C,0.0075*%
%ADD35C,0.0060*%
%ADD34R,0.0080X0.0080*%
G54D34*X46500Y67600D02*Y64400D01*
X44900Y66000D02*X48100D01*
X45000Y59100D02*Y55900D01*
X43400Y57500D02*X46600D01*
X60500Y58600D02*Y55400D01*
X58900Y57000D02*X62100D01*
X58500Y50600D02*Y47400D01*
X56900Y49000D02*X60100D01*
X46500Y50600D02*Y47400D01*
X44900Y49000D02*X48100D01*
X81500Y67600D02*Y64400D01*
X79900Y66000D02*X83100D01*
X80000Y59100D02*Y55900D01*
X78400Y57500D02*X81600D01*
X95500Y58600D02*Y55400D01*
X93900Y57000D02*X97100D01*
X93500Y50600D02*Y47400D01*
X91900Y49000D02*X95100D01*
X81500Y50600D02*Y47400D01*
X79900Y49000D02*X83100D01*
X116500Y67600D02*Y64400D01*
X114900Y66000D02*X118100D01*
X115000Y59100D02*Y55900D01*
X113400Y57500D02*X116600D01*
X130500Y58600D02*Y55400D01*
X128900Y57000D02*X132100D01*
X128500Y50600D02*Y47400D01*
X126900Y49000D02*X130100D01*
X116500Y50600D02*Y47400D01*
X114900Y49000D02*X118100D01*
X151500Y67600D02*Y64400D01*
X149900Y66000D02*X153100D01*
X150000Y59100D02*Y55900D01*
X148400Y57500D02*X151600D01*
X165500Y58600D02*Y55400D01*
X163900Y57000D02*X167100D01*
X163500Y50600D02*Y47400D01*
X161900Y49000D02*X165100D01*
X151500Y50600D02*Y47400D01*
X149900Y49000D02*X153100D01*
X186500Y67600D02*Y64400D01*
X184900Y66000D02*X188100D01*
X185000Y59100D02*Y55900D01*
X183400Y57500D02*X186600D01*
X200500Y58600D02*Y55400D01*
X198900Y57000D02*X202100D01*
X198500Y50600D02*Y47400D01*
X196900Y49000D02*X200100D01*
X186500Y50600D02*Y47400D01*
X184900Y49000D02*X188100D01*
X221500Y67600D02*Y64400D01*
X219900Y66000D02*X223100D01*
X220000Y59100D02*Y55900D01*
X218400Y57500D02*X221600D01*
X235500Y58600D02*Y55400D01*
X233900Y57000D02*X237100D01*
X233500Y50600D02*Y47400D01*
X231900Y49000D02*X235100D01*
X221500Y50600D02*Y47400D01*
X219900Y49000D02*X223100D01*
X256500Y67600D02*Y64400D01*
X254900Y66000D02*X258100D01*
X255000Y59100D02*Y55900D01*
X253400Y57500D02*X256600D01*
X270500Y58600D02*Y55400D01*
X268900Y57000D02*X272100D01*
X268500Y50600D02*Y47400D01*
X266900Y49000D02*X270100D01*
X256500Y50600D02*Y47400D01*
X254900Y49000D02*X258100D01*
X291500Y67600D02*Y64400D01*
X289900Y66000D02*X293100D01*
X290000Y59100D02*Y55900D01*
X288400Y57500D02*X291600D01*
X305500Y58600D02*Y55400D01*
X303900Y57000D02*X307100D01*
X303500Y50600D02*Y47400D01*
X301900Y49000D02*X305100D01*
X291500Y50600D02*Y47400D01*
X289900Y49000D02*X293100D01*
X326500Y67600D02*Y64400D01*
X324900Y66000D02*X328100D01*
X325000Y59100D02*Y55900D01*
X323400Y57500D02*X326600D01*
X340500Y58600D02*Y55400D01*
X338900Y57000D02*X342100D01*
X338500Y50600D02*Y47400D01*
X336900Y49000D02*X340100D01*
X326500Y50600D02*Y47400D01*
X324900Y49000D02*X328100D01*
X361500Y67600D02*Y64400D01*
X359900Y66000D02*X363100D01*
X360000Y59100D02*Y55900D01*
X358400Y57500D02*X361600D01*
X375500Y58600D02*Y55400D01*
X373900Y57000D02*X377100D01*
X373500Y50600D02*Y47400D01*
X371900Y49000D02*X375100D01*
X361500Y50600D02*Y47400D01*
X359900Y49000D02*X363100D01*
X396500Y67600D02*Y64400D01*
X394900Y66000D02*X398100D01*
X395000Y59100D02*Y55900D01*
X393400Y57500D02*X396600D01*
X410500Y58600D02*Y55400D01*
X408900Y57000D02*X412100D01*
X408500Y50600D02*Y47400D01*
X406900Y49000D02*X410100D01*
X396500Y50600D02*Y47400D01*
X394900Y49000D02*X398100D01*
X431500Y67600D02*Y64400D01*
X429900Y66000D02*X433100D01*
X430000Y59100D02*Y55900D01*
X428400Y57500D02*X431600D01*
X445500Y58600D02*Y55400D01*
X443900Y57000D02*X447100D01*
X443500Y50600D02*Y47400D01*
X441900Y49000D02*X445100D01*
X431500Y50600D02*Y47400D01*
X429900Y49000D02*X433100D01*
X46500Y102600D02*Y99400D01*
X44900Y101000D02*X48100D01*
X45000Y94100D02*Y90900D01*
X43400Y92500D02*X46600D01*
X60500Y93600D02*Y90400D01*
X58900Y92000D02*X62100D01*
X58500Y85600D02*Y82400D01*
X56900Y84000D02*X60100D01*
X46500Y85600D02*Y82400D01*
X44900Y84000D02*X48100D01*
X81500Y102600D02*Y99400D01*
X79900Y101000D02*X83100D01*
X80000Y94100D02*Y90900D01*
X78400Y92500D02*X81600D01*
X95500Y93600D02*Y90400D01*
X93900Y92000D02*X97100D01*
X93500Y85600D02*Y82400D01*
X91900Y84000D02*X95100D01*
X81500Y85600D02*Y82400D01*
X79900Y84000D02*X83100D01*
X116500Y102600D02*Y99400D01*
X114900Y101000D02*X118100D01*
X115000Y94100D02*Y90900D01*
X113400Y92500D02*X116600D01*
X130500Y93600D02*Y90400D01*
X128900Y92000D02*X132100D01*
X128500Y85600D02*Y82400D01*
X126900Y84000D02*X130100D01*
X116500Y85600D02*Y82400D01*
X114900Y84000D02*X118100D01*
X151500Y102600D02*Y99400D01*
X149900Y101000D02*X153100D01*
X150000Y94100D02*Y90900D01*
X148400Y92500D02*X151600D01*
X165500Y93600D02*Y90400D01*
X163900Y92000D02*X167100D01*
X163500Y85600D02*Y82400D01*
X161900Y84000D02*X165100D01*
X151500Y85600D02*Y82400D01*
X149900Y84000D02*X153100D01*
X186500Y102600D02*Y99400D01*
X184900Y101000D02*X188100D01*
X185000Y94100D02*Y90900D01*
X183400Y92500D02*X186600D01*
X200500Y93600D02*Y90400D01*
X198900Y92000D02*X202100D01*
X198500Y85600D02*Y82400D01*
X196900Y84000D02*X200100D01*
X186500Y85600D02*Y82400D01*
X184900Y84000D02*X188100D01*
X221500Y102600D02*Y99400D01*
X219900Y101000D02*X223100D01*
X220000Y94100D02*Y90900D01*
X218400Y92500D02*X221600D01*
X235500Y93600D02*Y90400D01*
X233900Y92000D02*X237100D01*
X233500Y85600D02*Y82400D01*
X231900Y84000D02*X235100D01*
X221500Y85600D02*Y82400D01*
X219900Y84000D02*X223100D01*
X256500Y102600D02*Y99400D01*
X254900Y101000D02*X258100D01*
X255000Y94100D02*Y90900D01*
X253400Y92500D02*X256600D01*
X270500Y93600D02*Y90400D01*
X268900Y92000D02*X272100D01*
X268500Y85600D02*Y82400D01*
X266900Y84000D02*X270100D01*
X256500Y85600D02*Y82400D01*
X254900Y84000D02*X258100D01*
X291500Y102600D02*Y99400D01*
X289900Y101000D02*X293100D01*
X290000Y94100D02*Y90900D01*
X288400Y92500D02*X291600D01*
X305500Y93600D02*Y90400D01*
X303900Y92000D02*X307100D01*
X303500Y85600D02*Y82400D01*
X301900Y84000D02*X305100D01*
X291500Y85600D02*Y82400D01*
X289900Y84000D02*X293100D01*
X326500Y102600D02*Y99400D01*
X324900Y101000D02*X328100D01*
X325000Y94100D02*Y90900D01*
X323400Y92500D02*X326600D01*
X340500Y93600D02*Y90400D01*
X338900Y92000D02*X342100D01*
X338500Y85600D02*Y82400D01*
X336900Y84000D02*X340100D01*
X326500Y85600D02*Y82400D01*
X324900Y84000D02*X328100D01*
X361500Y102600D02*Y99400D01*
X359900Y101000D02*X363100D01*
X360000Y94100D02*Y90900D01*
X358400Y92500D02*X361600D01*
X375500Y93600D02*Y90400D01*
X373900Y92000D02*X377100D01*
X373500Y85600D02*Y82400D01*
X371900Y84000D02*X375100D01*
X361500Y85600D02*Y82400D01*
X359900Y84000D02*X363100D01*
X396500Y102600D02*Y99400D01*
X394900Y101000D02*X398100D01*
X395000Y94100D02*Y90900D01*
X393400Y92500D02*X396600D01*
X410500Y93600D02*Y90400D01*
X408900Y92000D02*X412100D01*
X408500Y85600D02*Y82400D01*
X406900Y84000D02*X410100D01*
X396500Y85600D02*Y82400D01*
X394900Y84000D02*X398100D01*
X431500Y102600D02*Y99400D01*
X429900Y101000D02*X433100D01*
X430000Y94100D02*Y90900D01*
X428400Y92500D02*X431600D01*
X445500Y93600D02*Y90400D01*
X443900Y92000D02*X447100D01*
X443500Y85600D02*Y82400D01*
X441900Y84000D02*X445100D01*
X431500Y85600D02*Y82400D01*
X429900Y84000D02*X433100D01*
X46500Y32600D02*Y29400D01*
X44900Y31000D02*X48100D01*
X45000Y24100D02*Y20900D01*
X43400Y22500D02*X46600D01*
X60500Y23600D02*Y20400D01*
X58900Y22000D02*X62100D01*
X58500Y15600D02*Y12400D01*
X56900Y14000D02*X60100D01*
X46500Y15600D02*Y12400D01*
X44900Y14000D02*X48100D01*
X81500Y32600D02*Y29400D01*
X79900Y31000D02*X83100D01*
X80000Y24100D02*Y20900D01*
X78400Y22500D02*X81600D01*
X95500Y23600D02*Y20400D01*
X93900Y22000D02*X97100D01*
X93500Y15600D02*Y12400D01*
X91900Y14000D02*X95100D01*
X81500Y15600D02*Y12400D01*
X79900Y14000D02*X83100D01*
X116500Y32600D02*Y29400D01*
X114900Y31000D02*X118100D01*
X115000Y24100D02*Y20900D01*
X113400Y22500D02*X116600D01*
X130500Y23600D02*Y20400D01*
X128900Y22000D02*X132100D01*
X128500Y15600D02*Y12400D01*
X126900Y14000D02*X130100D01*
X116500Y15600D02*Y12400D01*
X114900Y14000D02*X118100D01*
X151500Y32600D02*Y29400D01*
X149900Y31000D02*X153100D01*
X150000Y24100D02*Y20900D01*
X148400Y22500D02*X151600D01*
X165500Y23600D02*Y20400D01*
X163900Y22000D02*X167100D01*
X163500Y15600D02*Y12400D01*
X161900Y14000D02*X165100D01*
X151500Y15600D02*Y12400D01*
X149900Y14000D02*X153100D01*
X186500Y32600D02*Y29400D01*
X184900Y31000D02*X188100D01*
X185000Y24100D02*Y20900D01*
X183400Y22500D02*X186600D01*
X200500Y23600D02*Y20400D01*
X198900Y22000D02*X202100D01*
X198500Y15600D02*Y12400D01*
X196900Y14000D02*X200100D01*
X186500Y15600D02*Y12400D01*
X184900Y14000D02*X188100D01*
X221500Y32600D02*Y29400D01*
X219900Y31000D02*X223100D01*
X220000Y24100D02*Y20900D01*
X218400Y22500D02*X221600D01*
X235500Y23600D02*Y20400D01*
X233900Y22000D02*X237100D01*
X233500Y15600D02*Y12400D01*
X231900Y14000D02*X235100D01*
X221500Y15600D02*Y12400D01*
X219900Y14000D02*X223100D01*
X256500Y32600D02*Y29400D01*
X254900Y31000D02*X258100D01*
X255000Y24100D02*Y20900D01*
X253400Y22500D02*X256600D01*
X270500Y23600D02*Y20400D01*
X268900Y22000D02*X272100D01*
X268500Y15600D02*Y12400D01*
X266900Y14000D02*X270100D01*
X256500Y15600D02*Y12400D01*
X254900Y14000D02*X258100D01*
X291500Y32600D02*Y29400D01*
X289900Y31000D02*X293100D01*
X290000Y24100D02*Y20900D01*
X288400Y22500D02*X291600D01*
X305500Y23600D02*Y20400D01*
X303900Y22000D02*X307100D01*
X303500Y15600D02*Y12400D01*
X301900Y14000D02*X305100D01*
X291500Y15600D02*Y12400D01*
X289900Y14000D02*X293100D01*
X326500Y32600D02*Y29400D01*
X324900Y31000D02*X328100D01*
X325000Y24100D02*Y20900D01*
X323400Y22500D02*X326600D01*
X340500Y23600D02*Y20400D01*
X338900Y22000D02*X342100D01*
X338500Y15600D02*Y12400D01*
X336900Y14000D02*X340100D01*
X326500Y15600D02*Y12400D01*
X324900Y14000D02*X328100D01*
X361500Y32600D02*Y29400D01*
X359900Y31000D02*X363100D01*
X360000Y24100D02*Y20900D01*
X358400Y22500D02*X361600D01*
X375500Y23600D02*Y20400D01*
X373900Y22000D02*X377100D01*
X373500Y15600D02*Y12400D01*
X371900Y14000D02*X375100D01*
X361500Y15600D02*Y12400D01*
X359900Y14000D02*X363100D01*
X396500Y32600D02*Y29400D01*
X394900Y31000D02*X398100D01*
X395000Y24100D02*Y20900D01*
X393400Y22500D02*X396600D01*
X410500Y23600D02*Y20400D01*
X408900Y22000D02*X412100D01*
X408500Y15600D02*Y12400D01*
X406900Y14000D02*X410100D01*
X396500Y15600D02*Y12400D01*
X394900Y14000D02*X398100D01*
X431500Y32600D02*Y29400D01*
X429900Y31000D02*X433100D01*
X430000Y24100D02*Y20900D01*
X428400Y22500D02*X431600D01*
X445500Y23600D02*Y20400D01*
X443900Y22000D02*X447100D01*
X443500Y15600D02*Y12400D01*
X441900Y14000D02*X445100D01*
X431500Y15600D02*Y12400D01*
X429900Y14000D02*X433100D01*
X15000Y157850D02*Y154650D01*
X13400Y156250D02*X16600D01*
G54D35*X135000Y158500D02*X136500Y155500D01*
X138000Y158500D01*
X136500Y155500D02*Y152500D01*
X139800Y155800D02*X142050D01*
X139800Y152500D02*X142800D01*
X139800Y158500D02*Y152500D01*
Y158500D02*X142800D01*
X147600D02*X148350Y157750D01*
X145350Y158500D02*X147600D01*
X144600Y157750D02*X145350Y158500D01*
X144600Y157750D02*Y156250D01*
X145350Y155500D01*
X147600D01*
X148350Y154750D01*
Y153250D01*
X147600Y152500D02*X148350Y153250D01*
X145350Y152500D02*X147600D01*
X144600Y153250D02*X145350Y152500D01*
X98000Y157300D02*X99200Y158500D01*
Y152500D01*
X98000D02*X100250D01*
X102050Y153250D02*X102800Y152500D01*
X102050Y154450D02*Y153250D01*
Y154450D02*X103100Y155500D01*
X104000D01*
X105050Y154450D01*
Y153250D01*
X104300Y152500D02*X105050Y153250D01*
X102800Y152500D02*X104300D01*
X102050Y156550D02*X103100Y155500D01*
X102050Y157750D02*Y156550D01*
Y157750D02*X102800Y158500D01*
X104300D01*
X105050Y157750D01*
Y156550D01*
X104000Y155500D02*X105050Y156550D01*
X106850Y153250D02*X107600Y152500D01*
X106850Y157750D02*Y153250D01*
Y157750D02*X107600Y158500D01*
X109100D01*
X109850Y157750D01*
Y153250D01*
X109100Y152500D02*X109850Y153250D01*
X107600Y152500D02*X109100D01*
X106850Y154000D02*X109850Y157000D01*
X45000Y153250D02*X45750Y152500D01*
X45000Y157750D02*Y153250D01*
Y157750D02*X45750Y158500D01*
X47250D01*
X48000Y157750D01*
Y153250D01*
X47250Y152500D02*X48000Y153250D01*
X45750Y152500D02*X47250D01*
X45000Y154000D02*X48000Y157000D01*
X49800Y152500D02*X50550D01*
X52350Y153250D02*X53100Y152500D01*
X52350Y157750D02*Y153250D01*
Y157750D02*X53100Y158500D01*
X54600D01*
X55350Y157750D01*
Y153250D01*
X54600Y152500D02*X55350Y153250D01*
X53100Y152500D02*X54600D01*
X52350Y154000D02*X55350Y157000D01*
X57150Y157300D02*X58350Y158500D01*
Y152500D01*
X57150D02*X59400D01*
X61200Y157750D02*X61950Y158500D01*
X63450D01*
X64200Y157750D01*
X63450Y152500D02*X64200Y153250D01*
X61950Y152500D02*X63450D01*
X61200Y153250D02*X61950Y152500D01*
Y155800D02*X63450D01*
X64200Y157750D02*Y156550D01*
Y155050D02*Y153250D01*
Y155050D02*X63450Y155800D01*
X64200Y156550D02*X63450Y155800D01*
X16000Y99000D02*Y97400D01*
Y99000D02*X17387Y99800D01*
X16000Y99000D02*X14613Y99800D01*
X466000Y22500D02*Y20900D01*
Y22500D02*X467387Y23300D01*
X466000Y22500D02*X464613Y23300D01*
X466000Y92500D02*Y90900D01*
Y92500D02*X467387Y93300D01*
X466000Y92500D02*X464613Y93300D01*
X15000Y171250D02*Y169650D01*
Y171250D02*X16387Y172050D01*
X15000Y171250D02*X13613Y172050D01*
X135000Y173500D02*X136500Y170500D01*
X138000Y173500D01*
X136500Y170500D02*Y167500D01*
X139800Y170800D02*X142050D01*
X139800Y167500D02*X142800D01*
X139800Y173500D02*Y167500D01*
Y173500D02*X142800D01*
X147600D02*X148350Y172750D01*
X145350Y173500D02*X147600D01*
X144600Y172750D02*X145350Y173500D01*
X144600Y172750D02*Y171250D01*
X145350Y170500D01*
X147600D01*
X148350Y169750D01*
Y168250D01*
X147600Y167500D02*X148350Y168250D01*
X145350Y167500D02*X147600D01*
X144600Y168250D02*X145350Y167500D01*
X98000Y172750D02*X98750Y173500D01*
X100250D01*
X101000Y172750D01*
X100250Y167500D02*X101000Y168250D01*
X98750Y167500D02*X100250D01*
X98000Y168250D02*X98750Y167500D01*
Y170800D02*X100250D01*
X101000Y172750D02*Y171550D01*
Y170050D02*Y168250D01*
Y170050D02*X100250Y170800D01*
X101000Y171550D02*X100250Y170800D01*
X45000Y168250D02*X45750Y167500D01*
X45000Y172750D02*Y168250D01*
Y172750D02*X45750Y173500D01*
X47250D01*
X48000Y172750D01*
Y168250D01*
X47250Y167500D02*X48000Y168250D01*
X45750Y167500D02*X47250D01*
X45000Y169000D02*X48000Y172000D01*
X49800Y167500D02*X50550D01*
X52350Y168250D02*X53100Y167500D01*
X52350Y172750D02*Y168250D01*
Y172750D02*X53100Y173500D01*
X54600D01*
X55350Y172750D01*
Y168250D01*
X54600Y167500D02*X55350Y168250D01*
X53100Y167500D02*X54600D01*
X52350Y169000D02*X55350Y172000D01*
X57150Y168250D02*X57900Y167500D01*
X57150Y172750D02*Y168250D01*
Y172750D02*X57900Y173500D01*
X59400D01*
X60150Y172750D01*
Y168250D01*
X59400Y167500D02*X60150Y168250D01*
X57900Y167500D02*X59400D01*
X57150Y169000D02*X60150Y172000D01*
X61950Y168250D02*X62700Y167500D01*
X61950Y172750D02*Y168250D01*
Y172750D02*X62700Y173500D01*
X64200D01*
X64950Y172750D01*
Y168250D01*
X64200Y167500D02*X64950Y168250D01*
X62700Y167500D02*X64200D01*
X61950Y169000D02*X64950Y172000D01*
X3000Y188500D02*X3750Y187750D01*
X750Y188500D02*X3000D01*
X0Y187750D02*X750Y188500D01*
X0Y187750D02*Y186250D01*
X750Y185500D01*
X3000D01*
X3750Y184750D01*
Y183250D01*
X3000Y182500D02*X3750Y183250D01*
X750Y182500D02*X3000D01*
X0Y183250D02*X750Y182500D01*
X5550Y185500D02*Y183250D01*
X6300Y182500D01*
X8550Y185500D02*Y181000D01*
X7800Y180250D02*X8550Y181000D01*
X6300Y180250D02*X7800D01*
X5550Y181000D02*X6300Y180250D01*
Y182500D02*X7800D01*
X8550Y183250D01*
X11100Y184750D02*Y182500D01*
Y184750D02*X11850Y185500D01*
X12600D01*
X13350Y184750D01*
Y182500D01*
Y184750D02*X14100Y185500D01*
X14850D01*
X15600Y184750D01*
Y182500D01*
X10350Y185500D02*X11100Y184750D01*
X17400Y188500D02*Y182500D01*
Y183250D02*X18150Y182500D01*
X19650D01*
X20400Y183250D01*
Y184750D02*Y183250D01*
X19650Y185500D02*X20400Y184750D01*
X18150Y185500D02*X19650D01*
X17400Y184750D02*X18150Y185500D01*
X22200Y184750D02*Y183250D01*
Y184750D02*X22950Y185500D01*
X24450D01*
X25200Y184750D01*
Y183250D01*
X24450Y182500D02*X25200Y183250D01*
X22950Y182500D02*X24450D01*
X22200Y183250D02*X22950Y182500D01*
X27000Y188500D02*Y183250D01*
X27750Y182500D01*
X0Y179250D02*X29250D01*
X41750Y188500D02*Y182500D01*
X43700Y188500D02*X44750Y187450D01*
Y183550D01*
X43700Y182500D02*X44750Y183550D01*
X41000Y182500D02*X43700D01*
X41000Y188500D02*X43700D01*
G54D36*X46550Y187000D02*Y186850D01*
G54D35*Y184750D02*Y182500D01*
X50300Y185500D02*X51050Y184750D01*
X48800Y185500D02*X50300D01*
X48050Y184750D02*X48800Y185500D01*
X48050Y184750D02*Y183250D01*
X48800Y182500D01*
X51050Y185500D02*Y183250D01*
X51800Y182500D01*
X48800D02*X50300D01*
X51050Y183250D01*
X54350Y184750D02*Y182500D01*
Y184750D02*X55100Y185500D01*
X55850D01*
X56600Y184750D01*
Y182500D01*
Y184750D02*X57350Y185500D01*
X58100D01*
X58850Y184750D01*
Y182500D01*
X53600Y185500D02*X54350Y184750D01*
X60650Y182500D02*X61400D01*
X65900Y183250D02*X66650Y182500D01*
X65900Y187750D02*X66650Y188500D01*
X65900Y187750D02*Y183250D01*
X68450Y188500D02*X69950D01*
X69200D02*Y182500D01*
X68450D02*X69950D01*
X72500Y184750D02*Y182500D01*
Y184750D02*X73250Y185500D01*
X74000D01*
X74750Y184750D01*
Y182500D01*
X71750Y185500D02*X72500Y184750D01*
X77300Y185500D02*X79550D01*
X76550Y184750D02*X77300Y185500D01*
X76550Y184750D02*Y183250D01*
X77300Y182500D01*
X79550D01*
X81350Y188500D02*Y182500D01*
Y184750D02*X82100Y185500D01*
X83600D01*
X84350Y184750D01*
Y182500D01*
X86150Y188500D02*X86900Y187750D01*
Y183250D01*
X86150Y182500D02*X86900Y183250D01*
X41000Y179250D02*X88700D01*
X96050Y182500D02*X98000D01*
X95000Y183550D02*X96050Y182500D01*
X95000Y187450D02*Y183550D01*
Y187450D02*X96050Y188500D01*
X98000D01*
X99800Y184750D02*Y183250D01*
Y184750D02*X100550Y185500D01*
X102050D01*
X102800Y184750D01*
Y183250D01*
X102050Y182500D02*X102800Y183250D01*
X100550Y182500D02*X102050D01*
X99800Y183250D02*X100550Y182500D01*
X104600Y185500D02*Y183250D01*
X105350Y182500D01*
X106850D01*
X107600Y183250D01*
Y185500D02*Y183250D01*
X110150Y184750D02*Y182500D01*
Y184750D02*X110900Y185500D01*
X111650D01*
X112400Y184750D01*
Y182500D01*
X109400Y185500D02*X110150Y184750D01*
X114950Y188500D02*Y183250D01*
X115700Y182500D01*
X114200Y186250D02*X115700D01*
X95000Y179250D02*X117200D01*
X130750Y188500D02*Y182500D01*
X130000Y188500D02*X133000D01*
X133750Y187750D01*
Y186250D01*
X133000Y185500D02*X133750Y186250D01*
X130750Y185500D02*X133000D01*
X135550Y188500D02*Y183250D01*
X136300Y182500D01*
X140050Y185500D02*X140800Y184750D01*
X138550Y185500D02*X140050D01*
X137800Y184750D02*X138550Y185500D01*
X137800Y184750D02*Y183250D01*
X138550Y182500D01*
X140800Y185500D02*Y183250D01*
X141550Y182500D01*
X138550D02*X140050D01*
X140800Y183250D01*
X144100Y188500D02*Y183250D01*
X144850Y182500D01*
X143350Y186250D02*X144850D01*
X147100Y182500D02*X149350D01*
X146350Y183250D02*X147100Y182500D01*
X146350Y184750D02*Y183250D01*
Y184750D02*X147100Y185500D01*
X148600D01*
X149350Y184750D01*
X146350Y184000D02*X149350D01*
Y184750D02*Y184000D01*
X154150Y188500D02*Y182500D01*
X153400D02*X154150Y183250D01*
X151900Y182500D02*X153400D01*
X151150Y183250D02*X151900Y182500D01*
X151150Y184750D02*Y183250D01*
Y184750D02*X151900Y185500D01*
X153400D01*
X154150Y184750D01*
X157450Y185500D02*Y184750D01*
Y183250D02*Y182500D01*
X155950Y187750D02*Y187000D01*
Y187750D02*X156700Y188500D01*
X158200D01*
X158950Y187750D01*
Y187000D01*
X157450Y185500D02*X158950Y187000D01*
X130000Y179250D02*X160750D01*
X0Y203500D02*X3000D01*
X1500D02*Y197500D01*
X4800Y203500D02*Y197500D01*
Y199750D02*X5550Y200500D01*
X7050D01*
X7800Y199750D01*
Y197500D01*
X10350D02*X12600D01*
X9600Y198250D02*X10350Y197500D01*
X9600Y199750D02*Y198250D01*
Y199750D02*X10350Y200500D01*
X11850D01*
X12600Y199750D01*
X9600Y199000D02*X12600D01*
Y199750D02*Y199000D01*
X15150Y199750D02*Y197500D01*
Y199750D02*X15900Y200500D01*
X17400D01*
X14400D02*X15150Y199750D01*
X19950Y197500D02*X22200D01*
X19200Y198250D02*X19950Y197500D01*
X19200Y199750D02*Y198250D01*
Y199750D02*X19950Y200500D01*
X21450D01*
X22200Y199750D01*
X19200Y199000D02*X22200D01*
Y199750D02*Y199000D01*
X28950Y200500D02*X29700Y199750D01*
X27450Y200500D02*X28950D01*
X26700Y199750D02*X27450Y200500D01*
X26700Y199750D02*Y198250D01*
X27450Y197500D01*
X29700Y200500D02*Y198250D01*
X30450Y197500D01*
X27450D02*X28950D01*
X29700Y198250D01*
X33000Y199750D02*Y197500D01*
Y199750D02*X33750Y200500D01*
X35250D01*
X32250D02*X33000Y199750D01*
X37800Y197500D02*X40050D01*
X37050Y198250D02*X37800Y197500D01*
X37050Y199750D02*Y198250D01*
Y199750D02*X37800Y200500D01*
X39300D01*
X40050Y199750D01*
X37050Y199000D02*X40050D01*
Y199750D02*Y199000D01*
X44550Y202750D02*X45300Y203500D01*
X47550D01*
X48300Y202750D01*
Y201250D01*
X44550Y197500D02*X48300Y201250D01*
X44550Y197500D02*X48300D01*
X55800Y203500D02*Y197500D01*
X55050D02*X55800Y198250D01*
X53550Y197500D02*X55050D01*
X52800Y198250D02*X53550Y197500D01*
X52800Y199750D02*Y198250D01*
Y199750D02*X53550Y200500D01*
X55050D01*
X55800Y199750D01*
G54D36*X57600Y202000D02*Y201850D01*
G54D35*Y199750D02*Y197500D01*
X59850Y202750D02*Y197500D01*
Y202750D02*X60600Y203500D01*
X61350D01*
X59100Y200500D02*X60600D01*
X63600Y202750D02*Y197500D01*
Y202750D02*X64350Y203500D01*
X65100D01*
X62850Y200500D02*X64350D01*
X67350Y197500D02*X69600D01*
X66600Y198250D02*X67350Y197500D01*
X66600Y199750D02*Y198250D01*
Y199750D02*X67350Y200500D01*
X68850D01*
X69600Y199750D01*
X66600Y199000D02*X69600D01*
Y199750D02*Y199000D01*
X72150Y199750D02*Y197500D01*
Y199750D02*X72900Y200500D01*
X74400D01*
X71400D02*X72150Y199750D01*
X76950Y197500D02*X79200D01*
X76200Y198250D02*X76950Y197500D01*
X76200Y199750D02*Y198250D01*
Y199750D02*X76950Y200500D01*
X78450D01*
X79200Y199750D01*
X76200Y199000D02*X79200D01*
Y199750D02*Y199000D01*
X81750Y199750D02*Y197500D01*
Y199750D02*X82500Y200500D01*
X83250D01*
X84000Y199750D01*
Y197500D01*
X81000Y200500D02*X81750Y199750D01*
X86550Y203500D02*Y198250D01*
X87300Y197500D01*
X85800Y201250D02*X87300D01*
X94500Y203500D02*Y197500D01*
X93750D02*X94500Y198250D01*
X92250Y197500D02*X93750D01*
X91500Y198250D02*X92250Y197500D01*
X91500Y199750D02*Y198250D01*
Y199750D02*X92250Y200500D01*
X93750D01*
X94500Y199750D01*
X97050D02*Y197500D01*
Y199750D02*X97800Y200500D01*
X99300D01*
X96300D02*X97050Y199750D01*
G54D36*X101100Y202000D02*Y201850D01*
G54D35*Y199750D02*Y197500D01*
X102600Y203500D02*Y198250D01*
X103350Y197500D01*
X104850Y203500D02*Y198250D01*
X105600Y197500D01*
X110550D02*X112800D01*
X113550Y198250D01*
X112800Y199000D02*X113550Y198250D01*
X110550Y199000D02*X112800D01*
X109800Y199750D02*X110550Y199000D01*
X109800Y199750D02*X110550Y200500D01*
X112800D01*
X113550Y199750D01*
X109800Y198250D02*X110550Y197500D01*
G54D36*X115350Y202000D02*Y201850D01*
G54D35*Y199750D02*Y197500D01*
X116850Y200500D02*X119850D01*
X116850Y197500D02*X119850Y200500D01*
X116850Y197500D02*X119850D01*
X122400D02*X124650D01*
X121650Y198250D02*X122400Y197500D01*
X121650Y199750D02*Y198250D01*
Y199750D02*X122400Y200500D01*
X123900D01*
X124650Y199750D01*
X121650Y199000D02*X124650D01*
Y199750D02*Y199000D01*
X127200Y197500D02*X129450D01*
X130200Y198250D01*
X129450Y199000D02*X130200Y198250D01*
X127200Y199000D02*X129450D01*
X126450Y199750D02*X127200Y199000D01*
X126450Y199750D02*X127200Y200500D01*
X129450D01*
X130200Y199750D01*
X126450Y198250D02*X127200Y197500D01*
X134700Y200500D02*Y198250D01*
X135450Y197500D01*
X136950D01*
X137700Y198250D01*
Y200500D02*Y198250D01*
X140250Y197500D02*X142500D01*
X143250Y198250D01*
X142500Y199000D02*X143250Y198250D01*
X140250Y199000D02*X142500D01*
X139500Y199750D02*X140250Y199000D01*
X139500Y199750D02*X140250Y200500D01*
X142500D01*
X143250Y199750D01*
X139500Y198250D02*X140250Y197500D01*
X145800D02*X148050D01*
X145050Y198250D02*X145800Y197500D01*
X145050Y199750D02*Y198250D01*
Y199750D02*X145800Y200500D01*
X147300D01*
X148050Y199750D01*
X145050Y199000D02*X148050D01*
Y199750D02*Y199000D01*
X152850Y203500D02*Y197500D01*
X152100D02*X152850Y198250D01*
X150600Y197500D02*X152100D01*
X149850Y198250D02*X150600Y197500D01*
X149850Y199750D02*Y198250D01*
Y199750D02*X150600Y200500D01*
X152100D01*
X152850Y199750D01*
G54D36*X157350Y202000D02*Y201850D01*
G54D35*Y199750D02*Y197500D01*
X159600Y199750D02*Y197500D01*
Y199750D02*X160350Y200500D01*
X161100D01*
X161850Y199750D01*
Y197500D01*
X158850Y200500D02*X159600Y199750D01*
X167100Y203500D02*Y198250D01*
X167850Y197500D01*
X166350Y201250D02*X167850D01*
X169350Y203500D02*Y197500D01*
Y199750D02*X170100Y200500D01*
X171600D01*
X172350Y199750D01*
Y197500D01*
G54D36*X174150Y202000D02*Y201850D01*
G54D35*Y199750D02*Y197500D01*
X176400D02*X178650D01*
X179400Y198250D01*
X178650Y199000D02*X179400Y198250D01*
X176400Y199000D02*X178650D01*
X175650Y199750D02*X176400Y199000D01*
X175650Y199750D02*X176400Y200500D01*
X178650D01*
X179400Y199750D01*
X175650Y198250D02*X176400Y197500D01*
X183900Y203500D02*Y198250D01*
X184650Y197500D01*
X188400Y200500D02*X189150Y199750D01*
X186900Y200500D02*X188400D01*
X186150Y199750D02*X186900Y200500D01*
X186150Y199750D02*Y198250D01*
X186900Y197500D01*
X189150Y200500D02*Y198250D01*
X189900Y197500D01*
X186900D02*X188400D01*
X189150Y198250D01*
X191700Y200500D02*Y198250D01*
X192450Y197500D01*
X194700Y200500D02*Y196000D01*
X193950Y195250D02*X194700Y196000D01*
X192450Y195250D02*X193950D01*
X191700Y196000D02*X192450Y195250D01*
Y197500D02*X193950D01*
X194700Y198250D01*
X196500Y199750D02*Y198250D01*
Y199750D02*X197250Y200500D01*
X198750D01*
X199500Y199750D01*
Y198250D01*
X198750Y197500D02*X199500Y198250D01*
X197250Y197500D02*X198750D01*
X196500Y198250D02*X197250Y197500D01*
X201300Y200500D02*Y198250D01*
X202050Y197500D01*
X203550D01*
X204300Y198250D01*
Y200500D02*Y198250D01*
X206850Y203500D02*Y198250D01*
X207600Y197500D01*
X206100Y201250D02*X207600D01*
X209100Y196000D02*X210600Y197500D01*
X215100Y202300D02*X216300Y203500D01*
Y197500D01*
X215100D02*X217350D01*
X219150Y198250D02*X219900Y197500D01*
X219150Y199450D02*Y198250D01*
Y199450D02*X220200Y200500D01*
X221100D01*
X222150Y199450D01*
Y198250D01*
X221400Y197500D02*X222150Y198250D01*
X219900Y197500D02*X221400D01*
X219150Y201550D02*X220200Y200500D01*
X219150Y202750D02*Y201550D01*
Y202750D02*X219900Y203500D01*
X221400D01*
X222150Y202750D01*
Y201550D01*
X221100Y200500D02*X222150Y201550D01*
X223950Y202750D02*X224700Y203500D01*
X226200D01*
X226950Y202750D01*
X226200Y197500D02*X226950Y198250D01*
X224700Y197500D02*X226200D01*
X223950Y198250D02*X224700Y197500D01*
Y200800D02*X226200D01*
X226950Y202750D02*Y201550D01*
Y200050D02*Y198250D01*
Y200050D02*X226200Y200800D01*
X226950Y201550D02*X226200Y200800D01*
X231450Y203500D02*Y197500D01*
Y199750D02*X232200Y200500D01*
X233700D01*
X234450Y199750D01*
Y197500D01*
X236250Y199750D02*Y198250D01*
Y199750D02*X237000Y200500D01*
X238500D01*
X239250Y199750D01*
Y198250D01*
X238500Y197500D02*X239250Y198250D01*
X237000Y197500D02*X238500D01*
X236250Y198250D02*X237000Y197500D01*
X241050Y203500D02*Y198250D01*
X241800Y197500D01*
X244050D02*X246300D01*
X243300Y198250D02*X244050Y197500D01*
X243300Y199750D02*Y198250D01*
Y199750D02*X244050Y200500D01*
X245550D01*
X246300Y199750D01*
X243300Y199000D02*X246300D01*
Y199750D02*Y199000D01*
X248850Y197500D02*X251100D01*
X251850Y198250D01*
X251100Y199000D02*X251850Y198250D01*
X248850Y199000D02*X251100D01*
X248100Y199750D02*X248850Y199000D01*
X248100Y199750D02*X248850Y200500D01*
X251100D01*
X251850Y199750D01*
X248100Y198250D02*X248850Y197500D01*
X257100Y203500D02*Y198250D01*
X257850Y197500D01*
X256350Y201250D02*X257850D01*
X259350Y199750D02*Y198250D01*
Y199750D02*X260100Y200500D01*
X261600D01*
X262350Y199750D01*
Y198250D01*
X261600Y197500D02*X262350Y198250D01*
X260100Y197500D02*X261600D01*
X259350Y198250D02*X260100Y197500D01*
X264900Y203500D02*Y198250D01*
X265650Y197500D01*
X264150Y201250D02*X265650D01*
X269400Y200500D02*X270150Y199750D01*
X267900Y200500D02*X269400D01*
X267150Y199750D02*X267900Y200500D01*
X267150Y199750D02*Y198250D01*
X267900Y197500D01*
X270150Y200500D02*Y198250D01*
X270900Y197500D01*
X267900D02*X269400D01*
X270150Y198250D01*
X272700Y203500D02*Y198250D01*
X273450Y197500D01*
G54D37*X450000Y98000D02*X460000D01*
Y105000D02*Y98000D01*
Y105000D02*X480000D01*
Y10000D01*
X460000D02*X480000D01*
X460000Y17000D02*Y10000D01*
X450000Y17000D02*X460000D01*
X450000Y87000D02*X460000D01*
Y63000D01*
X450000D02*X460000D01*
X450000Y52000D02*X460000D01*
Y28000D01*
X450000D02*X460000D01*
X30000Y98000D02*X40000D01*
X30000Y105000D02*Y98000D01*
X10000Y105000D02*X30000D01*
X10000D02*Y10000D01*
X30000D01*
Y17000D02*Y10000D01*
Y17000D02*X40000D01*
X30000Y87000D02*X40000D01*
X30000D02*Y63000D01*
X40000D01*
X30000Y52000D02*X40000D01*
X30000D02*Y28000D01*
X40000D01*
X65000Y63000D02*X75000D01*
X100000D02*X110000D01*
X135000D02*X145000D01*
X170000D02*X180000D01*
X205000D02*X215000D01*
X240000D02*X250000D01*
X275000D02*X285000D01*
X310000D02*X320000D01*
X345000D02*X355000D01*
Y52000D02*X345000D01*
X320000D02*X310000D01*
X285000D02*X275000D01*
X250000D02*X240000D01*
X215000D02*X205000D01*
X180000D02*X170000D01*
X145000D02*X135000D01*
X110000D02*X100000D01*
X75000D02*X65000D01*
X380000Y63000D02*X390000D01*
Y52000D02*X380000D01*
X415000Y63000D02*X425000D01*
Y52000D02*X415000D01*
X47000Y45000D02*X40000Y52000D01*
X58000Y45000D02*X47000D01*
X65000Y52000D02*X58000Y45000D01*
Y70000D02*X65000Y63000D01*
X47000Y70000D02*X58000D01*
X40000Y63000D02*X47000Y70000D01*
X82000Y45000D02*X75000Y52000D01*
X93000Y45000D02*X82000D01*
X100000Y52000D02*X93000Y45000D01*
Y70000D02*X100000Y63000D01*
X82000Y70000D02*X93000D01*
X75000Y63000D02*X82000Y70000D01*
X117000Y45000D02*X110000Y52000D01*
X128000Y45000D02*X117000D01*
X135000Y52000D02*X128000Y45000D01*
Y70000D02*X135000Y63000D01*
X117000Y70000D02*X128000D01*
X110000Y63000D02*X117000Y70000D01*
X152000Y45000D02*X145000Y52000D01*
X163000Y45000D02*X152000D01*
X170000Y52000D02*X163000Y45000D01*
Y70000D02*X170000Y63000D01*
X152000Y70000D02*X163000D01*
X145000Y63000D02*X152000Y70000D01*
X187000Y45000D02*X180000Y52000D01*
X198000Y45000D02*X187000D01*
X205000Y52000D02*X198000Y45000D01*
Y70000D02*X205000Y63000D01*
X187000Y70000D02*X198000D01*
X180000Y63000D02*X187000Y70000D01*
X222000Y45000D02*X215000Y52000D01*
X233000Y45000D02*X222000D01*
X240000Y52000D02*X233000Y45000D01*
Y70000D02*X240000Y63000D01*
X222000Y70000D02*X233000D01*
X215000Y63000D02*X222000Y70000D01*
X257000Y45000D02*X250000Y52000D01*
X268000Y45000D02*X257000D01*
X275000Y52000D02*X268000Y45000D01*
Y70000D02*X275000Y63000D01*
X257000Y70000D02*X268000D01*
X250000Y63000D02*X257000Y70000D01*
X292000Y45000D02*X285000Y52000D01*
X303000Y45000D02*X292000D01*
X310000Y52000D02*X303000Y45000D01*
Y70000D02*X310000Y63000D01*
X292000Y70000D02*X303000D01*
X285000Y63000D02*X292000Y70000D01*
X327000Y45000D02*X320000Y52000D01*
X338000Y45000D02*X327000D01*
X345000Y52000D02*X338000Y45000D01*
Y70000D02*X345000Y63000D01*
X327000Y70000D02*X338000D01*
X320000Y63000D02*X327000Y70000D01*
X362000Y45000D02*X355000Y52000D01*
X373000Y45000D02*X362000D01*
X380000Y52000D02*X373000Y45000D01*
Y70000D02*X380000Y63000D01*
X362000Y70000D02*X373000D01*
X355000Y63000D02*X362000Y70000D01*
X397000Y45000D02*X390000Y52000D01*
X408000Y45000D02*X397000D01*
X415000Y52000D02*X408000Y45000D01*
Y70000D02*X415000Y63000D01*
X397000Y70000D02*X408000D01*
X390000Y63000D02*X397000Y70000D01*
X432000Y45000D02*X425000Y52000D01*
X443000Y45000D02*X432000D01*
X450000Y52000D02*X443000Y45000D01*
Y70000D02*X450000Y63000D01*
X432000Y70000D02*X443000D01*
X425000Y63000D02*X432000Y70000D01*
X65000Y98000D02*X75000D01*
X100000D02*X110000D01*
X135000D02*X145000D01*
X170000D02*X180000D01*
X205000D02*X215000D01*
X240000D02*X250000D01*
X275000D02*X285000D01*
X310000D02*X320000D01*
X345000D02*X355000D01*
Y87000D02*X345000D01*
X320000D02*X310000D01*
X285000D02*X275000D01*
X250000D02*X240000D01*
X215000D02*X205000D01*
X180000D02*X170000D01*
X145000D02*X135000D01*
X110000D02*X100000D01*
X75000D02*X65000D01*
X380000Y98000D02*X390000D01*
Y87000D02*X380000D01*
X415000Y98000D02*X425000D01*
Y87000D02*X415000D01*
X47000Y80000D02*X40000Y87000D01*
X58000Y80000D02*X47000D01*
X65000Y87000D02*X58000Y80000D01*
Y105000D02*X65000Y98000D01*
X47000Y105000D02*X58000D01*
X40000Y98000D02*X47000Y105000D01*
X82000Y80000D02*X75000Y87000D01*
X93000Y80000D02*X82000D01*
X100000Y87000D02*X93000Y80000D01*
Y105000D02*X100000Y98000D01*
X82000Y105000D02*X93000D01*
X75000Y98000D02*X82000Y105000D01*
X117000Y80000D02*X110000Y87000D01*
X128000Y80000D02*X117000D01*
X135000Y87000D02*X128000Y80000D01*
Y105000D02*X135000Y98000D01*
X117000Y105000D02*X128000D01*
X110000Y98000D02*X117000Y105000D01*
X152000Y80000D02*X145000Y87000D01*
X163000Y80000D02*X152000D01*
X170000Y87000D02*X163000Y80000D01*
Y105000D02*X170000Y98000D01*
X152000Y105000D02*X163000D01*
X145000Y98000D02*X152000Y105000D01*
X187000Y80000D02*X180000Y87000D01*
X198000Y80000D02*X187000D01*
X205000Y87000D02*X198000Y80000D01*
Y105000D02*X205000Y98000D01*
X187000Y105000D02*X198000D01*
X180000Y98000D02*X187000Y105000D01*
X222000Y80000D02*X215000Y87000D01*
X233000Y80000D02*X222000D01*
X240000Y87000D02*X233000Y80000D01*
Y105000D02*X240000Y98000D01*
X222000Y105000D02*X233000D01*
X215000Y98000D02*X222000Y105000D01*
X257000Y80000D02*X250000Y87000D01*
X268000Y80000D02*X257000D01*
X275000Y87000D02*X268000Y80000D01*
Y105000D02*X275000Y98000D01*
X257000Y105000D02*X268000D01*
X250000Y98000D02*X257000Y105000D01*
X292000Y80000D02*X285000Y87000D01*
X303000Y80000D02*X292000D01*
X310000Y87000D02*X303000Y80000D01*
Y105000D02*X310000Y98000D01*
X292000Y105000D02*X303000D01*
X285000Y98000D02*X292000Y105000D01*
X327000Y80000D02*X320000Y87000D01*
X338000Y80000D02*X327000D01*
X345000Y87000D02*X338000Y80000D01*
Y105000D02*X345000Y98000D01*
X327000Y105000D02*X338000D01*
X320000Y98000D02*X327000Y105000D01*
X362000Y80000D02*X355000Y87000D01*
X373000Y80000D02*X362000D01*
X380000Y87000D02*X373000Y80000D01*
Y105000D02*X380000Y98000D01*
X362000Y105000D02*X373000D01*
X355000Y98000D02*X362000Y105000D01*
X397000Y80000D02*X390000Y87000D01*
X408000Y80000D02*X397000D01*
X415000Y87000D02*X408000Y80000D01*
Y105000D02*X415000Y98000D01*
X397000Y105000D02*X408000D01*
X390000Y98000D02*X397000Y105000D01*
X432000Y80000D02*X425000Y87000D01*
X443000Y80000D02*X432000D01*
X450000Y87000D02*X443000Y80000D01*
Y105000D02*X450000Y98000D01*
X432000Y105000D02*X443000D01*
X425000Y98000D02*X432000Y105000D01*
X65000Y28000D02*X75000D01*
X100000D02*X110000D01*
X135000D02*X145000D01*
X170000D02*X180000D01*
X205000D02*X215000D01*
X240000D02*X250000D01*
X275000D02*X285000D01*
X310000D02*X320000D01*
X345000D02*X355000D01*
Y17000D02*X345000D01*
X320000D02*X310000D01*
X285000D02*X275000D01*
X250000D02*X240000D01*
X215000D02*X205000D01*
X180000D02*X170000D01*
X145000D02*X135000D01*
X110000D02*X100000D01*
X75000D02*X65000D01*
X380000Y28000D02*X390000D01*
Y17000D02*X380000D01*
X415000Y28000D02*X425000D01*
Y17000D02*X415000D01*
X47000Y10000D02*X40000Y17000D01*
X58000Y10000D02*X47000D01*
X65000Y17000D02*X58000Y10000D01*
Y35000D02*X65000Y28000D01*
X47000Y35000D02*X58000D01*
X40000Y28000D02*X47000Y35000D01*
X82000Y10000D02*X75000Y17000D01*
X93000Y10000D02*X82000D01*
X100000Y17000D02*X93000Y10000D01*
Y35000D02*X100000Y28000D01*
X82000Y35000D02*X93000D01*
X75000Y28000D02*X82000Y35000D01*
X117000Y10000D02*X110000Y17000D01*
X128000Y10000D02*X117000D01*
X135000Y17000D02*X128000Y10000D01*
Y35000D02*X135000Y28000D01*
X117000Y35000D02*X128000D01*
X110000Y28000D02*X117000Y35000D01*
X152000Y10000D02*X145000Y17000D01*
X163000Y10000D02*X152000D01*
X170000Y17000D02*X163000Y10000D01*
Y35000D02*X170000Y28000D01*
X152000Y35000D02*X163000D01*
X145000Y28000D02*X152000Y35000D01*
X187000Y10000D02*X180000Y17000D01*
X198000Y10000D02*X187000D01*
X205000Y17000D02*X198000Y10000D01*
Y35000D02*X205000Y28000D01*
X187000Y35000D02*X198000D01*
X180000Y28000D02*X187000Y35000D01*
X222000Y10000D02*X215000Y17000D01*
X233000Y10000D02*X222000D01*
X240000Y17000D02*X233000Y10000D01*
Y35000D02*X240000Y28000D01*
X222000Y35000D02*X233000D01*
X215000Y28000D02*X222000Y35000D01*
X257000Y10000D02*X250000Y17000D01*
X268000Y10000D02*X257000D01*
X275000Y17000D02*X268000Y10000D01*
Y35000D02*X275000Y28000D01*
X257000Y35000D02*X268000D01*
X250000Y28000D02*X257000Y35000D01*
X292000Y10000D02*X285000Y17000D01*
X303000Y10000D02*X292000D01*
X310000Y17000D02*X303000Y10000D01*
Y35000D02*X310000Y28000D01*
X292000Y35000D02*X303000D01*
X285000Y28000D02*X292000Y35000D01*
X327000Y10000D02*X320000Y17000D01*
X338000Y10000D02*X327000D01*
X345000Y17000D02*X338000Y10000D01*
Y35000D02*X345000Y28000D01*
X327000Y35000D02*X338000D01*
X320000Y28000D02*X327000Y35000D01*
X362000Y10000D02*X355000Y17000D01*
X373000Y10000D02*X362000D01*
X380000Y17000D02*X373000Y10000D01*
Y35000D02*X380000Y28000D01*
X362000Y35000D02*X373000D01*
X355000Y28000D02*X362000Y35000D01*
X397000Y10000D02*X390000Y17000D01*
X408000Y10000D02*X397000D01*
X415000Y17000D02*X408000Y10000D01*
Y35000D02*X415000Y28000D01*
X397000Y35000D02*X408000D01*
X390000Y28000D02*X397000Y35000D01*
X432000Y10000D02*X425000Y17000D01*
X443000Y10000D02*X432000D01*
X450000Y17000D02*X443000Y10000D01*
Y35000D02*X450000Y28000D01*
X432000Y35000D02*X443000D01*
X425000Y28000D02*X432000Y35000D01*
G54D35*X158675Y-9500D02*X161675D01*
X162425Y-8750D01*
Y-6950D02*Y-8750D01*
X161675Y-6200D02*X162425Y-6950D01*
X159425Y-6200D02*X161675D01*
X159425Y-3500D02*Y-9500D01*
X158675Y-3500D02*X161675D01*
X162425Y-4250D01*
Y-5450D01*
X161675Y-6200D02*X162425Y-5450D01*
X164225Y-7250D02*Y-8750D01*
Y-7250D02*X164975Y-6500D01*
X166475D01*
X167225Y-7250D01*
Y-8750D01*
X166475Y-9500D02*X167225Y-8750D01*
X164975Y-9500D02*X166475D01*
X164225Y-8750D02*X164975Y-9500D01*
X171275Y-6500D02*X172025Y-7250D01*
X169775Y-6500D02*X171275D01*
X169025Y-7250D02*X169775Y-6500D01*
X169025Y-7250D02*Y-8750D01*
X169775Y-9500D01*
X172025Y-6500D02*Y-8750D01*
X172775Y-9500D01*
X169775D02*X171275D01*
X172025Y-8750D01*
X175325Y-7250D02*Y-9500D01*
Y-7250D02*X176075Y-6500D01*
X177575D01*
X174575D02*X175325Y-7250D01*
X182375Y-3500D02*Y-9500D01*
X181625D02*X182375Y-8750D01*
X180125Y-9500D02*X181625D01*
X179375Y-8750D02*X180125Y-9500D01*
X179375Y-7250D02*Y-8750D01*
Y-7250D02*X180125Y-6500D01*
X181625D01*
X182375Y-7250D01*
X186875D02*Y-8750D01*
Y-7250D02*X187625Y-6500D01*
X189125D01*
X189875Y-7250D01*
Y-8750D01*
X189125Y-9500D02*X189875Y-8750D01*
X187625Y-9500D02*X189125D01*
X186875Y-8750D02*X187625Y-9500D01*
X191675Y-6500D02*Y-8750D01*
X192425Y-9500D01*
X193925D01*
X194675Y-8750D01*
Y-6500D02*Y-8750D01*
X197225Y-3500D02*Y-8750D01*
X197975Y-9500D01*
X196475Y-5750D02*X197975D01*
X199475Y-3500D02*Y-8750D01*
X200225Y-9500D01*
G54D36*X201725Y-5000D02*Y-5150D01*
G54D35*Y-7250D02*Y-9500D01*
X203975Y-7250D02*Y-9500D01*
Y-7250D02*X204725Y-6500D01*
X205475D01*
X206225Y-7250D01*
Y-9500D01*
X203225Y-6500D02*X203975Y-7250D01*
X208775Y-9500D02*X211025D01*
X208025Y-8750D02*X208775Y-9500D01*
X208025Y-7250D02*Y-8750D01*
Y-7250D02*X208775Y-6500D01*
X210275D01*
X211025Y-7250D01*
X208025Y-8000D02*X211025D01*
Y-7250D02*Y-8000D01*
G54D36*X215525Y-5000D02*Y-5150D01*
G54D35*Y-7250D02*Y-9500D01*
X217775D02*X220025D01*
X220775Y-8750D01*
X220025Y-8000D02*X220775Y-8750D01*
X217775Y-8000D02*X220025D01*
X217025Y-7250D02*X217775Y-8000D01*
X217025Y-7250D02*X217775Y-6500D01*
X220025D01*
X220775Y-7250D01*
X217025Y-8750D02*X217775Y-9500D01*
X226025Y-3500D02*Y-8750D01*
X226775Y-9500D01*
X225275Y-5750D02*X226775D01*
X228275Y-3500D02*Y-9500D01*
Y-7250D02*X229025Y-6500D01*
X230525D01*
X231275Y-7250D01*
Y-9500D01*
X233825D02*X236075D01*
X233075Y-8750D02*X233825Y-9500D01*
X233075Y-7250D02*Y-8750D01*
Y-7250D02*X233825Y-6500D01*
X235325D01*
X236075Y-7250D01*
X233075Y-8000D02*X236075D01*
Y-7250D02*Y-8000D01*
X241325Y-6500D02*X243575D01*
X240575Y-7250D02*X241325Y-6500D01*
X240575Y-7250D02*Y-8750D01*
X241325Y-9500D01*
X243575D01*
X246125D02*X248375D01*
X245375Y-8750D02*X246125Y-9500D01*
X245375Y-7250D02*Y-8750D01*
Y-7250D02*X246125Y-6500D01*
X247625D01*
X248375Y-7250D01*
X245375Y-8000D02*X248375D01*
Y-7250D02*Y-8000D01*
X250925Y-7250D02*Y-9500D01*
Y-7250D02*X251675Y-6500D01*
X252425D01*
X253175Y-7250D01*
Y-9500D01*
X250175Y-6500D02*X250925Y-7250D01*
X255725Y-3500D02*Y-8750D01*
X256475Y-9500D01*
X254975Y-5750D02*X256475D01*
X258725Y-9500D02*X260975D01*
X257975Y-8750D02*X258725Y-9500D01*
X257975Y-7250D02*Y-8750D01*
Y-7250D02*X258725Y-6500D01*
X260225D01*
X260975Y-7250D01*
X257975Y-8000D02*X260975D01*
Y-7250D02*Y-8000D01*
X263525Y-7250D02*Y-9500D01*
Y-7250D02*X264275Y-6500D01*
X265775D01*
X262775D02*X263525Y-7250D01*
X267575Y-3500D02*Y-8750D01*
X268325Y-9500D01*
G54D36*X269825Y-5000D02*Y-5150D01*
G54D35*Y-7250D02*Y-9500D01*
X272075Y-7250D02*Y-9500D01*
Y-7250D02*X272825Y-6500D01*
X273575D01*
X274325Y-7250D01*
Y-9500D01*
X271325Y-6500D02*X272075Y-7250D01*
X276875Y-9500D02*X279125D01*
X276125Y-8750D02*X276875Y-9500D01*
X276125Y-7250D02*Y-8750D01*
Y-7250D02*X276875Y-6500D01*
X278375D01*
X279125Y-7250D01*
X276125Y-8000D02*X279125D01*
Y-7250D02*Y-8000D01*
X283625Y-7250D02*Y-8750D01*
Y-7250D02*X284375Y-6500D01*
X285875D01*
X286625Y-7250D01*
Y-8750D01*
X285875Y-9500D02*X286625Y-8750D01*
X284375Y-9500D02*X285875D01*
X283625Y-8750D02*X284375Y-9500D01*
X289175Y-4250D02*Y-9500D01*
Y-4250D02*X289925Y-3500D01*
X290675D01*
X288425Y-6500D02*X289925D01*
X295625Y-3500D02*Y-8750D01*
X296375Y-9500D01*
X294875Y-5750D02*X296375D01*
X297875Y-3500D02*Y-9500D01*
Y-7250D02*X298625Y-6500D01*
X300125D01*
X300875Y-7250D01*
Y-9500D01*
G54D36*X302675Y-5000D02*Y-5150D01*
G54D35*Y-7250D02*Y-9500D01*
X304925D02*X307175D01*
X307925Y-8750D01*
X307175Y-8000D02*X307925Y-8750D01*
X304925Y-8000D02*X307175D01*
X304175Y-7250D02*X304925Y-8000D01*
X304175Y-7250D02*X304925Y-6500D01*
X307175D01*
X307925Y-7250D01*
X304175Y-8750D02*X304925Y-9500D01*
X313175Y-7250D02*Y-11750D01*
X312425Y-6500D02*X313175Y-7250D01*
X313925Y-6500D01*
X315425D01*
X316175Y-7250D01*
Y-8750D01*
X315425Y-9500D02*X316175Y-8750D01*
X313925Y-9500D02*X315425D01*
X313175Y-8750D02*X313925Y-9500D01*
X320225Y-6500D02*X320975Y-7250D01*
X318725Y-6500D02*X320225D01*
X317975Y-7250D02*X318725Y-6500D01*
X317975Y-7250D02*Y-8750D01*
X318725Y-9500D01*
X320975Y-6500D02*Y-8750D01*
X321725Y-9500D01*
X318725D02*X320225D01*
X320975Y-8750D01*
X324275Y-3500D02*Y-8750D01*
X325025Y-9500D01*
X323525Y-5750D02*X325025D01*
X326525Y-3500D02*Y-9500D01*
Y-7250D02*X327275Y-6500D01*
X328775D01*
X329525Y-7250D01*
Y-9500D01*
X200750Y143500D02*Y137500D01*
X202700Y143500D02*X203750Y142450D01*
Y138550D01*
X202700Y137500D02*X203750Y138550D01*
X200000Y137500D02*X202700D01*
X200000Y143500D02*X202700D01*
X207800Y140500D02*X208550Y139750D01*
X206300Y140500D02*X207800D01*
X205550Y139750D02*X206300Y140500D01*
X205550Y139750D02*Y138250D01*
X206300Y137500D01*
X208550Y140500D02*Y138250D01*
X209300Y137500D01*
X206300D02*X207800D01*
X208550Y138250D01*
X211850Y143500D02*Y138250D01*
X212600Y137500D01*
X211100Y141250D02*X212600D01*
X214850Y137500D02*X217100D01*
X214100Y138250D02*X214850Y137500D01*
X214100Y139750D02*Y138250D01*
Y139750D02*X214850Y140500D01*
X216350D01*
X217100Y139750D01*
X214100Y139000D02*X217100D01*
Y139750D02*Y139000D01*
X218900Y141250D02*X219650D01*
X218900Y139750D02*X219650D01*
X224150Y143500D02*Y137500D01*
Y143500D02*X227150D01*
X224150Y140800D02*X226400D01*
X229700Y139750D02*Y137500D01*
Y139750D02*X230450Y140500D01*
X231950D01*
X228950D02*X229700Y139750D01*
G54D36*X233750Y142000D02*Y141850D01*
G54D35*Y139750D02*Y137500D01*
X237950Y143500D02*Y137500D01*
Y143500D02*X240200Y140500D01*
X242450Y143500D01*
Y137500D01*
X246500Y140500D02*X247250Y139750D01*
X245000Y140500D02*X246500D01*
X244250Y139750D02*X245000Y140500D01*
X244250Y139750D02*Y138250D01*
X245000Y137500D01*
X247250Y140500D02*Y138250D01*
X248000Y137500D01*
X245000D02*X246500D01*
X247250Y138250D01*
X250550Y139750D02*Y137500D01*
Y139750D02*X251300Y140500D01*
X252800D01*
X249800D02*X250550Y139750D01*
X257300Y142300D02*X258500Y143500D01*
Y137500D01*
X257300D02*X259550D01*
X262100D02*X265100Y143500D01*
X261350D02*X265100D01*
X269600Y138250D02*X270350Y137500D01*
X269600Y142750D02*Y138250D01*
Y142750D02*X270350Y143500D01*
X271850D01*
X272600Y142750D01*
Y138250D01*
X271850Y137500D02*X272600Y138250D01*
X270350Y137500D02*X271850D01*
X269600Y139000D02*X272600Y142000D01*
X274400Y142750D02*X275150Y143500D01*
X276650D01*
X277400Y142750D01*
X276650Y137500D02*X277400Y138250D01*
X275150Y137500D02*X276650D01*
X274400Y138250D02*X275150Y137500D01*
Y140800D02*X276650D01*
X277400Y142750D02*Y141550D01*
Y140050D02*Y138250D01*
Y140050D02*X276650Y140800D01*
X277400Y141550D02*X276650Y140800D01*
X279200Y141250D02*X279950D01*
X279200Y139750D02*X279950D01*
X281750Y142300D02*X282950Y143500D01*
Y137500D01*
X281750D02*X284000D01*
X285800Y142750D02*X286550Y143500D01*
X288050D01*
X288800Y142750D01*
X288050Y137500D02*X288800Y138250D01*
X286550Y137500D02*X288050D01*
X285800Y138250D02*X286550Y137500D01*
Y140800D02*X288050D01*
X288800Y142750D02*Y141550D01*
Y140050D02*Y138250D01*
Y140050D02*X288050Y140800D01*
X288800Y141550D02*X288050Y140800D01*
X290600Y141250D02*X291350D01*
X290600Y139750D02*X291350D01*
X293150Y138250D02*X293900Y137500D01*
X293150Y142750D02*Y138250D01*
Y142750D02*X293900Y143500D01*
X295400D01*
X296150Y142750D01*
Y138250D01*
X295400Y137500D02*X296150Y138250D01*
X293900Y137500D02*X295400D01*
X293150Y139000D02*X296150Y142000D01*
X300200Y143500D02*X300950Y142750D01*
X298700Y143500D02*X300200D01*
X297950Y142750D02*X298700Y143500D01*
X297950Y142750D02*Y138250D01*
X298700Y137500D01*
X300200Y140800D02*X300950Y140050D01*
X297950Y140800D02*X300200D01*
X298700Y137500D02*X300200D01*
X300950Y138250D01*
Y140050D02*Y138250D01*
X305450Y142750D02*X306200Y143500D01*
X308450D01*
X309200Y142750D01*
Y141250D01*
X305450Y137500D02*X309200Y141250D01*
X305450Y137500D02*X309200D01*
X311000Y138250D02*X311750Y137500D01*
X311000Y142750D02*Y138250D01*
Y142750D02*X311750Y143500D01*
X313250D01*
X314000Y142750D01*
Y138250D01*
X313250Y137500D02*X314000Y138250D01*
X311750Y137500D02*X313250D01*
X311000Y139000D02*X314000Y142000D01*
X315800Y142750D02*X316550Y143500D01*
X318800D01*
X319550Y142750D01*
Y141250D01*
X315800Y137500D02*X319550Y141250D01*
X315800Y137500D02*X319550D01*
X321350Y142750D02*X322100Y143500D01*
X323600D01*
X324350Y142750D01*
X323600Y137500D02*X324350Y138250D01*
X322100Y137500D02*X323600D01*
X321350Y138250D02*X322100Y137500D01*
Y140800D02*X323600D01*
X324350Y142750D02*Y141550D01*
Y140050D02*Y138250D01*
Y140050D02*X323600Y140800D01*
X324350Y141550D02*X323600Y140800D01*
X328850Y143500D02*Y138250D01*
X329600Y137500D01*
X331100D01*
X331850Y138250D01*
Y143500D02*Y138250D01*
X333650Y143500D02*X336650D01*
X335150D02*Y137500D01*
X339500D02*X341450D01*
X338450Y138550D02*X339500Y137500D01*
X338450Y142450D02*Y138550D01*
Y142450D02*X339500Y143500D01*
X341450D01*
X200000Y157000D02*Y152500D01*
Y157000D02*X201050Y158500D01*
X202700D01*
X203750Y157000D01*
Y152500D01*
X200000Y155500D02*X203750D01*
X205550D02*Y153250D01*
X206300Y152500D01*
X207800D01*
X208550Y153250D01*
Y155500D02*Y153250D01*
X211100Y158500D02*Y153250D01*
X211850Y152500D01*
X210350Y156250D02*X211850D01*
X213350Y158500D02*Y152500D01*
Y154750D02*X214100Y155500D01*
X215600D01*
X216350Y154750D01*
Y152500D01*
X218150Y154750D02*Y153250D01*
Y154750D02*X218900Y155500D01*
X220400D01*
X221150Y154750D01*
Y153250D01*
X220400Y152500D02*X221150Y153250D01*
X218900Y152500D02*X220400D01*
X218150Y153250D02*X218900Y152500D01*
X223700Y154750D02*Y152500D01*
Y154750D02*X224450Y155500D01*
X225950D01*
X222950D02*X223700Y154750D01*
X227750Y156250D02*X228500D01*
X227750Y154750D02*X228500D01*
X233000Y158500D02*Y152500D01*
Y158500D02*X235250Y155500D01*
X237500Y158500D01*
Y152500D01*
G54D36*X239300Y157000D02*Y156850D01*
G54D35*Y154750D02*Y152500D01*
X241550Y155500D02*X243800D01*
X240800Y154750D02*X241550Y155500D01*
X240800Y154750D02*Y153250D01*
X241550Y152500D01*
X243800D01*
X245600Y158500D02*Y152500D01*
Y154750D02*X246350Y155500D01*
X247850D01*
X248600Y154750D01*
Y152500D01*
X252650Y155500D02*X253400Y154750D01*
X251150Y155500D02*X252650D01*
X250400Y154750D02*X251150Y155500D01*
X250400Y154750D02*Y153250D01*
X251150Y152500D01*
X253400Y155500D02*Y153250D01*
X254150Y152500D01*
X251150D02*X252650D01*
X253400Y153250D01*
X256700Y152500D02*X258950D01*
X255950Y153250D02*X256700Y152500D01*
X255950Y154750D02*Y153250D01*
Y154750D02*X256700Y155500D01*
X258200D01*
X258950Y154750D01*
X255950Y154000D02*X258950D01*
Y154750D02*Y154000D01*
X260750Y158500D02*Y153250D01*
X261500Y152500D01*
X266450Y158500D02*Y152500D01*
X265700Y158500D02*X268700D01*
X269450Y157750D01*
Y156250D01*
X268700Y155500D02*X269450Y156250D01*
X266450Y155500D02*X268700D01*
X272000Y152500D02*X274250D01*
X271250Y153250D02*X272000Y152500D01*
X271250Y154750D02*Y153250D01*
Y154750D02*X272000Y155500D01*
X273500D01*
X274250Y154750D01*
X271250Y154000D02*X274250D01*
Y154750D02*Y154000D01*
X276800Y158500D02*Y153250D01*
X277550Y152500D01*
X276050Y156250D02*X277550D01*
X279800Y152500D02*X282050D01*
X279050Y153250D02*X279800Y152500D01*
X279050Y154750D02*Y153250D01*
Y154750D02*X279800Y155500D01*
X281300D01*
X282050Y154750D01*
X279050Y154000D02*X282050D01*
Y154750D02*Y154000D01*
X284600Y154750D02*Y152500D01*
Y154750D02*X285350Y155500D01*
X286850D01*
X283850D02*X284600Y154750D01*
X289400Y152500D02*X291650D01*
X292400Y153250D01*
X291650Y154000D02*X292400Y153250D01*
X289400Y154000D02*X291650D01*
X288650Y154750D02*X289400Y154000D01*
X288650Y154750D02*X289400Y155500D01*
X291650D01*
X292400Y154750D01*
X288650Y153250D02*X289400Y152500D01*
X294950D02*X297200D01*
X294200Y153250D02*X294950Y152500D01*
X294200Y154750D02*Y153250D01*
Y154750D02*X294950Y155500D01*
X296450D01*
X297200Y154750D01*
X294200Y154000D02*X297200D01*
Y154750D02*Y154000D01*
X299750Y154750D02*Y152500D01*
Y154750D02*X300500Y155500D01*
X301250D01*
X302000Y154750D01*
Y152500D01*
X299000Y155500D02*X299750Y154750D01*
X200000Y173500D02*X203000D01*
X201500D02*Y167500D01*
G54D36*X204800Y172000D02*Y171850D01*
G54D35*Y169750D02*Y167500D01*
X207050Y173500D02*Y168250D01*
X207800Y167500D01*
X206300Y171250D02*X207800D01*
X209300Y173500D02*Y168250D01*
X210050Y167500D01*
X212300D02*X214550D01*
X211550Y168250D02*X212300Y167500D01*
X211550Y169750D02*Y168250D01*
Y169750D02*X212300Y170500D01*
X213800D01*
X214550Y169750D01*
X211550Y169000D02*X214550D01*
Y169750D02*Y169000D01*
X216350Y171250D02*X217100D01*
X216350Y169750D02*X217100D01*
X221600Y168250D02*X222350Y167500D01*
X221600Y172750D02*X222350Y173500D01*
X221600Y172750D02*Y168250D01*
X224150Y170500D02*Y168250D01*
X224900Y167500D01*
X226400D01*
X227150Y168250D01*
Y170500D02*Y168250D01*
X229700Y169750D02*Y167500D01*
Y169750D02*X230450Y170500D01*
X231200D01*
X231950Y169750D01*
Y167500D01*
X228950Y170500D02*X229700Y169750D01*
X233750Y173500D02*Y167500D01*
Y169750D02*X236000Y167500D01*
X233750Y169750D02*X235250Y171250D01*
X238550Y169750D02*Y167500D01*
Y169750D02*X239300Y170500D01*
X240050D01*
X240800Y169750D01*
Y167500D01*
X237800Y170500D02*X238550Y169750D01*
X242600D02*Y168250D01*
Y169750D02*X243350Y170500D01*
X244850D01*
X245600Y169750D01*
Y168250D01*
X244850Y167500D02*X245600Y168250D01*
X243350Y167500D02*X244850D01*
X242600Y168250D02*X243350Y167500D01*
X247400Y170500D02*Y168250D01*
X248150Y167500D01*
X248900D01*
X249650Y168250D01*
Y170500D02*Y168250D01*
X250400Y167500D01*
X251150D01*
X251900Y168250D01*
Y170500D02*Y168250D01*
X254450Y169750D02*Y167500D01*
Y169750D02*X255200Y170500D01*
X255950D01*
X256700Y169750D01*
Y167500D01*
X253700Y170500D02*X254450Y169750D01*
X258500Y173500D02*X259250Y172750D01*
Y168250D01*
X258500Y167500D02*X259250Y168250D01*
X263750Y170500D02*X266750D01*
X271250Y173500D02*Y167500D01*
Y173500D02*X274250D01*
X271250Y170800D02*X273500D01*
X278300Y170500D02*X279050Y169750D01*
X276800Y170500D02*X278300D01*
X276050Y169750D02*X276800Y170500D01*
X276050Y169750D02*Y168250D01*
X276800Y167500D01*
X279050Y170500D02*Y168250D01*
X279800Y167500D01*
X276800D02*X278300D01*
X279050Y168250D01*
X281600Y173500D02*Y167500D01*
Y168250D02*X282350Y167500D01*
X283850D01*
X284600Y168250D01*
Y169750D02*Y168250D01*
X283850Y170500D02*X284600Y169750D01*
X282350Y170500D02*X283850D01*
X281600Y169750D02*X282350Y170500D01*
X287150Y169750D02*Y167500D01*
Y169750D02*X287900Y170500D01*
X289400D01*
X286400D02*X287150Y169750D01*
G54D36*X291200Y172000D02*Y171850D01*
G54D35*Y169750D02*Y167500D01*
X293450Y170500D02*X295700D01*
X292700Y169750D02*X293450Y170500D01*
X292700Y169750D02*Y168250D01*
X293450Y167500D01*
X295700D01*
X299750Y170500D02*X300500Y169750D01*
X298250Y170500D02*X299750D01*
X297500Y169750D02*X298250Y170500D01*
X297500Y169750D02*Y168250D01*
X298250Y167500D01*
X300500Y170500D02*Y168250D01*
X301250Y167500D01*
X298250D02*X299750D01*
X300500Y168250D01*
X303800Y173500D02*Y168250D01*
X304550Y167500D01*
X303050Y171250D02*X304550D01*
G54D36*X306050Y172000D02*Y171850D01*
G54D35*Y169750D02*Y167500D01*
X307550Y169750D02*Y168250D01*
Y169750D02*X308300Y170500D01*
X309800D01*
X310550Y169750D01*
Y168250D01*
X309800Y167500D02*X310550Y168250D01*
X308300Y167500D02*X309800D01*
X307550Y168250D02*X308300Y167500D01*
X313100Y169750D02*Y167500D01*
Y169750D02*X313850Y170500D01*
X314600D01*
X315350Y169750D01*
Y167500D01*
X312350Y170500D02*X313100Y169750D01*
X320600Y173500D02*Y167500D01*
X322550Y173500D02*X323600Y172450D01*
Y168550D01*
X322550Y167500D02*X323600Y168550D01*
X319850Y167500D02*X322550D01*
X319850Y173500D02*X322550D01*
X326150Y169750D02*Y167500D01*
Y169750D02*X326900Y170500D01*
X328400D01*
X325400D02*X326150Y169750D01*
X332450Y170500D02*X333200Y169750D01*
X330950Y170500D02*X332450D01*
X330200Y169750D02*X330950Y170500D01*
X330200Y169750D02*Y168250D01*
X330950Y167500D01*
X333200Y170500D02*Y168250D01*
X333950Y167500D01*
X330950D02*X332450D01*
X333200Y168250D01*
X335750Y170500D02*Y168250D01*
X336500Y167500D01*
X337250D01*
X338000Y168250D01*
Y170500D02*Y168250D01*
X338750Y167500D01*
X339500D01*
X340250Y168250D01*
Y170500D02*Y168250D01*
G54D36*X342050Y172000D02*Y171850D01*
G54D35*Y169750D02*Y167500D01*
X344300Y169750D02*Y167500D01*
Y169750D02*X345050Y170500D01*
X345800D01*
X346550Y169750D01*
Y167500D01*
X343550Y170500D02*X344300Y169750D01*
X350600Y170500D02*X351350Y169750D01*
X349100Y170500D02*X350600D01*
X348350Y169750D02*X349100Y170500D01*
X348350Y169750D02*Y168250D01*
X349100Y167500D01*
X350600D01*
X351350Y168250D01*
X348350Y166000D02*X349100Y165250D01*
X350600D01*
X351350Y166000D01*
Y170500D02*Y166000D01*
M02*
