M48
INCH
T23C0.013
%
T23
X004500Y009250
X004500Y005750
X004500Y002250
X004650Y010100
X004650Y008400
X004650Y006600
X004650Y004900
X004650Y003100
X004650Y001400
X005850Y008400
X005850Y004900
X005850Y001400
X006050Y009200
X006050Y005700
X006050Y002200
X008000Y009250
X008000Y005750
X008000Y002250
X008150Y010100
X008150Y008400
X008150Y006600
X008150Y004900
X008150Y003100
X008150Y001400
X009350Y008400
X009350Y004900
X009350Y001400
X009550Y009200
X009550Y005700
X009550Y002200
X011500Y009250
X011500Y005750
X011500Y002250
X011650Y010100
X011650Y008400
X011650Y006600
X011650Y004900
X011650Y003100
X011650Y001400
X012850Y008400
X012850Y004900
X012850Y001400
X013050Y009200
X013050Y005700
X013050Y002200
X015000Y009250
X015000Y005750
X015000Y002250
X015150Y010100
X015150Y008400
X015150Y006600
X015150Y004900
X015150Y003100
X015150Y001400
X016350Y008400
X016350Y004900
X016350Y001400
X016550Y009200
X016550Y005700
X016550Y002200
X018500Y009250
X018500Y005750
X018500Y002250
X018650Y010100
X018650Y008400
X018650Y006600
X018650Y004900
X018650Y003100
X018650Y001400
X019850Y008400
X019850Y004900
X019850Y001400
X020050Y009200
X020050Y005700
X020050Y002200
X022000Y009250
X022000Y005750
X022000Y002250
X022150Y010100
X022150Y008400
X022150Y006600
X022150Y004900
X022150Y003100
X022150Y001400
X023350Y008400
X023350Y004900
X023350Y001400
X023550Y009200
X023550Y005700
X023550Y002200
X025500Y009250
X025500Y005750
X025500Y002250
X025650Y010100
X025650Y008400
X025650Y006600
X025650Y004900
X025650Y003100
X025650Y001400
X026850Y008400
X026850Y004900
X026850Y001400
X027050Y009200
X027050Y005700
X027050Y002200
X029000Y009250
X029000Y005750
X029000Y002250
X029150Y010100
X029150Y008400
X029150Y006600
X029150Y004900
X029150Y003100
X029150Y001400
X030350Y008400
X030350Y004900
X030350Y001400
X030550Y009200
X030550Y005700
X030550Y002200
X032500Y009250
X032500Y005750
X032500Y002250
X032650Y010100
X032650Y008400
X032650Y006600
X032650Y004900
X032650Y003100
X032650Y001400
X033850Y008400
X033850Y004900
X033850Y001400
X034050Y009200
X034050Y005700
X034050Y002200
X036000Y009250
X036000Y005750
X036000Y002250
X036150Y010100
X036150Y008400
X036150Y006600
X036150Y004900
X036150Y003100
X036150Y001400
X037350Y008400
X037350Y004900
X037350Y001400
X037550Y009200
X037550Y005700
X037550Y002200
X039500Y009250
X039500Y005750
X039500Y002250
X039650Y010100
X039650Y008400
X039650Y006600
X039650Y004900
X039650Y003100
X039650Y001400
X040850Y008400
X040850Y004900
X040850Y001400
X041050Y009200
X041050Y005700
X041050Y002200
X043000Y009250
X043000Y005750
X043000Y002250
X043150Y010100
X043150Y008400
X043150Y006600
X043150Y004900
X043150Y003100
X043150Y001400
X044350Y008400
X044350Y004900
X044350Y001400
X044550Y009200
X044550Y005700
X044550Y002200
M30
