G04 start of page 6 for group -4063 idx -4063 *
G04 Title: (unknown), componentmask *
G04 Creator: pcb 4.0.2 *
G04 CreationDate: Fri Mar 17 03:13:06 2023 UTC *
G04 For: railfan *
G04 Format: Gerber/RS-274X *
G04 PCB-Dimensions (mil): 4900.00 1150.00 *
G04 PCB-Coordinate-Origin: lower left *
%MOIN*%
%FSLAX25Y25*%
%LNTOPMASK*%
%ADD25C,0.0001*%
%ADD24C,0.0787*%
G54D24*X16000Y99000D03*
X466000Y22500D03*
Y92500D03*
G54D25*G36*
X125360Y63942D02*X122790D01*
Y59916D01*
X125360D01*
Y63942D01*
G37*
G36*
X122210D02*X119640D01*
Y59916D01*
X122210D01*
Y63942D01*
G37*
G36*
X119060D02*X116492D01*
Y59916D01*
X119060D01*
Y63942D01*
G37*
G36*
Y55478D02*X116492D01*
Y51058D01*
X119060D01*
Y55478D01*
G37*
G36*
X122210Y55084D02*X119640D01*
Y51058D01*
X122210D01*
Y55084D01*
G37*
G36*
X125360D02*X122790D01*
Y51058D01*
X125360D01*
Y55084D01*
G37*
G36*
X128508D02*X125940D01*
Y51058D01*
X128508D01*
Y55084D01*
G37*
G36*
Y63942D02*X125940D01*
Y59916D01*
X128508D01*
Y63942D01*
G37*
G36*
X119060Y20478D02*X116492D01*
Y16058D01*
X119060D01*
Y20478D01*
G37*
G36*
X122210Y20084D02*X119640D01*
Y16058D01*
X122210D01*
Y20084D01*
G37*
G36*
X125360D02*X122790D01*
Y16058D01*
X125360D01*
Y20084D01*
G37*
G36*
X122210Y28942D02*X119640D01*
Y24916D01*
X122210D01*
Y28942D01*
G37*
G36*
X119060D02*X116492D01*
Y24916D01*
X119060D01*
Y28942D01*
G37*
G36*
X128508D02*X125940D01*
Y24916D01*
X128508D01*
Y28942D01*
G37*
G36*
X125360D02*X122790D01*
Y24916D01*
X125360D01*
Y28942D01*
G37*
G36*
X58508Y55084D02*X55940D01*
Y51058D01*
X58508D01*
Y55084D01*
G37*
G36*
Y63942D02*X55940D01*
Y59916D01*
X58508D01*
Y63942D01*
G37*
G36*
X55360D02*X52790D01*
Y59916D01*
X55360D01*
Y63942D01*
G37*
G36*
X52210D02*X49640D01*
Y59916D01*
X52210D01*
Y63942D01*
G37*
G36*
X49060Y55478D02*X46492D01*
Y51058D01*
X49060D01*
Y55478D01*
G37*
G36*
X52210Y55084D02*X49640D01*
Y51058D01*
X52210D01*
Y55084D01*
G37*
G36*
X55360D02*X52790D01*
Y51058D01*
X55360D01*
Y55084D01*
G37*
G36*
X49060Y63942D02*X46492D01*
Y59916D01*
X49060D01*
Y63942D01*
G37*
G36*
Y90478D02*X46492D01*
Y86058D01*
X49060D01*
Y90478D01*
G37*
G36*
X52210Y90084D02*X49640D01*
Y86058D01*
X52210D01*
Y90084D01*
G37*
G36*
X55360D02*X52790D01*
Y86058D01*
X55360D01*
Y90084D01*
G37*
G36*
X52210Y98942D02*X49640D01*
Y94916D01*
X52210D01*
Y98942D01*
G37*
G36*
X49060D02*X46492D01*
Y94916D01*
X49060D01*
Y98942D01*
G37*
G36*
X58508D02*X55940D01*
Y94916D01*
X58508D01*
Y98942D01*
G37*
G36*
X55360D02*X52790D01*
Y94916D01*
X55360D01*
Y98942D01*
G37*
G36*
X49060Y20478D02*X46492D01*
Y16058D01*
X49060D01*
Y20478D01*
G37*
G36*
X52210Y20084D02*X49640D01*
Y16058D01*
X52210D01*
Y20084D01*
G37*
G36*
X55360D02*X52790D01*
Y16058D01*
X55360D01*
Y20084D01*
G37*
G36*
X58508D02*X55940D01*
Y16058D01*
X58508D01*
Y20084D01*
G37*
G36*
X52210Y28942D02*X49640D01*
Y24916D01*
X52210D01*
Y28942D01*
G37*
G36*
X49060D02*X46492D01*
Y24916D01*
X49060D01*
Y28942D01*
G37*
G36*
X58508D02*X55940D01*
Y24916D01*
X58508D01*
Y28942D01*
G37*
G36*
X55360D02*X52790D01*
Y24916D01*
X55360D01*
Y28942D01*
G37*
G36*
X90360Y63942D02*X87790D01*
Y59916D01*
X90360D01*
Y63942D01*
G37*
G36*
X87210D02*X84640D01*
Y59916D01*
X87210D01*
Y63942D01*
G37*
G36*
X84060D02*X81492D01*
Y59916D01*
X84060D01*
Y63942D01*
G37*
G36*
Y55478D02*X81492D01*
Y51058D01*
X84060D01*
Y55478D01*
G37*
G36*
X87210Y55084D02*X84640D01*
Y51058D01*
X87210D01*
Y55084D01*
G37*
G36*
X90360D02*X87790D01*
Y51058D01*
X90360D01*
Y55084D01*
G37*
G36*
X93508D02*X90940D01*
Y51058D01*
X93508D01*
Y55084D01*
G37*
G36*
Y63942D02*X90940D01*
Y59916D01*
X93508D01*
Y63942D01*
G37*
G36*
X58508Y90084D02*X55940D01*
Y86058D01*
X58508D01*
Y90084D01*
G37*
G36*
X93508Y98942D02*X90940D01*
Y94916D01*
X93508D01*
Y98942D01*
G37*
G36*
X90360D02*X87790D01*
Y94916D01*
X90360D01*
Y98942D01*
G37*
G36*
X87210D02*X84640D01*
Y94916D01*
X87210D01*
Y98942D01*
G37*
G36*
X84060D02*X81492D01*
Y94916D01*
X84060D01*
Y98942D01*
G37*
G36*
Y90478D02*X81492D01*
Y86058D01*
X84060D01*
Y90478D01*
G37*
G36*
X87210Y90084D02*X84640D01*
Y86058D01*
X87210D01*
Y90084D01*
G37*
G36*
X90360D02*X87790D01*
Y86058D01*
X90360D01*
Y90084D01*
G37*
G36*
X93508D02*X90940D01*
Y86058D01*
X93508D01*
Y90084D01*
G37*
G36*
X84060Y20478D02*X81492D01*
Y16058D01*
X84060D01*
Y20478D01*
G37*
G36*
X87210Y20084D02*X84640D01*
Y16058D01*
X87210D01*
Y20084D01*
G37*
G36*
X90360D02*X87790D01*
Y16058D01*
X90360D01*
Y20084D01*
G37*
G36*
X93508D02*X90940D01*
Y16058D01*
X93508D01*
Y20084D01*
G37*
G36*
X87210Y28942D02*X84640D01*
Y24916D01*
X87210D01*
Y28942D01*
G37*
G36*
X84060D02*X81492D01*
Y24916D01*
X84060D01*
Y28942D01*
G37*
G36*
X93508D02*X90940D01*
Y24916D01*
X93508D01*
Y28942D01*
G37*
G36*
X90360D02*X87790D01*
Y24916D01*
X90360D01*
Y28942D01*
G37*
G36*
X128508Y98942D02*X125940D01*
Y94916D01*
X128508D01*
Y98942D01*
G37*
G36*
X125360D02*X122790D01*
Y94916D01*
X125360D01*
Y98942D01*
G37*
G36*
X122210D02*X119640D01*
Y94916D01*
X122210D01*
Y98942D01*
G37*
G36*
X119060D02*X116492D01*
Y94916D01*
X119060D01*
Y98942D01*
G37*
G36*
X122210Y90084D02*X119640D01*
Y86058D01*
X122210D01*
Y90084D01*
G37*
G36*
X125360D02*X122790D01*
Y86058D01*
X125360D01*
Y90084D01*
G37*
G36*
X128508D02*X125940D01*
Y86058D01*
X128508D01*
Y90084D01*
G37*
G36*
X119060Y90478D02*X116492D01*
Y86058D01*
X119060D01*
Y90478D01*
G37*
G36*
X154060D02*X151492D01*
Y86058D01*
X154060D01*
Y90478D01*
G37*
G36*
X157210Y90084D02*X154640D01*
Y86058D01*
X157210D01*
Y90084D01*
G37*
G36*
X160360D02*X157790D01*
Y86058D01*
X160360D01*
Y90084D01*
G37*
G36*
X163508D02*X160940D01*
Y86058D01*
X163508D01*
Y90084D01*
G37*
G36*
Y98942D02*X160940D01*
Y94916D01*
X163508D01*
Y98942D01*
G37*
G36*
X160360D02*X157790D01*
Y94916D01*
X160360D01*
Y98942D01*
G37*
G36*
X157210D02*X154640D01*
Y94916D01*
X157210D01*
Y98942D01*
G37*
G36*
X154060D02*X151492D01*
Y94916D01*
X154060D01*
Y98942D01*
G37*
G36*
X160360Y63942D02*X157790D01*
Y59916D01*
X160360D01*
Y63942D01*
G37*
G36*
X157210D02*X154640D01*
Y59916D01*
X157210D01*
Y63942D01*
G37*
G36*
X154060D02*X151492D01*
Y59916D01*
X154060D01*
Y63942D01*
G37*
G36*
Y55478D02*X151492D01*
Y51058D01*
X154060D01*
Y55478D01*
G37*
G36*
X157210Y55084D02*X154640D01*
Y51058D01*
X157210D01*
Y55084D01*
G37*
G36*
X160360D02*X157790D01*
Y51058D01*
X160360D01*
Y55084D01*
G37*
G36*
X163508D02*X160940D01*
Y51058D01*
X163508D01*
Y55084D01*
G37*
G36*
Y63942D02*X160940D01*
Y59916D01*
X163508D01*
Y63942D01*
G37*
G36*
X128508Y20084D02*X125940D01*
Y16058D01*
X128508D01*
Y20084D01*
G37*
G36*
X163508Y28942D02*X160940D01*
Y24916D01*
X163508D01*
Y28942D01*
G37*
G36*
X160360D02*X157790D01*
Y24916D01*
X160360D01*
Y28942D01*
G37*
G36*
X157210D02*X154640D01*
Y24916D01*
X157210D01*
Y28942D01*
G37*
G36*
X154060D02*X151492D01*
Y24916D01*
X154060D01*
Y28942D01*
G37*
G36*
Y20478D02*X151492D01*
Y16058D01*
X154060D01*
Y20478D01*
G37*
G36*
X157210Y20084D02*X154640D01*
Y16058D01*
X157210D01*
Y20084D01*
G37*
G36*
X160360D02*X157790D01*
Y16058D01*
X160360D01*
Y20084D01*
G37*
G36*
X163508D02*X160940D01*
Y16058D01*
X163508D01*
Y20084D01*
G37*
G36*
X195360Y63942D02*X192790D01*
Y59916D01*
X195360D01*
Y63942D01*
G37*
G36*
X192210D02*X189640D01*
Y59916D01*
X192210D01*
Y63942D01*
G37*
G36*
X189060D02*X186492D01*
Y59916D01*
X189060D01*
Y63942D01*
G37*
G36*
Y55478D02*X186492D01*
Y51058D01*
X189060D01*
Y55478D01*
G37*
G36*
X192210Y55084D02*X189640D01*
Y51058D01*
X192210D01*
Y55084D01*
G37*
G36*
X195360D02*X192790D01*
Y51058D01*
X195360D01*
Y55084D01*
G37*
G36*
X198508D02*X195940D01*
Y51058D01*
X198508D01*
Y55084D01*
G37*
G36*
Y63942D02*X195940D01*
Y59916D01*
X198508D01*
Y63942D01*
G37*
G36*
X230359D02*X227791D01*
Y59916D01*
X230359D01*
Y63942D01*
G37*
G36*
X227209D02*X224641D01*
Y59916D01*
X227209D01*
Y63942D01*
G37*
G36*
X224060D02*X221492D01*
Y59916D01*
X224060D01*
Y63942D01*
G37*
G36*
Y55478D02*X221492D01*
Y51058D01*
X224060D01*
Y55478D01*
G37*
G36*
X227209Y55084D02*X224641D01*
Y51058D01*
X227209D01*
Y55084D01*
G37*
G36*
X230359D02*X227791D01*
Y51058D01*
X230359D01*
Y55084D01*
G37*
G36*
X233508D02*X230940D01*
Y51058D01*
X233508D01*
Y55084D01*
G37*
G36*
Y63942D02*X230940D01*
Y59916D01*
X233508D01*
Y63942D01*
G37*
G36*
X265360D02*X262790D01*
Y59916D01*
X265360D01*
Y63942D01*
G37*
G36*
X262210D02*X259641D01*
Y59916D01*
X262210D01*
Y63942D01*
G37*
G36*
X259060D02*X256492D01*
Y59916D01*
X259060D01*
Y63942D01*
G37*
G36*
Y55478D02*X256492D01*
Y51058D01*
X259060D01*
Y55478D01*
G37*
G36*
X262210Y55084D02*X259641D01*
Y51058D01*
X262210D01*
Y55084D01*
G37*
G36*
X265360D02*X262790D01*
Y51058D01*
X265360D01*
Y55084D01*
G37*
G36*
X268508D02*X265940D01*
Y51058D01*
X268508D01*
Y55084D01*
G37*
G36*
Y63942D02*X265940D01*
Y59916D01*
X268508D01*
Y63942D01*
G37*
G36*
X300360D02*X297790D01*
Y59916D01*
X300360D01*
Y63942D01*
G37*
G36*
X297210D02*X294640D01*
Y59916D01*
X297210D01*
Y63942D01*
G37*
G36*
X294060D02*X291492D01*
Y59916D01*
X294060D01*
Y63942D01*
G37*
G36*
Y55478D02*X291492D01*
Y51058D01*
X294060D01*
Y55478D01*
G37*
G36*
X297210Y55084D02*X294640D01*
Y51058D01*
X297210D01*
Y55084D01*
G37*
G36*
X300360D02*X297790D01*
Y51058D01*
X300360D01*
Y55084D01*
G37*
G36*
X303508D02*X300940D01*
Y51058D01*
X303508D01*
Y55084D01*
G37*
G36*
Y63942D02*X300940D01*
Y59916D01*
X303508D01*
Y63942D01*
G37*
G36*
X335360D02*X332790D01*
Y59916D01*
X335360D01*
Y63942D01*
G37*
G36*
X332210D02*X329640D01*
Y59916D01*
X332210D01*
Y63942D01*
G37*
G36*
X329060D02*X326492D01*
Y59916D01*
X329060D01*
Y63942D01*
G37*
G36*
Y55478D02*X326492D01*
Y51058D01*
X329060D01*
Y55478D01*
G37*
G36*
X332210Y55084D02*X329640D01*
Y51058D01*
X332210D01*
Y55084D01*
G37*
G36*
X335360D02*X332790D01*
Y51058D01*
X335360D01*
Y55084D01*
G37*
G36*
X338508D02*X335940D01*
Y51058D01*
X338508D01*
Y55084D01*
G37*
G36*
Y63942D02*X335940D01*
Y59916D01*
X338508D01*
Y63942D01*
G37*
G36*
X370360D02*X367790D01*
Y59916D01*
X370360D01*
Y63942D01*
G37*
G36*
X367210D02*X364640D01*
Y59916D01*
X367210D01*
Y63942D01*
G37*
G36*
X364060D02*X361492D01*
Y59916D01*
X364060D01*
Y63942D01*
G37*
G36*
Y55478D02*X361492D01*
Y51058D01*
X364060D01*
Y55478D01*
G37*
G36*
X367210Y55084D02*X364640D01*
Y51058D01*
X367210D01*
Y55084D01*
G37*
G36*
X370360D02*X367790D01*
Y51058D01*
X370360D01*
Y55084D01*
G37*
G36*
X373508D02*X370940D01*
Y51058D01*
X373508D01*
Y55084D01*
G37*
G36*
Y63942D02*X370940D01*
Y59916D01*
X373508D01*
Y63942D01*
G37*
G36*
X405360D02*X402790D01*
Y59916D01*
X405360D01*
Y63942D01*
G37*
G36*
X402210D02*X399640D01*
Y59916D01*
X402210D01*
Y63942D01*
G37*
G36*
X399060D02*X396492D01*
Y59916D01*
X399060D01*
Y63942D01*
G37*
G36*
Y55478D02*X396492D01*
Y51058D01*
X399060D01*
Y55478D01*
G37*
G36*
X402210Y55084D02*X399640D01*
Y51058D01*
X402210D01*
Y55084D01*
G37*
G36*
X405360D02*X402790D01*
Y51058D01*
X405360D01*
Y55084D01*
G37*
G36*
X408508D02*X405940D01*
Y51058D01*
X408508D01*
Y55084D01*
G37*
G36*
Y63942D02*X405940D01*
Y59916D01*
X408508D01*
Y63942D01*
G37*
G36*
X440360D02*X437790D01*
Y59916D01*
X440360D01*
Y63942D01*
G37*
G36*
X437210D02*X434640D01*
Y59916D01*
X437210D01*
Y63942D01*
G37*
G36*
X434060D02*X431492D01*
Y59916D01*
X434060D01*
Y63942D01*
G37*
G36*
Y55478D02*X431492D01*
Y51058D01*
X434060D01*
Y55478D01*
G37*
G36*
X437210Y55084D02*X434640D01*
Y51058D01*
X437210D01*
Y55084D01*
G37*
G36*
X440360D02*X437790D01*
Y51058D01*
X440360D01*
Y55084D01*
G37*
G36*
X443508D02*X440940D01*
Y51058D01*
X443508D01*
Y55084D01*
G37*
G36*
Y63942D02*X440940D01*
Y59916D01*
X443508D01*
Y63942D01*
G37*
G36*
X195360Y98942D02*X192790D01*
Y94916D01*
X195360D01*
Y98942D01*
G37*
G36*
X192210D02*X189640D01*
Y94916D01*
X192210D01*
Y98942D01*
G37*
G36*
X189060D02*X186492D01*
Y94916D01*
X189060D01*
Y98942D01*
G37*
G36*
Y90478D02*X186492D01*
Y86058D01*
X189060D01*
Y90478D01*
G37*
G36*
X192210Y90084D02*X189640D01*
Y86058D01*
X192210D01*
Y90084D01*
G37*
G36*
X195360D02*X192790D01*
Y86058D01*
X195360D01*
Y90084D01*
G37*
G36*
X198508D02*X195940D01*
Y86058D01*
X198508D01*
Y90084D01*
G37*
G36*
Y98942D02*X195940D01*
Y94916D01*
X198508D01*
Y98942D01*
G37*
G36*
X230359D02*X227791D01*
Y94916D01*
X230359D01*
Y98942D01*
G37*
G36*
X227209D02*X224641D01*
Y94916D01*
X227209D01*
Y98942D01*
G37*
G36*
X224060D02*X221492D01*
Y94916D01*
X224060D01*
Y98942D01*
G37*
G36*
Y90478D02*X221492D01*
Y86058D01*
X224060D01*
Y90478D01*
G37*
G36*
X227209Y90084D02*X224641D01*
Y86058D01*
X227209D01*
Y90084D01*
G37*
G36*
X230359D02*X227791D01*
Y86058D01*
X230359D01*
Y90084D01*
G37*
G36*
X233508D02*X230940D01*
Y86058D01*
X233508D01*
Y90084D01*
G37*
G36*
Y98942D02*X230940D01*
Y94916D01*
X233508D01*
Y98942D01*
G37*
G36*
X265360D02*X262790D01*
Y94916D01*
X265360D01*
Y98942D01*
G37*
G36*
X262210D02*X259641D01*
Y94916D01*
X262210D01*
Y98942D01*
G37*
G36*
X259060D02*X256492D01*
Y94916D01*
X259060D01*
Y98942D01*
G37*
G36*
Y90478D02*X256492D01*
Y86058D01*
X259060D01*
Y90478D01*
G37*
G36*
X262210Y90084D02*X259641D01*
Y86058D01*
X262210D01*
Y90084D01*
G37*
G36*
X265360D02*X262790D01*
Y86058D01*
X265360D01*
Y90084D01*
G37*
G36*
X268508D02*X265940D01*
Y86058D01*
X268508D01*
Y90084D01*
G37*
G36*
Y98942D02*X265940D01*
Y94916D01*
X268508D01*
Y98942D01*
G37*
G36*
X300360D02*X297790D01*
Y94916D01*
X300360D01*
Y98942D01*
G37*
G36*
X297210D02*X294640D01*
Y94916D01*
X297210D01*
Y98942D01*
G37*
G36*
X294060D02*X291492D01*
Y94916D01*
X294060D01*
Y98942D01*
G37*
G36*
Y90478D02*X291492D01*
Y86058D01*
X294060D01*
Y90478D01*
G37*
G36*
X297210Y90084D02*X294640D01*
Y86058D01*
X297210D01*
Y90084D01*
G37*
G36*
X300360D02*X297790D01*
Y86058D01*
X300360D01*
Y90084D01*
G37*
G36*
X303508D02*X300940D01*
Y86058D01*
X303508D01*
Y90084D01*
G37*
G36*
Y98942D02*X300940D01*
Y94916D01*
X303508D01*
Y98942D01*
G37*
G36*
X335360D02*X332790D01*
Y94916D01*
X335360D01*
Y98942D01*
G37*
G36*
X332210D02*X329640D01*
Y94916D01*
X332210D01*
Y98942D01*
G37*
G36*
X329060D02*X326492D01*
Y94916D01*
X329060D01*
Y98942D01*
G37*
G36*
Y90478D02*X326492D01*
Y86058D01*
X329060D01*
Y90478D01*
G37*
G36*
X332210Y90084D02*X329640D01*
Y86058D01*
X332210D01*
Y90084D01*
G37*
G36*
X335360D02*X332790D01*
Y86058D01*
X335360D01*
Y90084D01*
G37*
G36*
X338508D02*X335940D01*
Y86058D01*
X338508D01*
Y90084D01*
G37*
G36*
Y98942D02*X335940D01*
Y94916D01*
X338508D01*
Y98942D01*
G37*
G36*
X370360D02*X367790D01*
Y94916D01*
X370360D01*
Y98942D01*
G37*
G36*
X367210D02*X364640D01*
Y94916D01*
X367210D01*
Y98942D01*
G37*
G36*
X364060D02*X361492D01*
Y94916D01*
X364060D01*
Y98942D01*
G37*
G36*
Y90478D02*X361492D01*
Y86058D01*
X364060D01*
Y90478D01*
G37*
G36*
X367210Y90084D02*X364640D01*
Y86058D01*
X367210D01*
Y90084D01*
G37*
G36*
X370360D02*X367790D01*
Y86058D01*
X370360D01*
Y90084D01*
G37*
G36*
X373508D02*X370940D01*
Y86058D01*
X373508D01*
Y90084D01*
G37*
G36*
Y98942D02*X370940D01*
Y94916D01*
X373508D01*
Y98942D01*
G37*
G36*
X405360D02*X402790D01*
Y94916D01*
X405360D01*
Y98942D01*
G37*
G36*
X402210D02*X399640D01*
Y94916D01*
X402210D01*
Y98942D01*
G37*
G36*
X399060D02*X396492D01*
Y94916D01*
X399060D01*
Y98942D01*
G37*
G36*
Y90478D02*X396492D01*
Y86058D01*
X399060D01*
Y90478D01*
G37*
G36*
X402210Y90084D02*X399640D01*
Y86058D01*
X402210D01*
Y90084D01*
G37*
G36*
X405360D02*X402790D01*
Y86058D01*
X405360D01*
Y90084D01*
G37*
G36*
X408508D02*X405940D01*
Y86058D01*
X408508D01*
Y90084D01*
G37*
G36*
Y98942D02*X405940D01*
Y94916D01*
X408508D01*
Y98942D01*
G37*
G36*
X440360D02*X437790D01*
Y94916D01*
X440360D01*
Y98942D01*
G37*
G36*
X437210D02*X434640D01*
Y94916D01*
X437210D01*
Y98942D01*
G37*
G36*
X434060D02*X431492D01*
Y94916D01*
X434060D01*
Y98942D01*
G37*
G36*
Y90478D02*X431492D01*
Y86058D01*
X434060D01*
Y90478D01*
G37*
G36*
X437210Y90084D02*X434640D01*
Y86058D01*
X437210D01*
Y90084D01*
G37*
G36*
X440360D02*X437790D01*
Y86058D01*
X440360D01*
Y90084D01*
G37*
G36*
X443508D02*X440940D01*
Y86058D01*
X443508D01*
Y90084D01*
G37*
G36*
Y98942D02*X440940D01*
Y94916D01*
X443508D01*
Y98942D01*
G37*
G36*
X198508Y28942D02*X195940D01*
Y24916D01*
X198508D01*
Y28942D01*
G37*
G36*
X195360D02*X192790D01*
Y24916D01*
X195360D01*
Y28942D01*
G37*
G36*
X192210D02*X189640D01*
Y24916D01*
X192210D01*
Y28942D01*
G37*
G36*
X189060D02*X186492D01*
Y24916D01*
X189060D01*
Y28942D01*
G37*
G36*
X192210Y20084D02*X189640D01*
Y16058D01*
X192210D01*
Y20084D01*
G37*
G36*
X195360D02*X192790D01*
Y16058D01*
X195360D01*
Y20084D01*
G37*
G36*
X198508D02*X195940D01*
Y16058D01*
X198508D01*
Y20084D01*
G37*
G36*
X189060Y20478D02*X186492D01*
Y16058D01*
X189060D01*
Y20478D01*
G37*
G36*
X224060D02*X221492D01*
Y16058D01*
X224060D01*
Y20478D01*
G37*
G36*
X227209Y20084D02*X224641D01*
Y16058D01*
X227209D01*
Y20084D01*
G37*
G36*
X230359D02*X227791D01*
Y16058D01*
X230359D01*
Y20084D01*
G37*
G36*
X233508D02*X230940D01*
Y16058D01*
X233508D01*
Y20084D01*
G37*
G36*
Y28942D02*X230940D01*
Y24916D01*
X233508D01*
Y28942D01*
G37*
G36*
X230359D02*X227791D01*
Y24916D01*
X230359D01*
Y28942D01*
G37*
G36*
X227209D02*X224641D01*
Y24916D01*
X227209D01*
Y28942D01*
G37*
G36*
X224060D02*X221492D01*
Y24916D01*
X224060D01*
Y28942D01*
G37*
G36*
X265360D02*X262790D01*
Y24916D01*
X265360D01*
Y28942D01*
G37*
G36*
X262210D02*X259641D01*
Y24916D01*
X262210D01*
Y28942D01*
G37*
G36*
X259060D02*X256492D01*
Y24916D01*
X259060D01*
Y28942D01*
G37*
G36*
Y20478D02*X256492D01*
Y16058D01*
X259060D01*
Y20478D01*
G37*
G36*
X262210Y20084D02*X259641D01*
Y16058D01*
X262210D01*
Y20084D01*
G37*
G36*
X265360D02*X262790D01*
Y16058D01*
X265360D01*
Y20084D01*
G37*
G36*
X268508D02*X265940D01*
Y16058D01*
X268508D01*
Y20084D01*
G37*
G36*
Y28942D02*X265940D01*
Y24916D01*
X268508D01*
Y28942D01*
G37*
G36*
X300360D02*X297790D01*
Y24916D01*
X300360D01*
Y28942D01*
G37*
G36*
X297210D02*X294640D01*
Y24916D01*
X297210D01*
Y28942D01*
G37*
G36*
X294060D02*X291492D01*
Y24916D01*
X294060D01*
Y28942D01*
G37*
G36*
Y20478D02*X291492D01*
Y16058D01*
X294060D01*
Y20478D01*
G37*
G36*
X297210Y20084D02*X294640D01*
Y16058D01*
X297210D01*
Y20084D01*
G37*
G36*
X300360D02*X297790D01*
Y16058D01*
X300360D01*
Y20084D01*
G37*
G36*
X303508D02*X300940D01*
Y16058D01*
X303508D01*
Y20084D01*
G37*
G36*
Y28942D02*X300940D01*
Y24916D01*
X303508D01*
Y28942D01*
G37*
G36*
X335360D02*X332790D01*
Y24916D01*
X335360D01*
Y28942D01*
G37*
G36*
X332210D02*X329640D01*
Y24916D01*
X332210D01*
Y28942D01*
G37*
G36*
X329060D02*X326492D01*
Y24916D01*
X329060D01*
Y28942D01*
G37*
G36*
Y20478D02*X326492D01*
Y16058D01*
X329060D01*
Y20478D01*
G37*
G36*
X332210Y20084D02*X329640D01*
Y16058D01*
X332210D01*
Y20084D01*
G37*
G36*
X335360D02*X332790D01*
Y16058D01*
X335360D01*
Y20084D01*
G37*
G36*
X338508D02*X335940D01*
Y16058D01*
X338508D01*
Y20084D01*
G37*
G36*
Y28942D02*X335940D01*
Y24916D01*
X338508D01*
Y28942D01*
G37*
G36*
X370360D02*X367790D01*
Y24916D01*
X370360D01*
Y28942D01*
G37*
G36*
X367210D02*X364640D01*
Y24916D01*
X367210D01*
Y28942D01*
G37*
G36*
X364060D02*X361492D01*
Y24916D01*
X364060D01*
Y28942D01*
G37*
G36*
Y20478D02*X361492D01*
Y16058D01*
X364060D01*
Y20478D01*
G37*
G36*
X367210Y20084D02*X364640D01*
Y16058D01*
X367210D01*
Y20084D01*
G37*
G36*
X370360D02*X367790D01*
Y16058D01*
X370360D01*
Y20084D01*
G37*
G36*
X373508D02*X370940D01*
Y16058D01*
X373508D01*
Y20084D01*
G37*
G36*
Y28942D02*X370940D01*
Y24916D01*
X373508D01*
Y28942D01*
G37*
G36*
X405360D02*X402790D01*
Y24916D01*
X405360D01*
Y28942D01*
G37*
G36*
X402210D02*X399640D01*
Y24916D01*
X402210D01*
Y28942D01*
G37*
G36*
X399060D02*X396492D01*
Y24916D01*
X399060D01*
Y28942D01*
G37*
G36*
Y20478D02*X396492D01*
Y16058D01*
X399060D01*
Y20478D01*
G37*
G36*
X402210Y20084D02*X399640D01*
Y16058D01*
X402210D01*
Y20084D01*
G37*
G36*
X405360D02*X402790D01*
Y16058D01*
X405360D01*
Y20084D01*
G37*
G36*
X408508D02*X405940D01*
Y16058D01*
X408508D01*
Y20084D01*
G37*
G36*
Y28942D02*X405940D01*
Y24916D01*
X408508D01*
Y28942D01*
G37*
G36*
X440360D02*X437790D01*
Y24916D01*
X440360D01*
Y28942D01*
G37*
G36*
X437210D02*X434640D01*
Y24916D01*
X437210D01*
Y28942D01*
G37*
G36*
X434060D02*X431492D01*
Y24916D01*
X434060D01*
Y28942D01*
G37*
G36*
Y20478D02*X431492D01*
Y16058D01*
X434060D01*
Y20478D01*
G37*
G36*
X437210Y20084D02*X434640D01*
Y16058D01*
X437210D01*
Y20084D01*
G37*
G36*
X440360D02*X437790D01*
Y16058D01*
X440360D01*
Y20084D01*
G37*
G36*
X443508D02*X440940D01*
Y16058D01*
X443508D01*
Y20084D01*
G37*
G36*
Y28942D02*X440940D01*
Y24916D01*
X443508D01*
Y28942D01*
G37*
M02*
