G04 start of page 8 for group -4079 idx -4079 *
G04 Title: (unknown), topsilk *
G04 Creator: pcb 4.0.2 *
G04 CreationDate: Fri Mar 17 03:13:06 2023 UTC *
G04 For: railfan *
G04 Format: Gerber/RS-274X *
G04 PCB-Dimensions (mil): 4900.00 1150.00 *
G04 PCB-Coordinate-Origin: lower left *
%MOIN*%
%FSLAX25Y25*%
%LNTOPSILK*%
%ADD29C,0.0100*%
%ADD28C,0.0001*%
G54D28*G36*
X181500Y54500D02*X183500D01*
Y52000D01*
X181500D01*
Y54500D01*
G37*
G36*
X251500D02*X253500D01*
Y52000D01*
X251500D01*
Y54500D01*
G37*
G36*
X286500D02*X288500D01*
Y52000D01*
X286500D01*
Y54500D01*
G37*
G36*
X321500D02*X323500D01*
Y52000D01*
X321500D01*
Y54500D01*
G37*
G36*
X356500D02*X358500D01*
Y52000D01*
X356500D01*
Y54500D01*
G37*
G36*
X391500D02*X393500D01*
Y52000D01*
X391500D01*
Y54500D01*
G37*
G36*
X216500D02*X218500D01*
Y52000D01*
X216500D01*
Y54500D01*
G37*
G36*
X216000Y51500D02*X219000D01*
Y48500D01*
X216000Y51500D01*
G37*
G36*
X251000D02*X254000D01*
Y48500D01*
X251000Y51500D01*
G37*
G36*
X286000D02*X289000D01*
Y48500D01*
X286000Y51500D01*
G37*
G36*
X321000D02*X324000D01*
Y48500D01*
X321000Y51500D01*
G37*
G36*
X356000D02*X359000D01*
Y48500D01*
X356000Y51500D01*
G37*
G36*
X391000D02*X394000D01*
Y48500D01*
X391000Y51500D01*
G37*
G36*
X426500Y54500D02*X428500D01*
Y52000D01*
X426500D01*
Y54500D01*
G37*
G36*
X426000Y51500D02*X429000D01*
Y48500D01*
X426000Y51500D01*
G37*
G36*
X41500Y54500D02*X43500D01*
Y52000D01*
X41500D01*
Y54500D01*
G37*
G36*
X41000Y51500D02*X44000D01*
Y48500D01*
X41000Y51500D01*
G37*
G36*
X76500Y54500D02*X78500D01*
Y52000D01*
X76500D01*
Y54500D01*
G37*
G36*
X76000Y51500D02*X79000D01*
Y48500D01*
X76000Y51500D01*
G37*
G36*
X41500Y89500D02*X43500D01*
Y87000D01*
X41500D01*
Y89500D01*
G37*
G36*
X76500D02*X78500D01*
Y87000D01*
X76500D01*
Y89500D01*
G37*
G36*
X111500D02*X113500D01*
Y87000D01*
X111500D01*
Y89500D01*
G37*
G36*
X41000Y86500D02*X44000D01*
Y83500D01*
X41000Y86500D01*
G37*
G36*
X76000D02*X79000D01*
Y83500D01*
X76000Y86500D01*
G37*
G36*
X111000D02*X114000D01*
Y83500D01*
X111000Y86500D01*
G37*
G36*
X216000D02*X219000D01*
Y83500D01*
X216000Y86500D01*
G37*
G36*
X181000Y51500D02*X184000D01*
Y48500D01*
X181000Y51500D01*
G37*
G36*
Y86500D02*X184000D01*
Y83500D01*
X181000Y86500D01*
G37*
G36*
X146500Y89500D02*X148500D01*
Y87000D01*
X146500D01*
Y89500D01*
G37*
G36*
X181500D02*X183500D01*
Y87000D01*
X181500D01*
Y89500D01*
G37*
G36*
X216500D02*X218500D01*
Y87000D01*
X216500D01*
Y89500D01*
G37*
G36*
X251500D02*X253500D01*
Y87000D01*
X251500D01*
Y89500D01*
G37*
G36*
X251000Y86500D02*X254000D01*
Y83500D01*
X251000Y86500D01*
G37*
G36*
X286500Y89500D02*X288500D01*
Y87000D01*
X286500D01*
Y89500D01*
G37*
G36*
X356500D02*X358500D01*
Y87000D01*
X356500D01*
Y89500D01*
G37*
G36*
X391500D02*X393500D01*
Y87000D01*
X391500D01*
Y89500D01*
G37*
G36*
X426500D02*X428500D01*
Y87000D01*
X426500D01*
Y89500D01*
G37*
G36*
X286000Y86500D02*X289000D01*
Y83500D01*
X286000Y86500D01*
G37*
G36*
X321500Y89500D02*X323500D01*
Y87000D01*
X321500D01*
Y89500D01*
G37*
G36*
X321000Y86500D02*X324000D01*
Y83500D01*
X321000Y86500D01*
G37*
G36*
X356000D02*X359000D01*
Y83500D01*
X356000Y86500D01*
G37*
G36*
X391000D02*X394000D01*
Y83500D01*
X391000Y86500D01*
G37*
G36*
X426000D02*X429000D01*
Y83500D01*
X426000Y86500D01*
G37*
G36*
X111500Y54500D02*X113500D01*
Y52000D01*
X111500D01*
Y54500D01*
G37*
G36*
X111000Y51500D02*X114000D01*
Y48500D01*
X111000Y51500D01*
G37*
G36*
X146500Y54500D02*X148500D01*
Y52000D01*
X146500D01*
Y54500D01*
G37*
G36*
X146000Y51500D02*X149000D01*
Y48500D01*
X146000Y51500D01*
G37*
G36*
Y86500D02*X149000D01*
Y83500D01*
X146000Y86500D01*
G37*
G36*
X146500Y19500D02*X148500D01*
Y17000D01*
X146500D01*
Y19500D01*
G37*
G36*
X146000Y16500D02*X149000D01*
Y13500D01*
X146000Y16500D01*
G37*
G36*
X41500Y19500D02*X43500D01*
Y17000D01*
X41500D01*
Y19500D01*
G37*
G36*
X41000Y16500D02*X44000D01*
Y13500D01*
X41000Y16500D01*
G37*
G36*
X76500Y19500D02*X78500D01*
Y17000D01*
X76500D01*
Y19500D01*
G37*
G36*
X76000Y16500D02*X79000D01*
Y13500D01*
X76000Y16500D01*
G37*
G36*
X111500Y19500D02*X113500D01*
Y17000D01*
X111500D01*
Y19500D01*
G37*
G36*
X111000Y16500D02*X114000D01*
Y13500D01*
X111000Y16500D01*
G37*
G36*
X181500Y19500D02*X183500D01*
Y17000D01*
X181500D01*
Y19500D01*
G37*
G36*
X181000Y16500D02*X184000D01*
Y13500D01*
X181000Y16500D01*
G37*
G36*
X216500Y19500D02*X218500D01*
Y17000D01*
X216500D01*
Y19500D01*
G37*
G36*
X216000Y16500D02*X219000D01*
Y13500D01*
X216000Y16500D01*
G37*
G36*
X251500Y19500D02*X253500D01*
Y17000D01*
X251500D01*
Y19500D01*
G37*
G36*
X251000Y16500D02*X254000D01*
Y13500D01*
X251000Y16500D01*
G37*
G36*
X286500Y19500D02*X288500D01*
Y17000D01*
X286500D01*
Y19500D01*
G37*
G36*
X286000Y16500D02*X289000D01*
Y13500D01*
X286000Y16500D01*
G37*
G36*
X321500Y19500D02*X323500D01*
Y17000D01*
X321500D01*
Y19500D01*
G37*
G36*
X321000Y16500D02*X324000D01*
Y13500D01*
X321000Y16500D01*
G37*
G36*
X356500Y19500D02*X358500D01*
Y17000D01*
X356500D01*
Y19500D01*
G37*
G36*
X391500D02*X393500D01*
Y17000D01*
X391500D01*
Y19500D01*
G37*
G36*
X426500D02*X428500D01*
Y17000D01*
X426500D01*
Y19500D01*
G37*
G36*
X356000Y16500D02*X359000D01*
Y13500D01*
X356000Y16500D01*
G37*
G36*
X391000D02*X394000D01*
Y13500D01*
X391000Y16500D01*
G37*
G36*
X426000D02*X429000D01*
Y13500D01*
X426000Y16500D01*
G37*
G54D29*X119500Y65000D02*Y68500D01*
X110500Y63000D02*X117000Y69500D01*
X128000D02*X134500Y63000D01*
X119500Y50000D02*Y46500D01*
X128000Y45500D02*X134500Y52000D01*
X110500D02*X117000Y45500D01*
X154500Y50000D02*Y46500D01*
X163000Y45500D02*X169500Y52000D01*
X145500D02*X152000Y45500D01*
X154500Y65000D02*Y68500D01*
X145500Y63000D02*X152000Y69500D01*
X163000D02*X169500Y63000D01*
X189500Y65000D02*Y68500D01*
X180500Y63000D02*X187000Y69500D01*
X58000D02*X64500Y63000D01*
X58000Y45500D02*X64500Y52000D01*
X84500Y65000D02*Y68500D01*
Y50000D02*Y46500D01*
X75500Y63000D02*X82000Y69500D01*
X75500Y52000D02*X82000Y45500D01*
X49500Y65000D02*Y68500D01*
Y50000D02*Y46500D01*
X40500Y63000D02*X47000Y69500D01*
X40500Y52000D02*X47000Y45500D01*
X40500Y28000D02*X47000Y34500D01*
X93000Y69500D02*X99500Y63000D01*
X49500Y100000D02*Y103500D01*
X40500Y98000D02*X47000Y104500D01*
X58000D02*X64500Y98000D01*
X49500Y85000D02*Y81500D01*
X58000Y80500D02*X64500Y87000D01*
X40500D02*X47000Y80500D01*
X84500Y85000D02*Y81500D01*
X93000Y80500D02*X99500Y87000D01*
X75500D02*X82000Y80500D01*
X84500Y100000D02*Y103500D01*
X75500Y98000D02*X82000Y104500D01*
X93000D02*X99500Y98000D01*
X119500Y100000D02*Y103500D01*
X110500Y98000D02*X117000Y104500D01*
X119500Y85000D02*Y81500D01*
X128000Y80500D02*X134500Y87000D01*
X110500D02*X117000Y80500D01*
X128000Y104500D02*X134500Y98000D01*
X154500Y100000D02*Y103500D01*
X145500Y98000D02*X152000Y104500D01*
X163000D02*X169500Y98000D01*
X189500Y100000D02*Y103500D01*
X180500Y98000D02*X187000Y104500D01*
X154500Y85000D02*Y81500D01*
X163000Y80500D02*X169500Y87000D01*
X145500D02*X152000Y80500D01*
X189500Y85000D02*Y81500D01*
X180500Y87000D02*X187000Y80500D01*
X93000Y45500D02*X99500Y52000D01*
X49500Y30000D02*Y33500D01*
X58000Y34500D02*X64500Y28000D01*
X75500D02*X82000Y34500D01*
X49500Y15000D02*Y11500D01*
X58000Y10500D02*X64500Y17000D01*
X40500D02*X47000Y10500D01*
X84500Y15000D02*Y11500D01*
X93000Y10500D02*X99500Y17000D01*
X75500D02*X82000Y10500D01*
X84500Y30000D02*Y33500D01*
X93000Y34500D02*X99500Y28000D01*
X119500Y30000D02*Y33500D01*
X110500Y28000D02*X117000Y34500D01*
X128000D02*X134500Y28000D01*
X154500Y30000D02*Y33500D01*
X145500Y28000D02*X152000Y34500D01*
X119500Y15000D02*Y11500D01*
X128000Y10500D02*X134500Y17000D01*
X110500D02*X117000Y10500D01*
X154500Y15000D02*Y11500D01*
X145500Y17000D02*X152000Y10500D01*
X189500Y50000D02*Y46500D01*
X180500Y52000D02*X187000Y45500D01*
X198000Y69500D02*X204500Y63000D01*
X224500Y65000D02*Y68500D01*
X215500Y63000D02*X222000Y69500D01*
X198000Y45500D02*X204500Y52000D01*
X224500Y50000D02*Y46500D01*
X233000Y45500D02*X239500Y52000D01*
X215500D02*X222000Y45500D01*
X259500Y50000D02*Y46500D01*
X250500Y52000D02*X257000Y45500D01*
X233000Y69500D02*X239500Y63000D01*
X259500Y65000D02*Y68500D01*
X250500Y63000D02*X257000Y69500D01*
X268000D02*X274500Y63000D01*
X268000Y45500D02*X274500Y52000D01*
X303000Y45500D02*X309500Y52000D01*
X285500D02*X292000Y45500D01*
X294500Y65000D02*Y68500D01*
Y50000D02*Y46500D01*
X285500Y63000D02*X292000Y69500D01*
X303000D02*X309500Y63000D01*
X329500Y65000D02*Y68500D01*
X320500Y63000D02*X327000Y69500D01*
X329500Y50000D02*Y46500D01*
X338000Y45500D02*X344500Y52000D01*
X320500D02*X327000Y45500D01*
X338000Y69500D02*X344500Y63000D01*
X364500Y65000D02*Y68500D01*
X355500Y63000D02*X362000Y69500D01*
X373000D02*X379500Y63000D01*
X399500Y65000D02*Y68500D01*
X390500Y63000D02*X397000Y69500D01*
X364500Y50000D02*Y46500D01*
X373000Y45500D02*X379500Y52000D01*
X355500D02*X362000Y45500D01*
X399500Y50000D02*Y46500D01*
X390500Y52000D02*X397000Y45500D01*
X408000Y69500D02*X414500Y63000D01*
X434500Y65000D02*Y68500D01*
X425500Y63000D02*X432000Y69500D01*
X443000D02*X449500Y63000D01*
X408000Y45500D02*X414500Y52000D01*
X434500Y50000D02*Y46500D01*
X443000Y45500D02*X449500Y52000D01*
X425500D02*X432000Y45500D01*
X198000Y104500D02*X204500Y98000D01*
X215500D02*X222000Y104500D01*
X233000D02*X239500Y98000D01*
X198000Y80500D02*X204500Y87000D01*
X233000Y80500D02*X239500Y87000D01*
X215500D02*X222000Y80500D01*
X259500Y85000D02*Y81500D01*
X268000Y80500D02*X274500Y87000D01*
X250500D02*X257000Y80500D01*
X224500Y100000D02*Y103500D01*
Y85000D02*Y81500D01*
X259500Y100000D02*Y103500D01*
X250500Y98000D02*X257000Y104500D01*
X268000D02*X274500Y98000D01*
X294500Y100000D02*Y103500D01*
X285500Y98000D02*X292000Y104500D01*
X294500Y85000D02*Y81500D01*
X303000Y80500D02*X309500Y87000D01*
X285500D02*X292000Y80500D01*
X303000Y104500D02*X309500Y98000D01*
X329500Y100000D02*Y103500D01*
X320500Y98000D02*X327000Y104500D01*
X338000D02*X344500Y98000D01*
X364500Y100000D02*Y103500D01*
X355500Y98000D02*X362000Y104500D01*
X329500Y85000D02*Y81500D01*
X338000Y80500D02*X344500Y87000D01*
X320500D02*X327000Y80500D01*
X364500Y85000D02*Y81500D01*
X355500Y87000D02*X362000Y80500D01*
X373000Y104500D02*X379500Y98000D01*
X399500Y100000D02*Y103500D01*
X390500Y98000D02*X397000Y104500D01*
X373000Y80500D02*X379500Y87000D01*
X399500Y85000D02*Y81500D01*
X408000Y80500D02*X414500Y87000D01*
X390500D02*X397000Y80500D01*
X434500Y85000D02*Y81500D01*
X425500Y87000D02*X432000Y80500D01*
X408000Y104500D02*X414500Y98000D01*
X434500Y100000D02*Y103500D01*
X425500Y98000D02*X432000Y104500D01*
X443000D02*X449500Y98000D01*
X443000Y80500D02*X449500Y87000D01*
X163000Y34500D02*X169500Y28000D01*
X180500D02*X187000Y34500D01*
X198000D02*X204500Y28000D01*
X163000Y10500D02*X169500Y17000D01*
X198000Y10500D02*X204500Y17000D01*
X180500D02*X187000Y10500D01*
X224500Y15000D02*Y11500D01*
X233000Y10500D02*X239500Y17000D01*
X215500D02*X222000Y10500D01*
X189500Y30000D02*Y33500D01*
Y15000D02*Y11500D01*
X224500Y30000D02*Y33500D01*
X215500Y28000D02*X222000Y34500D01*
X233000D02*X239500Y28000D01*
X259500Y30000D02*Y33500D01*
X250500Y28000D02*X257000Y34500D01*
X259500Y15000D02*Y11500D01*
X268000Y10500D02*X274500Y17000D01*
X250500D02*X257000Y10500D01*
X268000Y34500D02*X274500Y28000D01*
X294500Y30000D02*Y33500D01*
X285500Y28000D02*X292000Y34500D01*
X303000D02*X309500Y28000D01*
X329500Y30000D02*Y33500D01*
X320500Y28000D02*X327000Y34500D01*
X294500Y15000D02*Y11500D01*
X303000Y10500D02*X309500Y17000D01*
X285500D02*X292000Y10500D01*
X329500Y15000D02*Y11500D01*
X320500Y17000D02*X327000Y10500D01*
X338000Y34500D02*X344500Y28000D01*
X364500Y30000D02*Y33500D01*
X355500Y28000D02*X362000Y34500D01*
X338000Y10500D02*X344500Y17000D01*
X364500Y15000D02*Y11500D01*
X373000Y10500D02*X379500Y17000D01*
X355500D02*X362000Y10500D01*
X399500Y15000D02*Y11500D01*
X390500Y17000D02*X397000Y10500D01*
X373000Y34500D02*X379500Y28000D01*
X399500Y30000D02*Y33500D01*
X390500Y28000D02*X397000Y34500D01*
X408000D02*X414500Y28000D01*
X425500D02*X432000Y34500D01*
X443000D02*X449500Y28000D01*
X408000Y10500D02*X414500Y17000D01*
X443000Y10500D02*X449500Y17000D01*
X425500D02*X432000Y10500D01*
X434500Y30000D02*Y33500D01*
Y15000D02*Y11500D01*
X149823Y64587D02*Y50413D01*
Y64587D02*X165177D01*
Y50413D01*
X149823D02*X165177D01*
X184823Y64587D02*Y50413D01*
Y64587D02*X200177D01*
Y50413D01*
X184823D02*X200177D01*
X219823Y64587D02*Y50413D01*
Y64587D02*X235177D01*
Y50413D01*
X219823D02*X235177D01*
X254823Y64587D02*Y50413D01*
Y64587D02*X270177D01*
Y50413D01*
X254823D02*X270177D01*
X289823Y64587D02*Y50413D01*
Y64587D02*X305177D01*
Y50413D01*
X289823D02*X305177D01*
X324823Y64587D02*Y50413D01*
Y64587D02*X340177D01*
Y50413D01*
X324823D02*X340177D01*
X359823Y64587D02*Y50413D01*
Y64587D02*X375177D01*
Y50413D01*
X359823D02*X375177D01*
X394823Y64587D02*Y50413D01*
Y64587D02*X410177D01*
Y50413D01*
X394823D02*X410177D01*
X429823Y64587D02*Y50413D01*
Y64587D02*X445177D01*
Y50413D01*
X429823D02*X445177D01*
X219823Y99587D02*Y85413D01*
Y99587D02*X235177D01*
Y85413D01*
X219823D02*X235177D01*
X254823Y99587D02*Y85413D01*
Y99587D02*X270177D01*
Y85413D01*
X254823D02*X270177D01*
X289823Y99587D02*Y85413D01*
Y99587D02*X305177D01*
Y85413D01*
X289823D02*X305177D01*
X324823Y99587D02*Y85413D01*
Y99587D02*X340177D01*
Y85413D01*
X324823D02*X340177D01*
X359823Y99587D02*Y85413D01*
Y99587D02*X375177D01*
Y85413D01*
X359823D02*X375177D01*
X394823Y99587D02*Y85413D01*
Y99587D02*X410177D01*
Y85413D01*
X394823D02*X410177D01*
X429823Y99587D02*Y85413D01*
Y99587D02*X445177D01*
Y85413D01*
X429823D02*X445177D01*
X149823Y29587D02*Y15413D01*
Y29587D02*X165177D01*
Y15413D01*
X149823D02*X165177D01*
X184823Y29587D02*Y15413D01*
Y29587D02*X200177D01*
Y15413D01*
X184823D02*X200177D01*
X219823Y29587D02*Y15413D01*
Y29587D02*X235177D01*
Y15413D01*
X219823D02*X235177D01*
X254823Y29587D02*Y15413D01*
Y29587D02*X270177D01*
Y15413D01*
X254823D02*X270177D01*
X289823Y29587D02*Y15413D01*
Y29587D02*X305177D01*
Y15413D01*
X289823D02*X305177D01*
X324823Y29587D02*Y15413D01*
Y29587D02*X340177D01*
Y15413D01*
X324823D02*X340177D01*
X359823Y29587D02*Y15413D01*
Y29587D02*X375177D01*
Y15413D01*
X359823D02*X375177D01*
X394823Y29587D02*Y15413D01*
Y29587D02*X410177D01*
Y15413D01*
X394823D02*X410177D01*
X429823Y29587D02*Y15413D01*
Y29587D02*X445177D01*
Y15413D01*
X429823D02*X445177D01*
X44823Y64587D02*Y50413D01*
Y64587D02*X60177D01*
Y50413D01*
X44823D02*X60177D01*
X44823Y99587D02*Y85413D01*
Y99587D02*X60177D01*
Y85413D01*
X44823D02*X60177D01*
X79823Y64587D02*Y50413D01*
Y64587D02*X95177D01*
Y50413D01*
X79823D02*X95177D01*
X79823Y99587D02*Y85413D01*
Y99587D02*X95177D01*
Y85413D01*
X79823D02*X95177D01*
X44823Y29587D02*Y15413D01*
Y29587D02*X60177D01*
Y15413D01*
X44823D02*X60177D01*
X114823Y64587D02*Y50413D01*
Y64587D02*X130177D01*
Y50413D01*
X114823D02*X130177D01*
X114823Y99587D02*Y85413D01*
Y99587D02*X130177D01*
Y85413D01*
X114823D02*X130177D01*
X149823Y99587D02*Y85413D01*
Y99587D02*X165177D01*
Y85413D01*
X149823D02*X165177D01*
X184823Y99587D02*Y85413D01*
Y99587D02*X200177D01*
Y85413D01*
X184823D02*X200177D01*
X79823Y29587D02*Y15413D01*
Y29587D02*X95177D01*
Y15413D01*
X79823D02*X95177D01*
X114823Y29587D02*Y15413D01*
Y29587D02*X130177D01*
Y15413D01*
X114823D02*X130177D01*
M02*
