G04 start of page 12 for group -3984 idx -3984 *
G04 Title: (unknown), fab *
G04 Creator: pcb 4.0.2 *
G04 CreationDate: Mon Aug 16 16:07:35 2021 UTC *
G04 For: ndholmes *
G04 Format: Gerber/RS-274X *
G04 PCB-Dimensions (mil): 4300.00 450.00 *
G04 PCB-Coordinate-Origin: lower left *
%MOIN*%
%FSLAX25Y25*%
%LNFAB*%
%ADD34C,0.0100*%
%ADD33C,0.0075*%
%ADD32C,0.0060*%
%ADD31C,0.0001*%
%ADD30R,0.0080X0.0080*%
G54D30*X16500Y31000D02*Y29400D01*
G54D31*G36*
X15954Y31147D02*X18033Y32346D01*
X18433Y31653D01*
X16353Y30454D01*
X15954Y31147D01*
G37*
G36*
X16647Y30454D02*X14567Y31653D01*
X14967Y32346D01*
X17046Y31147D01*
X16647Y30454D01*
G37*
G54D30*X15000Y22500D02*Y20900D01*
G54D31*G36*
X14454Y22647D02*X16533Y23846D01*
X16933Y23153D01*
X14853Y21954D01*
X14454Y22647D01*
G37*
G36*
X15147Y21954D02*X13067Y23153D01*
X13467Y23846D01*
X15546Y22647D01*
X15147Y21954D01*
G37*
G54D30*X30500Y22000D02*Y20400D01*
G54D31*G36*
X29954Y22147D02*X32033Y23346D01*
X32433Y22653D01*
X30353Y21454D01*
X29954Y22147D01*
G37*
G36*
X30647Y21454D02*X28567Y22653D01*
X28967Y23346D01*
X31046Y22147D01*
X30647Y21454D01*
G37*
G54D30*X28500Y14000D02*Y12400D01*
G54D31*G36*
X27954Y14147D02*X30033Y15346D01*
X30433Y14653D01*
X28353Y13454D01*
X27954Y14147D01*
G37*
G36*
X28647Y13454D02*X26567Y14653D01*
X26967Y15346D01*
X29046Y14147D01*
X28647Y13454D01*
G37*
G54D30*X16500Y14000D02*Y12400D01*
G54D31*G36*
X15954Y14147D02*X18033Y15346D01*
X18433Y14653D01*
X16353Y13454D01*
X15954Y14147D01*
G37*
G36*
X16647Y13454D02*X14567Y14653D01*
X14967Y15346D01*
X17046Y14147D01*
X16647Y13454D01*
G37*
G54D30*X51500Y31000D02*Y29400D01*
G54D31*G36*
X50954Y31147D02*X53033Y32346D01*
X53433Y31653D01*
X51353Y30454D01*
X50954Y31147D01*
G37*
G36*
X51647Y30454D02*X49567Y31653D01*
X49967Y32346D01*
X52046Y31147D01*
X51647Y30454D01*
G37*
G54D30*X50000Y22500D02*Y20900D01*
G54D31*G36*
X49454Y22647D02*X51533Y23846D01*
X51933Y23153D01*
X49853Y21954D01*
X49454Y22647D01*
G37*
G36*
X50147Y21954D02*X48067Y23153D01*
X48467Y23846D01*
X50546Y22647D01*
X50147Y21954D01*
G37*
G54D30*X65500Y22000D02*Y20400D01*
G54D31*G36*
X64954Y22147D02*X67033Y23346D01*
X67433Y22653D01*
X65353Y21454D01*
X64954Y22147D01*
G37*
G36*
X65647Y21454D02*X63567Y22653D01*
X63967Y23346D01*
X66046Y22147D01*
X65647Y21454D01*
G37*
G54D30*X63500Y14000D02*Y12400D01*
G54D31*G36*
X62954Y14147D02*X65033Y15346D01*
X65433Y14653D01*
X63353Y13454D01*
X62954Y14147D01*
G37*
G36*
X63647Y13454D02*X61567Y14653D01*
X61967Y15346D01*
X64046Y14147D01*
X63647Y13454D01*
G37*
G54D30*X51500Y14000D02*Y12400D01*
G54D31*G36*
X50954Y14147D02*X53033Y15346D01*
X53433Y14653D01*
X51353Y13454D01*
X50954Y14147D01*
G37*
G36*
X51647Y13454D02*X49567Y14653D01*
X49967Y15346D01*
X52046Y14147D01*
X51647Y13454D01*
G37*
G54D30*X86500Y31000D02*Y29400D01*
G54D31*G36*
X85954Y31147D02*X88033Y32346D01*
X88433Y31653D01*
X86353Y30454D01*
X85954Y31147D01*
G37*
G36*
X86647Y30454D02*X84567Y31653D01*
X84967Y32346D01*
X87046Y31147D01*
X86647Y30454D01*
G37*
G54D30*X85000Y22500D02*Y20900D01*
G54D31*G36*
X84454Y22647D02*X86533Y23846D01*
X86933Y23153D01*
X84853Y21954D01*
X84454Y22647D01*
G37*
G36*
X85147Y21954D02*X83067Y23153D01*
X83467Y23846D01*
X85546Y22647D01*
X85147Y21954D01*
G37*
G54D30*X100500Y22000D02*Y20400D01*
G54D31*G36*
X99954Y22147D02*X102033Y23346D01*
X102433Y22653D01*
X100353Y21454D01*
X99954Y22147D01*
G37*
G36*
X100647Y21454D02*X98567Y22653D01*
X98967Y23346D01*
X101046Y22147D01*
X100647Y21454D01*
G37*
G54D30*X98500Y14000D02*Y12400D01*
G54D31*G36*
X97954Y14147D02*X100033Y15346D01*
X100433Y14653D01*
X98353Y13454D01*
X97954Y14147D01*
G37*
G36*
X98647Y13454D02*X96567Y14653D01*
X96967Y15346D01*
X99046Y14147D01*
X98647Y13454D01*
G37*
G54D30*X86500Y14000D02*Y12400D01*
G54D31*G36*
X85954Y14147D02*X88033Y15346D01*
X88433Y14653D01*
X86353Y13454D01*
X85954Y14147D01*
G37*
G36*
X86647Y13454D02*X84567Y14653D01*
X84967Y15346D01*
X87046Y14147D01*
X86647Y13454D01*
G37*
G54D30*X121500Y31000D02*Y29400D01*
G54D31*G36*
X120954Y31147D02*X123033Y32346D01*
X123433Y31653D01*
X121353Y30454D01*
X120954Y31147D01*
G37*
G36*
X121647Y30454D02*X119567Y31653D01*
X119967Y32346D01*
X122046Y31147D01*
X121647Y30454D01*
G37*
G54D30*X120000Y22500D02*Y20900D01*
G54D31*G36*
X119454Y22647D02*X121533Y23846D01*
X121933Y23153D01*
X119853Y21954D01*
X119454Y22647D01*
G37*
G36*
X120147Y21954D02*X118067Y23153D01*
X118467Y23846D01*
X120546Y22647D01*
X120147Y21954D01*
G37*
G54D30*X135500Y22000D02*Y20400D01*
G54D31*G36*
X134954Y22147D02*X137033Y23346D01*
X137433Y22653D01*
X135353Y21454D01*
X134954Y22147D01*
G37*
G36*
X135647Y21454D02*X133567Y22653D01*
X133967Y23346D01*
X136046Y22147D01*
X135647Y21454D01*
G37*
G54D30*X133500Y14000D02*Y12400D01*
G54D31*G36*
X132954Y14147D02*X135033Y15346D01*
X135433Y14653D01*
X133353Y13454D01*
X132954Y14147D01*
G37*
G36*
X133647Y13454D02*X131567Y14653D01*
X131967Y15346D01*
X134046Y14147D01*
X133647Y13454D01*
G37*
G54D30*X121500Y14000D02*Y12400D01*
G54D31*G36*
X120954Y14147D02*X123033Y15346D01*
X123433Y14653D01*
X121353Y13454D01*
X120954Y14147D01*
G37*
G36*
X121647Y13454D02*X119567Y14653D01*
X119967Y15346D01*
X122046Y14147D01*
X121647Y13454D01*
G37*
G54D30*X156500Y31000D02*Y29400D01*
G54D31*G36*
X155954Y31147D02*X158033Y32346D01*
X158433Y31653D01*
X156353Y30454D01*
X155954Y31147D01*
G37*
G36*
X156647Y30454D02*X154567Y31653D01*
X154967Y32346D01*
X157046Y31147D01*
X156647Y30454D01*
G37*
G54D30*X155000Y22500D02*Y20900D01*
G54D31*G36*
X154454Y22647D02*X156533Y23846D01*
X156933Y23153D01*
X154853Y21954D01*
X154454Y22647D01*
G37*
G36*
X155147Y21954D02*X153067Y23153D01*
X153467Y23846D01*
X155546Y22647D01*
X155147Y21954D01*
G37*
G54D30*X170500Y22000D02*Y20400D01*
G54D31*G36*
X169954Y22147D02*X172033Y23346D01*
X172433Y22653D01*
X170353Y21454D01*
X169954Y22147D01*
G37*
G36*
X170647Y21454D02*X168567Y22653D01*
X168967Y23346D01*
X171046Y22147D01*
X170647Y21454D01*
G37*
G54D30*X168500Y14000D02*Y12400D01*
G54D31*G36*
X167954Y14147D02*X170033Y15346D01*
X170433Y14653D01*
X168353Y13454D01*
X167954Y14147D01*
G37*
G36*
X168647Y13454D02*X166567Y14653D01*
X166967Y15346D01*
X169046Y14147D01*
X168647Y13454D01*
G37*
G54D30*X156500Y14000D02*Y12400D01*
G54D31*G36*
X155954Y14147D02*X158033Y15346D01*
X158433Y14653D01*
X156353Y13454D01*
X155954Y14147D01*
G37*
G36*
X156647Y13454D02*X154567Y14653D01*
X154967Y15346D01*
X157046Y14147D01*
X156647Y13454D01*
G37*
G54D30*X191500Y31000D02*Y29400D01*
G54D31*G36*
X190954Y31147D02*X193033Y32346D01*
X193433Y31653D01*
X191353Y30454D01*
X190954Y31147D01*
G37*
G36*
X191647Y30454D02*X189567Y31653D01*
X189967Y32346D01*
X192046Y31147D01*
X191647Y30454D01*
G37*
G54D30*X190000Y22500D02*Y20900D01*
G54D31*G36*
X189454Y22647D02*X191533Y23846D01*
X191933Y23153D01*
X189853Y21954D01*
X189454Y22647D01*
G37*
G36*
X190147Y21954D02*X188067Y23153D01*
X188467Y23846D01*
X190546Y22647D01*
X190147Y21954D01*
G37*
G54D30*X205500Y22000D02*Y20400D01*
G54D31*G36*
X204954Y22147D02*X207033Y23346D01*
X207433Y22653D01*
X205353Y21454D01*
X204954Y22147D01*
G37*
G36*
X205647Y21454D02*X203567Y22653D01*
X203967Y23346D01*
X206046Y22147D01*
X205647Y21454D01*
G37*
G54D30*X203500Y14000D02*Y12400D01*
G54D31*G36*
X202954Y14147D02*X205033Y15346D01*
X205433Y14653D01*
X203353Y13454D01*
X202954Y14147D01*
G37*
G36*
X203647Y13454D02*X201567Y14653D01*
X201967Y15346D01*
X204046Y14147D01*
X203647Y13454D01*
G37*
G54D30*X191500Y14000D02*Y12400D01*
G54D31*G36*
X190954Y14147D02*X193033Y15346D01*
X193433Y14653D01*
X191353Y13454D01*
X190954Y14147D01*
G37*
G36*
X191647Y13454D02*X189567Y14653D01*
X189967Y15346D01*
X192046Y14147D01*
X191647Y13454D01*
G37*
G54D30*X226500Y31000D02*Y29400D01*
G54D31*G36*
X225954Y31147D02*X228033Y32346D01*
X228433Y31653D01*
X226353Y30454D01*
X225954Y31147D01*
G37*
G36*
X226647Y30454D02*X224567Y31653D01*
X224967Y32346D01*
X227046Y31147D01*
X226647Y30454D01*
G37*
G54D30*X225000Y22500D02*Y20900D01*
G54D31*G36*
X224454Y22647D02*X226533Y23846D01*
X226933Y23153D01*
X224853Y21954D01*
X224454Y22647D01*
G37*
G36*
X225147Y21954D02*X223067Y23153D01*
X223467Y23846D01*
X225546Y22647D01*
X225147Y21954D01*
G37*
G54D30*X240500Y22000D02*Y20400D01*
G54D31*G36*
X239954Y22147D02*X242033Y23346D01*
X242433Y22653D01*
X240353Y21454D01*
X239954Y22147D01*
G37*
G36*
X240647Y21454D02*X238567Y22653D01*
X238967Y23346D01*
X241046Y22147D01*
X240647Y21454D01*
G37*
G54D30*X238500Y14000D02*Y12400D01*
G54D31*G36*
X237954Y14147D02*X240033Y15346D01*
X240433Y14653D01*
X238353Y13454D01*
X237954Y14147D01*
G37*
G36*
X238647Y13454D02*X236567Y14653D01*
X236967Y15346D01*
X239046Y14147D01*
X238647Y13454D01*
G37*
G54D30*X226500Y14000D02*Y12400D01*
G54D31*G36*
X225954Y14147D02*X228033Y15346D01*
X228433Y14653D01*
X226353Y13454D01*
X225954Y14147D01*
G37*
G36*
X226647Y13454D02*X224567Y14653D01*
X224967Y15346D01*
X227046Y14147D01*
X226647Y13454D01*
G37*
G54D30*X261500Y31000D02*Y29400D01*
G54D31*G36*
X260954Y31147D02*X263033Y32346D01*
X263433Y31653D01*
X261353Y30454D01*
X260954Y31147D01*
G37*
G36*
X261647Y30454D02*X259567Y31653D01*
X259967Y32346D01*
X262046Y31147D01*
X261647Y30454D01*
G37*
G54D30*X260000Y22500D02*Y20900D01*
G54D31*G36*
X259454Y22647D02*X261533Y23846D01*
X261933Y23153D01*
X259853Y21954D01*
X259454Y22647D01*
G37*
G36*
X260147Y21954D02*X258067Y23153D01*
X258467Y23846D01*
X260546Y22647D01*
X260147Y21954D01*
G37*
G54D30*X275500Y22000D02*Y20400D01*
G54D31*G36*
X274954Y22147D02*X277033Y23346D01*
X277433Y22653D01*
X275353Y21454D01*
X274954Y22147D01*
G37*
G36*
X275647Y21454D02*X273567Y22653D01*
X273967Y23346D01*
X276046Y22147D01*
X275647Y21454D01*
G37*
G54D30*X273500Y14000D02*Y12400D01*
G54D31*G36*
X272954Y14147D02*X275033Y15346D01*
X275433Y14653D01*
X273353Y13454D01*
X272954Y14147D01*
G37*
G36*
X273647Y13454D02*X271567Y14653D01*
X271967Y15346D01*
X274046Y14147D01*
X273647Y13454D01*
G37*
G54D30*X261500Y14000D02*Y12400D01*
G54D31*G36*
X260954Y14147D02*X263033Y15346D01*
X263433Y14653D01*
X261353Y13454D01*
X260954Y14147D01*
G37*
G36*
X261647Y13454D02*X259567Y14653D01*
X259967Y15346D01*
X262046Y14147D01*
X261647Y13454D01*
G37*
G54D30*X296500Y31000D02*Y29400D01*
G54D31*G36*
X295954Y31147D02*X298033Y32346D01*
X298433Y31653D01*
X296353Y30454D01*
X295954Y31147D01*
G37*
G36*
X296647Y30454D02*X294567Y31653D01*
X294967Y32346D01*
X297046Y31147D01*
X296647Y30454D01*
G37*
G54D30*X295000Y22500D02*Y20900D01*
G54D31*G36*
X294454Y22647D02*X296533Y23846D01*
X296933Y23153D01*
X294853Y21954D01*
X294454Y22647D01*
G37*
G36*
X295147Y21954D02*X293067Y23153D01*
X293467Y23846D01*
X295546Y22647D01*
X295147Y21954D01*
G37*
G54D30*X310500Y22000D02*Y20400D01*
G54D31*G36*
X309954Y22147D02*X312033Y23346D01*
X312433Y22653D01*
X310353Y21454D01*
X309954Y22147D01*
G37*
G36*
X310647Y21454D02*X308567Y22653D01*
X308967Y23346D01*
X311046Y22147D01*
X310647Y21454D01*
G37*
G54D30*X308500Y14000D02*Y12400D01*
G54D31*G36*
X307954Y14147D02*X310033Y15346D01*
X310433Y14653D01*
X308353Y13454D01*
X307954Y14147D01*
G37*
G36*
X308647Y13454D02*X306567Y14653D01*
X306967Y15346D01*
X309046Y14147D01*
X308647Y13454D01*
G37*
G54D30*X296500Y14000D02*Y12400D01*
G54D31*G36*
X295954Y14147D02*X298033Y15346D01*
X298433Y14653D01*
X296353Y13454D01*
X295954Y14147D01*
G37*
G36*
X296647Y13454D02*X294567Y14653D01*
X294967Y15346D01*
X297046Y14147D01*
X296647Y13454D01*
G37*
G54D30*X331500Y31000D02*Y29400D01*
G54D31*G36*
X330954Y31147D02*X333033Y32346D01*
X333433Y31653D01*
X331353Y30454D01*
X330954Y31147D01*
G37*
G36*
X331647Y30454D02*X329567Y31653D01*
X329967Y32346D01*
X332046Y31147D01*
X331647Y30454D01*
G37*
G54D30*X330000Y22500D02*Y20900D01*
G54D31*G36*
X329454Y22647D02*X331533Y23846D01*
X331933Y23153D01*
X329853Y21954D01*
X329454Y22647D01*
G37*
G36*
X330147Y21954D02*X328067Y23153D01*
X328467Y23846D01*
X330546Y22647D01*
X330147Y21954D01*
G37*
G54D30*X345500Y22000D02*Y20400D01*
G54D31*G36*
X344954Y22147D02*X347033Y23346D01*
X347433Y22653D01*
X345353Y21454D01*
X344954Y22147D01*
G37*
G36*
X345647Y21454D02*X343567Y22653D01*
X343967Y23346D01*
X346046Y22147D01*
X345647Y21454D01*
G37*
G54D30*X343500Y14000D02*Y12400D01*
G54D31*G36*
X342954Y14147D02*X345033Y15346D01*
X345433Y14653D01*
X343353Y13454D01*
X342954Y14147D01*
G37*
G36*
X343647Y13454D02*X341567Y14653D01*
X341967Y15346D01*
X344046Y14147D01*
X343647Y13454D01*
G37*
G54D30*X331500Y14000D02*Y12400D01*
G54D31*G36*
X330954Y14147D02*X333033Y15346D01*
X333433Y14653D01*
X331353Y13454D01*
X330954Y14147D01*
G37*
G36*
X331647Y13454D02*X329567Y14653D01*
X329967Y15346D01*
X332046Y14147D01*
X331647Y13454D01*
G37*
G54D30*X366500Y31000D02*Y29400D01*
G54D31*G36*
X365954Y31147D02*X368033Y32346D01*
X368433Y31653D01*
X366353Y30454D01*
X365954Y31147D01*
G37*
G36*
X366647Y30454D02*X364567Y31653D01*
X364967Y32346D01*
X367046Y31147D01*
X366647Y30454D01*
G37*
G54D30*X365000Y22500D02*Y20900D01*
G54D31*G36*
X364454Y22647D02*X366533Y23846D01*
X366933Y23153D01*
X364853Y21954D01*
X364454Y22647D01*
G37*
G36*
X365147Y21954D02*X363067Y23153D01*
X363467Y23846D01*
X365546Y22647D01*
X365147Y21954D01*
G37*
G54D30*X380500Y22000D02*Y20400D01*
G54D31*G36*
X379954Y22147D02*X382033Y23346D01*
X382433Y22653D01*
X380353Y21454D01*
X379954Y22147D01*
G37*
G36*
X380647Y21454D02*X378567Y22653D01*
X378967Y23346D01*
X381046Y22147D01*
X380647Y21454D01*
G37*
G54D30*X378500Y14000D02*Y12400D01*
G54D31*G36*
X377954Y14147D02*X380033Y15346D01*
X380433Y14653D01*
X378353Y13454D01*
X377954Y14147D01*
G37*
G36*
X378647Y13454D02*X376567Y14653D01*
X376967Y15346D01*
X379046Y14147D01*
X378647Y13454D01*
G37*
G54D30*X366500Y14000D02*Y12400D01*
G54D31*G36*
X365954Y14147D02*X368033Y15346D01*
X368433Y14653D01*
X366353Y13454D01*
X365954Y14147D01*
G37*
G36*
X366647Y13454D02*X364567Y14653D01*
X364967Y15346D01*
X367046Y14147D01*
X366647Y13454D01*
G37*
G54D30*X401500Y31000D02*Y29400D01*
G54D31*G36*
X400954Y31147D02*X403033Y32346D01*
X403433Y31653D01*
X401353Y30454D01*
X400954Y31147D01*
G37*
G36*
X401647Y30454D02*X399567Y31653D01*
X399967Y32346D01*
X402046Y31147D01*
X401647Y30454D01*
G37*
G54D30*X400000Y22500D02*Y20900D01*
G54D31*G36*
X399454Y22647D02*X401533Y23846D01*
X401933Y23153D01*
X399853Y21954D01*
X399454Y22647D01*
G37*
G36*
X400147Y21954D02*X398067Y23153D01*
X398467Y23846D01*
X400546Y22647D01*
X400147Y21954D01*
G37*
G54D30*X415500Y22000D02*Y20400D01*
G54D31*G36*
X414954Y22147D02*X417033Y23346D01*
X417433Y22653D01*
X415353Y21454D01*
X414954Y22147D01*
G37*
G36*
X415647Y21454D02*X413567Y22653D01*
X413967Y23346D01*
X416046Y22147D01*
X415647Y21454D01*
G37*
G54D30*X413500Y14000D02*Y12400D01*
G54D31*G36*
X412954Y14147D02*X415033Y15346D01*
X415433Y14653D01*
X413353Y13454D01*
X412954Y14147D01*
G37*
G36*
X413647Y13454D02*X411567Y14653D01*
X411967Y15346D01*
X414046Y14147D01*
X413647Y13454D01*
G37*
G54D30*X401500Y14000D02*Y12400D01*
G54D31*G36*
X400954Y14147D02*X403033Y15346D01*
X403433Y14653D01*
X401353Y13454D01*
X400954Y14147D01*
G37*
G36*
X401647Y13454D02*X399567Y14653D01*
X399967Y15346D01*
X402046Y14147D01*
X401647Y13454D01*
G37*
G54D30*X15000Y101250D02*Y99650D01*
G54D31*G36*
X14454Y101397D02*X16533Y102596D01*
X16933Y101903D01*
X14853Y100704D01*
X14454Y101397D01*
G37*
G36*
X15147Y100704D02*X13067Y101903D01*
X13467Y102596D01*
X15546Y101397D01*
X15147Y100704D01*
G37*
G54D32*X135000Y103500D02*X136500Y100500D01*
X138000Y103500D01*
X136500Y100500D02*Y97500D01*
X139800Y100800D02*X142050D01*
X139800Y97500D02*X142800D01*
X139800Y103500D02*Y97500D01*
Y103500D02*X142800D01*
X147600D02*X148350Y102750D01*
X145350Y103500D02*X147600D01*
X144600Y102750D02*X145350Y103500D01*
X144600Y102750D02*Y101250D01*
X145350Y100500D01*
X147600D01*
X148350Y99750D01*
Y98250D01*
X147600Y97500D02*X148350Y98250D01*
X145350Y97500D02*X147600D01*
X144600Y98250D02*X145350Y97500D01*
X100250Y103500D02*X101000Y102750D01*
X98750Y103500D02*X100250D01*
X98000Y102750D02*X98750Y103500D01*
X98000Y102750D02*Y98250D01*
X98750Y97500D01*
X100250Y100800D02*X101000Y100050D01*
X98000Y100800D02*X100250D01*
X98750Y97500D02*X100250D01*
X101000Y98250D01*
Y100050D02*Y98250D01*
X102800D02*X103550Y97500D01*
X102800Y102750D02*Y98250D01*
Y102750D02*X103550Y103500D01*
X105050D01*
X105800Y102750D01*
Y98250D01*
X105050Y97500D02*X105800Y98250D01*
X103550Y97500D02*X105050D01*
X102800Y99000D02*X105800Y102000D01*
X45000Y98250D02*X45750Y97500D01*
X45000Y102750D02*Y98250D01*
Y102750D02*X45750Y103500D01*
X47250D01*
X48000Y102750D01*
Y98250D01*
X47250Y97500D02*X48000Y98250D01*
X45750Y97500D02*X47250D01*
X45000Y99000D02*X48000Y102000D01*
X49800Y97500D02*X50550D01*
X52350Y98250D02*X53100Y97500D01*
X52350Y102750D02*Y98250D01*
Y102750D02*X53100Y103500D01*
X54600D01*
X55350Y102750D01*
Y98250D01*
X54600Y97500D02*X55350Y98250D01*
X53100Y97500D02*X54600D01*
X52350Y99000D02*X55350Y102000D01*
X57150Y102300D02*X58350Y103500D01*
Y97500D01*
X57150D02*X59400D01*
X61200Y102750D02*X61950Y103500D01*
X63450D01*
X64200Y102750D01*
X63450Y97500D02*X64200Y98250D01*
X61950Y97500D02*X63450D01*
X61200Y98250D02*X61950Y97500D01*
Y100800D02*X63450D01*
X64200Y102750D02*Y101550D01*
Y100050D02*Y98250D01*
Y100050D02*X63450Y100800D01*
X64200Y101550D02*X63450Y100800D01*
X3000Y118500D02*X3750Y117750D01*
X750Y118500D02*X3000D01*
X0Y117750D02*X750Y118500D01*
X0Y117750D02*Y116250D01*
X750Y115500D01*
X3000D01*
X3750Y114750D01*
Y113250D01*
X3000Y112500D02*X3750Y113250D01*
X750Y112500D02*X3000D01*
X0Y113250D02*X750Y112500D01*
X5550Y115500D02*Y113250D01*
X6300Y112500D01*
X8550Y115500D02*Y111000D01*
X7800Y110250D02*X8550Y111000D01*
X6300Y110250D02*X7800D01*
X5550Y111000D02*X6300Y110250D01*
Y112500D02*X7800D01*
X8550Y113250D01*
X11100Y114750D02*Y112500D01*
Y114750D02*X11850Y115500D01*
X12600D01*
X13350Y114750D01*
Y112500D01*
Y114750D02*X14100Y115500D01*
X14850D01*
X15600Y114750D01*
Y112500D01*
X10350Y115500D02*X11100Y114750D01*
X17400Y118500D02*Y112500D01*
Y113250D02*X18150Y112500D01*
X19650D01*
X20400Y113250D01*
Y114750D02*Y113250D01*
X19650Y115500D02*X20400Y114750D01*
X18150Y115500D02*X19650D01*
X17400Y114750D02*X18150Y115500D01*
X22200Y114750D02*Y113250D01*
Y114750D02*X22950Y115500D01*
X24450D01*
X25200Y114750D01*
Y113250D01*
X24450Y112500D02*X25200Y113250D01*
X22950Y112500D02*X24450D01*
X22200Y113250D02*X22950Y112500D01*
X27000Y118500D02*Y113250D01*
X27750Y112500D01*
X0Y109250D02*X29250D01*
X41750Y118500D02*Y112500D01*
X43700Y118500D02*X44750Y117450D01*
Y113550D01*
X43700Y112500D02*X44750Y113550D01*
X41000Y112500D02*X43700D01*
X41000Y118500D02*X43700D01*
G54D33*X46550Y117000D02*Y116850D01*
G54D32*Y114750D02*Y112500D01*
X50300Y115500D02*X51050Y114750D01*
X48800Y115500D02*X50300D01*
X48050Y114750D02*X48800Y115500D01*
X48050Y114750D02*Y113250D01*
X48800Y112500D01*
X51050Y115500D02*Y113250D01*
X51800Y112500D01*
X48800D02*X50300D01*
X51050Y113250D01*
X54350Y114750D02*Y112500D01*
Y114750D02*X55100Y115500D01*
X55850D01*
X56600Y114750D01*
Y112500D01*
Y114750D02*X57350Y115500D01*
X58100D01*
X58850Y114750D01*
Y112500D01*
X53600Y115500D02*X54350Y114750D01*
X60650Y112500D02*X61400D01*
X65900Y113250D02*X66650Y112500D01*
X65900Y117750D02*X66650Y118500D01*
X65900Y117750D02*Y113250D01*
X68450Y118500D02*X69950D01*
X69200D02*Y112500D01*
X68450D02*X69950D01*
X72500Y114750D02*Y112500D01*
Y114750D02*X73250Y115500D01*
X74000D01*
X74750Y114750D01*
Y112500D01*
X71750Y115500D02*X72500Y114750D01*
X77300Y115500D02*X79550D01*
X76550Y114750D02*X77300Y115500D01*
X76550Y114750D02*Y113250D01*
X77300Y112500D01*
X79550D01*
X81350Y118500D02*Y112500D01*
Y114750D02*X82100Y115500D01*
X83600D01*
X84350Y114750D01*
Y112500D01*
X86150Y118500D02*X86900Y117750D01*
Y113250D01*
X86150Y112500D02*X86900Y113250D01*
X41000Y109250D02*X88700D01*
X96050Y112500D02*X98000D01*
X95000Y113550D02*X96050Y112500D01*
X95000Y117450D02*Y113550D01*
Y117450D02*X96050Y118500D01*
X98000D01*
X99800Y114750D02*Y113250D01*
Y114750D02*X100550Y115500D01*
X102050D01*
X102800Y114750D01*
Y113250D01*
X102050Y112500D02*X102800Y113250D01*
X100550Y112500D02*X102050D01*
X99800Y113250D02*X100550Y112500D01*
X104600Y115500D02*Y113250D01*
X105350Y112500D01*
X106850D01*
X107600Y113250D01*
Y115500D02*Y113250D01*
X110150Y114750D02*Y112500D01*
Y114750D02*X110900Y115500D01*
X111650D01*
X112400Y114750D01*
Y112500D01*
X109400Y115500D02*X110150Y114750D01*
X114950Y118500D02*Y113250D01*
X115700Y112500D01*
X114200Y116250D02*X115700D01*
X95000Y109250D02*X117200D01*
X130750Y118500D02*Y112500D01*
X130000Y118500D02*X133000D01*
X133750Y117750D01*
Y116250D01*
X133000Y115500D02*X133750Y116250D01*
X130750Y115500D02*X133000D01*
X135550Y118500D02*Y113250D01*
X136300Y112500D01*
X140050Y115500D02*X140800Y114750D01*
X138550Y115500D02*X140050D01*
X137800Y114750D02*X138550Y115500D01*
X137800Y114750D02*Y113250D01*
X138550Y112500D01*
X140800Y115500D02*Y113250D01*
X141550Y112500D01*
X138550D02*X140050D01*
X140800Y113250D01*
X144100Y118500D02*Y113250D01*
X144850Y112500D01*
X143350Y116250D02*X144850D01*
X147100Y112500D02*X149350D01*
X146350Y113250D02*X147100Y112500D01*
X146350Y114750D02*Y113250D01*
Y114750D02*X147100Y115500D01*
X148600D01*
X149350Y114750D01*
X146350Y114000D02*X149350D01*
Y114750D02*Y114000D01*
X154150Y118500D02*Y112500D01*
X153400D02*X154150Y113250D01*
X151900Y112500D02*X153400D01*
X151150Y113250D02*X151900Y112500D01*
X151150Y114750D02*Y113250D01*
Y114750D02*X151900Y115500D01*
X153400D01*
X154150Y114750D01*
X157450Y115500D02*Y114750D01*
Y113250D02*Y112500D01*
X155950Y117750D02*Y117000D01*
Y117750D02*X156700Y118500D01*
X158200D01*
X158950Y117750D01*
Y117000D01*
X157450Y115500D02*X158950Y117000D01*
X130000Y109250D02*X160750D01*
X0Y133500D02*X3000D01*
X1500D02*Y127500D01*
X4800Y133500D02*Y127500D01*
Y129750D02*X5550Y130500D01*
X7050D01*
X7800Y129750D01*
Y127500D01*
X10350D02*X12600D01*
X9600Y128250D02*X10350Y127500D01*
X9600Y129750D02*Y128250D01*
Y129750D02*X10350Y130500D01*
X11850D01*
X12600Y129750D01*
X9600Y129000D02*X12600D01*
Y129750D02*Y129000D01*
X15150Y129750D02*Y127500D01*
Y129750D02*X15900Y130500D01*
X17400D01*
X14400D02*X15150Y129750D01*
X19950Y127500D02*X22200D01*
X19200Y128250D02*X19950Y127500D01*
X19200Y129750D02*Y128250D01*
Y129750D02*X19950Y130500D01*
X21450D01*
X22200Y129750D01*
X19200Y129000D02*X22200D01*
Y129750D02*Y129000D01*
X28950Y130500D02*X29700Y129750D01*
X27450Y130500D02*X28950D01*
X26700Y129750D02*X27450Y130500D01*
X26700Y129750D02*Y128250D01*
X27450Y127500D01*
X29700Y130500D02*Y128250D01*
X30450Y127500D01*
X27450D02*X28950D01*
X29700Y128250D01*
X33000Y129750D02*Y127500D01*
Y129750D02*X33750Y130500D01*
X35250D01*
X32250D02*X33000Y129750D01*
X37800Y127500D02*X40050D01*
X37050Y128250D02*X37800Y127500D01*
X37050Y129750D02*Y128250D01*
Y129750D02*X37800Y130500D01*
X39300D01*
X40050Y129750D01*
X37050Y129000D02*X40050D01*
Y129750D02*Y129000D01*
X44550Y132300D02*X45750Y133500D01*
Y127500D01*
X44550D02*X46800D01*
X54300Y133500D02*Y127500D01*
X53550D02*X54300Y128250D01*
X52050Y127500D02*X53550D01*
X51300Y128250D02*X52050Y127500D01*
X51300Y129750D02*Y128250D01*
Y129750D02*X52050Y130500D01*
X53550D01*
X54300Y129750D01*
G54D33*X56100Y132000D02*Y131850D01*
G54D32*Y129750D02*Y127500D01*
X58350Y132750D02*Y127500D01*
Y132750D02*X59100Y133500D01*
X59850D01*
X57600Y130500D02*X59100D01*
X62100Y132750D02*Y127500D01*
Y132750D02*X62850Y133500D01*
X63600D01*
X61350Y130500D02*X62850D01*
X65850Y127500D02*X68100D01*
X65100Y128250D02*X65850Y127500D01*
X65100Y129750D02*Y128250D01*
Y129750D02*X65850Y130500D01*
X67350D01*
X68100Y129750D01*
X65100Y129000D02*X68100D01*
Y129750D02*Y129000D01*
X70650Y129750D02*Y127500D01*
Y129750D02*X71400Y130500D01*
X72900D01*
X69900D02*X70650Y129750D01*
X75450Y127500D02*X77700D01*
X74700Y128250D02*X75450Y127500D01*
X74700Y129750D02*Y128250D01*
Y129750D02*X75450Y130500D01*
X76950D01*
X77700Y129750D01*
X74700Y129000D02*X77700D01*
Y129750D02*Y129000D01*
X80250Y129750D02*Y127500D01*
Y129750D02*X81000Y130500D01*
X81750D01*
X82500Y129750D01*
Y127500D01*
X79500Y130500D02*X80250Y129750D01*
X85050Y133500D02*Y128250D01*
X85800Y127500D01*
X84300Y131250D02*X85800D01*
X93000Y133500D02*Y127500D01*
X92250D02*X93000Y128250D01*
X90750Y127500D02*X92250D01*
X90000Y128250D02*X90750Y127500D01*
X90000Y129750D02*Y128250D01*
Y129750D02*X90750Y130500D01*
X92250D01*
X93000Y129750D01*
X95550D02*Y127500D01*
Y129750D02*X96300Y130500D01*
X97800D01*
X94800D02*X95550Y129750D01*
G54D33*X99600Y132000D02*Y131850D01*
G54D32*Y129750D02*Y127500D01*
X101100Y133500D02*Y128250D01*
X101850Y127500D01*
X103350Y133500D02*Y128250D01*
X104100Y127500D01*
X109050D02*X111300D01*
X112050Y128250D01*
X111300Y129000D02*X112050Y128250D01*
X109050Y129000D02*X111300D01*
X108300Y129750D02*X109050Y129000D01*
X108300Y129750D02*X109050Y130500D01*
X111300D01*
X112050Y129750D01*
X108300Y128250D02*X109050Y127500D01*
G54D33*X113850Y132000D02*Y131850D01*
G54D32*Y129750D02*Y127500D01*
X115350Y130500D02*X118350D01*
X115350Y127500D02*X118350Y130500D01*
X115350Y127500D02*X118350D01*
X120900D02*X123150D01*
X120150Y128250D02*X120900Y127500D01*
X120150Y129750D02*Y128250D01*
Y129750D02*X120900Y130500D01*
X122400D01*
X123150Y129750D01*
X120150Y129000D02*X123150D01*
Y129750D02*Y129000D01*
X125700Y127500D02*X127950D01*
X128700Y128250D01*
X127950Y129000D02*X128700Y128250D01*
X125700Y129000D02*X127950D01*
X124950Y129750D02*X125700Y129000D01*
X124950Y129750D02*X125700Y130500D01*
X127950D01*
X128700Y129750D01*
X124950Y128250D02*X125700Y127500D01*
X133200Y130500D02*Y128250D01*
X133950Y127500D01*
X135450D01*
X136200Y128250D01*
Y130500D02*Y128250D01*
X138750Y127500D02*X141000D01*
X141750Y128250D01*
X141000Y129000D02*X141750Y128250D01*
X138750Y129000D02*X141000D01*
X138000Y129750D02*X138750Y129000D01*
X138000Y129750D02*X138750Y130500D01*
X141000D01*
X141750Y129750D01*
X138000Y128250D02*X138750Y127500D01*
X144300D02*X146550D01*
X143550Y128250D02*X144300Y127500D01*
X143550Y129750D02*Y128250D01*
Y129750D02*X144300Y130500D01*
X145800D01*
X146550Y129750D01*
X143550Y129000D02*X146550D01*
Y129750D02*Y129000D01*
X151350Y133500D02*Y127500D01*
X150600D02*X151350Y128250D01*
X149100Y127500D02*X150600D01*
X148350Y128250D02*X149100Y127500D01*
X148350Y129750D02*Y128250D01*
Y129750D02*X149100Y130500D01*
X150600D01*
X151350Y129750D01*
G54D33*X155850Y132000D02*Y131850D01*
G54D32*Y129750D02*Y127500D01*
X158100Y129750D02*Y127500D01*
Y129750D02*X158850Y130500D01*
X159600D01*
X160350Y129750D01*
Y127500D01*
X157350Y130500D02*X158100Y129750D01*
X165600Y133500D02*Y128250D01*
X166350Y127500D01*
X164850Y131250D02*X166350D01*
X167850Y133500D02*Y127500D01*
Y129750D02*X168600Y130500D01*
X170100D01*
X170850Y129750D01*
Y127500D01*
G54D33*X172650Y132000D02*Y131850D01*
G54D32*Y129750D02*Y127500D01*
X174900D02*X177150D01*
X177900Y128250D01*
X177150Y129000D02*X177900Y128250D01*
X174900Y129000D02*X177150D01*
X174150Y129750D02*X174900Y129000D01*
X174150Y129750D02*X174900Y130500D01*
X177150D01*
X177900Y129750D01*
X174150Y128250D02*X174900Y127500D01*
X182400Y133500D02*Y128250D01*
X183150Y127500D01*
X186900Y130500D02*X187650Y129750D01*
X185400Y130500D02*X186900D01*
X184650Y129750D02*X185400Y130500D01*
X184650Y129750D02*Y128250D01*
X185400Y127500D01*
X187650Y130500D02*Y128250D01*
X188400Y127500D01*
X185400D02*X186900D01*
X187650Y128250D01*
X190200Y130500D02*Y128250D01*
X190950Y127500D01*
X193200Y130500D02*Y126000D01*
X192450Y125250D02*X193200Y126000D01*
X190950Y125250D02*X192450D01*
X190200Y126000D02*X190950Y125250D01*
Y127500D02*X192450D01*
X193200Y128250D01*
X195000Y129750D02*Y128250D01*
Y129750D02*X195750Y130500D01*
X197250D01*
X198000Y129750D01*
Y128250D01*
X197250Y127500D02*X198000Y128250D01*
X195750Y127500D02*X197250D01*
X195000Y128250D02*X195750Y127500D01*
X199800Y130500D02*Y128250D01*
X200550Y127500D01*
X202050D01*
X202800Y128250D01*
Y130500D02*Y128250D01*
X205350Y133500D02*Y128250D01*
X206100Y127500D01*
X204600Y131250D02*X206100D01*
X207600Y126000D02*X209100Y127500D01*
X215850Y133500D02*X216600Y132750D01*
X214350Y133500D02*X215850D01*
X213600Y132750D02*X214350Y133500D01*
X213600Y132750D02*Y128250D01*
X214350Y127500D01*
X215850Y130800D02*X216600Y130050D01*
X213600Y130800D02*X215850D01*
X214350Y127500D02*X215850D01*
X216600Y128250D01*
Y130050D02*Y128250D01*
X218400D02*X219150Y127500D01*
X218400Y132750D02*Y128250D01*
Y132750D02*X219150Y133500D01*
X220650D01*
X221400Y132750D01*
Y128250D01*
X220650Y127500D02*X221400Y128250D01*
X219150Y127500D02*X220650D01*
X218400Y129000D02*X221400Y132000D01*
X225900Y133500D02*Y127500D01*
Y129750D02*X226650Y130500D01*
X228150D01*
X228900Y129750D01*
Y127500D01*
X230700Y129750D02*Y128250D01*
Y129750D02*X231450Y130500D01*
X232950D01*
X233700Y129750D01*
Y128250D01*
X232950Y127500D02*X233700Y128250D01*
X231450Y127500D02*X232950D01*
X230700Y128250D02*X231450Y127500D01*
X235500Y133500D02*Y128250D01*
X236250Y127500D01*
X238500D02*X240750D01*
X237750Y128250D02*X238500Y127500D01*
X237750Y129750D02*Y128250D01*
Y129750D02*X238500Y130500D01*
X240000D01*
X240750Y129750D01*
X237750Y129000D02*X240750D01*
Y129750D02*Y129000D01*
X243300Y127500D02*X245550D01*
X246300Y128250D01*
X245550Y129000D02*X246300Y128250D01*
X243300Y129000D02*X245550D01*
X242550Y129750D02*X243300Y129000D01*
X242550Y129750D02*X243300Y130500D01*
X245550D01*
X246300Y129750D01*
X242550Y128250D02*X243300Y127500D01*
X251550Y133500D02*Y128250D01*
X252300Y127500D01*
X250800Y131250D02*X252300D01*
X253800Y129750D02*Y128250D01*
Y129750D02*X254550Y130500D01*
X256050D01*
X256800Y129750D01*
Y128250D01*
X256050Y127500D02*X256800Y128250D01*
X254550Y127500D02*X256050D01*
X253800Y128250D02*X254550Y127500D01*
X259350Y133500D02*Y128250D01*
X260100Y127500D01*
X258600Y131250D02*X260100D01*
X263850Y130500D02*X264600Y129750D01*
X262350Y130500D02*X263850D01*
X261600Y129750D02*X262350Y130500D01*
X261600Y129750D02*Y128250D01*
X262350Y127500D01*
X264600Y130500D02*Y128250D01*
X265350Y127500D01*
X262350D02*X263850D01*
X264600Y128250D01*
X267150Y133500D02*Y128250D01*
X267900Y127500D01*
G54D34*X35000Y28000D02*X45000D01*
X70000D02*X80000D01*
X105000D02*X115000D01*
X140000D02*X150000D01*
X175000D02*X185000D01*
X210000D02*X220000D01*
X245000D02*X255000D01*
X280000D02*X290000D01*
X315000D02*X325000D01*
Y17000D02*X315000D01*
X290000D02*X280000D01*
X255000D02*X245000D01*
X220000D02*X210000D01*
X185000D02*X175000D01*
X150000D02*X140000D01*
X115000D02*X105000D01*
X80000D02*X70000D01*
X45000D02*X35000D01*
X350000Y28000D02*X360000D01*
Y17000D02*X350000D01*
X385000Y28000D02*X395000D01*
Y17000D02*X385000D01*
X17000Y10000D02*X10000Y17000D01*
Y28000D01*
X28000Y10000D02*X17000D01*
X35000Y17000D02*X28000Y10000D01*
Y35000D02*X35000Y28000D01*
X17000Y35000D02*X28000D01*
X10000Y28000D02*X17000Y35000D01*
X52000Y10000D02*X45000Y17000D01*
X63000Y10000D02*X52000D01*
X70000Y17000D02*X63000Y10000D01*
Y35000D02*X70000Y28000D01*
X52000Y35000D02*X63000D01*
X45000Y28000D02*X52000Y35000D01*
X87000Y10000D02*X80000Y17000D01*
X98000Y10000D02*X87000D01*
X105000Y17000D02*X98000Y10000D01*
Y35000D02*X105000Y28000D01*
X87000Y35000D02*X98000D01*
X80000Y28000D02*X87000Y35000D01*
X122000Y10000D02*X115000Y17000D01*
X133000Y10000D02*X122000D01*
X140000Y17000D02*X133000Y10000D01*
Y35000D02*X140000Y28000D01*
X122000Y35000D02*X133000D01*
X115000Y28000D02*X122000Y35000D01*
X157000Y10000D02*X150000Y17000D01*
X168000Y10000D02*X157000D01*
X175000Y17000D02*X168000Y10000D01*
Y35000D02*X175000Y28000D01*
X157000Y35000D02*X168000D01*
X150000Y28000D02*X157000Y35000D01*
X192000Y10000D02*X185000Y17000D01*
X203000Y10000D02*X192000D01*
X210000Y17000D02*X203000Y10000D01*
Y35000D02*X210000Y28000D01*
X192000Y35000D02*X203000D01*
X185000Y28000D02*X192000Y35000D01*
X227000Y10000D02*X220000Y17000D01*
X238000Y10000D02*X227000D01*
X245000Y17000D02*X238000Y10000D01*
Y35000D02*X245000Y28000D01*
X227000Y35000D02*X238000D01*
X220000Y28000D02*X227000Y35000D01*
X262000Y10000D02*X255000Y17000D01*
X273000Y10000D02*X262000D01*
X280000Y17000D02*X273000Y10000D01*
Y35000D02*X280000Y28000D01*
X262000Y35000D02*X273000D01*
X255000Y28000D02*X262000Y35000D01*
X297000Y10000D02*X290000Y17000D01*
X308000Y10000D02*X297000D01*
X315000Y17000D02*X308000Y10000D01*
Y35000D02*X315000Y28000D01*
X297000Y35000D02*X308000D01*
X290000Y28000D02*X297000Y35000D01*
X332000Y10000D02*X325000Y17000D01*
X343000Y10000D02*X332000D01*
X350000Y17000D02*X343000Y10000D01*
Y35000D02*X350000Y28000D01*
X332000Y35000D02*X343000D01*
X325000Y28000D02*X332000Y35000D01*
X367000Y10000D02*X360000Y17000D01*
X378000Y10000D02*X367000D01*
X385000Y17000D02*X378000Y10000D01*
Y35000D02*X385000Y28000D01*
X367000Y35000D02*X378000D01*
X360000Y28000D02*X367000Y35000D01*
X402000Y10000D02*X395000Y17000D01*
X413000Y10000D02*X402000D01*
X420000Y17000D02*X413000Y10000D01*
Y35000D02*X420000Y28000D01*
X402000Y35000D02*X413000D01*
X395000Y28000D02*X402000Y35000D01*
X420000Y28000D02*Y17000D01*
G54D32*X128675Y-9500D02*X131675D01*
X132425Y-8750D01*
Y-6950D02*Y-8750D01*
X131675Y-6200D02*X132425Y-6950D01*
X129425Y-6200D02*X131675D01*
X129425Y-3500D02*Y-9500D01*
X128675Y-3500D02*X131675D01*
X132425Y-4250D01*
Y-5450D01*
X131675Y-6200D02*X132425Y-5450D01*
X134225Y-7250D02*Y-8750D01*
Y-7250D02*X134975Y-6500D01*
X136475D01*
X137225Y-7250D01*
Y-8750D01*
X136475Y-9500D02*X137225Y-8750D01*
X134975Y-9500D02*X136475D01*
X134225Y-8750D02*X134975Y-9500D01*
X141275Y-6500D02*X142025Y-7250D01*
X139775Y-6500D02*X141275D01*
X139025Y-7250D02*X139775Y-6500D01*
X139025Y-7250D02*Y-8750D01*
X139775Y-9500D01*
X142025Y-6500D02*Y-8750D01*
X142775Y-9500D01*
X139775D02*X141275D01*
X142025Y-8750D01*
X145325Y-7250D02*Y-9500D01*
Y-7250D02*X146075Y-6500D01*
X147575D01*
X144575D02*X145325Y-7250D01*
X152375Y-3500D02*Y-9500D01*
X151625D02*X152375Y-8750D01*
X150125Y-9500D02*X151625D01*
X149375Y-8750D02*X150125Y-9500D01*
X149375Y-7250D02*Y-8750D01*
Y-7250D02*X150125Y-6500D01*
X151625D01*
X152375Y-7250D01*
X156875D02*Y-8750D01*
Y-7250D02*X157625Y-6500D01*
X159125D01*
X159875Y-7250D01*
Y-8750D01*
X159125Y-9500D02*X159875Y-8750D01*
X157625Y-9500D02*X159125D01*
X156875Y-8750D02*X157625Y-9500D01*
X161675Y-6500D02*Y-8750D01*
X162425Y-9500D01*
X163925D01*
X164675Y-8750D01*
Y-6500D02*Y-8750D01*
X167225Y-3500D02*Y-8750D01*
X167975Y-9500D01*
X166475Y-5750D02*X167975D01*
X169475Y-3500D02*Y-8750D01*
X170225Y-9500D01*
G54D33*X171725Y-5000D02*Y-5150D01*
G54D32*Y-7250D02*Y-9500D01*
X173975Y-7250D02*Y-9500D01*
Y-7250D02*X174725Y-6500D01*
X175475D01*
X176225Y-7250D01*
Y-9500D01*
X173225Y-6500D02*X173975Y-7250D01*
X178775Y-9500D02*X181025D01*
X178025Y-8750D02*X178775Y-9500D01*
X178025Y-7250D02*Y-8750D01*
Y-7250D02*X178775Y-6500D01*
X180275D01*
X181025Y-7250D01*
X178025Y-8000D02*X181025D01*
Y-7250D02*Y-8000D01*
G54D33*X185525Y-5000D02*Y-5150D01*
G54D32*Y-7250D02*Y-9500D01*
X187775D02*X190025D01*
X190775Y-8750D01*
X190025Y-8000D02*X190775Y-8750D01*
X187775Y-8000D02*X190025D01*
X187025Y-7250D02*X187775Y-8000D01*
X187025Y-7250D02*X187775Y-6500D01*
X190025D01*
X190775Y-7250D01*
X187025Y-8750D02*X187775Y-9500D01*
X196025Y-3500D02*Y-8750D01*
X196775Y-9500D01*
X195275Y-5750D02*X196775D01*
X198275Y-3500D02*Y-9500D01*
Y-7250D02*X199025Y-6500D01*
X200525D01*
X201275Y-7250D01*
Y-9500D01*
X203825D02*X206075D01*
X203075Y-8750D02*X203825Y-9500D01*
X203075Y-7250D02*Y-8750D01*
Y-7250D02*X203825Y-6500D01*
X205325D01*
X206075Y-7250D01*
X203075Y-8000D02*X206075D01*
Y-7250D02*Y-8000D01*
X211325Y-6500D02*X213575D01*
X210575Y-7250D02*X211325Y-6500D01*
X210575Y-7250D02*Y-8750D01*
X211325Y-9500D01*
X213575D01*
X216125D02*X218375D01*
X215375Y-8750D02*X216125Y-9500D01*
X215375Y-7250D02*Y-8750D01*
Y-7250D02*X216125Y-6500D01*
X217625D01*
X218375Y-7250D01*
X215375Y-8000D02*X218375D01*
Y-7250D02*Y-8000D01*
X220925Y-7250D02*Y-9500D01*
Y-7250D02*X221675Y-6500D01*
X222425D01*
X223175Y-7250D01*
Y-9500D01*
X220175Y-6500D02*X220925Y-7250D01*
X225725Y-3500D02*Y-8750D01*
X226475Y-9500D01*
X224975Y-5750D02*X226475D01*
X228725Y-9500D02*X230975D01*
X227975Y-8750D02*X228725Y-9500D01*
X227975Y-7250D02*Y-8750D01*
Y-7250D02*X228725Y-6500D01*
X230225D01*
X230975Y-7250D01*
X227975Y-8000D02*X230975D01*
Y-7250D02*Y-8000D01*
X233525Y-7250D02*Y-9500D01*
Y-7250D02*X234275Y-6500D01*
X235775D01*
X232775D02*X233525Y-7250D01*
X237575Y-3500D02*Y-8750D01*
X238325Y-9500D01*
G54D33*X239825Y-5000D02*Y-5150D01*
G54D32*Y-7250D02*Y-9500D01*
X242075Y-7250D02*Y-9500D01*
Y-7250D02*X242825Y-6500D01*
X243575D01*
X244325Y-7250D01*
Y-9500D01*
X241325Y-6500D02*X242075Y-7250D01*
X246875Y-9500D02*X249125D01*
X246125Y-8750D02*X246875Y-9500D01*
X246125Y-7250D02*Y-8750D01*
Y-7250D02*X246875Y-6500D01*
X248375D01*
X249125Y-7250D01*
X246125Y-8000D02*X249125D01*
Y-7250D02*Y-8000D01*
X253625Y-7250D02*Y-8750D01*
Y-7250D02*X254375Y-6500D01*
X255875D01*
X256625Y-7250D01*
Y-8750D01*
X255875Y-9500D02*X256625Y-8750D01*
X254375Y-9500D02*X255875D01*
X253625Y-8750D02*X254375Y-9500D01*
X259175Y-4250D02*Y-9500D01*
Y-4250D02*X259925Y-3500D01*
X260675D01*
X258425Y-6500D02*X259925D01*
X265625Y-3500D02*Y-8750D01*
X266375Y-9500D01*
X264875Y-5750D02*X266375D01*
X267875Y-3500D02*Y-9500D01*
Y-7250D02*X268625Y-6500D01*
X270125D01*
X270875Y-7250D01*
Y-9500D01*
G54D33*X272675Y-5000D02*Y-5150D01*
G54D32*Y-7250D02*Y-9500D01*
X274925D02*X277175D01*
X277925Y-8750D01*
X277175Y-8000D02*X277925Y-8750D01*
X274925Y-8000D02*X277175D01*
X274175Y-7250D02*X274925Y-8000D01*
X274175Y-7250D02*X274925Y-6500D01*
X277175D01*
X277925Y-7250D01*
X274175Y-8750D02*X274925Y-9500D01*
X283175Y-7250D02*Y-11750D01*
X282425Y-6500D02*X283175Y-7250D01*
X283925Y-6500D01*
X285425D01*
X286175Y-7250D01*
Y-8750D01*
X285425Y-9500D02*X286175Y-8750D01*
X283925Y-9500D02*X285425D01*
X283175Y-8750D02*X283925Y-9500D01*
X290225Y-6500D02*X290975Y-7250D01*
X288725Y-6500D02*X290225D01*
X287975Y-7250D02*X288725Y-6500D01*
X287975Y-7250D02*Y-8750D01*
X288725Y-9500D01*
X290975Y-6500D02*Y-8750D01*
X291725Y-9500D01*
X288725D02*X290225D01*
X290975Y-8750D01*
X294275Y-3500D02*Y-8750D01*
X295025Y-9500D01*
X293525Y-5750D02*X295025D01*
X296525Y-3500D02*Y-9500D01*
Y-7250D02*X297275Y-6500D01*
X298775D01*
X299525Y-7250D01*
Y-9500D01*
X200750Y73500D02*Y67500D01*
X202700Y73500D02*X203750Y72450D01*
Y68550D01*
X202700Y67500D02*X203750Y68550D01*
X200000Y67500D02*X202700D01*
X200000Y73500D02*X202700D01*
X207800Y70500D02*X208550Y69750D01*
X206300Y70500D02*X207800D01*
X205550Y69750D02*X206300Y70500D01*
X205550Y69750D02*Y68250D01*
X206300Y67500D01*
X208550Y70500D02*Y68250D01*
X209300Y67500D01*
X206300D02*X207800D01*
X208550Y68250D01*
X211850Y73500D02*Y68250D01*
X212600Y67500D01*
X211100Y71250D02*X212600D01*
X214850Y67500D02*X217100D01*
X214100Y68250D02*X214850Y67500D01*
X214100Y69750D02*Y68250D01*
Y69750D02*X214850Y70500D01*
X216350D01*
X217100Y69750D01*
X214100Y69000D02*X217100D01*
Y69750D02*Y69000D01*
X218900Y71250D02*X219650D01*
X218900Y69750D02*X219650D01*
X224150Y73500D02*Y67500D01*
Y73500D02*X226400Y70500D01*
X228650Y73500D01*
Y67500D01*
X230450Y69750D02*Y68250D01*
Y69750D02*X231200Y70500D01*
X232700D01*
X233450Y69750D01*
Y68250D01*
X232700Y67500D02*X233450Y68250D01*
X231200Y67500D02*X232700D01*
X230450Y68250D02*X231200Y67500D01*
X236000Y69750D02*Y67500D01*
Y69750D02*X236750Y70500D01*
X237500D01*
X238250Y69750D01*
Y67500D01*
X235250Y70500D02*X236000Y69750D01*
X242750Y72000D02*Y67500D01*
Y72000D02*X243800Y73500D01*
X245450D01*
X246500Y72000D01*
Y67500D01*
X242750Y70500D02*X246500D01*
X248300D02*Y68250D01*
X249050Y67500D01*
X250550D01*
X251300Y68250D01*
Y70500D02*Y68250D01*
X255350Y70500D02*X256100Y69750D01*
X253850Y70500D02*X255350D01*
X253100Y69750D02*X253850Y70500D01*
X253100Y69750D02*Y68250D01*
X253850Y67500D01*
X255350D01*
X256100Y68250D01*
X253100Y66000D02*X253850Y65250D01*
X255350D01*
X256100Y66000D01*
Y70500D02*Y66000D01*
X260600Y72300D02*X261800Y73500D01*
Y67500D01*
X260600D02*X262850D01*
X266900Y73500D02*X267650Y72750D01*
X265400Y73500D02*X266900D01*
X264650Y72750D02*X265400Y73500D01*
X264650Y72750D02*Y68250D01*
X265400Y67500D01*
X266900Y70800D02*X267650Y70050D01*
X264650Y70800D02*X266900D01*
X265400Y67500D02*X266900D01*
X267650Y68250D01*
Y70050D02*Y68250D01*
X272150Y72300D02*X273350Y73500D01*
Y67500D01*
X272150D02*X274400D01*
X278450Y73500D02*X279200Y72750D01*
X276950Y73500D02*X278450D01*
X276200Y72750D02*X276950Y73500D01*
X276200Y72750D02*Y68250D01*
X276950Y67500D01*
X278450Y70800D02*X279200Y70050D01*
X276200Y70800D02*X278450D01*
X276950Y67500D02*X278450D01*
X279200Y68250D01*
Y70050D02*Y68250D01*
X281000Y71250D02*X281750D01*
X281000Y69750D02*X281750D01*
X283550Y68250D02*X284300Y67500D01*
X283550Y72750D02*Y68250D01*
Y72750D02*X284300Y73500D01*
X285800D01*
X286550Y72750D01*
Y68250D01*
X285800Y67500D02*X286550Y68250D01*
X284300Y67500D02*X285800D01*
X283550Y69000D02*X286550Y72000D01*
X289100Y67500D02*X292100Y73500D01*
X288350D02*X292100D01*
X293900Y71250D02*X294650D01*
X293900Y69750D02*X294650D01*
X296450Y72750D02*X297200Y73500D01*
X298700D01*
X299450Y72750D01*
X298700Y67500D02*X299450Y68250D01*
X297200Y67500D02*X298700D01*
X296450Y68250D02*X297200Y67500D01*
Y70800D02*X298700D01*
X299450Y72750D02*Y71550D01*
Y70050D02*Y68250D01*
Y70050D02*X298700Y70800D01*
X299450Y71550D02*X298700Y70800D01*
X301250Y73500D02*X304250D01*
X301250D02*Y70500D01*
X302000Y71250D01*
X303500D01*
X304250Y70500D01*
Y68250D01*
X303500Y67500D02*X304250Y68250D01*
X302000Y67500D02*X303500D01*
X301250Y68250D02*X302000Y67500D01*
X308750Y72750D02*X309500Y73500D01*
X311750D01*
X312500Y72750D01*
Y71250D01*
X308750Y67500D02*X312500Y71250D01*
X308750Y67500D02*X312500D01*
X314300Y68250D02*X315050Y67500D01*
X314300Y72750D02*Y68250D01*
Y72750D02*X315050Y73500D01*
X316550D01*
X317300Y72750D01*
Y68250D01*
X316550Y67500D02*X317300Y68250D01*
X315050Y67500D02*X316550D01*
X314300Y69000D02*X317300Y72000D01*
X319100Y72750D02*X319850Y73500D01*
X322100D01*
X322850Y72750D01*
Y71250D01*
X319100Y67500D02*X322850Y71250D01*
X319100Y67500D02*X322850D01*
X324650Y72300D02*X325850Y73500D01*
Y67500D01*
X324650D02*X326900D01*
X331400Y73500D02*Y68250D01*
X332150Y67500D01*
X333650D01*
X334400Y68250D01*
Y73500D02*Y68250D01*
X336200Y73500D02*X339200D01*
X337700D02*Y67500D01*
X342050D02*X344000D01*
X341000Y68550D02*X342050Y67500D01*
X341000Y72450D02*Y68550D01*
Y72450D02*X342050Y73500D01*
X344000D01*
X200000Y87000D02*Y82500D01*
Y87000D02*X201050Y88500D01*
X202700D01*
X203750Y87000D01*
Y82500D01*
X200000Y85500D02*X203750D01*
X205550D02*Y83250D01*
X206300Y82500D01*
X207800D01*
X208550Y83250D01*
Y85500D02*Y83250D01*
X211100Y88500D02*Y83250D01*
X211850Y82500D01*
X210350Y86250D02*X211850D01*
X213350Y88500D02*Y82500D01*
Y84750D02*X214100Y85500D01*
X215600D01*
X216350Y84750D01*
Y82500D01*
X218150Y84750D02*Y83250D01*
Y84750D02*X218900Y85500D01*
X220400D01*
X221150Y84750D01*
Y83250D01*
X220400Y82500D02*X221150Y83250D01*
X218900Y82500D02*X220400D01*
X218150Y83250D02*X218900Y82500D01*
X223700Y84750D02*Y82500D01*
Y84750D02*X224450Y85500D01*
X225950D01*
X222950D02*X223700Y84750D01*
X227750Y86250D02*X228500D01*
X227750Y84750D02*X228500D01*
X233000Y88500D02*Y82500D01*
Y88500D02*X236750Y82500D01*
Y88500D02*Y82500D01*
X240800Y85500D02*X241550Y84750D01*
X239300Y85500D02*X240800D01*
X238550Y84750D02*X239300Y85500D01*
X238550Y84750D02*Y83250D01*
X239300Y82500D01*
X241550Y85500D02*Y83250D01*
X242300Y82500D01*
X239300D02*X240800D01*
X241550Y83250D01*
X244850Y88500D02*Y83250D01*
X245600Y82500D01*
X244100Y86250D02*X245600D01*
X247100Y88500D02*Y82500D01*
Y84750D02*X247850Y85500D01*
X249350D01*
X250100Y84750D01*
Y82500D01*
X254150Y85500D02*X254900Y84750D01*
X252650Y85500D02*X254150D01*
X251900Y84750D02*X252650Y85500D01*
X251900Y84750D02*Y83250D01*
X252650Y82500D01*
X254900Y85500D02*Y83250D01*
X255650Y82500D01*
X252650D02*X254150D01*
X254900Y83250D01*
X258200Y84750D02*Y82500D01*
Y84750D02*X258950Y85500D01*
X259700D01*
X260450Y84750D01*
Y82500D01*
X257450Y85500D02*X258200Y84750D01*
X265700Y88500D02*Y82500D01*
X267650Y88500D02*X268700Y87450D01*
Y83550D01*
X267650Y82500D02*X268700Y83550D01*
X264950Y82500D02*X267650D01*
X264950Y88500D02*X267650D01*
X270500Y82500D02*X271250D01*
X275750Y88500D02*Y82500D01*
X279500Y88500D02*Y82500D01*
X275750Y85500D02*X279500D01*
X281300Y84750D02*Y83250D01*
Y84750D02*X282050Y85500D01*
X283550D01*
X284300Y84750D01*
Y83250D01*
X283550Y82500D02*X284300Y83250D01*
X282050Y82500D02*X283550D01*
X281300Y83250D02*X282050Y82500D01*
X286100Y88500D02*Y83250D01*
X286850Y82500D01*
X289100Y84750D02*Y82500D01*
Y84750D02*X289850Y85500D01*
X290600D01*
X291350Y84750D01*
Y82500D01*
Y84750D02*X292100Y85500D01*
X292850D01*
X293600Y84750D01*
Y82500D01*
X288350Y85500D02*X289100Y84750D01*
X296150Y82500D02*X298400D01*
X295400Y83250D02*X296150Y82500D01*
X295400Y84750D02*Y83250D01*
Y84750D02*X296150Y85500D01*
X297650D01*
X298400Y84750D01*
X295400Y84000D02*X298400D01*
Y84750D02*Y84000D01*
X300950Y82500D02*X303200D01*
X303950Y83250D01*
X303200Y84000D02*X303950Y83250D01*
X300950Y84000D02*X303200D01*
X300200Y84750D02*X300950Y84000D01*
X300200Y84750D02*X300950Y85500D01*
X303200D01*
X303950Y84750D01*
X300200Y83250D02*X300950Y82500D01*
X200000Y103500D02*X203000D01*
X201500D02*Y97500D01*
G54D33*X204800Y102000D02*Y101850D01*
G54D32*Y99750D02*Y97500D01*
X207050Y103500D02*Y98250D01*
X207800Y97500D01*
X206300Y101250D02*X207800D01*
X209300Y103500D02*Y98250D01*
X210050Y97500D01*
X212300D02*X214550D01*
X211550Y98250D02*X212300Y97500D01*
X211550Y99750D02*Y98250D01*
Y99750D02*X212300Y100500D01*
X213800D01*
X214550Y99750D01*
X211550Y99000D02*X214550D01*
Y99750D02*Y99000D01*
X216350Y101250D02*X217100D01*
X216350Y99750D02*X217100D01*
X221600Y98250D02*X222350Y97500D01*
X221600Y102750D02*X222350Y103500D01*
X221600Y102750D02*Y98250D01*
X224150Y100500D02*Y98250D01*
X224900Y97500D01*
X226400D01*
X227150Y98250D01*
Y100500D02*Y98250D01*
X229700Y99750D02*Y97500D01*
Y99750D02*X230450Y100500D01*
X231200D01*
X231950Y99750D01*
Y97500D01*
X228950Y100500D02*X229700Y99750D01*
X233750Y103500D02*Y97500D01*
Y99750D02*X236000Y97500D01*
X233750Y99750D02*X235250Y101250D01*
X238550Y99750D02*Y97500D01*
Y99750D02*X239300Y100500D01*
X240050D01*
X240800Y99750D01*
Y97500D01*
X237800Y100500D02*X238550Y99750D01*
X242600D02*Y98250D01*
Y99750D02*X243350Y100500D01*
X244850D01*
X245600Y99750D01*
Y98250D01*
X244850Y97500D02*X245600Y98250D01*
X243350Y97500D02*X244850D01*
X242600Y98250D02*X243350Y97500D01*
X247400Y100500D02*Y98250D01*
X248150Y97500D01*
X248900D01*
X249650Y98250D01*
Y100500D02*Y98250D01*
X250400Y97500D01*
X251150D01*
X251900Y98250D01*
Y100500D02*Y98250D01*
X254450Y99750D02*Y97500D01*
Y99750D02*X255200Y100500D01*
X255950D01*
X256700Y99750D01*
Y97500D01*
X253700Y100500D02*X254450Y99750D01*
X258500Y103500D02*X259250Y102750D01*
Y98250D01*
X258500Y97500D02*X259250Y98250D01*
X263750Y100500D02*X266750D01*
X271250Y103500D02*Y97500D01*
Y103500D02*X274250D01*
X271250Y100800D02*X273500D01*
X278300Y100500D02*X279050Y99750D01*
X276800Y100500D02*X278300D01*
X276050Y99750D02*X276800Y100500D01*
X276050Y99750D02*Y98250D01*
X276800Y97500D01*
X279050Y100500D02*Y98250D01*
X279800Y97500D01*
X276800D02*X278300D01*
X279050Y98250D01*
X281600Y103500D02*Y97500D01*
Y98250D02*X282350Y97500D01*
X283850D01*
X284600Y98250D01*
Y99750D02*Y98250D01*
X283850Y100500D02*X284600Y99750D01*
X282350Y100500D02*X283850D01*
X281600Y99750D02*X282350Y100500D01*
X287150Y99750D02*Y97500D01*
Y99750D02*X287900Y100500D01*
X289400D01*
X286400D02*X287150Y99750D01*
G54D33*X291200Y102000D02*Y101850D01*
G54D32*Y99750D02*Y97500D01*
X293450Y100500D02*X295700D01*
X292700Y99750D02*X293450Y100500D01*
X292700Y99750D02*Y98250D01*
X293450Y97500D01*
X295700D01*
X299750Y100500D02*X300500Y99750D01*
X298250Y100500D02*X299750D01*
X297500Y99750D02*X298250Y100500D01*
X297500Y99750D02*Y98250D01*
X298250Y97500D01*
X300500Y100500D02*Y98250D01*
X301250Y97500D01*
X298250D02*X299750D01*
X300500Y98250D01*
X303800Y103500D02*Y98250D01*
X304550Y97500D01*
X303050Y101250D02*X304550D01*
G54D33*X306050Y102000D02*Y101850D01*
G54D32*Y99750D02*Y97500D01*
X307550Y99750D02*Y98250D01*
Y99750D02*X308300Y100500D01*
X309800D01*
X310550Y99750D01*
Y98250D01*
X309800Y97500D02*X310550Y98250D01*
X308300Y97500D02*X309800D01*
X307550Y98250D02*X308300Y97500D01*
X313100Y99750D02*Y97500D01*
Y99750D02*X313850Y100500D01*
X314600D01*
X315350Y99750D01*
Y97500D01*
X312350Y100500D02*X313100Y99750D01*
X320600Y103500D02*Y97500D01*
X322550Y103500D02*X323600Y102450D01*
Y98550D01*
X322550Y97500D02*X323600Y98550D01*
X319850Y97500D02*X322550D01*
X319850Y103500D02*X322550D01*
X326150Y99750D02*Y97500D01*
Y99750D02*X326900Y100500D01*
X328400D01*
X325400D02*X326150Y99750D01*
X332450Y100500D02*X333200Y99750D01*
X330950Y100500D02*X332450D01*
X330200Y99750D02*X330950Y100500D01*
X330200Y99750D02*Y98250D01*
X330950Y97500D01*
X333200Y100500D02*Y98250D01*
X333950Y97500D01*
X330950D02*X332450D01*
X333200Y98250D01*
X335750Y100500D02*Y98250D01*
X336500Y97500D01*
X337250D01*
X338000Y98250D01*
Y100500D02*Y98250D01*
X338750Y97500D01*
X339500D01*
X340250Y98250D01*
Y100500D02*Y98250D01*
G54D33*X342050Y102000D02*Y101850D01*
G54D32*Y99750D02*Y97500D01*
X344300Y99750D02*Y97500D01*
Y99750D02*X345050Y100500D01*
X345800D01*
X346550Y99750D01*
Y97500D01*
X343550Y100500D02*X344300Y99750D01*
X350600Y100500D02*X351350Y99750D01*
X349100Y100500D02*X350600D01*
X348350Y99750D02*X349100Y100500D01*
X348350Y99750D02*Y98250D01*
X349100Y97500D01*
X350600D01*
X351350Y98250D01*
X348350Y96000D02*X349100Y95250D01*
X350600D01*
X351350Y96000D01*
Y100500D02*Y96000D01*
M02*
