G04 start of page 3 for group 1 idx 1 *
G04 Title: (unknown), bottom *
G04 Creator: pcb 4.0.2 *
G04 CreationDate: Mon Aug 16 16:07:35 2021 UTC *
G04 For: ndholmes *
G04 Format: Gerber/RS-274X *
G04 PCB-Dimensions (mil): 4300.00 450.00 *
G04 PCB-Coordinate-Origin: lower left *
%MOIN*%
%FSLAX25Y25*%
%LNBOTTOM*%
%ADD19C,0.0130*%
%ADD18C,0.0270*%
%ADD17C,0.0001*%
%ADD16C,0.0250*%
G54D16*X130000Y21000D02*Y17900D01*
X131000Y22000D02*X130000Y21000D01*
X135500Y22000D02*X131000D01*
X125000Y21500D02*Y17900D01*
X124000Y22500D02*X125000Y21500D01*
X120000Y22500D02*X124000D01*
X120000Y29500D02*X121500Y31000D01*
X120000Y27100D02*Y29500D01*
X135000Y15500D02*Y17900D01*
X133500Y14000D02*X135000Y15500D01*
X120000D02*Y17900D01*
X121500Y14000D02*X120000Y15500D01*
X165000Y21000D02*Y17900D01*
X166000Y22000D02*X165000Y21000D01*
X170500Y22000D02*X166000D01*
X170000Y15500D02*Y17900D01*
X168500Y14000D02*X170000Y15500D01*
X160000Y21500D02*Y17900D01*
X159000Y22500D02*X160000Y21500D01*
X155000Y22500D02*X159000D01*
X155000Y29500D02*X156500Y31000D01*
X155000Y27100D02*Y29500D01*
Y15500D02*Y17900D01*
X156500Y14000D02*X155000Y15500D01*
X200000Y21000D02*Y17900D01*
X201000Y22000D02*X200000Y21000D01*
X205500Y22000D02*X201000D01*
X195000Y21500D02*Y17900D01*
X194000Y22500D02*X195000Y21500D01*
X190000Y22500D02*X194000D01*
X190000Y29500D02*X191500Y31000D01*
X190000Y27100D02*Y29500D01*
X205000Y15500D02*Y17900D01*
X203500Y14000D02*X205000Y15500D01*
X190000D02*Y17900D01*
X191500Y14000D02*X190000Y15500D01*
X60000Y21000D02*Y17900D01*
X61000Y22000D02*X60000Y21000D01*
X65500Y22000D02*X61000D01*
X55000Y21500D02*Y17900D01*
X54000Y22500D02*X55000Y21500D01*
X50000Y22500D02*X54000D01*
X50000Y29500D02*X51500Y31000D01*
X50000Y27100D02*Y29500D01*
Y15500D02*Y17900D01*
X51500Y14000D02*X50000Y15500D01*
X65000D02*Y17900D01*
X63500Y14000D02*X65000Y15500D01*
X20000Y21500D02*Y17900D01*
X19000Y22500D02*X20000Y21500D01*
X15000Y22500D02*X19000D01*
X15000Y29500D02*X16500Y31000D01*
X15000Y27100D02*Y29500D01*
X25000Y21000D02*Y17900D01*
X26000Y22000D02*X25000Y21000D01*
X30500Y22000D02*X26000D01*
X30000Y15500D02*Y17900D01*
X28500Y14000D02*X30000Y15500D01*
X15000D02*Y17900D01*
X16500Y14000D02*X15000Y15500D01*
X95000Y21000D02*Y17900D01*
X96000Y22000D02*X95000Y21000D01*
X100500Y22000D02*X96000D01*
X100000Y15500D02*Y17900D01*
X98500Y14000D02*X100000Y15500D01*
X90000Y21500D02*Y17900D01*
X89000Y22500D02*X90000Y21500D01*
X85000Y22500D02*X89000D01*
X85000Y29500D02*X86500Y31000D01*
X85000Y27100D02*Y29500D01*
Y15500D02*Y17900D01*
X86500Y14000D02*X85000Y15500D01*
X235000Y21000D02*Y17900D01*
X236000Y22000D02*X235000Y21000D01*
X240500Y22000D02*X236000D01*
X240000Y15500D02*Y17900D01*
X238500Y14000D02*X240000Y15500D01*
X230000Y21500D02*Y17900D01*
X229000Y22500D02*X230000Y21500D01*
X225000Y22500D02*X229000D01*
X225000Y29500D02*X226500Y31000D01*
X225000Y27100D02*Y29500D01*
Y15500D02*Y17900D01*
X226500Y14000D02*X225000Y15500D01*
X270000Y21000D02*Y17900D01*
X271000Y22000D02*X270000Y21000D01*
X275500Y22000D02*X271000D01*
X265000Y21500D02*Y17900D01*
X264000Y22500D02*X265000Y21500D01*
X260000Y22500D02*X264000D01*
X260000Y29500D02*X261500Y31000D01*
X260000Y27100D02*Y29500D01*
X275000Y15500D02*Y17900D01*
X273500Y14000D02*X275000Y15500D01*
X260000D02*Y17900D01*
X261500Y14000D02*X260000Y15500D01*
X305000Y21000D02*Y17900D01*
X306000Y22000D02*X305000Y21000D01*
X310500Y22000D02*X306000D01*
X310000Y15500D02*Y17900D01*
X308500Y14000D02*X310000Y15500D01*
X300000Y21500D02*Y17900D01*
X299000Y22500D02*X300000Y21500D01*
X295000Y22500D02*X299000D01*
X295000Y29500D02*X296500Y31000D01*
X295000Y27100D02*Y29500D01*
Y15500D02*Y17900D01*
X296500Y14000D02*X295000Y15500D01*
X340000Y21000D02*Y17900D01*
X341000Y22000D02*X340000Y21000D01*
X345500Y22000D02*X341000D01*
X335000Y21500D02*Y17900D01*
X334000Y22500D02*X335000Y21500D01*
X330000Y22500D02*X334000D01*
X330000Y29500D02*X331500Y31000D01*
X330000Y27100D02*Y29500D01*
X345000Y15500D02*Y17900D01*
X343500Y14000D02*X345000Y15500D01*
X330000D02*Y17900D01*
X331500Y14000D02*X330000Y15500D01*
X375000Y21000D02*Y17900D01*
X376000Y22000D02*X375000Y21000D01*
X380500Y22000D02*X376000D01*
X380000Y15500D02*Y17900D01*
X378500Y14000D02*X380000Y15500D01*
X370000Y21500D02*Y17900D01*
X369000Y22500D02*X370000Y21500D01*
X365000Y22500D02*X369000D01*
X365000Y29500D02*X366500Y31000D01*
X365000Y27100D02*Y29500D01*
Y15500D02*Y17900D01*
X366500Y14000D02*X365000Y15500D01*
X410000Y21000D02*Y17900D01*
X411000Y22000D02*X410000Y21000D01*
X415500Y22000D02*X411000D01*
X405000Y21500D02*Y17900D01*
X404000Y22500D02*X405000Y21500D01*
X400000Y22500D02*X404000D01*
X400000Y29500D02*X401500Y31000D01*
X400000Y27100D02*Y29500D01*
X415000Y15500D02*Y17900D01*
X413500Y14000D02*X415000Y15500D01*
X400000D02*Y17900D01*
X401500Y14000D02*X400000Y15500D01*
G54D17*G36*
X91418Y29118D02*X88582D01*
Y25082D01*
X91418D01*
Y29118D01*
G37*
G36*
X96418Y19918D02*X93582D01*
Y15882D01*
X96418D01*
Y19918D01*
G37*
G36*
X91418D02*X88582D01*
Y15882D01*
X91418D01*
Y19918D01*
G37*
G36*
X86418D02*X83582D01*
Y15882D01*
X86418D01*
Y19918D01*
G37*
G36*
Y29118D02*X83582D01*
Y25082D01*
X86418D01*
Y29118D01*
G37*
G36*
X96418D02*X93582D01*
Y25082D01*
X96418D01*
Y29118D01*
G37*
G36*
X101418D02*X98582D01*
Y25082D01*
X101418D01*
Y29118D01*
G37*
G36*
Y19918D02*X98582D01*
Y15882D01*
X101418D01*
Y19918D01*
G37*
G36*
X126418Y29118D02*X123582D01*
Y25082D01*
X126418D01*
Y29118D01*
G37*
G36*
X131418Y19918D02*X128582D01*
Y15882D01*
X131418D01*
Y19918D01*
G37*
G36*
X126418D02*X123582D01*
Y15882D01*
X126418D01*
Y19918D01*
G37*
G36*
X121418D02*X118582D01*
Y15882D01*
X121418D01*
Y19918D01*
G37*
G36*
Y29118D02*X118582D01*
Y25082D01*
X121418D01*
Y29118D01*
G37*
G36*
X131418D02*X128582D01*
Y25082D01*
X131418D01*
Y29118D01*
G37*
G36*
X136418D02*X133582D01*
Y25082D01*
X136418D01*
Y29118D01*
G37*
G36*
Y19918D02*X133582D01*
Y15882D01*
X136418D01*
Y19918D01*
G37*
G36*
X26418D02*X23582D01*
Y15882D01*
X26418D01*
Y19918D01*
G37*
G36*
Y29118D02*X23582D01*
Y25082D01*
X26418D01*
Y29118D01*
G37*
G36*
X16418Y19918D02*X13582D01*
Y15882D01*
X16418D01*
Y19918D01*
G37*
G36*
Y29118D02*X13582D01*
Y25082D01*
X16418D01*
Y29118D01*
G37*
G36*
X21418D02*X18582D01*
Y25082D01*
X21418D01*
Y29118D01*
G37*
G36*
X31418Y19918D02*X28582D01*
Y15882D01*
X31418D01*
Y19918D01*
G37*
G36*
Y29118D02*X28582D01*
Y25082D01*
X31418D01*
Y29118D01*
G37*
G36*
X21418Y19918D02*X18582D01*
Y15882D01*
X21418D01*
Y19918D01*
G37*
G36*
X56417Y29118D02*X53583D01*
Y25082D01*
X56417D01*
Y29118D01*
G37*
G36*
X61417Y19918D02*X58583D01*
Y15882D01*
X61417D01*
Y19918D01*
G37*
G36*
X56417D02*X53583D01*
Y15882D01*
X56417D01*
Y19918D01*
G37*
G36*
X51417D02*X48582D01*
Y15882D01*
X51417D01*
Y19918D01*
G37*
G36*
Y29118D02*X48582D01*
Y25082D01*
X51417D01*
Y29118D01*
G37*
G36*
X61417D02*X58583D01*
Y25082D01*
X61417D01*
Y29118D01*
G37*
G36*
X66418D02*X63583D01*
Y25082D01*
X66418D01*
Y29118D01*
G37*
G36*
Y19918D02*X63583D01*
Y15882D01*
X66418D01*
Y19918D01*
G37*
G36*
X161418Y29118D02*X158582D01*
Y25082D01*
X161418D01*
Y29118D01*
G37*
G36*
X166418Y19918D02*X163582D01*
Y15882D01*
X166418D01*
Y19918D01*
G37*
G36*
X161418D02*X158582D01*
Y15882D01*
X161418D01*
Y19918D01*
G37*
G36*
X156418D02*X153582D01*
Y15882D01*
X156418D01*
Y19918D01*
G37*
G36*
Y29118D02*X153582D01*
Y25082D01*
X156418D01*
Y29118D01*
G37*
G36*
X166418D02*X163582D01*
Y25082D01*
X166418D01*
Y29118D01*
G37*
G36*
X171418D02*X168582D01*
Y25082D01*
X171418D01*
Y29118D01*
G37*
G36*
Y19918D02*X168582D01*
Y15882D01*
X171418D01*
Y19918D01*
G37*
G36*
X196418Y29118D02*X193582D01*
Y25082D01*
X196418D01*
Y29118D01*
G37*
G36*
X201418Y19918D02*X198582D01*
Y15882D01*
X201418D01*
Y19918D01*
G37*
G36*
X196418D02*X193582D01*
Y15882D01*
X196418D01*
Y19918D01*
G37*
G36*
X191418D02*X188582D01*
Y15882D01*
X191418D01*
Y19918D01*
G37*
G36*
Y29118D02*X188582D01*
Y25082D01*
X191418D01*
Y29118D01*
G37*
G36*
X201418D02*X198582D01*
Y25082D01*
X201418D01*
Y29118D01*
G37*
G36*
X206418D02*X203582D01*
Y25082D01*
X206418D01*
Y29118D01*
G37*
G36*
Y19918D02*X203582D01*
Y15882D01*
X206418D01*
Y19918D01*
G37*
G36*
X231418Y29118D02*X228582D01*
Y25082D01*
X231418D01*
Y29118D01*
G37*
G36*
X236418Y19918D02*X233582D01*
Y15882D01*
X236418D01*
Y19918D01*
G37*
G36*
X231418D02*X228582D01*
Y15882D01*
X231418D01*
Y19918D01*
G37*
G36*
X226418D02*X223582D01*
Y15882D01*
X226418D01*
Y19918D01*
G37*
G36*
Y29118D02*X223582D01*
Y25082D01*
X226418D01*
Y29118D01*
G37*
G36*
X236418D02*X233582D01*
Y25082D01*
X236418D01*
Y29118D01*
G37*
G36*
X241418D02*X238582D01*
Y25082D01*
X241418D01*
Y29118D01*
G37*
G36*
Y19918D02*X238582D01*
Y15882D01*
X241418D01*
Y19918D01*
G37*
G36*
X266418Y29118D02*X263582D01*
Y25082D01*
X266418D01*
Y29118D01*
G37*
G36*
X271418Y19918D02*X268582D01*
Y15882D01*
X271418D01*
Y19918D01*
G37*
G36*
X266418D02*X263582D01*
Y15882D01*
X266418D01*
Y19918D01*
G37*
G36*
X261418D02*X258582D01*
Y15882D01*
X261418D01*
Y19918D01*
G37*
G36*
Y29118D02*X258582D01*
Y25082D01*
X261418D01*
Y29118D01*
G37*
G36*
X271418D02*X268582D01*
Y25082D01*
X271418D01*
Y29118D01*
G37*
G36*
X276418D02*X273582D01*
Y25082D01*
X276418D01*
Y29118D01*
G37*
G36*
Y19918D02*X273582D01*
Y15882D01*
X276418D01*
Y19918D01*
G37*
G36*
X301418Y29118D02*X298582D01*
Y25082D01*
X301418D01*
Y29118D01*
G37*
G36*
X306418Y19918D02*X303582D01*
Y15882D01*
X306418D01*
Y19918D01*
G37*
G36*
X301418D02*X298582D01*
Y15882D01*
X301418D01*
Y19918D01*
G37*
G36*
X296418D02*X293582D01*
Y15882D01*
X296418D01*
Y19918D01*
G37*
G36*
Y29118D02*X293582D01*
Y25082D01*
X296418D01*
Y29118D01*
G37*
G36*
X306418D02*X303582D01*
Y25082D01*
X306418D01*
Y29118D01*
G37*
G36*
X311418D02*X308582D01*
Y25082D01*
X311418D01*
Y29118D01*
G37*
G36*
Y19918D02*X308582D01*
Y15882D01*
X311418D01*
Y19918D01*
G37*
G36*
X336418Y29118D02*X333582D01*
Y25082D01*
X336418D01*
Y29118D01*
G37*
G36*
X341418Y19918D02*X338582D01*
Y15882D01*
X341418D01*
Y19918D01*
G37*
G36*
X336418D02*X333582D01*
Y15882D01*
X336418D01*
Y19918D01*
G37*
G36*
X331418D02*X328582D01*
Y15882D01*
X331418D01*
Y19918D01*
G37*
G36*
Y29118D02*X328582D01*
Y25082D01*
X331418D01*
Y29118D01*
G37*
G36*
X341418D02*X338582D01*
Y25082D01*
X341418D01*
Y29118D01*
G37*
G36*
X346418D02*X343582D01*
Y25082D01*
X346418D01*
Y29118D01*
G37*
G36*
Y19918D02*X343582D01*
Y15882D01*
X346418D01*
Y19918D01*
G37*
G36*
X371418Y29118D02*X368582D01*
Y25082D01*
X371418D01*
Y29118D01*
G37*
G36*
X376418Y19918D02*X373582D01*
Y15882D01*
X376418D01*
Y19918D01*
G37*
G36*
X371418D02*X368582D01*
Y15882D01*
X371418D01*
Y19918D01*
G37*
G36*
X366418D02*X363582D01*
Y15882D01*
X366418D01*
Y19918D01*
G37*
G36*
Y29118D02*X363582D01*
Y25082D01*
X366418D01*
Y29118D01*
G37*
G36*
X376418D02*X373582D01*
Y25082D01*
X376418D01*
Y29118D01*
G37*
G36*
X381418D02*X378582D01*
Y25082D01*
X381418D01*
Y29118D01*
G37*
G36*
Y19918D02*X378582D01*
Y15882D01*
X381418D01*
Y19918D01*
G37*
G36*
X406418Y29118D02*X403582D01*
Y25082D01*
X406418D01*
Y29118D01*
G37*
G36*
X416418Y19918D02*X413582D01*
Y15882D01*
X416418D01*
Y19918D01*
G37*
G36*
X411418D02*X408582D01*
Y15882D01*
X411418D01*
Y19918D01*
G37*
G36*
X406418D02*X403582D01*
Y15882D01*
X406418D01*
Y19918D01*
G37*
G36*
X401418D02*X398582D01*
Y15882D01*
X401418D01*
Y19918D01*
G37*
G36*
Y29118D02*X398582D01*
Y25082D01*
X401418D01*
Y29118D01*
G37*
G36*
X411418D02*X408582D01*
Y25082D01*
X411418D01*
Y29118D01*
G37*
G36*
X416418D02*X413582D01*
Y25082D01*
X416418D01*
Y29118D01*
G37*
G54D18*X86500Y31000D03*
X121500D03*
X85000Y22500D03*
X100500Y22000D03*
X98500Y14000D03*
X86500D03*
X120000Y22500D03*
X135500Y22000D03*
X133500Y14000D03*
X121500D03*
X30500Y22000D03*
X28500Y14000D03*
X51500Y31000D03*
X50000Y22500D03*
X51500Y14000D03*
X16500Y31000D03*
X15000Y22500D03*
X16500Y14000D03*
X65500Y22000D03*
X63500Y14000D03*
X156500Y31000D03*
X191500D03*
X226500D03*
X155000Y22500D03*
X156500Y14000D03*
X170500Y22000D03*
X168500Y14000D03*
X190000Y22500D03*
X191500Y14000D03*
X205500Y22000D03*
X203500Y14000D03*
X225000Y22500D03*
X226500Y14000D03*
X240500Y22000D03*
X260000Y22500D03*
X275500Y22000D03*
X238500Y14000D03*
X273500D03*
X261500D03*
X308500D03*
X296500D03*
X295000Y22500D03*
X310500Y22000D03*
X330000Y22500D03*
X345500Y22000D03*
X343500Y14000D03*
X331500D03*
X366500Y31000D03*
X365000Y22500D03*
X380500Y22000D03*
X378500Y14000D03*
X366500D03*
X261500Y31000D03*
X296500D03*
X331500D03*
X401500D03*
X400000Y22500D03*
X415500Y22000D03*
X413500Y14000D03*
X401500D03*
G54D19*M02*
