G04 start of page 6 for group -4063 idx -4063 *
G04 Title: (unknown), componentmask *
G04 Creator: pcb 4.0.2 *
G04 CreationDate: Mon Aug 16 16:07:35 2021 UTC *
G04 For: ndholmes *
G04 Format: Gerber/RS-274X *
G04 PCB-Dimensions (mil): 4300.00 450.00 *
G04 PCB-Coordinate-Origin: lower left *
%MOIN*%
%FSLAX25Y25*%
%LNTOPMASK*%
%ADD22C,0.0001*%
G54D22*G36*
X95360Y28942D02*X92790D01*
Y24916D01*
X95360D01*
Y28942D01*
G37*
G36*
X92210D02*X89640D01*
Y24916D01*
X92210D01*
Y28942D01*
G37*
G36*
X89060D02*X86492D01*
Y24916D01*
X89060D01*
Y28942D01*
G37*
G36*
Y20478D02*X86492D01*
Y16058D01*
X89060D01*
Y20478D01*
G37*
G36*
X92210Y20084D02*X89640D01*
Y16058D01*
X92210D01*
Y20084D01*
G37*
G36*
X95360D02*X92790D01*
Y16058D01*
X95360D01*
Y20084D01*
G37*
G36*
X98508D02*X95940D01*
Y16058D01*
X98508D01*
Y20084D01*
G37*
G36*
Y28942D02*X95940D01*
Y24916D01*
X98508D01*
Y28942D01*
G37*
G36*
X130360D02*X127790D01*
Y24916D01*
X130360D01*
Y28942D01*
G37*
G36*
X127210D02*X124640D01*
Y24916D01*
X127210D01*
Y28942D01*
G37*
G36*
X124060D02*X121492D01*
Y24916D01*
X124060D01*
Y28942D01*
G37*
G36*
Y20478D02*X121492D01*
Y16058D01*
X124060D01*
Y20478D01*
G37*
G36*
X127210Y20084D02*X124640D01*
Y16058D01*
X127210D01*
Y20084D01*
G37*
G36*
X130360D02*X127790D01*
Y16058D01*
X130360D01*
Y20084D01*
G37*
G36*
X133508D02*X130940D01*
Y16058D01*
X133508D01*
Y20084D01*
G37*
G36*
Y28942D02*X130940D01*
Y24916D01*
X133508D01*
Y28942D01*
G37*
G36*
X28508Y20084D02*X25940D01*
Y16058D01*
X28508D01*
Y20084D01*
G37*
G36*
Y28942D02*X25940D01*
Y24916D01*
X28508D01*
Y28942D01*
G37*
G36*
X25360D02*X22790D01*
Y24916D01*
X25360D01*
Y28942D01*
G37*
G36*
X22210D02*X19640D01*
Y24916D01*
X22210D01*
Y28942D01*
G37*
G36*
X19060Y20478D02*X16492D01*
Y16058D01*
X19060D01*
Y20478D01*
G37*
G36*
X22210Y20084D02*X19640D01*
Y16058D01*
X22210D01*
Y20084D01*
G37*
G36*
X25360D02*X22790D01*
Y16058D01*
X25360D01*
Y20084D01*
G37*
G36*
X19060Y28942D02*X16492D01*
Y24916D01*
X19060D01*
Y28942D01*
G37*
G36*
X60360D02*X57790D01*
Y24916D01*
X60360D01*
Y28942D01*
G37*
G36*
X57210D02*X54640D01*
Y24916D01*
X57210D01*
Y28942D01*
G37*
G36*
X54060D02*X51492D01*
Y24916D01*
X54060D01*
Y28942D01*
G37*
G36*
Y20478D02*X51492D01*
Y16058D01*
X54060D01*
Y20478D01*
G37*
G36*
X57210Y20084D02*X54640D01*
Y16058D01*
X57210D01*
Y20084D01*
G37*
G36*
X60360D02*X57790D01*
Y16058D01*
X60360D01*
Y20084D01*
G37*
G36*
X63508D02*X60940D01*
Y16058D01*
X63508D01*
Y20084D01*
G37*
G36*
Y28942D02*X60940D01*
Y24916D01*
X63508D01*
Y28942D01*
G37*
G36*
X165360D02*X162790D01*
Y24916D01*
X165360D01*
Y28942D01*
G37*
G36*
X162210D02*X159640D01*
Y24916D01*
X162210D01*
Y28942D01*
G37*
G36*
X159060D02*X156492D01*
Y24916D01*
X159060D01*
Y28942D01*
G37*
G36*
Y20478D02*X156492D01*
Y16058D01*
X159060D01*
Y20478D01*
G37*
G36*
X162210Y20084D02*X159640D01*
Y16058D01*
X162210D01*
Y20084D01*
G37*
G36*
X165360D02*X162790D01*
Y16058D01*
X165360D01*
Y20084D01*
G37*
G36*
X168508D02*X165940D01*
Y16058D01*
X168508D01*
Y20084D01*
G37*
G36*
Y28942D02*X165940D01*
Y24916D01*
X168508D01*
Y28942D01*
G37*
G36*
X200360D02*X197790D01*
Y24916D01*
X200360D01*
Y28942D01*
G37*
G36*
X197210D02*X194640D01*
Y24916D01*
X197210D01*
Y28942D01*
G37*
G36*
X194060D02*X191492D01*
Y24916D01*
X194060D01*
Y28942D01*
G37*
G36*
Y20478D02*X191492D01*
Y16058D01*
X194060D01*
Y20478D01*
G37*
G36*
X197210Y20084D02*X194640D01*
Y16058D01*
X197210D01*
Y20084D01*
G37*
G36*
X200360D02*X197790D01*
Y16058D01*
X200360D01*
Y20084D01*
G37*
G36*
X203508D02*X200940D01*
Y16058D01*
X203508D01*
Y20084D01*
G37*
G36*
Y28942D02*X200940D01*
Y24916D01*
X203508D01*
Y28942D01*
G37*
G36*
X235359D02*X232791D01*
Y24916D01*
X235359D01*
Y28942D01*
G37*
G36*
X232209D02*X229641D01*
Y24916D01*
X232209D01*
Y28942D01*
G37*
G36*
X229060D02*X226492D01*
Y24916D01*
X229060D01*
Y28942D01*
G37*
G36*
Y20478D02*X226492D01*
Y16058D01*
X229060D01*
Y20478D01*
G37*
G36*
X232209Y20084D02*X229641D01*
Y16058D01*
X232209D01*
Y20084D01*
G37*
G36*
X235359D02*X232791D01*
Y16058D01*
X235359D01*
Y20084D01*
G37*
G36*
X238508D02*X235940D01*
Y16058D01*
X238508D01*
Y20084D01*
G37*
G36*
Y28942D02*X235940D01*
Y24916D01*
X238508D01*
Y28942D01*
G37*
G36*
X270360D02*X267790D01*
Y24916D01*
X270360D01*
Y28942D01*
G37*
G36*
X267210D02*X264640D01*
Y24916D01*
X267210D01*
Y28942D01*
G37*
G36*
X264060D02*X261492D01*
Y24916D01*
X264060D01*
Y28942D01*
G37*
G36*
Y20478D02*X261492D01*
Y16058D01*
X264060D01*
Y20478D01*
G37*
G36*
X267210Y20084D02*X264640D01*
Y16058D01*
X267210D01*
Y20084D01*
G37*
G36*
X270360D02*X267790D01*
Y16058D01*
X270360D01*
Y20084D01*
G37*
G36*
X273508D02*X270940D01*
Y16058D01*
X273508D01*
Y20084D01*
G37*
G36*
Y28942D02*X270940D01*
Y24916D01*
X273508D01*
Y28942D01*
G37*
G36*
X305360D02*X302790D01*
Y24916D01*
X305360D01*
Y28942D01*
G37*
G36*
X302210D02*X299640D01*
Y24916D01*
X302210D01*
Y28942D01*
G37*
G36*
X299060D02*X296492D01*
Y24916D01*
X299060D01*
Y28942D01*
G37*
G36*
Y20478D02*X296492D01*
Y16058D01*
X299060D01*
Y20478D01*
G37*
G36*
X302210Y20084D02*X299640D01*
Y16058D01*
X302210D01*
Y20084D01*
G37*
G36*
X305360D02*X302790D01*
Y16058D01*
X305360D01*
Y20084D01*
G37*
G36*
X308508D02*X305940D01*
Y16058D01*
X308508D01*
Y20084D01*
G37*
G36*
Y28942D02*X305940D01*
Y24916D01*
X308508D01*
Y28942D01*
G37*
G36*
X340360D02*X337790D01*
Y24916D01*
X340360D01*
Y28942D01*
G37*
G36*
X337210D02*X334640D01*
Y24916D01*
X337210D01*
Y28942D01*
G37*
G36*
X334060D02*X331492D01*
Y24916D01*
X334060D01*
Y28942D01*
G37*
G36*
Y20478D02*X331492D01*
Y16058D01*
X334060D01*
Y20478D01*
G37*
G36*
X337210Y20084D02*X334640D01*
Y16058D01*
X337210D01*
Y20084D01*
G37*
G36*
X340360D02*X337790D01*
Y16058D01*
X340360D01*
Y20084D01*
G37*
G36*
X343508D02*X340940D01*
Y16058D01*
X343508D01*
Y20084D01*
G37*
G36*
Y28942D02*X340940D01*
Y24916D01*
X343508D01*
Y28942D01*
G37*
G36*
X375360D02*X372790D01*
Y24916D01*
X375360D01*
Y28942D01*
G37*
G36*
X372210D02*X369640D01*
Y24916D01*
X372210D01*
Y28942D01*
G37*
G36*
X369060D02*X366492D01*
Y24916D01*
X369060D01*
Y28942D01*
G37*
G36*
Y20478D02*X366492D01*
Y16058D01*
X369060D01*
Y20478D01*
G37*
G36*
X372210Y20084D02*X369640D01*
Y16058D01*
X372210D01*
Y20084D01*
G37*
G36*
X375360D02*X372790D01*
Y16058D01*
X375360D01*
Y20084D01*
G37*
G36*
X378508D02*X375940D01*
Y16058D01*
X378508D01*
Y20084D01*
G37*
G36*
Y28942D02*X375940D01*
Y24916D01*
X378508D01*
Y28942D01*
G37*
G36*
X410360D02*X407790D01*
Y24916D01*
X410360D01*
Y28942D01*
G37*
G36*
X407210D02*X404640D01*
Y24916D01*
X407210D01*
Y28942D01*
G37*
G36*
X404060D02*X401492D01*
Y24916D01*
X404060D01*
Y28942D01*
G37*
G36*
Y20478D02*X401492D01*
Y16058D01*
X404060D01*
Y20478D01*
G37*
G36*
X407210Y20084D02*X404640D01*
Y16058D01*
X407210D01*
Y20084D01*
G37*
G36*
X410360D02*X407790D01*
Y16058D01*
X410360D01*
Y20084D01*
G37*
G36*
X413508D02*X410940D01*
Y16058D01*
X413508D01*
Y20084D01*
G37*
G36*
Y28942D02*X410940D01*
Y24916D01*
X413508D01*
Y28942D01*
G37*
M02*
