G04 start of page 8 for group -4079 idx -4079 *
G04 Title: (unknown), topsilk *
G04 Creator: pcb 4.0.2 *
G04 CreationDate: Mon Aug 16 16:07:35 2021 UTC *
G04 For: ndholmes *
G04 Format: Gerber/RS-274X *
G04 PCB-Dimensions (mil): 4300.00 450.00 *
G04 PCB-Coordinate-Origin: lower left *
%MOIN*%
%FSLAX25Y25*%
%LNTOPSILK*%
%ADD25C,0.0100*%
%ADD24C,0.0001*%
G54D24*G36*
X151500Y19500D02*X153500D01*
Y17000D01*
X151500D01*
Y19500D01*
G37*
G36*
X221500D02*X223500D01*
Y17000D01*
X221500D01*
Y19500D01*
G37*
G36*
X256500D02*X258500D01*
Y17000D01*
X256500D01*
Y19500D01*
G37*
G36*
X291500D02*X293500D01*
Y17000D01*
X291500D01*
Y19500D01*
G37*
G36*
X326500D02*X328500D01*
Y17000D01*
X326500D01*
Y19500D01*
G37*
G36*
X361500D02*X363500D01*
Y17000D01*
X361500D01*
Y19500D01*
G37*
G36*
X186500D02*X188500D01*
Y17000D01*
X186500D01*
Y19500D01*
G37*
G36*
X186000Y16500D02*X189000D01*
Y13500D01*
X186000Y16500D01*
G37*
G36*
X221000D02*X224000D01*
Y13500D01*
X221000Y16500D01*
G37*
G36*
X256000D02*X259000D01*
Y13500D01*
X256000Y16500D01*
G37*
G36*
X291000D02*X294000D01*
Y13500D01*
X291000Y16500D01*
G37*
G36*
X326000D02*X329000D01*
Y13500D01*
X326000Y16500D01*
G37*
G36*
X361000D02*X364000D01*
Y13500D01*
X361000Y16500D01*
G37*
G36*
X396500Y19500D02*X398500D01*
Y17000D01*
X396500D01*
Y19500D01*
G37*
G36*
X396000Y16500D02*X399000D01*
Y13500D01*
X396000Y16500D01*
G37*
G36*
X81500Y19500D02*X83500D01*
Y17000D01*
X81500D01*
Y19500D01*
G37*
G36*
X81000Y16500D02*X84000D01*
Y13500D01*
X81000Y16500D01*
G37*
G36*
X116500Y19500D02*X118500D01*
Y17000D01*
X116500D01*
Y19500D01*
G37*
G36*
X11500D02*X13500D01*
Y17000D01*
X11500D01*
Y19500D01*
G37*
G36*
X11000Y16500D02*X14000D01*
Y13500D01*
X11000Y16500D01*
G37*
G36*
X46500Y19500D02*X48500D01*
Y17000D01*
X46500D01*
Y19500D01*
G37*
G36*
X46000Y16500D02*X49000D01*
Y13500D01*
X46000Y16500D01*
G37*
G36*
X116000D02*X119000D01*
Y13500D01*
X116000Y16500D01*
G37*
G36*
X151000D02*X154000D01*
Y13500D01*
X151000Y16500D01*
G37*
G54D25*X89500Y30000D02*Y33500D01*
X80500Y28000D02*X87000Y34500D01*
X98000D02*X104500Y28000D01*
X89500Y15000D02*Y11500D01*
X98000Y10500D02*X104500Y17000D01*
X80500D02*X87000Y10500D01*
X124500Y15000D02*Y11500D01*
X133000Y10500D02*X139500Y17000D01*
X115500D02*X122000Y10500D01*
X124500Y30000D02*Y33500D01*
X115500Y28000D02*X122000Y34500D01*
X133000D02*X139500Y28000D01*
X159500Y30000D02*Y33500D01*
X150500Y28000D02*X157000Y34500D01*
X28000D02*X34500Y28000D01*
X28000Y10500D02*X34500Y17000D01*
X54500Y30000D02*Y33500D01*
Y15000D02*Y11500D01*
X45500Y28000D02*X52000Y34500D01*
X45500Y17000D02*X52000Y10500D01*
X19500Y30000D02*Y33500D01*
Y15000D02*Y11500D01*
X10500Y28000D02*X17000Y34500D01*
X10500Y17000D02*X17000Y10500D01*
X63000Y34500D02*X69500Y28000D01*
X63000Y10500D02*X69500Y17000D01*
X159500Y15000D02*Y11500D01*
X150500Y17000D02*X157000Y10500D01*
X168000Y34500D02*X174500Y28000D01*
X194500Y30000D02*Y33500D01*
X185500Y28000D02*X192000Y34500D01*
X168000Y10500D02*X174500Y17000D01*
X194500Y15000D02*Y11500D01*
X203000Y10500D02*X209500Y17000D01*
X185500D02*X192000Y10500D01*
X229500Y15000D02*Y11500D01*
X220500Y17000D02*X227000Y10500D01*
X203000Y34500D02*X209500Y28000D01*
X229500Y30000D02*Y33500D01*
X220500Y28000D02*X227000Y34500D01*
X238000D02*X244500Y28000D01*
X238000Y10500D02*X244500Y17000D01*
X273000Y10500D02*X279500Y17000D01*
X255500D02*X262000Y10500D01*
X264500Y30000D02*Y33500D01*
Y15000D02*Y11500D01*
X255500Y28000D02*X262000Y34500D01*
X273000D02*X279500Y28000D01*
X299500Y30000D02*Y33500D01*
X290500Y28000D02*X297000Y34500D01*
X299500Y15000D02*Y11500D01*
X308000Y10500D02*X314500Y17000D01*
X290500D02*X297000Y10500D01*
X308000Y34500D02*X314500Y28000D01*
X334500Y30000D02*Y33500D01*
X325500Y28000D02*X332000Y34500D01*
X343000D02*X349500Y28000D01*
X369500Y30000D02*Y33500D01*
X360500Y28000D02*X367000Y34500D01*
X334500Y15000D02*Y11500D01*
X343000Y10500D02*X349500Y17000D01*
X325500D02*X332000Y10500D01*
X369500Y15000D02*Y11500D01*
X360500Y17000D02*X367000Y10500D01*
X378000Y34500D02*X384500Y28000D01*
X404500Y30000D02*Y33500D01*
X395500Y28000D02*X402000Y34500D01*
X413000D02*X419500Y28000D01*
X378000Y10500D02*X384500Y17000D01*
X404500Y15000D02*Y11500D01*
X413000Y10500D02*X419500Y17000D01*
X395500D02*X402000Y10500D01*
X154823Y29587D02*Y15413D01*
Y29587D02*X170177D01*
Y15413D01*
X154823D02*X170177D01*
X189823Y29587D02*Y15413D01*
Y29587D02*X205177D01*
Y15413D01*
X189823D02*X205177D01*
X224823Y29587D02*Y15413D01*
Y29587D02*X240177D01*
Y15413D01*
X224823D02*X240177D01*
X259823Y29587D02*Y15413D01*
Y29587D02*X275177D01*
Y15413D01*
X259823D02*X275177D01*
X294823Y29587D02*Y15413D01*
Y29587D02*X310177D01*
Y15413D01*
X294823D02*X310177D01*
X329823Y29587D02*Y15413D01*
Y29587D02*X345177D01*
Y15413D01*
X329823D02*X345177D01*
X364823Y29587D02*Y15413D01*
Y29587D02*X380177D01*
Y15413D01*
X364823D02*X380177D01*
X399823Y29587D02*Y15413D01*
Y29587D02*X415177D01*
Y15413D01*
X399823D02*X415177D01*
X84823Y29587D02*Y15413D01*
Y29587D02*X100177D01*
Y15413D01*
X84823D02*X100177D01*
X119823Y29587D02*Y15413D01*
Y29587D02*X135177D01*
Y15413D01*
X119823D02*X135177D01*
X14823Y29587D02*Y15413D01*
Y29587D02*X30177D01*
Y15413D01*
X14823D02*X30177D01*
X49823Y29587D02*Y15413D01*
Y29587D02*X65177D01*
Y15413D01*
X49823D02*X65177D01*
M02*
