G04 start of page 2 for group 0 idx 0 *
G04 Title: (unknown), top *
G04 Creator: pcb 4.0.2 *
G04 CreationDate: Mon Aug 16 16:07:35 2021 UTC *
G04 For: ndholmes *
G04 Format: Gerber/RS-274X *
G04 PCB-Dimensions (mil): 4300.00 450.00 *
G04 PCB-Coordinate-Origin: lower left *
%MOIN*%
%FSLAX25Y25*%
%LNTOP*%
%ADD15C,0.0130*%
%ADD14C,0.0270*%
%ADD13C,0.0001*%
%ADD12C,0.0200*%
%ADD11C,0.0100*%
G54D11*X97224Y25724D02*Y26929D01*
G54D12*X100500Y22000D02*Y19000D01*
G54D11*X95400Y23900D02*X97224Y25724D01*
X92500Y31000D02*X86500D01*
X94075Y29425D02*X92500Y31000D01*
X94075Y26929D02*Y29425D01*
G54D12*X93500Y21500D02*X88500D01*
X87776Y20776D01*
G54D11*X86400Y23900D02*X95400D01*
X84000Y18500D02*X87776D01*
X82500Y20000D02*X84000Y18500D01*
X82500Y25500D02*Y20000D01*
X83929Y26929D02*X82500Y25500D01*
X87776Y26929D02*X83929D01*
X86400Y23900D02*X85000Y22500D01*
G54D12*X99571Y18071D02*X97224D01*
X100500Y19000D02*X99571Y18071D01*
X94075Y15425D02*Y20925D01*
X98500Y14000D02*X95500D01*
X94075Y20925D02*X93500Y21500D01*
X95500Y14000D02*X94075Y15425D01*
X87776Y20776D02*Y18268D01*
X89500Y14000D02*X86500D01*
X90925Y15425D02*X89500Y14000D01*
X90925Y18071D02*Y15425D01*
G54D11*X132224Y25724D02*Y26929D01*
X130400Y23900D02*X132224Y25724D01*
X129075Y29425D02*X127500Y31000D01*
X129075Y26929D02*Y29425D01*
G54D12*X134571Y18071D02*X132224D01*
X135500Y19000D02*X134571Y18071D01*
X129075Y15425D02*Y20925D01*
X135500Y22000D02*Y19000D01*
X133500Y14000D02*X130500D01*
X129075Y20925D02*X128500Y21500D01*
X130500Y14000D02*X129075Y15425D01*
G54D11*X119000Y18500D02*X122776D01*
G54D12*Y20776D02*Y18268D01*
X124500Y14000D02*X121500D01*
X125925Y15425D02*X124500Y14000D01*
X125925Y18071D02*Y15425D01*
G54D11*X117500Y20000D02*X119000Y18500D01*
X117500Y25500D02*Y20000D01*
X118929Y26929D02*X117500Y25500D01*
X121400Y23900D02*X130400D01*
X122776Y26929D02*X118929D01*
X121400Y23900D02*X120000Y22500D01*
X127500Y31000D02*X121500D01*
G54D12*X128500Y21500D02*X123500D01*
X122776Y20776D01*
G54D11*X27224Y25724D02*Y26929D01*
X25400Y23900D02*X27224Y25724D01*
X24075Y29425D02*X22500Y31000D01*
X24075Y26929D02*Y29425D01*
G54D12*Y20925D02*X23500Y21500D01*
G54D11*X14000Y18500D02*X17776D01*
G54D12*Y20776D02*Y18268D01*
X19500Y14000D02*X16500D01*
X20925Y15425D02*X19500Y14000D01*
X20925Y18071D02*Y15425D01*
G54D11*X12500Y20000D02*X14000Y18500D01*
X12500Y25500D02*Y20000D01*
X13929Y26929D02*X12500Y25500D01*
X16400Y23900D02*X25400D01*
X17776Y26929D02*X13929D01*
X16400Y23900D02*X15000Y22500D01*
X22500Y31000D02*X16500D01*
G54D12*X23500Y21500D02*X18500D01*
X17776Y20776D01*
X29571Y18071D02*X27224D01*
X30500Y19000D02*X29571Y18071D01*
X24075Y15425D02*Y20925D01*
X30500Y22000D02*Y19000D01*
X28500Y14000D02*X25500D01*
X24075Y15425D01*
G54D11*X62224Y25724D02*Y26929D01*
X51400Y23900D02*X60400D01*
X57500Y31000D02*X51500D01*
X59075Y29425D02*X57500Y31000D01*
X59075Y26929D02*Y29425D01*
X60400Y23900D02*X62224Y25724D01*
G54D12*X65500Y22000D02*Y19000D01*
X59075Y20925D02*X58500Y21500D01*
G54D11*X49000Y18500D02*X52776D01*
X47500Y20000D02*X49000Y18500D01*
X47500Y25500D02*Y20000D01*
X48929Y26929D02*X47500Y25500D01*
X52776Y26929D02*X48929D01*
X51400Y23900D02*X50000Y22500D01*
G54D12*X64571Y18071D02*X62224D01*
X65500Y19000D02*X64571Y18071D01*
X59075Y15425D02*Y20925D01*
X63500Y14000D02*X60500D01*
X59075Y15425D01*
X58500Y21500D02*X53500D01*
X52776Y20776D02*Y18268D01*
X54500Y14000D02*X51500D01*
X55925Y15425D02*X54500Y14000D01*
X55925Y18071D02*Y15425D01*
X53500Y21500D02*X52776Y20776D01*
G54D11*X167224Y25724D02*Y26929D01*
X165400Y23900D02*X167224Y25724D01*
X164075Y29425D02*X162500Y31000D01*
X164075Y26929D02*Y29425D01*
G54D12*X169571Y18071D02*X167224D01*
X170500Y19000D02*X169571Y18071D01*
X164075Y15425D02*Y20925D01*
X170500Y22000D02*Y19000D01*
X168500Y14000D02*X165500D01*
X164075Y20925D02*X163500Y21500D01*
X165500Y14000D02*X164075Y15425D01*
G54D11*X154000Y18500D02*X157776D01*
G54D12*Y20776D02*Y18268D01*
X159500Y14000D02*X156500D01*
X160925Y15425D02*X159500Y14000D01*
X160925Y18071D02*Y15425D01*
G54D11*X152500Y20000D02*X154000Y18500D01*
X152500Y25500D02*Y20000D01*
X153929Y26929D02*X152500Y25500D01*
X156400Y23900D02*X165400D01*
X157776Y26929D02*X153929D01*
X156400Y23900D02*X155000Y22500D01*
X162500Y31000D02*X156500D01*
G54D12*X163500Y21500D02*X158500D01*
X157776Y20776D01*
G54D11*X202224Y25724D02*Y26929D01*
X200400Y23900D02*X202224Y25724D01*
X199075Y29425D02*X197500Y31000D01*
X199075Y26929D02*Y29425D01*
G54D12*X204571Y18071D02*X202224D01*
X205500Y19000D02*X204571Y18071D01*
X199075Y15425D02*Y20925D01*
X205500Y22000D02*Y19000D01*
X203500Y14000D02*X200500D01*
X199075Y20925D02*X198500Y21500D01*
X200500Y14000D02*X199075Y15425D01*
G54D11*X189000Y18500D02*X192776D01*
G54D12*Y20776D02*Y18268D01*
X194500Y14000D02*X191500D01*
X195925Y15425D02*X194500Y14000D01*
X195925Y18071D02*Y15425D01*
G54D11*X187500Y20000D02*X189000Y18500D01*
X187500Y25500D02*Y20000D01*
X188929Y26929D02*X187500Y25500D01*
X191400Y23900D02*X200400D01*
X192776Y26929D02*X188929D01*
X191400Y23900D02*X190000Y22500D01*
X197500Y31000D02*X191500D01*
G54D12*X198500Y21500D02*X193500D01*
X192776Y20776D01*
G54D11*X237224Y25724D02*Y26929D01*
X235400Y23900D02*X237224Y25724D01*
X234075Y29425D02*X232500Y31000D01*
X234075Y26929D02*Y29425D01*
G54D12*X239571Y18071D02*X237224D01*
X240500Y19000D02*X239571Y18071D01*
X234075Y15425D02*Y20925D01*
X240500Y22000D02*Y19000D01*
X238500Y14000D02*X235500D01*
X234075Y20925D02*X233500Y21500D01*
X235500Y14000D02*X234075Y15425D01*
G54D11*X224000Y18500D02*X227776D01*
G54D12*Y20776D02*Y18268D01*
X229500Y14000D02*X226500D01*
X230925Y15425D02*X229500Y14000D01*
X230925Y18071D02*Y15425D01*
G54D11*X222500Y20000D02*X224000Y18500D01*
X222500Y25500D02*Y20000D01*
X223929Y26929D02*X222500Y25500D01*
X226400Y23900D02*X235400D01*
X227776Y26929D02*X223929D01*
X226400Y23900D02*X225000Y22500D01*
X232500Y31000D02*X226500D01*
G54D12*X233500Y21500D02*X228500D01*
X227776Y20776D01*
G54D11*X272224Y25724D02*Y26929D01*
X270400Y23900D02*X272224Y25724D01*
X269075Y29425D02*X267500Y31000D01*
X269075Y26929D02*Y29425D01*
G54D12*X274571Y18071D02*X272224D01*
X275500Y19000D02*X274571Y18071D01*
X269075Y15425D02*Y20925D01*
X275500Y22000D02*Y19000D01*
X273500Y14000D02*X270500D01*
X269075Y20925D02*X268500Y21500D01*
X270500Y14000D02*X269075Y15425D01*
G54D11*X259000Y18500D02*X262776D01*
G54D12*Y20776D02*Y18268D01*
X264500Y14000D02*X261500D01*
X265925Y15425D02*X264500Y14000D01*
X265925Y18071D02*Y15425D01*
G54D11*X257500Y20000D02*X259000Y18500D01*
X257500Y25500D02*Y20000D01*
X258929Y26929D02*X257500Y25500D01*
X261400Y23900D02*X270400D01*
X262776Y26929D02*X258929D01*
X261400Y23900D02*X260000Y22500D01*
X267500Y31000D02*X261500D01*
G54D12*X268500Y21500D02*X263500D01*
X262776Y20776D01*
G54D11*X307224Y25724D02*Y26929D01*
X305400Y23900D02*X307224Y25724D01*
X304075Y29425D02*X302500Y31000D01*
X304075Y26929D02*Y29425D01*
G54D12*X309571Y18071D02*X307224D01*
X310500Y19000D02*X309571Y18071D01*
X304075Y15425D02*Y20925D01*
X310500Y22000D02*Y19000D01*
X308500Y14000D02*X305500D01*
X304075Y20925D02*X303500Y21500D01*
X305500Y14000D02*X304075Y15425D01*
G54D11*X294000Y18500D02*X297776D01*
G54D12*Y20776D02*Y18268D01*
X299500Y14000D02*X296500D01*
X300925Y15425D02*X299500Y14000D01*
X300925Y18071D02*Y15425D01*
G54D11*X292500Y20000D02*X294000Y18500D01*
X292500Y25500D02*Y20000D01*
X293929Y26929D02*X292500Y25500D01*
X296400Y23900D02*X305400D01*
X297776Y26929D02*X293929D01*
X296400Y23900D02*X295000Y22500D01*
X302500Y31000D02*X296500D01*
G54D12*X303500Y21500D02*X298500D01*
X297776Y20776D01*
G54D11*X342224Y25724D02*Y26929D01*
X340400Y23900D02*X342224Y25724D01*
X339075Y29425D02*X337500Y31000D01*
X339075Y26929D02*Y29425D01*
G54D12*X344571Y18071D02*X342224D01*
X345500Y19000D02*X344571Y18071D01*
X339075Y15425D02*Y20925D01*
X345500Y22000D02*Y19000D01*
X343500Y14000D02*X340500D01*
X339075Y20925D02*X338500Y21500D01*
X340500Y14000D02*X339075Y15425D01*
G54D11*X329000Y18500D02*X332776D01*
G54D12*Y20776D02*Y18268D01*
X334500Y14000D02*X331500D01*
X335925Y15425D02*X334500Y14000D01*
X335925Y18071D02*Y15425D01*
G54D11*X327500Y20000D02*X329000Y18500D01*
X327500Y25500D02*Y20000D01*
X328929Y26929D02*X327500Y25500D01*
X331400Y23900D02*X340400D01*
X332776Y26929D02*X328929D01*
X331400Y23900D02*X330000Y22500D01*
X337500Y31000D02*X331500D01*
G54D12*X338500Y21500D02*X333500D01*
X332776Y20776D01*
G54D11*X377224Y25724D02*Y26929D01*
X375400Y23900D02*X377224Y25724D01*
X374075Y29425D02*X372500Y31000D01*
X374075Y26929D02*Y29425D01*
G54D12*X379571Y18071D02*X377224D01*
X380500Y19000D02*X379571Y18071D01*
X374075Y15425D02*Y20925D01*
X380500Y22000D02*Y19000D01*
X378500Y14000D02*X375500D01*
X374075Y20925D02*X373500Y21500D01*
X375500Y14000D02*X374075Y15425D01*
G54D11*X364000Y18500D02*X367776D01*
G54D12*Y20776D02*Y18268D01*
X369500Y14000D02*X366500D01*
X370925Y15425D02*X369500Y14000D01*
X370925Y18071D02*Y15425D01*
G54D11*X362500Y20000D02*X364000Y18500D01*
X362500Y25500D02*Y20000D01*
X363929Y26929D02*X362500Y25500D01*
X366400Y23900D02*X375400D01*
X367776Y26929D02*X363929D01*
X366400Y23900D02*X365000Y22500D01*
X372500Y31000D02*X366500D01*
G54D12*X373500Y21500D02*X368500D01*
X367776Y20776D01*
G54D11*X412224Y25724D02*Y26929D01*
X410400Y23900D02*X412224Y25724D01*
X409075Y29425D02*X407500Y31000D01*
X409075Y26929D02*Y29425D01*
G54D12*X414571Y18071D02*X412224D01*
X415500Y19000D02*X414571Y18071D01*
X409075Y15425D02*Y20925D01*
X415500Y22000D02*Y19000D01*
X413500Y14000D02*X410500D01*
X409075Y20925D02*X408500Y21500D01*
X410500Y14000D02*X409075Y15425D01*
G54D11*X399000Y18500D02*X402776D01*
G54D12*Y20776D02*Y18268D01*
X404500Y14000D02*X401500D01*
X405925Y15425D02*X404500Y14000D01*
X405925Y18071D02*Y15425D01*
G54D11*X397500Y20000D02*X399000Y18500D01*
X397500Y25500D02*Y20000D01*
X398929Y26929D02*X397500Y25500D01*
X401400Y23900D02*X410400D01*
X402776Y26929D02*X398929D01*
X401400Y23900D02*X400000Y22500D01*
X407500Y31000D02*X401500D01*
G54D12*X408500Y21500D02*X403500D01*
X402776Y20776D01*
G54D13*G36*
X95060Y28642D02*X93090D01*
Y25216D01*
X95060D01*
Y28642D01*
G37*
G36*
X91910D02*X89940D01*
Y25216D01*
X91910D01*
Y28642D01*
G37*
G36*
X88760D02*X86792D01*
Y25216D01*
X88760D01*
Y28642D01*
G37*
G36*
Y20178D02*X86792D01*
Y16358D01*
X88760D01*
Y20178D01*
G37*
G36*
X91910Y19784D02*X89940D01*
Y16358D01*
X91910D01*
Y19784D01*
G37*
G36*
X95060D02*X93090D01*
Y16358D01*
X95060D01*
Y19784D01*
G37*
G36*
X98208D02*X96240D01*
Y16358D01*
X98208D01*
Y19784D01*
G37*
G36*
Y28642D02*X96240D01*
Y25216D01*
X98208D01*
Y28642D01*
G37*
G36*
X130060D02*X128090D01*
Y25216D01*
X130060D01*
Y28642D01*
G37*
G36*
X126910D02*X124940D01*
Y25216D01*
X126910D01*
Y28642D01*
G37*
G36*
X123760D02*X121792D01*
Y25216D01*
X123760D01*
Y28642D01*
G37*
G36*
Y20178D02*X121792D01*
Y16358D01*
X123760D01*
Y20178D01*
G37*
G36*
X126910Y19784D02*X124940D01*
Y16358D01*
X126910D01*
Y19784D01*
G37*
G36*
X130060D02*X128090D01*
Y16358D01*
X130060D01*
Y19784D01*
G37*
G36*
X133208D02*X131240D01*
Y16358D01*
X133208D01*
Y19784D01*
G37*
G36*
Y28642D02*X131240D01*
Y25216D01*
X133208D01*
Y28642D01*
G37*
G36*
X28208Y19784D02*X26240D01*
Y16358D01*
X28208D01*
Y19784D01*
G37*
G36*
Y28642D02*X26240D01*
Y25216D01*
X28208D01*
Y28642D01*
G37*
G36*
X25060D02*X23090D01*
Y25216D01*
X25060D01*
Y28642D01*
G37*
G36*
X21910D02*X19940D01*
Y25216D01*
X21910D01*
Y28642D01*
G37*
G36*
X18760Y20178D02*X16792D01*
Y16358D01*
X18760D01*
Y20178D01*
G37*
G36*
X21910Y19784D02*X19940D01*
Y16358D01*
X21910D01*
Y19784D01*
G37*
G36*
X25060D02*X23090D01*
Y16358D01*
X25060D01*
Y19784D01*
G37*
G36*
X18760Y28642D02*X16792D01*
Y25216D01*
X18760D01*
Y28642D01*
G37*
G36*
X60060D02*X58090D01*
Y25216D01*
X60060D01*
Y28642D01*
G37*
G36*
X56910D02*X54940D01*
Y25216D01*
X56910D01*
Y28642D01*
G37*
G36*
X53760D02*X51792D01*
Y25216D01*
X53760D01*
Y28642D01*
G37*
G36*
Y20178D02*X51792D01*
Y16358D01*
X53760D01*
Y20178D01*
G37*
G36*
X56910Y19784D02*X54940D01*
Y16358D01*
X56910D01*
Y19784D01*
G37*
G36*
X60060D02*X58090D01*
Y16358D01*
X60060D01*
Y19784D01*
G37*
G36*
X63208D02*X61240D01*
Y16358D01*
X63208D01*
Y19784D01*
G37*
G36*
Y28642D02*X61240D01*
Y25216D01*
X63208D01*
Y28642D01*
G37*
G36*
X165060D02*X163090D01*
Y25216D01*
X165060D01*
Y28642D01*
G37*
G36*
X161910D02*X159940D01*
Y25216D01*
X161910D01*
Y28642D01*
G37*
G36*
X158760D02*X156792D01*
Y25216D01*
X158760D01*
Y28642D01*
G37*
G36*
Y20178D02*X156792D01*
Y16358D01*
X158760D01*
Y20178D01*
G37*
G36*
X161910Y19784D02*X159940D01*
Y16358D01*
X161910D01*
Y19784D01*
G37*
G36*
X165060D02*X163090D01*
Y16358D01*
X165060D01*
Y19784D01*
G37*
G36*
X168208D02*X166240D01*
Y16358D01*
X168208D01*
Y19784D01*
G37*
G36*
Y28642D02*X166240D01*
Y25216D01*
X168208D01*
Y28642D01*
G37*
G36*
X200060D02*X198090D01*
Y25216D01*
X200060D01*
Y28642D01*
G37*
G36*
X196910D02*X194940D01*
Y25216D01*
X196910D01*
Y28642D01*
G37*
G36*
X193760D02*X191792D01*
Y25216D01*
X193760D01*
Y28642D01*
G37*
G36*
Y20178D02*X191792D01*
Y16358D01*
X193760D01*
Y20178D01*
G37*
G36*
X196910Y19784D02*X194940D01*
Y16358D01*
X196910D01*
Y19784D01*
G37*
G36*
X200060D02*X198090D01*
Y16358D01*
X200060D01*
Y19784D01*
G37*
G36*
X203208D02*X201240D01*
Y16358D01*
X203208D01*
Y19784D01*
G37*
G36*
Y28642D02*X201240D01*
Y25216D01*
X203208D01*
Y28642D01*
G37*
G36*
X235059D02*X233091D01*
Y25216D01*
X235059D01*
Y28642D01*
G37*
G36*
X231909D02*X229941D01*
Y25216D01*
X231909D01*
Y28642D01*
G37*
G36*
X228760D02*X226792D01*
Y25216D01*
X228760D01*
Y28642D01*
G37*
G36*
Y20178D02*X226792D01*
Y16358D01*
X228760D01*
Y20178D01*
G37*
G36*
X231909Y19784D02*X229941D01*
Y16358D01*
X231909D01*
Y19784D01*
G37*
G36*
X235059D02*X233091D01*
Y16358D01*
X235059D01*
Y19784D01*
G37*
G36*
X238208D02*X236240D01*
Y16358D01*
X238208D01*
Y19784D01*
G37*
G36*
Y28642D02*X236240D01*
Y25216D01*
X238208D01*
Y28642D01*
G37*
G36*
X270060D02*X268090D01*
Y25216D01*
X270060D01*
Y28642D01*
G37*
G36*
X266910D02*X264940D01*
Y25216D01*
X266910D01*
Y28642D01*
G37*
G36*
X263760D02*X261792D01*
Y25216D01*
X263760D01*
Y28642D01*
G37*
G36*
Y20178D02*X261792D01*
Y16358D01*
X263760D01*
Y20178D01*
G37*
G36*
X266910Y19784D02*X264940D01*
Y16358D01*
X266910D01*
Y19784D01*
G37*
G36*
X270060D02*X268090D01*
Y16358D01*
X270060D01*
Y19784D01*
G37*
G36*
X273208D02*X271240D01*
Y16358D01*
X273208D01*
Y19784D01*
G37*
G36*
Y28642D02*X271240D01*
Y25216D01*
X273208D01*
Y28642D01*
G37*
G36*
X305060D02*X303090D01*
Y25216D01*
X305060D01*
Y28642D01*
G37*
G36*
X301910D02*X299940D01*
Y25216D01*
X301910D01*
Y28642D01*
G37*
G36*
X298760D02*X296792D01*
Y25216D01*
X298760D01*
Y28642D01*
G37*
G36*
Y20178D02*X296792D01*
Y16358D01*
X298760D01*
Y20178D01*
G37*
G36*
X301910Y19784D02*X299940D01*
Y16358D01*
X301910D01*
Y19784D01*
G37*
G36*
X305060D02*X303090D01*
Y16358D01*
X305060D01*
Y19784D01*
G37*
G36*
X308208D02*X306240D01*
Y16358D01*
X308208D01*
Y19784D01*
G37*
G36*
Y28642D02*X306240D01*
Y25216D01*
X308208D01*
Y28642D01*
G37*
G36*
X340060D02*X338090D01*
Y25216D01*
X340060D01*
Y28642D01*
G37*
G36*
X336910D02*X334940D01*
Y25216D01*
X336910D01*
Y28642D01*
G37*
G36*
X333760D02*X331792D01*
Y25216D01*
X333760D01*
Y28642D01*
G37*
G36*
Y20178D02*X331792D01*
Y16358D01*
X333760D01*
Y20178D01*
G37*
G36*
X336910Y19784D02*X334940D01*
Y16358D01*
X336910D01*
Y19784D01*
G37*
G36*
X340060D02*X338090D01*
Y16358D01*
X340060D01*
Y19784D01*
G37*
G36*
X343208D02*X341240D01*
Y16358D01*
X343208D01*
Y19784D01*
G37*
G36*
Y28642D02*X341240D01*
Y25216D01*
X343208D01*
Y28642D01*
G37*
G36*
X375060D02*X373090D01*
Y25216D01*
X375060D01*
Y28642D01*
G37*
G36*
X371910D02*X369940D01*
Y25216D01*
X371910D01*
Y28642D01*
G37*
G36*
X368760D02*X366792D01*
Y25216D01*
X368760D01*
Y28642D01*
G37*
G36*
Y20178D02*X366792D01*
Y16358D01*
X368760D01*
Y20178D01*
G37*
G36*
X371910Y19784D02*X369940D01*
Y16358D01*
X371910D01*
Y19784D01*
G37*
G36*
X375060D02*X373090D01*
Y16358D01*
X375060D01*
Y19784D01*
G37*
G36*
X378208D02*X376240D01*
Y16358D01*
X378208D01*
Y19784D01*
G37*
G36*
Y28642D02*X376240D01*
Y25216D01*
X378208D01*
Y28642D01*
G37*
G36*
X410060D02*X408090D01*
Y25216D01*
X410060D01*
Y28642D01*
G37*
G36*
X406910D02*X404940D01*
Y25216D01*
X406910D01*
Y28642D01*
G37*
G36*
X403760D02*X401792D01*
Y25216D01*
X403760D01*
Y28642D01*
G37*
G36*
Y20178D02*X401792D01*
Y16358D01*
X403760D01*
Y20178D01*
G37*
G36*
X406910Y19784D02*X404940D01*
Y16358D01*
X406910D01*
Y19784D01*
G37*
G36*
X410060D02*X408090D01*
Y16358D01*
X410060D01*
Y19784D01*
G37*
G36*
X413208D02*X411240D01*
Y16358D01*
X413208D01*
Y19784D01*
G37*
G36*
Y28642D02*X411240D01*
Y25216D01*
X413208D01*
Y28642D01*
G37*
G54D14*X86500Y31000D03*
X121500D03*
X85000Y22500D03*
X100500Y22000D03*
X98500Y14000D03*
X86500D03*
X120000Y22500D03*
X135500Y22000D03*
X133500Y14000D03*
X121500D03*
X30500Y22000D03*
X28500Y14000D03*
X51500Y31000D03*
X50000Y22500D03*
X51500Y14000D03*
X16500Y31000D03*
X15000Y22500D03*
X16500Y14000D03*
X65500Y22000D03*
X63500Y14000D03*
X156500Y31000D03*
X191500D03*
X226500D03*
X155000Y22500D03*
X156500Y14000D03*
X170500Y22000D03*
X168500Y14000D03*
X190000Y22500D03*
X191500Y14000D03*
X205500Y22000D03*
X203500Y14000D03*
X225000Y22500D03*
X226500Y14000D03*
X240500Y22000D03*
X260000Y22500D03*
X275500Y22000D03*
X238500Y14000D03*
X273500D03*
X261500D03*
X308500D03*
X296500D03*
X295000Y22500D03*
X310500Y22000D03*
X330000Y22500D03*
X345500Y22000D03*
X343500Y14000D03*
X331500D03*
X366500Y31000D03*
X365000Y22500D03*
X380500Y22000D03*
X378500Y14000D03*
X366500D03*
X261500Y31000D03*
X296500D03*
X331500D03*
X401500D03*
X400000Y22500D03*
X415500Y22000D03*
X413500Y14000D03*
X401500D03*
G54D15*M02*
