G04 start of page 7 for group -4062 idx -4062 *
G04 Title: (unknown), soldermask *
G04 Creator: pcb 4.0.2 *
G04 CreationDate: Mon Aug 16 16:07:35 2021 UTC *
G04 For: ndholmes *
G04 Format: Gerber/RS-274X *
G04 PCB-Dimensions (mil): 4300.00 450.00 *
G04 PCB-Coordinate-Origin: lower left *
%MOIN*%
%FSLAX25Y25*%
%LNBOTTOMMASK*%
%ADD23C,0.0001*%
G54D23*G36*
X91718Y29418D02*X88282D01*
Y24782D01*
X91718D01*
Y29418D01*
G37*
G36*
X96718Y20218D02*X93282D01*
Y15582D01*
X96718D01*
Y20218D01*
G37*
G36*
X91718D02*X88282D01*
Y15582D01*
X91718D01*
Y20218D01*
G37*
G36*
X86718D02*X83282D01*
Y15582D01*
X86718D01*
Y20218D01*
G37*
G36*
Y29418D02*X83282D01*
Y24782D01*
X86718D01*
Y29418D01*
G37*
G36*
X96718D02*X93282D01*
Y24782D01*
X96718D01*
Y29418D01*
G37*
G36*
X101718D02*X98282D01*
Y24782D01*
X101718D01*
Y29418D01*
G37*
G36*
Y20218D02*X98282D01*
Y15582D01*
X101718D01*
Y20218D01*
G37*
G36*
X126718Y29418D02*X123282D01*
Y24782D01*
X126718D01*
Y29418D01*
G37*
G36*
X131718Y20218D02*X128282D01*
Y15582D01*
X131718D01*
Y20218D01*
G37*
G36*
X126718D02*X123282D01*
Y15582D01*
X126718D01*
Y20218D01*
G37*
G36*
X121718D02*X118282D01*
Y15582D01*
X121718D01*
Y20218D01*
G37*
G36*
Y29418D02*X118282D01*
Y24782D01*
X121718D01*
Y29418D01*
G37*
G36*
X131718D02*X128282D01*
Y24782D01*
X131718D01*
Y29418D01*
G37*
G36*
X136718D02*X133282D01*
Y24782D01*
X136718D01*
Y29418D01*
G37*
G36*
Y20218D02*X133282D01*
Y15582D01*
X136718D01*
Y20218D01*
G37*
G36*
X26718D02*X23282D01*
Y15582D01*
X26718D01*
Y20218D01*
G37*
G36*
Y29418D02*X23282D01*
Y24782D01*
X26718D01*
Y29418D01*
G37*
G36*
X16718Y20218D02*X13282D01*
Y15582D01*
X16718D01*
Y20218D01*
G37*
G36*
Y29418D02*X13282D01*
Y24782D01*
X16718D01*
Y29418D01*
G37*
G36*
X21718D02*X18282D01*
Y24782D01*
X21718D01*
Y29418D01*
G37*
G36*
X31718Y20218D02*X28282D01*
Y15582D01*
X31718D01*
Y20218D01*
G37*
G36*
Y29418D02*X28282D01*
Y24782D01*
X31718D01*
Y29418D01*
G37*
G36*
X21718Y20218D02*X18282D01*
Y15582D01*
X21718D01*
Y20218D01*
G37*
G36*
X56717Y29418D02*X53283D01*
Y24782D01*
X56717D01*
Y29418D01*
G37*
G36*
X61717Y20218D02*X58283D01*
Y15582D01*
X61717D01*
Y20218D01*
G37*
G36*
X56717D02*X53283D01*
Y15582D01*
X56717D01*
Y20218D01*
G37*
G36*
X51717D02*X48282D01*
Y15582D01*
X51717D01*
Y20218D01*
G37*
G36*
Y29418D02*X48282D01*
Y24782D01*
X51717D01*
Y29418D01*
G37*
G36*
X61717D02*X58283D01*
Y24782D01*
X61717D01*
Y29418D01*
G37*
G36*
X66718D02*X63283D01*
Y24782D01*
X66718D01*
Y29418D01*
G37*
G36*
Y20218D02*X63283D01*
Y15582D01*
X66718D01*
Y20218D01*
G37*
G36*
X161718Y29418D02*X158282D01*
Y24782D01*
X161718D01*
Y29418D01*
G37*
G36*
X166718Y20218D02*X163282D01*
Y15582D01*
X166718D01*
Y20218D01*
G37*
G36*
X161718D02*X158282D01*
Y15582D01*
X161718D01*
Y20218D01*
G37*
G36*
X156718D02*X153282D01*
Y15582D01*
X156718D01*
Y20218D01*
G37*
G36*
Y29418D02*X153282D01*
Y24782D01*
X156718D01*
Y29418D01*
G37*
G36*
X166718D02*X163282D01*
Y24782D01*
X166718D01*
Y29418D01*
G37*
G36*
X171718D02*X168282D01*
Y24782D01*
X171718D01*
Y29418D01*
G37*
G36*
Y20218D02*X168282D01*
Y15582D01*
X171718D01*
Y20218D01*
G37*
G36*
X196718Y29418D02*X193282D01*
Y24782D01*
X196718D01*
Y29418D01*
G37*
G36*
X201718Y20218D02*X198282D01*
Y15582D01*
X201718D01*
Y20218D01*
G37*
G36*
X196718D02*X193282D01*
Y15582D01*
X196718D01*
Y20218D01*
G37*
G36*
X191718D02*X188282D01*
Y15582D01*
X191718D01*
Y20218D01*
G37*
G36*
Y29418D02*X188282D01*
Y24782D01*
X191718D01*
Y29418D01*
G37*
G36*
X201718D02*X198282D01*
Y24782D01*
X201718D01*
Y29418D01*
G37*
G36*
X206718D02*X203282D01*
Y24782D01*
X206718D01*
Y29418D01*
G37*
G36*
Y20218D02*X203282D01*
Y15582D01*
X206718D01*
Y20218D01*
G37*
G36*
X231718Y29418D02*X228282D01*
Y24782D01*
X231718D01*
Y29418D01*
G37*
G36*
X236718Y20218D02*X233282D01*
Y15582D01*
X236718D01*
Y20218D01*
G37*
G36*
X231718D02*X228282D01*
Y15582D01*
X231718D01*
Y20218D01*
G37*
G36*
X226718D02*X223282D01*
Y15582D01*
X226718D01*
Y20218D01*
G37*
G36*
Y29418D02*X223282D01*
Y24782D01*
X226718D01*
Y29418D01*
G37*
G36*
X236718D02*X233282D01*
Y24782D01*
X236718D01*
Y29418D01*
G37*
G36*
X241718D02*X238282D01*
Y24782D01*
X241718D01*
Y29418D01*
G37*
G36*
Y20218D02*X238282D01*
Y15582D01*
X241718D01*
Y20218D01*
G37*
G36*
X266718Y29418D02*X263282D01*
Y24782D01*
X266718D01*
Y29418D01*
G37*
G36*
X271718Y20218D02*X268282D01*
Y15582D01*
X271718D01*
Y20218D01*
G37*
G36*
X266718D02*X263282D01*
Y15582D01*
X266718D01*
Y20218D01*
G37*
G36*
X261718D02*X258282D01*
Y15582D01*
X261718D01*
Y20218D01*
G37*
G36*
Y29418D02*X258282D01*
Y24782D01*
X261718D01*
Y29418D01*
G37*
G36*
X271718D02*X268282D01*
Y24782D01*
X271718D01*
Y29418D01*
G37*
G36*
X276718D02*X273282D01*
Y24782D01*
X276718D01*
Y29418D01*
G37*
G36*
Y20218D02*X273282D01*
Y15582D01*
X276718D01*
Y20218D01*
G37*
G36*
X301718Y29418D02*X298282D01*
Y24782D01*
X301718D01*
Y29418D01*
G37*
G36*
X306718Y20218D02*X303282D01*
Y15582D01*
X306718D01*
Y20218D01*
G37*
G36*
X301718D02*X298282D01*
Y15582D01*
X301718D01*
Y20218D01*
G37*
G36*
X296718D02*X293282D01*
Y15582D01*
X296718D01*
Y20218D01*
G37*
G36*
Y29418D02*X293282D01*
Y24782D01*
X296718D01*
Y29418D01*
G37*
G36*
X306718D02*X303282D01*
Y24782D01*
X306718D01*
Y29418D01*
G37*
G36*
X311718D02*X308282D01*
Y24782D01*
X311718D01*
Y29418D01*
G37*
G36*
Y20218D02*X308282D01*
Y15582D01*
X311718D01*
Y20218D01*
G37*
G36*
X336718Y29418D02*X333282D01*
Y24782D01*
X336718D01*
Y29418D01*
G37*
G36*
X341718Y20218D02*X338282D01*
Y15582D01*
X341718D01*
Y20218D01*
G37*
G36*
X336718D02*X333282D01*
Y15582D01*
X336718D01*
Y20218D01*
G37*
G36*
X331718D02*X328282D01*
Y15582D01*
X331718D01*
Y20218D01*
G37*
G36*
Y29418D02*X328282D01*
Y24782D01*
X331718D01*
Y29418D01*
G37*
G36*
X341718D02*X338282D01*
Y24782D01*
X341718D01*
Y29418D01*
G37*
G36*
X346718D02*X343282D01*
Y24782D01*
X346718D01*
Y29418D01*
G37*
G36*
Y20218D02*X343282D01*
Y15582D01*
X346718D01*
Y20218D01*
G37*
G36*
X371718Y29418D02*X368282D01*
Y24782D01*
X371718D01*
Y29418D01*
G37*
G36*
X376718Y20218D02*X373282D01*
Y15582D01*
X376718D01*
Y20218D01*
G37*
G36*
X371718D02*X368282D01*
Y15582D01*
X371718D01*
Y20218D01*
G37*
G36*
X366718D02*X363282D01*
Y15582D01*
X366718D01*
Y20218D01*
G37*
G36*
Y29418D02*X363282D01*
Y24782D01*
X366718D01*
Y29418D01*
G37*
G36*
X376718D02*X373282D01*
Y24782D01*
X376718D01*
Y29418D01*
G37*
G36*
X381718D02*X378282D01*
Y24782D01*
X381718D01*
Y29418D01*
G37*
G36*
Y20218D02*X378282D01*
Y15582D01*
X381718D01*
Y20218D01*
G37*
G36*
X406718Y29418D02*X403282D01*
Y24782D01*
X406718D01*
Y29418D01*
G37*
G36*
X416718Y20218D02*X413282D01*
Y15582D01*
X416718D01*
Y20218D01*
G37*
G36*
X411718D02*X408282D01*
Y15582D01*
X411718D01*
Y20218D01*
G37*
G36*
X406718D02*X403282D01*
Y15582D01*
X406718D01*
Y20218D01*
G37*
G36*
X401718D02*X398282D01*
Y15582D01*
X401718D01*
Y20218D01*
G37*
G36*
Y29418D02*X398282D01*
Y24782D01*
X401718D01*
Y29418D01*
G37*
G36*
X411718D02*X408282D01*
Y24782D01*
X411718D01*
Y29418D01*
G37*
G36*
X416718D02*X413282D01*
Y24782D01*
X416718D01*
Y29418D01*
G37*
M02*
