M48
INCH
T21C0.013
%
T21
X001500Y002250
X001650Y003100
X001650Y001400
X002850Y001400
X003050Y002200
X005000Y002250
X005150Y003100
X005150Y001400
X006350Y001400
X006550Y002200
X008500Y002250
X008650Y003100
X008650Y001400
X009850Y001400
X010050Y002200
X012000Y002250
X012150Y003100
X012150Y001400
X013350Y001400
X013550Y002200
X015500Y002250
X015650Y003100
X015650Y001400
X016850Y001400
X017050Y002200
X019000Y002250
X019150Y003100
X019150Y001400
X020350Y001400
X020550Y002200
X022500Y002250
X022650Y003100
X022650Y001400
X023850Y001400
X024050Y002200
X026000Y002250
X026150Y003100
X026150Y001400
X027350Y001400
X027550Y002200
X029500Y002250
X029650Y003100
X029650Y001400
X030850Y001400
X031050Y002200
X033000Y002250
X033150Y003100
X033150Y001400
X034350Y001400
X034550Y002200
X036500Y002250
X036650Y003100
X036650Y001400
X037850Y001400
X038050Y002200
X040000Y002250
X040150Y003100
X040150Y001400
X041350Y001400
X041550Y002200
M30
